<svg width="422" height="316" viewBox="0 0 422 316" fill="none" xmlns="http://www.w3.org/2000/svg">
<path d="M356.83 115.134C341.619 132.871 326.811 151.875 326.166 175.869C328.35 242.474 375.66 265.682 421.111 260.916L421.446 315.33C369.557 318.121 315.323 292 283.462 221.633C262.85 158.701 291.713 118.702 327.886 70.7143C345.65 33.5081 300.071 -4.75812 265.026 13.3925C193.975 82.8109 83.2068 71.0706 35.1514 0.000427246L102.274 0.178497C105.35 2.02658 108.618 3.78006 112.084 5.42902C141.094 20.0478 168.188 12.9948 193.128 0.419464L360.826 0.864288C386.246 32.8599 391.94 78.7252 356.83 115.134Z" fill="white"/>
<path d="M76.457 179.782V153.063H68.0977V152.868L69.6797 149.509H88.7227V149.704L87.1406 153.063H80.3633V178.024L76.6523 179.782H76.457ZM88.2344 179.782V163.376C88.2344 159.47 90.1875 157.517 94.0938 157.517H98.9766V157.712L97.4141 161.032H94.0938C92.7917 161.032 92.1406 161.813 92.1406 163.376V178.024L88.4297 179.782H88.2344ZM103.566 153.2C103.111 152.731 102.883 152.172 102.883 151.521C102.883 150.856 103.111 150.29 103.566 149.821C104.022 149.353 104.576 149.118 105.227 149.118C105.878 149.118 106.431 149.353 106.887 149.821C107.342 150.29 107.57 150.856 107.57 151.521C107.57 152.172 107.342 152.731 106.887 153.2C106.431 153.669 105.878 153.903 105.227 153.903C104.576 153.903 104.022 153.669 103.566 153.2ZM103.273 179.782V158.493L106.984 156.735H107.18V178.024L103.469 179.782H103.273ZM118.898 175.485H123C124.302 175.485 124.953 174.704 124.953 173.142V170.466C124.953 168.903 124.302 168.122 123 168.122H118.898C117.596 168.122 116.945 168.903 116.945 170.466V173.142C116.945 174.704 117.596 175.485 118.898 175.485ZM118.898 179.001C114.992 179.001 113.039 177.048 113.039 173.142V170.466C113.039 166.56 114.992 164.606 118.898 164.606H123C123.677 164.606 124.328 164.802 124.953 165.192V163.376C124.953 161.813 124.302 161.032 123 161.032H116.008V160.837L117.57 157.517H123C126.906 157.517 128.859 159.47 128.859 163.376V178.024L125.148 179.782H124.953V178.415C124.458 178.806 123.807 179.001 123 179.001H118.898ZM135.695 179.782V150.485L139.406 148.728H139.602V178.024L135.891 179.782H135.695ZM75.8125 188.024V200.524H84.4062C86.3594 200.524 87.3359 199.418 87.3359 197.204V191.345C87.3359 189.131 86.3594 188.024 84.4062 188.024H75.8125ZM71.9062 214.782V185.485L73.9766 184.509H84.4062C88.9635 184.509 91.2422 186.787 91.2422 191.345V197.204C91.2422 201.449 89.2695 203.715 85.3242 204.001L91.7109 213.161L88.2734 214.782H88.0781L80.5586 204.04H75.8125V213.024L72.1016 214.782H71.9062ZM102.453 210.485H106.945C108.247 210.485 108.898 209.704 108.898 208.142V198.376C108.898 196.813 108.247 196.032 106.945 196.032H102.453C101.151 196.032 100.5 196.813 100.5 198.376V208.142C100.5 209.704 101.151 210.485 102.453 210.485ZM102.453 214.001C98.5469 214.001 96.5938 212.048 96.5938 208.142V198.376C96.5938 194.47 98.5469 192.517 102.453 192.517H106.945C110.852 192.517 112.805 194.47 112.805 198.376V208.142C112.805 212.048 110.852 214.001 106.945 214.001H102.453ZM124.523 214.001C120.617 214.001 118.664 212.048 118.664 208.142V193.493L122.375 191.735H122.57V208.142C122.57 209.704 123.221 210.485 124.523 210.485H129.016C130.318 210.485 130.969 209.704 130.969 208.142V193.493L134.68 191.735H134.875V208.142C134.875 212.048 132.922 214.001 129.016 214.001H124.523ZM140.734 214.782V198.376C140.734 194.47 142.688 192.517 146.594 192.517H151.086C154.992 192.517 156.945 194.47 156.945 198.376V213.024L153.234 214.782H153.039V198.376C153.039 196.813 152.388 196.032 151.086 196.032H146.594C145.292 196.032 144.641 196.813 144.641 198.376V213.024L140.93 214.782H140.734ZM168.664 214.001C164.758 214.001 162.805 212.048 162.805 208.142V198.376C162.805 194.47 164.758 192.517 168.664 192.517H173.156C174.042 192.517 174.693 192.718 175.109 193.122V185.485L178.82 183.728H179.016V208.142C179.016 212.048 177.062 214.001 173.156 214.001H168.664ZM168.664 210.485H173.156C174.458 210.485 175.109 209.704 175.109 208.142V198.376C175.109 196.813 174.458 196.032 173.156 196.032H168.664C167.362 196.032 166.711 196.813 166.711 198.376V208.142C166.711 209.704 167.362 210.485 168.664 210.485Z" fill="white"/>
<path d="M12.48 178.961C9.42667 178.961 7.16667 178.234 5.7 176.781C4.24667 175.314 3.52 173.054 3.52 170.001V160.761C3.52 157.681 4.24667 155.414 5.7 153.961C7.16667 152.508 9.42667 151.801 12.48 151.841H14.88C17.9467 151.841 20.2067 152.568 21.66 154.021C23.1133 155.461 23.84 157.721 23.84 160.801V170.001C23.84 173.054 23.1133 175.314 21.66 176.781C20.2067 178.234 17.9467 178.961 14.88 178.961H12.48ZM12.48 175.601H14.88C16.3067 175.601 17.4267 175.428 18.24 175.081C19.0533 174.734 19.6267 174.154 19.96 173.341C20.3067 172.528 20.48 171.414 20.48 170.001V160.801C20.48 159.374 20.3067 158.254 19.96 157.441C19.6267 156.628 19.0533 156.054 18.24 155.721C17.4267 155.374 16.3067 155.201 14.88 155.201H12.48C11.0667 155.174 9.95333 155.328 9.14 155.661C8.32667 155.981 7.74667 156.554 7.4 157.381C7.05333 158.194 6.88 159.321 6.88 160.761V170.001C6.88 171.414 7.04667 172.528 7.38 173.341C7.72667 174.154 8.30667 174.734 9.12 175.081C9.93333 175.428 11.0533 175.601 12.48 175.601ZM13.2 167.361C12.1333 167.361 11.6 166.828 11.6 165.761V164.761C11.6 163.721 12.1333 163.201 13.2 163.201H14.16C15.1733 163.201 15.68 163.721 15.68 164.761V165.761C15.68 166.828 15.1733 167.361 14.16 167.361H13.2ZM44.8238 179.001C43.7038 179.001 43.1438 178.441 43.1438 177.321L43.1838 155.801L44.5038 154.841L32.6638 170.881L32.3838 170.041L48.8238 169.961C49.3704 169.961 49.7838 170.121 50.0638 170.441C50.3571 170.761 50.5038 171.161 50.5038 171.641C50.5038 172.761 49.9438 173.321 48.8238 173.321H30.7838C29.6638 173.321 29.1038 172.761 29.1038 171.641C29.1038 171.108 29.3304 170.521 29.7838 169.881L42.3438 152.921C42.6904 152.454 43.0438 152.168 43.4038 152.061C43.7771 151.941 44.2104 151.881 44.7038 151.881C45.9304 151.881 46.5438 152.441 46.5438 153.561L46.5038 177.321C46.5038 178.441 45.9438 179.001 44.8238 179.001Z" fill="#1FA1BB"/>
<path d="M70.4 251.002C70.2333 251.002 70.1033 250.955 70.01 250.862C69.9167 250.769 69.87 250.639 69.87 250.472V238.632C69.87 238.465 69.9167 238.335 70.01 238.242C70.1033 238.149 70.2333 238.102 70.4 238.102C70.56 238.102 70.6867 238.149 70.78 238.242C70.8733 238.335 70.92 238.465 70.92 238.632V250.472C70.92 250.639 70.8733 250.769 70.78 250.862C70.6867 250.955 70.56 251.002 70.4 251.002ZM75.1852 251.002C74.8318 251.002 74.6552 250.825 74.6552 250.472V242.072C74.6552 241.725 74.8318 241.552 75.1852 241.552C75.5318 241.552 75.7052 241.725 75.7052 242.072V243.032C76.3385 242.045 77.4852 241.552 79.1452 241.552H79.7052C80.9518 241.552 81.8618 241.842 82.4352 242.422C83.0152 242.995 83.3052 243.905 83.3052 245.152V250.472C83.3052 250.825 83.1318 251.002 82.7852 251.002C82.4318 251.002 82.2552 250.825 82.2552 250.472V245.152C82.2552 244.199 82.0652 243.535 81.6852 243.162C81.3118 242.789 80.6518 242.602 79.7052 242.602H79.1452C78.1118 242.602 77.2985 242.765 76.7052 243.092C76.1118 243.419 75.7785 243.929 75.7052 244.622V250.472C75.7052 250.825 75.5318 251.002 75.1852 251.002ZM90.7222 251.002C89.4955 251.002 88.5989 250.719 88.0322 250.152C87.4655 249.585 87.1822 248.692 87.1822 247.472V242.602H85.9922C85.6389 242.602 85.4622 242.425 85.4622 242.072C85.4622 241.725 85.6389 241.552 85.9922 241.552H87.1822V239.402C87.1822 239.049 87.3555 238.872 87.7022 238.872C88.0555 238.872 88.2322 239.049 88.2322 239.402V241.552H90.7422C91.0889 241.552 91.2622 241.725 91.2622 242.072C91.2622 242.425 91.0889 242.602 90.7422 242.602H88.2322V247.472C88.2322 248.405 88.4122 249.052 88.7722 249.412C89.1389 249.772 89.7889 249.952 90.7222 249.952C90.9155 249.952 91.0522 249.995 91.1322 250.082C91.2189 250.169 91.2622 250.299 91.2622 250.472C91.2622 250.825 91.0822 251.002 90.7222 251.002ZM94.0094 246.682V247.412C94.0094 248.352 94.196 249.012 94.5694 249.392C94.9494 249.765 95.616 249.952 96.5694 249.952H98.2094C99.0494 249.952 99.6594 249.845 100.039 249.632C100.426 249.412 100.656 249.035 100.729 248.502C100.756 248.335 100.809 248.209 100.889 248.122C100.976 248.035 101.106 247.992 101.279 247.992C101.453 247.992 101.583 248.042 101.669 248.142C101.763 248.235 101.799 248.369 101.779 248.542C101.693 249.382 101.356 250.002 100.769 250.402C100.183 250.802 99.3294 251.002 98.2094 251.002H96.5694C95.3227 251.002 94.4094 250.715 93.8294 250.142C93.2494 249.562 92.9594 248.652 92.9594 247.412V245.152C92.9594 243.892 93.2494 242.975 93.8294 242.402C94.4094 241.822 95.3227 241.539 96.5694 241.552H98.2094C99.456 241.552 100.366 241.842 100.939 242.422C101.519 242.995 101.809 243.905 101.809 245.152V246.152C101.809 246.505 101.636 246.682 101.289 246.682H94.0094ZM96.5694 242.602C95.616 242.589 94.9494 242.772 94.5694 243.152C94.196 243.525 94.0094 244.192 94.0094 245.152V245.632H100.759V245.152C100.759 244.199 100.573 243.535 100.199 243.162C99.826 242.789 99.1627 242.602 98.2094 242.602H96.5694ZM105.81 251.002C105.457 251.002 105.28 250.825 105.28 250.472V242.072C105.28 241.725 105.457 241.552 105.81 241.552C106.157 241.552 106.33 241.725 106.33 242.072V243.612C106.677 242.945 107.177 242.435 107.83 242.082C108.49 241.729 109.27 241.552 110.17 241.552C110.523 241.552 110.7 241.725 110.7 242.072C110.7 242.425 110.523 242.602 110.17 242.602C108.983 242.602 108.063 242.872 107.41 243.412C106.757 243.945 106.397 244.709 106.33 245.702V250.472C106.33 250.825 106.157 251.002 105.81 251.002ZM116.449 250.602C116.376 250.762 116.286 250.869 116.179 250.922C116.073 250.975 115.949 251.002 115.809 251.002C115.516 251.002 115.309 250.865 115.189 250.592L111.479 242.282C111.339 241.955 111.436 241.729 111.769 241.602C112.083 241.469 112.309 241.562 112.449 241.882L116.149 250.162H115.509L119.449 241.872C119.523 241.719 119.619 241.619 119.739 241.572C119.859 241.525 119.996 241.535 120.149 241.602C120.476 241.749 120.566 241.982 120.419 242.302L116.449 250.602ZM123.139 239.732C122.679 239.732 122.449 239.495 122.449 239.022V238.572C122.449 238.112 122.679 237.882 123.139 237.882H123.589C124.035 237.882 124.259 238.112 124.259 238.572V239.022C124.259 239.495 124.035 239.732 123.589 239.732H123.139ZM123.369 251.002C123.015 251.002 122.839 250.825 122.839 250.472V242.072C122.839 241.725 123.015 241.552 123.369 241.552C123.715 241.552 123.889 241.725 123.889 242.072V250.472C123.889 250.825 123.715 251.002 123.369 251.002ZM128.404 246.682V247.412C128.404 248.352 128.591 249.012 128.964 249.392C129.344 249.765 130.011 249.952 130.964 249.952H132.604C133.444 249.952 134.054 249.845 134.434 249.632C134.821 249.412 135.051 249.035 135.124 248.502C135.151 248.335 135.204 248.209 135.284 248.122C135.371 248.035 135.501 247.992 135.674 247.992C135.847 247.992 135.977 248.042 136.064 248.142C136.157 248.235 136.194 248.369 136.174 248.542C136.087 249.382 135.751 250.002 135.164 250.402C134.577 250.802 133.724 251.002 132.604 251.002H130.964C129.717 251.002 128.804 250.715 128.224 250.142C127.644 249.562 127.354 248.652 127.354 247.412V245.152C127.354 243.892 127.644 242.975 128.224 242.402C128.804 241.822 129.717 241.539 130.964 241.552H132.604C133.851 241.552 134.761 241.842 135.334 242.422C135.914 242.995 136.204 243.905 136.204 245.152V246.152C136.204 246.505 136.031 246.682 135.684 246.682H128.404ZM130.964 242.602C130.011 242.589 129.344 242.772 128.964 243.152C128.591 243.525 128.404 244.192 128.404 245.152V245.632H135.154V245.152C135.154 244.199 134.967 243.535 134.594 243.162C134.221 242.789 133.557 242.602 132.604 242.602H130.964ZM141.354 251.002C141.041 251.002 140.837 250.859 140.744 250.572L137.924 242.262C137.811 241.922 137.921 241.699 138.254 241.592C138.581 241.492 138.797 241.602 138.904 241.922L141.644 249.952H141.224L143.844 242.072C143.937 241.792 144.137 241.652 144.444 241.652C144.737 241.652 144.927 241.795 145.014 242.082L147.464 249.932H147.024L149.904 241.922C150.037 241.582 150.264 241.472 150.584 241.592C150.917 241.719 151.024 241.945 150.904 242.272L147.814 250.572C147.707 250.859 147.501 251.002 147.194 251.002C146.854 251.002 146.641 250.859 146.554 250.572L144.284 243.302H144.484L141.984 250.572C141.931 250.739 141.847 250.852 141.734 250.912C141.621 250.972 141.494 251.002 141.354 251.002ZM158.838 251.002C158.484 251.002 158.308 250.825 158.308 250.472V238.642C158.308 238.289 158.484 238.112 158.838 238.112H163.518C164.658 238.112 165.518 238.405 166.098 238.992C166.684 239.579 166.978 240.442 166.978 241.582V242.182C166.978 243.315 166.684 244.175 166.098 244.762C165.518 245.349 164.658 245.642 163.518 245.642H159.358V250.472C159.358 250.825 159.184 251.002 158.838 251.002ZM159.358 244.592H163.518C164.358 244.592 164.968 244.402 165.348 244.022C165.734 243.635 165.928 243.022 165.928 242.182V241.582C165.928 240.735 165.734 240.122 165.348 239.742C164.968 239.355 164.358 239.162 163.518 239.162H159.358V244.592ZM169.658 251.002C169.304 251.002 169.128 250.825 169.128 250.472V242.072C169.128 241.725 169.304 241.552 169.658 241.552C170.004 241.552 170.178 241.725 170.178 242.072V243.612C170.524 242.945 171.024 242.435 171.678 242.082C172.338 241.729 173.118 241.552 174.018 241.552C174.371 241.552 174.548 241.725 174.548 242.072C174.548 242.425 174.371 242.602 174.018 242.602C172.831 242.602 171.911 242.872 171.258 243.412C170.604 243.945 170.244 244.709 170.178 245.702V250.472C170.178 250.825 170.004 251.002 169.658 251.002ZM177.056 246.682V247.412C177.056 248.352 177.243 249.012 177.616 249.392C177.996 249.765 178.663 249.952 179.616 249.952H181.256C182.096 249.952 182.706 249.845 183.086 249.632C183.473 249.412 183.703 249.035 183.776 248.502C183.803 248.335 183.856 248.209 183.936 248.122C184.023 248.035 184.153 247.992 184.326 247.992C184.5 247.992 184.63 248.042 184.716 248.142C184.81 248.235 184.846 248.369 184.826 248.542C184.74 249.382 184.403 250.002 183.816 250.402C183.23 250.802 182.376 251.002 181.256 251.002H179.616C178.37 251.002 177.456 250.715 176.876 250.142C176.296 249.562 176.006 248.652 176.006 247.412V245.152C176.006 243.892 176.296 242.975 176.876 242.402C177.456 241.822 178.37 241.539 179.616 241.552H181.256C182.503 241.552 183.413 241.842 183.986 242.422C184.566 242.995 184.856 243.905 184.856 245.152V246.152C184.856 246.505 184.683 246.682 184.336 246.682H177.056ZM179.616 242.602C178.663 242.589 177.996 242.772 177.616 243.152C177.243 243.525 177.056 244.192 177.056 245.152V245.632H183.806V245.152C183.806 244.199 183.62 243.535 183.246 243.162C182.873 242.789 182.21 242.602 181.256 242.602H179.616ZM188.857 255.002C188.504 255.002 188.327 254.825 188.327 254.472V242.072C188.327 241.725 188.504 241.552 188.857 241.552C189.204 241.552 189.377 241.725 189.377 242.072V242.962C189.677 242.495 190.107 242.145 190.667 241.912C191.227 241.672 191.944 241.552 192.817 241.552H193.577C194.824 241.552 195.734 241.842 196.307 242.422C196.887 242.995 197.177 243.905 197.177 245.152V247.392C197.177 248.639 196.887 249.552 196.307 250.132C195.734 250.712 194.824 251.002 193.577 251.002H189.377V254.472C189.377 254.825 189.204 255.002 188.857 255.002ZM189.377 249.952H193.577C194.53 249.952 195.194 249.765 195.567 249.392C195.94 249.012 196.127 248.345 196.127 247.392V245.152C196.127 244.199 195.94 243.535 195.567 243.162C195.194 242.789 194.53 242.602 193.577 242.602H192.817C191.75 242.602 190.93 242.769 190.357 243.102C189.79 243.435 189.464 243.949 189.377 244.642V249.952ZM203.461 251.002C202.421 251.002 201.658 250.762 201.171 250.282C200.691 249.795 200.451 249.032 200.451 247.992C200.451 246.952 200.695 246.189 201.181 245.702C201.668 245.215 202.428 244.972 203.461 244.972H208.011C207.998 244.092 207.798 243.479 207.411 243.132C207.031 242.779 206.381 242.602 205.461 242.602H204.301C203.455 242.602 202.835 242.692 202.441 242.872C202.048 243.052 201.805 243.359 201.711 243.792C201.665 243.959 201.601 244.082 201.521 244.162C201.448 244.235 201.328 244.272 201.161 244.272C200.988 244.272 200.851 244.225 200.751 244.132C200.658 244.032 200.625 243.899 200.651 243.732C200.738 242.972 201.081 242.419 201.681 242.072C202.288 241.725 203.161 241.552 204.301 241.552H205.461C206.708 241.552 207.618 241.842 208.191 242.422C208.771 242.995 209.061 243.905 209.061 245.152V250.472C209.061 250.825 208.888 251.002 208.541 251.002C208.188 251.002 208.011 250.825 208.011 250.472V249.482C207.371 250.495 206.228 251.002 204.581 251.002H203.461ZM203.461 249.952H204.581C205.228 249.952 205.795 249.882 206.281 249.742C206.775 249.595 207.171 249.362 207.471 249.042C207.771 248.722 207.951 248.295 208.011 247.762V246.022H203.461C202.721 246.022 202.208 246.165 201.921 246.452C201.641 246.732 201.501 247.245 201.501 247.992C201.501 248.732 201.641 249.245 201.921 249.532C202.208 249.812 202.721 249.952 203.461 249.952ZM213.154 251.002C212.801 251.002 212.624 250.825 212.624 250.472V242.072C212.624 241.725 212.801 241.552 213.154 241.552C213.501 241.552 213.674 241.725 213.674 242.072V243.612C214.021 242.945 214.521 242.435 215.174 242.082C215.834 241.729 216.614 241.552 217.514 241.552C217.867 241.552 218.044 241.725 218.044 242.072C218.044 242.425 217.867 242.602 217.514 242.602C216.327 242.602 215.407 242.872 214.754 243.412C214.101 243.945 213.741 244.709 213.674 245.702V250.472C213.674 250.825 213.501 251.002 213.154 251.002ZM222.368 251.002C221.328 251.002 220.564 250.762 220.078 250.282C219.598 249.795 219.358 249.032 219.358 247.992C219.358 246.952 219.601 246.189 220.088 245.702C220.574 245.215 221.334 244.972 222.368 244.972H226.918C226.904 244.092 226.704 243.479 226.318 243.132C225.938 242.779 225.288 242.602 224.368 242.602H223.208C222.361 242.602 221.741 242.692 221.348 242.872C220.954 243.052 220.711 243.359 220.618 243.792C220.571 243.959 220.508 244.082 220.428 244.162C220.354 244.235 220.234 244.272 220.068 244.272C219.894 244.272 219.758 244.225 219.658 244.132C219.564 244.032 219.531 243.899 219.558 243.732C219.644 242.972 219.988 242.419 220.588 242.072C221.194 241.725 222.068 241.552 223.208 241.552H224.368C225.614 241.552 226.524 241.842 227.098 242.422C227.678 242.995 227.967 243.905 227.967 245.152V250.472C227.967 250.825 227.794 251.002 227.448 251.002C227.094 251.002 226.918 250.825 226.918 250.472V249.482C226.278 250.495 225.134 251.002 223.488 251.002H222.368ZM222.368 249.952H223.488C224.134 249.952 224.701 249.882 225.188 249.742C225.681 249.595 226.078 249.362 226.378 249.042C226.678 248.722 226.858 248.295 226.918 247.762V246.022H222.368C221.628 246.022 221.114 246.165 220.828 246.452C220.548 246.732 220.408 247.245 220.408 247.992C220.408 248.732 220.548 249.245 220.828 249.532C221.114 249.812 221.628 249.952 222.368 249.952ZM235.39 251.002C234.163 251.002 233.267 250.719 232.7 250.152C232.133 249.585 231.85 248.692 231.85 247.472V242.602H230.66C230.307 242.602 230.13 242.425 230.13 242.072C230.13 241.725 230.307 241.552 230.66 241.552H231.85V239.402C231.85 239.049 232.023 238.872 232.37 238.872C232.723 238.872 232.9 239.049 232.9 239.402V241.552H235.41C235.757 241.552 235.93 241.725 235.93 242.072C235.93 242.425 235.757 242.602 235.41 242.602H232.9V247.472C232.9 248.405 233.08 249.052 233.44 249.412C233.807 249.772 234.457 249.952 235.39 249.952C235.583 249.952 235.72 249.995 235.8 250.082C235.887 250.169 235.93 250.299 235.93 250.472C235.93 250.825 235.75 251.002 235.39 251.002ZM238.998 239.732C238.538 239.732 238.308 239.495 238.308 239.022V238.572C238.308 238.112 238.538 237.882 238.998 237.882H239.448C239.895 237.882 240.118 238.112 240.118 238.572V239.022C240.118 239.495 239.895 239.732 239.448 239.732H238.998ZM239.228 251.002C238.875 251.002 238.698 250.825 238.698 250.472V242.072C238.698 241.725 238.875 241.552 239.228 241.552C239.575 241.552 239.748 241.725 239.748 242.072V250.472C239.748 250.825 239.575 251.002 239.228 251.002ZM246.823 251.002C245.577 251.002 244.663 250.715 244.083 250.142C243.503 249.562 243.213 248.652 243.213 247.412V245.152C243.213 243.892 243.503 242.975 244.083 242.402C244.663 241.822 245.577 241.539 246.823 241.552H248.463C249.71 241.552 250.62 241.842 251.193 242.422C251.773 242.995 252.063 243.905 252.063 245.152V247.392C252.063 248.639 251.773 249.552 251.193 250.132C250.62 250.712 249.71 251.002 248.463 251.002H246.823ZM244.263 247.412C244.263 248.352 244.45 249.012 244.823 249.392C245.203 249.765 245.87 249.952 246.823 249.952H248.463C249.417 249.952 250.08 249.765 250.453 249.392C250.827 249.012 251.013 248.345 251.013 247.392V245.152C251.013 244.199 250.827 243.535 250.453 243.162C250.08 242.789 249.417 242.602 248.463 242.602H246.823C246.183 242.595 245.677 242.672 245.303 242.832C244.93 242.992 244.663 243.259 244.503 243.632C244.343 244.005 244.263 244.512 244.263 245.152V247.412ZM256.064 251.002C255.711 251.002 255.534 250.825 255.534 250.472V242.072C255.534 241.725 255.711 241.552 256.064 241.552C256.411 241.552 256.584 241.725 256.584 242.072V243.032C257.217 242.045 258.364 241.552 260.024 241.552H260.584C261.831 241.552 262.741 241.842 263.314 242.422C263.894 242.995 264.184 243.905 264.184 245.152V250.472C264.184 250.825 264.011 251.002 263.664 251.002C263.311 251.002 263.134 250.825 263.134 250.472V245.152C263.134 244.199 262.944 243.535 262.564 243.162C262.191 242.789 261.531 242.602 260.584 242.602H260.024C258.991 242.602 258.177 242.765 257.584 243.092C256.991 243.419 256.657 243.929 256.584 244.622V250.472C256.584 250.825 256.411 251.002 256.064 251.002Z" fill="#AAAAAA"/>
<path d="M302.5 151.864C309.433 151.864 315.5 157.33 315.5 164.61C315.5 171.891 309.434 177.357 302.5 177.357C295.566 177.357 289.5 171.891 289.5 164.61C289.5 157.33 295.567 151.864 302.5 151.864Z" fill="#1FA1BB" stroke="black" stroke-width="13"/>
</svg>
