<svg width="43" height="161" viewBox="0 0 43 161" fill="none" xmlns="http://www.w3.org/2000/svg">
<path d="M16.9725 2.5V0H9.25904L15.506 4.52469L16.9725 2.5ZM21.8113 2.5L23.4435 0.606293L22.74 0H21.8113V2.5ZM34.2225 158.5V161H42.2675L35.6394 156.44L34.2225 158.5ZM29.0701 158.5L27.5775 160.506L28.2419 161H29.0701V158.5ZM2.77814 117.975L5.26439 117.713C3.72347 103.082 9.12642 88.3193 15.5839 73.9475L13.3035 72.9229L11.0231 71.8982C4.5523 86.2998 -1.40202 102.153 0.291896 118.236L2.77814 117.975ZM13.3035 72.9229L15.5839 73.9475C18.7861 66.8206 22.2908 59.6978 25.2239 52.9018L22.9285 51.9111L20.6332 50.9205C17.6824 57.7574 14.3633 64.4644 11.0231 71.8982L13.3035 72.9229ZM22.9285 51.9111L25.2239 52.9018C28.1701 46.0752 30.6131 39.4192 31.7426 33.0498L29.2811 32.6133L26.8195 32.1767C25.792 37.9706 23.5316 44.2045 20.6332 50.9205L22.9285 51.9111ZM29.2811 32.6133L31.7426 33.0498C32.8739 26.6703 32.6963 20.5301 30.3527 14.7681L28.0369 15.71L25.7211 16.6519C27.6095 21.2948 27.8397 26.4235 26.8195 32.1767L29.2811 32.6133ZM28.0369 15.71L30.3527 14.7681C28.2536 9.60748 24.4454 4.82584 18.439 0.475311L16.9725 2.5L15.506 4.52469C20.8963 8.42897 24.035 12.5065 25.7211 16.6519L28.0369 15.71ZM16.9725 2.5V5H21.8113V2.5V0H16.9725V2.5ZM21.8113 2.5L20.1792 4.39371C24.2476 7.90012 26.9125 11.6179 28.5004 15.522L30.8162 14.5801L33.132 13.6382C31.2099 8.91254 28.0359 4.56441 23.4435 0.606293L21.8113 2.5ZM30.8162 14.5801L28.5004 15.522C30.6617 20.836 30.8595 26.5709 29.7726 32.7002L32.2342 33.1367L34.6958 33.5732C35.8935 26.8188 35.7487 20.0721 33.132 13.6382L30.8162 14.5801ZM32.2342 33.1367L29.7726 32.7002C28.6838 38.8396 26.3142 45.3268 23.3871 52.109L25.6824 53.0996L27.9778 54.0902C30.9528 47.1969 33.505 40.2879 34.6958 33.5732L32.2342 33.1367ZM25.6824 53.0996L23.3871 52.109C20.4472 58.9208 17.0163 65.8792 13.7595 73.1277L16.0398 74.1523L18.3202 75.177C21.4414 68.2304 25.0545 60.8637 27.9778 54.0902L25.6824 53.0996ZM16.0398 74.1523L13.7595 73.1277C7.29685 87.511 1.6732 102.71 3.27529 117.922L5.76154 117.66L8.24779 117.398C6.79878 103.64 11.8702 89.5322 18.3202 75.177L16.0398 74.1523ZM5.76154 117.66L3.27529 117.922C4.80966 132.489 12.9456 146.897 32.8055 160.56L34.2225 158.5L35.6394 156.44C16.6859 143.402 9.59488 130.188 8.24779 117.398L5.76154 117.66ZM34.2225 158.5V156H29.0701V158.5V161H34.2225V158.5ZM29.0701 158.5L30.5627 156.494C13.5563 143.838 6.63893 130.762 5.26439 117.713L2.77814 117.975L0.291896 118.236C1.84047 132.938 9.68231 147.187 27.5775 160.506L29.0701 158.5Z" fill="#1C427B"/>
</svg>
