<svg width="43" height="161" viewBox="0 0 43 161" fill="none" xmlns="http://www.w3.org/2000/svg">
<path d="M2.77832 117.975C1.1609 102.618 6.83954 87.3095 13.3037 72.9229C16.5749 65.6425 19.9868 58.7276 22.9287 51.9111C25.8511 45.1399 28.2027 38.6949 29.2813 32.6133C30.357 26.5469 30.1531 20.9124 28.0371 15.71C26.1445 11.0569 22.6711 6.6274 16.9727 2.5H21.8115C26.142 6.23227 29.0614 10.2652 30.8164 14.5801C33.2054 20.454 33.3767 26.6949 32.2344 33.1367C31.0946 39.5638 28.6337 46.2618 25.6826 53.0996C22.751 59.8922 19.2291 67.0548 16.04 74.1523C9.58372 88.5216 4.23617 103.175 5.76172 117.66C7.20245 131.339 14.816 145.15 34.2227 158.5H29.0703C11.6195 145.513 4.23988 131.85 2.77832 117.975Z" fill="#C1CBE6"/>
<path d="M2.77832 117.975L0.292072 118.236L0.292074 118.236L2.77832 117.975ZM13.3037 72.9229L15.5841 73.9475V73.9475L13.3037 72.9229ZM22.9287 51.9111L25.2241 52.9018L25.2241 52.9018L22.9287 51.9111ZM29.2813 32.6133L31.7428 33.0498L31.7428 33.0498L29.2813 32.6133ZM28.0371 15.71L30.3529 14.7681L30.3529 14.768L28.0371 15.71ZM16.9727 2.5V0H9.25922L15.5062 4.52469L16.9727 2.5ZM21.8115 2.5L23.4437 0.606293L22.7402 0H21.8115V2.5ZM30.8164 14.5801L33.1322 13.6382L33.1322 13.6382L30.8164 14.5801ZM32.2344 33.1367L34.696 33.5732L34.696 33.5732L32.2344 33.1367ZM25.6826 53.0996L27.978 54.0902V54.0902L25.6826 53.0996ZM16.04 74.1523L13.7597 73.1277L13.7597 73.1277L16.04 74.1523ZM5.76172 117.66L3.27547 117.922L3.27547 117.922L5.76172 117.66ZM34.2227 158.5V161H42.2677L35.6396 156.44L34.2227 158.5ZM29.0703 158.5L27.5777 160.506L28.2421 161H29.0703V158.5ZM2.77832 117.975L5.26457 117.713C3.72365 103.082 9.1266 88.3193 15.5841 73.9475L13.3037 72.9229L11.0233 71.8982C4.55248 86.2998 -1.40184 102.153 0.292072 118.236L2.77832 117.975ZM13.3037 72.9229L15.5841 73.9475C18.7863 66.8206 22.291 59.6978 25.2241 52.9018L22.9287 51.9111L20.6334 50.9205C17.6826 57.7574 14.3635 64.4644 11.0233 71.8982L13.3037 72.9229ZM22.9287 51.9111L25.2241 52.9018C28.1703 46.0752 30.6133 39.4192 31.7428 33.0498L29.2813 32.6133L26.8197 32.1767C25.7922 37.9706 23.5318 44.2045 20.6334 50.9205L22.9287 51.9111ZM29.2813 32.6133L31.7428 33.0498C32.8741 26.6703 32.6965 20.5301 30.3529 14.7681L28.0371 15.71L25.7213 16.6519C27.6097 21.2948 27.8399 26.4236 26.8197 32.1768L29.2813 32.6133ZM28.0371 15.71L30.3529 14.768C28.2538 9.60738 24.4456 4.82584 18.4392 0.475311L16.9727 2.5L15.5062 4.52469C20.8965 8.42897 24.0352 12.5065 25.7213 16.6519L28.0371 15.71ZM16.9727 2.5V5H21.8115V2.5V0H16.9727V2.5ZM21.8115 2.5L20.1794 4.39371C24.2478 7.90012 26.9127 11.6179 28.5006 15.522L30.8164 14.5801L33.1322 13.6382C31.2101 8.91254 28.0361 4.56441 23.4437 0.606293L21.8115 2.5ZM30.8164 14.5801L28.5006 15.5219C30.6619 20.8359 30.8597 26.5709 29.7728 32.7002L32.2344 33.1367L34.696 33.5732C35.8937 26.8188 35.7489 20.0721 33.1322 13.6382L30.8164 14.5801ZM32.2344 33.1367L29.7728 32.7002C28.684 38.8396 26.3144 45.3268 23.3873 52.109L25.6826 53.0996L27.978 54.0902C30.953 47.1969 33.5052 40.2879 34.696 33.5732L32.2344 33.1367ZM25.6826 53.0996L23.3873 52.109C20.4474 58.9208 17.0165 65.8792 13.7597 73.1277L16.04 74.1523L18.3204 75.177C21.4416 68.2304 25.0547 60.8637 27.978 54.0902L25.6826 53.0996ZM16.04 74.1523L13.7597 73.1277C7.29703 87.511 1.67338 102.71 3.27547 117.922L5.76172 117.66L8.24797 117.398C6.79896 103.64 11.8704 89.5322 18.3204 75.177L16.04 74.1523ZM5.76172 117.66L3.27547 117.922C4.80984 132.489 12.9458 146.897 32.8057 160.56L34.2227 158.5L35.6396 156.44C16.6861 143.402 9.59506 130.188 8.24797 117.398L5.76172 117.66ZM34.2227 158.5V156H29.0703V158.5V161H34.2227V158.5ZM29.0703 158.5L30.5629 156.494C13.5565 143.838 6.63911 130.762 5.26457 117.713L2.77832 117.975L0.292074 118.236C1.84065 132.938 9.68249 147.187 27.5777 160.506L29.0703 158.5Z" fill="#C1CBE6"/>
</svg>
