<svg width="161" height="43" viewBox="0 0 161 43" fill="none" xmlns="http://www.w3.org/2000/svg">
<g clip-path="url(#clip0_2666_509)">
<path d="M43.0254 2.77815C58.3821 1.16073 73.6905 6.83936 88.0771 13.3035C95.3575 16.5747 102.272 19.9866 109.089 22.9285C115.86 25.8509 122.305 28.2026 128.387 29.2811C134.453 30.3568 140.088 30.1529 145.29 28.0369C149.943 26.1443 156.873 15.1984 161 9.5V23C157.268 27.3304 150.735 29.0612 146.42 30.8162C140.546 33.2052 134.305 33.3765 127.863 32.2342C121.436 31.0944 114.738 28.6335 107.9 25.6824C101.108 22.7508 93.9452 19.2289 86.8477 16.0399C72.4784 9.58354 57.8247 4.236 43.3398 5.76155C29.6614 7.20228 13.3504 22.5933 0 42V28C12.9874 10.5492 29.1495 4.23971 43.0254 2.77815Z" fill="#1C427B"/>
<path fill-rule="evenodd" clip-rule="evenodd" d="M158.5 16.9725H161V9.25905L156.475 15.506L158.5 16.9725ZM158.5 21.8113L160.394 23.4435L161 22.74V21.8113H158.5ZM2.5 34.2225H0V42.2675L4.55969 35.6394L2.5 34.2225ZM2.5 29.0701L0.494456 27.5776L0 28.2419V29.0701H2.5ZM43.0254 2.77815L43.2873 5.2644C57.9176 3.72348 72.6807 9.12643 87.0525 15.5839L88.0771 13.3035L89.1018 11.0232C74.7002 4.5523 58.8466 -1.40202 42.7635 0.291898L43.0254 2.77815ZM88.0771 13.3035L87.0525 15.5839C94.1794 18.7861 101.302 22.2908 108.098 25.2239L109.089 22.9285L110.08 20.6332C103.243 17.6825 96.5356 14.3633 89.1018 11.0232L88.0771 13.3035ZM109.089 22.9285L108.098 25.2239C114.925 28.1701 121.581 30.6131 127.95 31.7427L128.387 29.2811L128.823 26.8195C123.029 25.792 116.796 23.5317 110.08 20.6332L109.089 22.9285ZM128.387 29.2811L127.95 31.7427C134.33 32.874 140.47 32.6963 146.232 30.3527L145.29 28.0369L144.348 25.7212C139.705 27.6096 134.576 27.8397 128.823 26.8195L128.387 29.2811ZM145.29 28.0369L146.232 30.3527C151.393 28.2536 156.174 24.4455 160.525 18.439L158.5 16.9725L156.475 15.506C152.571 20.8964 148.494 24.035 144.348 25.7212L145.29 28.0369ZM158.5 16.9725H156V21.8113H158.5H161V16.9725H158.5ZM158.5 21.8113L156.606 20.1792C153.1 24.2476 149.382 26.9125 145.478 28.5005L146.42 30.8162L147.362 33.132C152.087 31.2099 156.436 28.036 160.394 23.4435L158.5 21.8113ZM146.42 30.8162L145.478 28.5005C140.164 30.6618 134.429 30.8595 128.3 29.7726L127.863 32.2342L127.427 34.6958C134.181 35.8935 140.928 35.7488 147.362 33.132L146.42 30.8162ZM127.863 32.2342L128.3 29.7726C122.16 28.6839 115.673 26.3142 108.891 23.3871L107.9 25.6824L106.91 27.9778C113.803 30.9529 120.712 33.505 127.427 34.6958L127.863 32.2342ZM107.9 25.6824L108.891 23.3871C102.079 20.4472 95.1208 17.0164 87.8723 13.7595L86.8477 16.0399L85.823 18.3203C92.7696 21.4415 100.136 25.0545 106.91 27.9778L107.9 25.6824ZM86.8477 16.0399L87.8723 13.7595C73.489 7.29686 58.2896 1.67321 43.078 3.2753L43.3398 5.76155L43.6017 8.24779C57.3598 6.79879 71.4678 11.8702 85.823 18.3203L86.8477 16.0399ZM43.3398 5.76155L43.078 3.2753C28.5105 4.80967 14.1026 12.9456 0.440309 32.8056L2.5 34.2225L4.55969 35.6394C17.5983 16.686 30.8123 9.59489 43.6017 8.24779L43.3398 5.76155ZM2.5 34.2225H5V29.0701H2.5H0V34.2225H2.5ZM2.5 29.0701L4.50554 30.5627C17.1622 13.5563 30.2375 6.63895 43.2873 5.2644L43.0254 2.77815L42.7635 0.291898C28.0615 1.84048 13.8126 9.68232 0.494456 27.5776L2.5 29.0701Z" fill="#1C427B"/>
</g>
<defs>
<clipPath id="clip0_2666_509">
<rect width="161" height="43" fill="white"/>
</clipPath>
</defs>
</svg>
