<svg width="42" height="42" viewBox="0 0 42 42" fill="none" xmlns="http://www.w3.org/2000/svg">
<path d="M17.325 33.25C14.4958 33.25 12.0677 32.3313 10.0406 30.4937C8.01354 28.6562 7 26.3667 7 23.625C7 20.8833 8.01354 18.5938 10.0406 16.7563C12.0677 14.9188 14.4958 14 17.325 14H28.35L23.8 9.45L26.25 7L35 15.75L26.25 24.5L23.8 22.05L28.35 17.5H17.325C15.4875 17.5 13.8906 18.0833 12.5344 19.25C11.1781 20.4167 10.5 21.875 10.5 23.625C10.5 25.375 11.1781 26.8333 12.5344 28C13.8906 29.1667 15.4875 29.75 17.325 29.75H29.75V33.25H17.325Z" fill="#142142"/>
</svg>
