<svg width="421" height="315" viewBox="0 0 421 315" fill="none" xmlns="http://www.w3.org/2000/svg">
<path d="M421 64.9121C410.509 77.1864 402.917 92.8387 399.698 111.613C395.327 135.464 397.845 160.353 385.283 182.58C353.852 237.389 317.302 256.261 268.357 259.802V259.935L0 259.811V206.07C69.5796 206.869 285.958 211.171 288.417 206.031C315.117 196.448 322.891 184.576 341.567 155.481C351.057 135.065 349.785 113.663 352.994 92.3145C360.925 53.0313 386.98 20.3823 421 0.8125V64.9121Z" fill="white"/>
<path d="M90.6599 87.524V60.0163H82.0536V59.8152L83.6824 56.3566H103.288V56.5577L101.659 60.0163H94.6815V85.7143L90.861 87.524H90.6599ZM105.399 87.524V57.362L109.22 55.5523H109.421V65.2242C110.011 64.8087 110.681 64.6009 111.431 64.6009H116.056C120.078 64.6009 122.089 66.6117 122.089 70.6333V85.7143L118.268 87.524H118.067V70.6333C118.067 69.0247 117.397 68.2203 116.056 68.2203H111.431C110.091 68.2203 109.421 69.0247 109.421 70.6333V85.7143L105.6 87.524H105.399ZM134.154 86.7197C130.132 86.7197 128.121 84.7089 128.121 80.6873V70.6333C128.121 66.6117 130.132 64.6009 134.154 64.6009H138.778C142.8 64.6009 144.811 66.6117 144.811 70.6333V71.699L132.203 81.4514C132.391 82.5507 133.041 83.1003 134.154 83.1003H138.778C140.119 83.1003 140.789 82.296 140.789 80.6873V79.6216L144.61 77.8119H144.811V80.6873C144.811 84.7089 142.8 86.7197 138.778 86.7197H134.154ZM132.143 77.2488L140.769 70.2915C140.689 68.9107 140.025 68.2203 138.778 68.2203H134.154C132.813 68.2203 132.143 69.0247 132.143 70.6333V77.2488ZM93.0125 122.72C88.3207 122.72 85.9747 120.374 85.9747 115.682V99.3944C85.9747 94.7025 88.3207 92.3566 93.0125 92.3566H99.246C103.938 92.3566 106.284 94.7025 106.284 99.3944V101.606L102.463 103.416H102.262V99.3944C102.262 97.1155 101.257 95.976 99.246 95.976H93.0125C91.0017 95.976 89.9963 97.1155 89.9963 99.3944V115.682C89.9963 117.961 91.0017 119.1 93.0125 119.1H99.246C101.257 119.1 102.262 117.961 102.262 115.682V113.47L106.083 111.66H106.284V115.682C106.284 120.374 103.938 122.72 99.246 122.72H93.0125ZM113.322 123.524V106.633C113.322 102.612 115.332 100.601 119.354 100.601H124.381V100.802L122.772 104.22H119.354C118.014 104.22 117.343 105.025 117.343 106.633V121.714L113.523 123.524H113.322ZM133.832 119.1H138.457C139.797 119.1 140.467 118.296 140.467 116.687V106.633C140.467 105.025 139.797 104.22 138.457 104.22H133.832C132.491 104.22 131.821 105.025 131.821 106.633V116.687C131.821 118.296 132.491 119.1 133.832 119.1ZM133.832 122.72C129.81 122.72 127.799 120.709 127.799 116.687V106.633C127.799 102.612 129.81 100.601 133.832 100.601H138.457C142.478 100.601 144.489 102.612 144.489 106.633V116.687C144.489 120.709 142.478 122.72 138.457 122.72H133.832ZM155.951 122.72C151.929 122.72 149.918 120.709 149.918 116.687V115.963L153.739 114.154H153.94V116.687C153.94 118.296 154.61 119.1 155.951 119.1H160.576C161.916 119.1 162.586 118.296 162.586 116.687V115.099C162.586 113.49 161.916 112.686 160.576 112.686H156.795C152.774 112.686 150.763 110.668 150.763 106.633C150.763 102.612 152.774 100.601 156.795 100.601H159.148C163.169 100.601 165.18 102.223 165.18 105.467L161.36 107.277H161.159V106.633C161.159 105.025 160.488 104.22 159.148 104.22H156.795C155.455 104.22 154.784 105.025 154.784 106.633C154.784 108.255 155.455 109.066 156.795 109.066H160.576C164.597 109.066 166.608 111.077 166.608 115.099V116.687C166.608 120.709 164.597 122.72 160.576 122.72H155.951ZM177.466 122.72C173.445 122.72 171.434 120.709 171.434 116.687V115.963L175.254 114.154H175.455V116.687C175.455 118.296 176.126 119.1 177.466 119.1H182.091C183.432 119.1 184.102 118.296 184.102 116.687V115.099C184.102 113.49 183.432 112.686 182.091 112.686H178.311C174.289 112.686 172.278 110.668 172.278 106.633C172.278 102.612 174.289 100.601 178.311 100.601H180.663C184.685 100.601 186.696 102.223 186.696 105.467L182.875 107.277H182.674V106.633C182.674 105.025 182.004 104.22 180.663 104.22H178.311C176.97 104.22 176.3 105.025 176.3 106.633C176.3 108.255 176.97 109.066 178.311 109.066H182.091C186.113 109.066 188.124 111.077 188.124 115.099V116.687C188.124 120.709 186.113 122.72 182.091 122.72H177.466ZM200.59 122.72C199.679 122.72 199.009 122.512 198.58 122.096V129.959L194.759 131.768H194.558V106.633C194.558 102.612 196.569 100.601 200.59 100.601H205.215C209.237 100.601 211.248 102.612 211.248 106.633V116.687C211.248 120.709 209.237 122.72 205.215 122.72H200.59ZM200.59 119.1H205.215C206.556 119.1 207.226 118.296 207.226 116.687V106.633C207.226 105.025 206.556 104.22 205.215 104.22H200.59C199.25 104.22 198.58 105.025 198.58 106.633V116.687C198.58 118.296 199.25 119.1 200.59 119.1ZM222.307 119.1H226.53C227.87 119.1 228.541 118.296 228.541 116.687V113.933C228.541 112.324 227.87 111.52 226.53 111.52H222.307C220.967 111.52 220.296 112.324 220.296 113.933V116.687C220.296 118.296 220.967 119.1 222.307 119.1ZM222.307 122.72C218.286 122.72 216.275 120.709 216.275 116.687V113.933C216.275 109.911 218.286 107.9 222.307 107.9H226.53C227.227 107.9 227.897 108.101 228.541 108.503V106.633C228.541 105.025 227.87 104.22 226.53 104.22H219.331V104.019L220.94 100.601H226.53C230.551 100.601 232.562 102.612 232.562 106.633V121.714L228.742 123.524H228.541V122.116C228.031 122.519 227.361 122.72 226.53 122.72H222.307ZM241.249 123.524V104.261H236.081V104.059L237.71 100.601H241.249V93.362L245.069 91.5523H245.271V100.601H250.438V100.802L248.81 104.261H245.271V121.714L241.45 123.524H241.249ZM254.963 123.524V93.362L258.783 91.5523H258.984V101.224C259.574 100.809 260.244 100.601 260.995 100.601H265.62C269.641 100.601 271.652 102.612 271.652 106.633V121.714L267.832 123.524H267.631V106.633C267.631 105.025 266.96 104.22 265.62 104.22H260.995C259.654 104.22 258.984 105.025 258.984 106.633V121.714L255.164 123.524H254.963ZM283.114 122.72C279.092 122.72 277.081 120.709 277.081 116.687V115.963L280.902 114.154H281.103V116.687C281.103 118.296 281.773 119.1 283.114 119.1H287.739C289.079 119.1 289.749 118.296 289.749 116.687V115.099C289.749 113.49 289.079 112.686 287.739 112.686H283.958C279.937 112.686 277.926 110.668 277.926 106.633C277.926 102.612 279.937 100.601 283.958 100.601H286.311C290.333 100.601 292.343 102.223 292.343 105.467L288.523 107.277H288.322V106.633C288.322 105.025 287.652 104.22 286.311 104.22H283.958C282.618 104.22 281.948 105.025 281.948 106.633C281.948 108.255 282.618 109.066 283.958 109.066H287.739C291.76 109.066 293.771 111.077 293.771 115.099V116.687C293.771 120.709 291.76 122.72 287.739 122.72H283.114Z" fill="white"/>
<path d="M35.0889 86.6785C31.9454 86.6785 29.6186 85.9304 28.1086 84.4342C26.6124 82.9242 25.8643 80.5974 25.8643 77.4539V67.9411C25.8643 64.7701 26.6124 62.4365 28.1086 60.9403C29.6186 59.444 31.9454 58.7165 35.0889 58.7577H37.5597C40.717 58.7577 43.0437 59.5058 44.54 61.002C46.0362 62.4846 46.7843 64.8113 46.7843 67.9823V77.4539C46.7843 80.5974 46.0362 82.9242 44.54 84.4342C43.0437 85.9304 40.717 86.6785 37.5597 86.6785H35.0889ZM35.0889 83.2193H37.5597C39.0285 83.2193 40.1816 83.0409 41.019 82.684C41.8563 82.3271 42.4466 81.7299 42.7897 80.8926C43.1467 80.0552 43.3251 78.909 43.3251 77.4539V67.9823C43.3251 66.5135 43.1467 65.3604 42.7897 64.523C42.4466 63.6857 41.8563 63.0954 41.019 62.7522C40.1816 62.3953 39.0285 62.2169 37.5597 62.2169H35.0889C33.6338 62.1894 32.4876 62.3473 31.6502 62.6905C30.8129 63.0199 30.2157 63.6102 29.8588 64.4613C29.5019 65.2986 29.3235 66.4586 29.3235 67.9411V77.4539C29.3235 78.909 29.4951 80.0552 29.8382 80.8926C30.1952 81.7299 30.7923 82.3271 31.6296 82.684C32.467 83.0409 33.6201 83.2193 35.0889 83.2193ZM35.8301 74.736C34.732 74.736 34.1829 74.1869 34.1829 73.0887V72.0592C34.1829 70.9885 34.732 70.4531 35.8301 70.4531H36.8185C37.8617 70.4531 38.3834 70.9885 38.3834 72.0592V73.0887C38.3834 74.1869 37.8617 74.736 36.8185 74.736H35.8301ZM60.1612 86.7197C59.0081 86.7197 58.4315 86.1432 58.4315 84.9901V63.7406L59.3787 63.0817L54.8488 67.3234C54.5056 67.6528 54.1418 67.8519 53.7575 67.9205C53.3731 67.9754 52.9956 67.8175 52.625 67.4469C51.8837 66.7056 51.9249 65.9232 52.7485 65.0996L58.2668 59.6636C58.8434 59.0871 59.5572 58.7988 60.4082 58.7988C61.3966 58.7988 61.8908 59.3754 61.8908 60.5285V84.9901C61.8908 86.1432 61.3142 86.7197 60.1612 86.7197Z" fill="#FEF355"/>
<path d="M88.923 161.229C87.4336 161.229 86.3458 160.886 85.6594 160.2C84.9731 159.514 84.6299 158.426 84.6299 156.936V152.252C84.6299 150.749 84.9696 149.658 85.6491 148.978C86.3355 148.299 87.4199 147.959 88.9024 147.959H91.3939C92.6568 147.959 93.5971 148.223 94.2148 148.752C94.8325 149.273 95.1723 150.114 95.2341 151.274C95.2547 151.459 95.2169 151.6 95.1208 151.696C95.0316 151.792 94.8978 151.84 94.7193 151.84C94.3761 151.84 94.1874 151.658 94.1531 151.295C94.105 150.443 93.8717 149.857 93.453 149.534C93.0343 149.205 92.3479 149.04 91.3939 149.04H88.9024C88.1131 149.04 87.4851 149.143 87.0184 149.349C86.5517 149.548 86.2154 149.884 86.0095 150.358C85.8104 150.824 85.7109 151.456 85.7109 152.252V156.936C85.7109 157.733 85.8139 158.364 86.0198 158.831C86.2257 159.297 86.562 159.634 87.0287 159.84C87.4954 160.046 88.1269 160.148 88.923 160.148H91.3939C92.3479 160.148 93.0343 159.987 93.453 159.665C93.8717 159.335 94.105 158.745 94.1531 157.894C94.1874 157.53 94.3761 157.348 94.7193 157.348C94.8978 157.348 95.0316 157.4 95.1208 157.503C95.2169 157.599 95.2547 157.736 95.2341 157.914C95.1723 159.074 94.8325 159.919 94.2148 160.447C93.5971 160.969 92.6568 161.229 91.3939 161.229H88.923ZM101.092 161.229C100.022 161.229 99.2357 160.982 98.7346 160.488C98.2405 159.987 97.9934 159.201 97.9934 158.131C97.9934 157.06 98.2439 156.274 98.7449 155.773C99.246 155.272 100.028 155.021 101.092 155.021H105.777C105.763 154.115 105.557 153.484 105.159 153.127C104.768 152.763 104.098 152.581 103.151 152.581H101.957C101.085 152.581 100.447 152.674 100.042 152.859C99.6372 153.045 99.3867 153.36 99.2906 153.807C99.2425 153.978 99.1773 154.105 99.095 154.187C99.0195 154.263 98.8959 154.301 98.7243 154.301C98.5459 154.301 98.4052 154.253 98.3022 154.157C98.2061 154.054 98.1718 153.916 98.1993 153.745C98.2885 152.962 98.642 152.393 99.2597 152.036C99.8843 151.679 100.783 151.5 101.957 151.5H103.151C104.435 151.5 105.372 151.799 105.962 152.396C106.559 152.986 106.858 153.923 106.858 155.207V160.684C106.858 161.048 106.679 161.229 106.322 161.229C105.959 161.229 105.777 161.048 105.777 160.684V159.665C105.118 160.708 103.941 161.229 102.245 161.229H101.092ZM101.092 160.148H102.245C102.911 160.148 103.494 160.076 103.996 159.932C104.503 159.781 104.912 159.541 105.221 159.212C105.53 158.882 105.715 158.443 105.777 157.894V156.102H101.092C100.33 156.102 99.8019 156.25 99.5068 156.545C99.2185 156.833 99.0744 157.362 99.0744 158.131C99.0744 158.892 99.2185 159.421 99.5068 159.716C99.8019 160.004 100.33 160.148 101.092 160.148ZM111.071 161.229C110.707 161.229 110.525 161.048 110.525 160.684V152.036C110.525 151.679 110.707 151.5 111.071 151.5C111.428 151.5 111.607 151.679 111.607 152.036V153.621C111.963 152.935 112.478 152.41 113.151 152.046C113.83 151.682 114.633 151.5 115.56 151.5C115.924 151.5 116.106 151.679 116.106 152.036C116.106 152.4 115.924 152.581 115.56 152.581C114.338 152.581 113.391 152.859 112.718 153.415C112.046 153.964 111.675 154.75 111.607 155.773V160.684C111.607 161.048 111.428 161.229 111.071 161.229ZM118.688 156.782V157.533C118.688 158.501 118.88 159.181 119.265 159.572C119.656 159.956 120.342 160.148 121.324 160.148H123.012C123.877 160.148 124.505 160.039 124.896 159.819C125.294 159.593 125.531 159.205 125.607 158.656C125.634 158.484 125.689 158.354 125.771 158.264C125.86 158.175 125.994 158.131 126.173 158.131C126.351 158.131 126.485 158.182 126.574 158.285C126.67 158.381 126.708 158.518 126.688 158.697C126.598 159.562 126.252 160.2 125.648 160.612C125.044 161.024 124.165 161.229 123.012 161.229H121.324C120.04 161.229 119.1 160.934 118.503 160.344C117.906 159.747 117.607 158.81 117.607 157.533V155.207C117.607 153.91 117.906 152.966 118.503 152.376C119.1 151.778 120.04 151.487 121.324 151.5H123.012C124.296 151.5 125.232 151.799 125.823 152.396C126.42 152.986 126.718 153.923 126.718 155.207V156.236C126.718 156.6 126.54 156.782 126.183 156.782H118.688ZM121.324 152.581C120.342 152.568 119.656 152.756 119.265 153.148C118.88 153.532 118.688 154.218 118.688 155.207V155.701H125.637V155.207C125.637 154.225 125.445 153.542 125.061 153.158C124.677 152.774 123.994 152.581 123.012 152.581H121.324ZM131.095 156.782V157.533C131.095 158.501 131.287 159.181 131.671 159.572C132.062 159.956 132.749 160.148 133.73 160.148H135.419C136.284 160.148 136.912 160.039 137.303 159.819C137.701 159.593 137.938 159.205 138.013 158.656C138.041 158.484 138.096 158.354 138.178 158.264C138.267 158.175 138.401 158.131 138.579 158.131C138.758 158.131 138.892 158.182 138.981 158.285C139.077 158.381 139.115 158.518 139.094 158.697C139.005 159.562 138.658 160.2 138.054 160.612C137.45 161.024 136.572 161.229 135.419 161.229H133.73C132.447 161.229 131.507 160.934 130.909 160.344C130.312 159.747 130.014 158.81 130.014 157.533V155.207C130.014 153.91 130.312 152.966 130.909 152.376C131.507 151.778 132.447 151.487 133.73 151.5H135.419C136.702 151.5 137.639 151.799 138.229 152.396C138.827 152.986 139.125 153.923 139.125 155.207V156.236C139.125 156.6 138.947 156.782 138.59 156.782H131.095ZM133.73 152.581C132.749 152.568 132.062 152.756 131.671 153.148C131.287 153.532 131.095 154.218 131.095 155.207V155.701H138.044V155.207C138.044 154.225 137.852 153.542 137.468 153.158C137.083 152.774 136.4 152.581 135.419 152.581H133.73ZM143.244 161.229C142.88 161.229 142.698 161.048 142.698 160.684V152.036C142.698 151.679 142.88 151.5 143.244 151.5C143.601 151.5 143.779 151.679 143.779 152.036V153.621C144.136 152.935 144.651 152.41 145.324 152.046C146.003 151.682 146.806 151.5 147.733 151.5C148.097 151.5 148.278 151.679 148.278 152.036C148.278 152.4 148.097 152.581 147.733 152.581C146.511 152.581 145.564 152.859 144.891 153.415C144.219 153.964 143.848 154.75 143.779 155.773V160.684C143.779 161.048 143.601 161.229 143.244 161.229ZM156.173 161.229C155.81 161.229 155.628 161.048 155.628 160.684V148.504C155.628 148.141 155.81 147.959 156.173 147.959H163.885C164.248 147.959 164.43 148.141 164.43 148.504C164.43 148.861 164.248 149.04 163.885 149.04H156.709V153.971H161.455C161.819 153.971 162.001 154.15 162.001 154.507C162.001 154.87 161.819 155.052 161.455 155.052H156.709V160.148H163.885C164.248 160.148 164.43 160.327 164.43 160.684C164.43 161.048 164.248 161.229 163.885 161.229H156.173ZM166.459 161.085C166.171 160.859 166.14 160.601 166.367 160.313L169.6 156.216L166.634 152.396C166.408 152.122 166.435 151.868 166.717 151.634C167.005 151.421 167.259 151.452 167.479 151.727L170.372 155.444L173.378 151.727C173.604 151.432 173.858 151.404 174.14 151.645C174.428 151.871 174.459 152.122 174.232 152.396L171.041 156.319L174.171 160.324C174.397 160.619 174.37 160.869 174.088 161.075C173.8 161.308 173.543 161.281 173.316 160.993L170.289 157.101L167.211 160.982C166.984 161.278 166.734 161.312 166.459 161.085ZM177.91 165.348C177.546 165.348 177.365 165.166 177.365 164.802V152.036C177.365 151.679 177.546 151.5 177.91 151.5C178.267 151.5 178.446 151.679 178.446 152.036V152.952C178.754 152.472 179.197 152.111 179.774 151.871C180.35 151.624 181.088 151.5 181.987 151.5H182.77C184.053 151.5 184.99 151.799 185.58 152.396C186.177 152.986 186.476 153.923 186.476 155.207V157.513C186.476 158.796 186.177 159.737 185.58 160.334C184.99 160.931 184.053 161.229 182.77 161.229H178.446V164.802C178.446 165.166 178.267 165.348 177.91 165.348ZM178.446 160.148H182.77C183.751 160.148 184.434 159.956 184.818 159.572C185.203 159.181 185.395 158.494 185.395 157.513V155.207C185.395 154.225 185.203 153.542 184.818 153.158C184.434 152.774 183.751 152.581 182.77 152.581H181.987C180.889 152.581 180.045 152.753 179.455 153.096C178.871 153.439 178.535 153.968 178.446 154.682V160.148ZM192.884 161.229C191.909 161.229 191.192 161.003 190.732 160.55C190.279 160.097 190.053 159.387 190.053 158.419V147.485C190.053 147.128 190.235 146.95 190.598 146.95C190.955 146.95 191.134 147.128 191.134 147.485V158.419C191.134 159.085 191.257 159.541 191.504 159.788C191.751 160.028 192.208 160.148 192.874 160.148C193.244 160.148 193.43 160.327 193.43 160.684C193.436 161.048 193.255 161.229 192.884 161.229ZM199.081 161.229C197.798 161.229 196.858 160.934 196.261 160.344C195.663 159.747 195.365 158.81 195.365 157.533V155.207C195.365 153.91 195.663 152.966 196.261 152.376C196.858 151.778 197.798 151.487 199.081 151.5H200.77C202.053 151.5 202.99 151.799 203.58 152.396C204.178 152.986 204.476 153.923 204.476 155.207V157.513C204.476 158.796 204.178 159.737 203.58 160.334C202.99 160.931 202.053 161.229 200.77 161.229H199.081ZM196.446 157.533C196.446 158.501 196.638 159.181 197.022 159.572C197.414 159.956 198.1 160.148 199.081 160.148H200.77C201.751 160.148 202.434 159.956 202.819 159.572C203.203 159.181 203.395 158.494 203.395 157.513V155.207C203.395 154.225 203.203 153.542 202.819 153.158C202.434 152.774 201.751 152.581 200.77 152.581H199.081C198.423 152.575 197.901 152.653 197.517 152.818C197.132 152.983 196.858 153.257 196.693 153.642C196.528 154.026 196.446 154.548 196.446 155.207V157.533ZM208.595 161.229C208.231 161.229 208.049 161.048 208.049 160.684V152.036C208.049 151.679 208.231 151.5 208.595 151.5C208.952 151.5 209.13 151.679 209.13 152.036V153.621C209.487 152.935 210.002 152.41 210.675 152.046C211.354 151.682 212.157 151.5 213.084 151.5C213.448 151.5 213.629 151.679 213.629 152.036C213.629 152.4 213.448 152.581 213.084 152.581C211.862 152.581 210.915 152.859 210.242 153.415C209.57 153.964 209.199 154.75 209.13 155.773V160.684C209.13 161.048 208.952 161.229 208.595 161.229ZM218.081 161.229C217.01 161.229 216.224 160.982 215.723 160.488C215.229 159.987 214.982 159.201 214.982 158.131C214.982 157.06 215.232 156.274 215.733 155.773C216.234 155.272 217.017 155.021 218.081 155.021H222.765C222.751 154.115 222.546 153.484 222.147 153.127C221.756 152.763 221.087 152.581 220.14 152.581H218.946C218.074 152.581 217.436 152.674 217.031 152.859C216.626 153.045 216.375 153.36 216.279 153.807C216.231 153.978 216.166 154.105 216.083 154.187C216.008 154.263 215.884 154.301 215.713 154.301C215.534 154.301 215.394 154.253 215.291 154.157C215.195 154.054 215.16 153.916 215.188 153.745C215.277 152.962 215.63 152.393 216.248 152.036C216.873 151.679 217.772 151.5 218.946 151.5H220.14C221.423 151.5 222.36 151.799 222.95 152.396C223.548 152.986 223.846 153.923 223.846 155.207V160.684C223.846 161.048 223.668 161.229 223.311 161.229C222.947 161.229 222.765 161.048 222.765 160.684V159.665C222.106 160.708 220.929 161.229 219.234 161.229H218.081ZM218.081 160.148H219.234C219.9 160.148 220.483 160.076 220.984 159.932C221.492 159.781 221.9 159.541 222.209 159.212C222.518 158.882 222.703 158.443 222.765 157.894V156.102H218.081C217.319 156.102 216.79 156.25 216.495 156.545C216.207 156.833 216.063 157.362 216.063 158.131C216.063 158.892 216.207 159.421 216.495 159.716C216.79 160.004 217.319 160.148 218.081 160.148ZM231.488 161.229C230.225 161.229 229.302 160.938 228.719 160.354C228.135 159.771 227.843 158.851 227.843 157.595V152.581H226.618C226.255 152.581 226.073 152.4 226.073 152.036C226.073 151.679 226.255 151.5 226.618 151.5H227.843V149.287C227.843 148.923 228.022 148.741 228.379 148.741C228.743 148.741 228.924 148.923 228.924 149.287V151.5H231.509C231.865 151.5 232.044 151.679 232.044 152.036C232.044 152.4 231.865 152.581 231.509 152.581H228.924V157.595C228.924 158.556 229.11 159.222 229.48 159.593C229.858 159.963 230.527 160.148 231.488 160.148C231.687 160.148 231.828 160.193 231.91 160.282C231.999 160.372 232.044 160.505 232.044 160.684C232.044 161.048 231.859 161.229 231.488 161.229ZM235.203 149.627C234.729 149.627 234.492 149.383 234.492 148.896V148.432C234.492 147.959 234.729 147.722 235.203 147.722H235.666C236.126 147.722 236.356 147.959 236.356 148.432V148.896C236.356 149.383 236.126 149.627 235.666 149.627H235.203ZM235.439 161.229C235.076 161.229 234.894 161.048 234.894 160.684V152.036C234.894 151.679 235.076 151.5 235.439 151.5C235.796 151.5 235.975 151.679 235.975 152.036V160.684C235.975 161.048 235.796 161.229 235.439 161.229ZM243.259 161.229C241.975 161.229 241.035 160.934 240.438 160.344C239.841 159.747 239.542 158.81 239.542 157.533V155.207C239.542 153.91 239.841 152.966 240.438 152.376C241.035 151.778 241.975 151.487 243.259 151.5H244.947C246.231 151.5 247.168 151.799 247.758 152.396C248.355 152.986 248.654 153.923 248.654 155.207V157.513C248.654 158.796 248.355 159.737 247.758 160.334C247.168 160.931 246.231 161.229 244.947 161.229H243.259ZM240.623 157.533C240.623 158.501 240.815 159.181 241.2 159.572C241.591 159.956 242.277 160.148 243.259 160.148H244.947C245.929 160.148 246.612 159.956 246.996 159.572C247.38 159.181 247.572 158.494 247.572 157.513V155.207C247.572 154.225 247.38 153.542 246.996 153.158C246.612 152.774 245.929 152.581 244.947 152.581H243.259C242.6 152.575 242.078 152.653 241.694 152.818C241.31 152.983 241.035 153.257 240.87 153.642C240.706 154.026 240.623 154.548 240.623 155.207V157.533ZM252.772 161.229C252.409 161.229 252.227 161.048 252.227 160.684V152.036C252.227 151.679 252.409 151.5 252.772 151.5C253.129 151.5 253.308 151.679 253.308 152.036V153.024C253.96 152.008 255.14 151.5 256.849 151.5H257.426C258.709 151.5 259.646 151.799 260.237 152.396C260.834 152.986 261.132 153.923 261.132 155.207V160.684C261.132 161.048 260.954 161.229 260.597 161.229C260.233 161.229 260.051 161.048 260.051 160.684V155.207C260.051 154.225 259.856 153.542 259.464 153.158C259.08 152.774 258.401 152.581 257.426 152.581H256.849C255.786 152.581 254.948 152.75 254.337 153.086C253.726 153.422 253.383 153.947 253.308 154.661V160.684C253.308 161.048 253.129 161.229 252.772 161.229ZM95.0282 184.385C94.7879 184.653 94.5306 184.667 94.256 184.426L87.4302 178.404C86.9704 178.006 86.6135 177.645 86.3595 177.323C86.1056 176.993 85.9237 176.66 85.8139 176.324C85.7109 175.988 85.6594 175.607 85.6594 175.181C85.6594 174.124 85.9099 173.345 86.411 172.844C86.912 172.336 87.6876 172.082 88.7377 172.082H89.2525C90.2065 172.082 90.9306 172.288 91.4248 172.7C91.919 173.105 92.2107 173.736 92.2999 174.594C92.3136 174.773 92.2724 174.914 92.1764 175.017C92.0871 175.113 91.9533 175.161 91.7748 175.161C91.5964 175.161 91.4625 175.116 91.3733 175.027C91.291 174.938 91.2361 174.804 91.2086 174.625C91.1468 174.076 90.9684 173.695 90.6732 173.483C90.385 173.27 89.9114 173.163 89.2525 173.163H88.7377C87.9896 173.163 87.468 173.308 87.1728 173.596C86.8846 173.884 86.7404 174.413 86.7404 175.181C86.7404 175.497 86.7747 175.775 86.8434 176.015C86.9189 176.249 87.0596 176.489 87.2655 176.736C87.4714 176.976 87.7665 177.261 88.1509 177.59L94.9767 183.613C95.2512 183.86 95.2684 184.118 95.0282 184.385ZM88.4906 185.332C87.0012 185.332 85.9168 184.996 85.2373 184.324C84.5578 183.644 84.2181 182.56 84.2181 181.07C84.2181 179.945 84.4171 179.052 84.8152 178.393C85.2133 177.735 85.8379 177.278 86.689 177.024C86.8537 176.962 86.9978 176.969 87.1214 177.045C87.2449 177.12 87.3238 177.247 87.3582 177.426C87.3925 177.618 87.3719 177.762 87.2964 177.858C87.2209 177.947 87.1008 178.019 86.936 178.074C86.3526 178.266 85.934 178.596 85.68 179.063C85.4261 179.529 85.2991 180.199 85.2991 181.07C85.2991 181.859 85.3986 182.488 85.5977 182.954C85.8036 183.414 86.1364 183.747 86.5963 183.953C87.063 184.152 87.6945 184.251 88.4906 184.251H89.1495C89.932 184.251 90.5566 184.148 91.0233 183.943C91.49 183.737 91.8229 183.404 92.0219 182.944C92.2278 182.477 92.3308 181.853 92.3308 181.07V180.02C92.3308 179.663 92.5127 179.485 92.8764 179.485C93.2333 179.485 93.4118 179.663 93.4118 180.02V181.07C93.4118 182.546 93.072 183.627 92.3926 184.313C91.7131 184.993 90.6321 185.332 89.1495 185.332H88.4906ZM103.229 185.229C102.865 185.229 102.683 185.048 102.683 184.684V172.504C102.683 172.141 102.865 171.959 103.229 171.959H108.191C109.9 171.959 111.143 172.35 111.918 173.133C112.701 173.915 113.092 175.161 113.092 176.87V180.319C113.092 182.028 112.701 183.273 111.918 184.056C111.143 184.838 109.9 185.229 108.191 185.229H103.229ZM103.764 184.148H108.191C109.125 184.148 109.869 184.025 110.425 183.778C110.988 183.531 111.393 183.129 111.64 182.573C111.887 182.01 112.011 181.259 112.011 180.319V176.87C112.011 175.936 111.887 175.192 111.64 174.636C111.393 174.073 110.988 173.668 110.425 173.421C109.869 173.167 109.125 173.04 108.191 173.04H103.764V184.148ZM116.967 173.627C116.494 173.627 116.257 173.383 116.257 172.896V172.432C116.257 171.959 116.494 171.722 116.967 171.722H117.431C117.89 171.722 118.12 171.959 118.12 172.432V172.896C118.12 173.383 117.89 173.627 117.431 173.627H116.967ZM117.204 185.229C116.84 185.229 116.658 185.048 116.658 184.684V176.036C116.658 175.679 116.84 175.5 117.204 175.5C117.561 175.5 117.739 175.679 117.739 176.036V184.684C117.739 185.048 117.561 185.229 117.204 185.229ZM123.716 185.209C122.872 185.209 122.227 185.03 121.781 184.674C121.334 184.31 121.067 183.757 120.977 183.016C120.957 182.838 120.995 182.7 121.091 182.604C121.187 182.501 121.328 182.45 121.513 182.45C121.684 182.45 121.811 182.494 121.894 182.584C121.983 182.673 122.041 182.807 122.069 182.985C122.131 183.411 122.285 183.709 122.532 183.881C122.786 184.046 123.181 184.128 123.716 184.128H127.093C127.731 184.128 128.17 184.008 128.411 183.768C128.651 183.527 128.771 183.088 128.771 182.45C128.771 181.805 128.651 181.362 128.411 181.122C128.17 180.881 127.731 180.761 127.093 180.761H123.757C122.865 180.761 122.199 180.549 121.76 180.123C121.328 179.691 121.111 179.028 121.111 178.136C121.111 177.223 121.328 176.554 121.76 176.128C122.192 175.696 122.858 175.48 123.757 175.48H126.99C128.541 175.48 129.402 176.166 129.574 177.539C129.602 177.717 129.564 177.858 129.461 177.961C129.365 178.057 129.227 178.105 129.049 178.105C128.877 178.105 128.747 178.061 128.658 177.971C128.575 177.882 128.517 177.752 128.483 177.58C128.435 177.196 128.294 176.931 128.061 176.787C127.834 176.636 127.477 176.561 126.99 176.561H123.757C123.16 176.561 122.748 176.671 122.522 176.89C122.302 177.11 122.192 177.525 122.192 178.136C122.192 178.719 122.306 179.124 122.532 179.351C122.759 179.571 123.167 179.68 123.757 179.68H127.093C128.04 179.68 128.737 179.907 129.183 180.36C129.629 180.806 129.852 181.503 129.852 182.45C129.852 183.39 129.629 184.087 129.183 184.54C128.737 184.986 128.04 185.209 127.093 185.209H123.716ZM136.525 185.229C135.242 185.229 134.302 184.931 133.704 184.334C133.107 183.737 132.809 182.796 132.809 181.513V179.186C132.809 177.903 133.104 176.966 133.694 176.376C134.291 175.778 135.235 175.487 136.525 175.5H138.214C139.223 175.5 139.991 175.672 140.52 176.015C141.055 176.352 141.374 176.883 141.477 177.611C141.498 177.796 141.457 177.937 141.354 178.033C141.258 178.129 141.12 178.177 140.942 178.177C140.777 178.177 140.654 178.136 140.571 178.054C140.489 177.964 140.427 177.837 140.386 177.673C140.311 177.275 140.108 176.993 139.779 176.829C139.449 176.664 138.928 176.581 138.214 176.581H136.525C135.544 176.568 134.858 176.753 134.466 177.137C134.082 177.515 133.89 178.198 133.89 179.186V181.513C133.89 182.494 134.082 183.181 134.466 183.572C134.858 183.956 135.544 184.148 136.525 184.148H138.214C138.928 184.148 139.449 184.066 139.779 183.901C140.108 183.737 140.311 183.452 140.386 183.047C140.427 182.882 140.489 182.759 140.571 182.676C140.654 182.587 140.777 182.542 140.942 182.542C141.12 182.542 141.258 182.594 141.354 182.697C141.457 182.793 141.498 182.93 141.477 183.109C141.374 183.836 141.055 184.372 140.52 184.715C139.991 185.058 139.223 185.229 138.214 185.229H136.525ZM148.289 185.229C147.005 185.229 146.065 184.934 145.468 184.344C144.87 183.747 144.572 182.81 144.572 181.533V179.207C144.572 177.91 144.87 176.966 145.468 176.376C146.065 175.778 147.005 175.487 148.289 175.5H149.977C151.26 175.5 152.197 175.799 152.788 176.396C153.385 176.986 153.683 177.923 153.683 179.207V181.513C153.683 182.796 153.385 183.737 152.788 184.334C152.197 184.931 151.26 185.229 149.977 185.229H148.289ZM145.653 181.533C145.653 182.501 145.845 183.181 146.229 183.572C146.621 183.956 147.307 184.148 148.289 184.148H149.977C150.958 184.148 151.641 183.956 152.026 183.572C152.41 183.181 152.602 182.494 152.602 181.513V179.207C152.602 178.225 152.41 177.542 152.026 177.158C151.641 176.774 150.958 176.581 149.977 176.581H148.289C147.63 176.575 147.108 176.653 146.724 176.818C146.339 176.983 146.065 177.257 145.9 177.642C145.735 178.026 145.653 178.548 145.653 179.207V181.533ZM160.592 184.818C160.516 184.982 160.423 185.092 160.314 185.147C160.204 185.202 160.077 185.229 159.933 185.229C159.631 185.229 159.418 185.089 159.294 184.807L155.475 176.252C155.331 175.916 155.43 175.682 155.773 175.552C156.096 175.415 156.329 175.511 156.473 175.84L160.283 184.365H159.624L163.68 175.83C163.756 175.672 163.855 175.569 163.979 175.521C164.102 175.473 164.243 175.483 164.401 175.552C164.737 175.703 164.83 175.943 164.679 176.273L160.592 184.818ZM167.571 180.782V181.533C167.571 182.501 167.763 183.181 168.147 183.572C168.538 183.956 169.225 184.148 170.206 184.148H171.895C172.76 184.148 173.388 184.039 173.779 183.819C174.177 183.593 174.414 183.205 174.489 182.656C174.517 182.484 174.571 182.354 174.654 182.264C174.743 182.175 174.877 182.131 175.055 182.131C175.234 182.131 175.368 182.182 175.457 182.285C175.553 182.381 175.591 182.518 175.57 182.697C175.481 183.562 175.134 184.2 174.53 184.612C173.926 185.024 173.048 185.229 171.895 185.229H170.206C168.923 185.229 167.983 184.934 167.385 184.344C166.788 183.747 166.49 182.81 166.49 181.533V179.207C166.49 177.91 166.788 176.966 167.385 176.376C167.983 175.778 168.923 175.487 170.206 175.5H171.895C173.178 175.5 174.115 175.799 174.705 176.396C175.302 176.986 175.601 177.923 175.601 179.207V180.236C175.601 180.6 175.423 180.782 175.066 180.782H167.571ZM170.206 176.581C169.225 176.568 168.538 176.756 168.147 177.148C167.763 177.532 167.571 178.218 167.571 179.207V179.701H174.52V179.207C174.52 178.225 174.328 177.542 173.943 177.158C173.559 176.774 172.876 176.581 171.895 176.581H170.206ZM179.72 185.229C179.356 185.229 179.174 185.048 179.174 184.684V176.036C179.174 175.679 179.356 175.5 179.72 175.5C180.077 175.5 180.255 175.679 180.255 176.036V177.621C180.612 176.935 181.127 176.41 181.8 176.046C182.479 175.682 183.282 175.5 184.209 175.5C184.572 175.5 184.754 175.679 184.754 176.036C184.754 176.4 184.572 176.581 184.209 176.581C182.987 176.581 182.04 176.859 181.367 177.415C180.695 177.964 180.324 178.75 180.255 179.773V184.684C180.255 185.048 180.077 185.229 179.72 185.229ZM189.386 189.348C188.487 189.348 187.821 189.131 187.389 188.699C186.963 188.267 186.751 187.594 186.751 186.681C186.751 186.324 186.929 186.146 187.286 186.146C187.65 186.146 187.832 186.324 187.832 186.681C187.832 187.299 187.942 187.718 188.161 187.937C188.381 188.157 188.789 188.267 189.386 188.267H192.948C193.552 188.267 193.964 188.157 194.184 187.937C194.404 187.718 194.513 187.299 194.513 186.681V183.85C194.122 184.365 193.631 184.725 193.041 184.931C192.451 185.137 191.761 185.24 190.972 185.24H190.395C189.132 185.24 188.209 184.948 187.626 184.365C187.042 183.781 186.751 182.865 186.751 181.616V176.025C186.751 175.662 186.929 175.48 187.286 175.48C187.65 175.48 187.832 175.662 187.832 176.025V181.616C187.832 182.57 188.017 183.232 188.388 183.603C188.765 183.973 189.434 184.159 190.395 184.159H190.972C192.173 184.159 193.062 183.949 193.638 183.531C194.222 183.105 194.513 182.467 194.513 181.616V176.025C194.513 175.662 194.692 175.48 195.049 175.48C195.412 175.48 195.594 175.662 195.594 176.025V186.681C195.594 187.594 195.378 188.267 194.946 188.699C194.52 189.131 193.854 189.348 192.948 189.348H189.386Z" fill="#AAAAAA"/>
<path d="M386.18 58.7285C393.318 58.7287 399.564 64.3559 399.564 71.8516C399.564 79.3474 393.318 84.9744 386.18 84.9746C379.153 84.9746 372.991 79.5225 372.8 72.2021L372.795 71.8516L372.8 71.502C372.991 64.1814 379.153 58.7285 386.18 58.7285Z" fill="#FEF355" stroke="black" stroke-width="13.3839"/>
</svg>
