<svg width="518" height="271" viewBox="0 0 518 271" fill="none" xmlns="http://www.w3.org/2000/svg">
<path d="M363.266 108.123C377.071 39.7431 447.412 -7.94727 517.5 1.10211V52.1299C468.818 42.9469 418.32 70.3436 408.631 126.868C404.384 150.034 406.83 174.209 394.629 195.799C364.099 249.035 328.598 267.367 281.057 270.805V270.935L0 270.805V218.577C10.2661 217.698 297.746 224.421 300.541 218.577C326.475 209.269 334.027 197.738 352.167 169.478C361.385 149.646 360.149 128.859 363.266 108.123Z" fill="white"/>
<path d="M108.457 103.416V76.6973H100.098V76.502L101.68 73.1426H120.723V73.3379L119.141 76.6973H112.363V101.658L108.652 103.416H108.457ZM122.773 103.416V74.1191L126.484 72.3613H126.68V81.7559C127.253 81.3522 127.904 81.1504 128.633 81.1504H133.125C137.031 81.1504 138.984 83.1035 138.984 87.0098V101.658L135.273 103.416H135.078V87.0098C135.078 85.4473 134.427 84.666 133.125 84.666H128.633C127.331 84.666 126.68 85.4473 126.68 87.0098V101.658L122.969 103.416H122.773ZM150.703 102.635C146.797 102.635 144.844 100.682 144.844 96.7754V87.0098C144.844 83.1035 146.797 81.1504 150.703 81.1504H155.195C159.102 81.1504 161.055 83.1035 161.055 87.0098V88.0449L148.809 97.5176C148.991 98.5853 149.622 99.1191 150.703 99.1191H155.195C156.497 99.1191 157.148 98.3379 157.148 96.7754V95.7402L160.859 93.9824H161.055V96.7754C161.055 100.682 159.102 102.635 155.195 102.635H150.703ZM148.75 93.4355L157.129 86.6777C157.051 85.3366 156.406 84.666 155.195 84.666H150.703C149.401 84.666 148.75 85.4473 148.75 87.0098V93.4355ZM110.742 137.635C106.185 137.635 103.906 135.356 103.906 130.799V114.979C103.906 110.421 106.185 108.143 110.742 108.143H116.797C121.354 108.143 123.633 110.421 123.633 114.979V117.127L119.922 118.885H119.727V114.979C119.727 112.765 118.75 111.658 116.797 111.658H110.742C108.789 111.658 107.812 112.765 107.812 114.979V130.799C107.812 133.012 108.789 134.119 110.742 134.119H116.797C118.75 134.119 119.727 133.012 119.727 130.799V128.65L123.438 126.893H123.633V130.799C123.633 135.356 121.354 137.635 116.797 137.635H110.742ZM130.469 138.416V122.01C130.469 118.104 132.422 116.15 136.328 116.15H141.211V116.346L139.648 119.666H136.328C135.026 119.666 134.375 120.447 134.375 122.01V136.658L130.664 138.416H130.469ZM150.391 134.119H154.883C156.185 134.119 156.836 133.338 156.836 131.775V122.01C156.836 120.447 156.185 119.666 154.883 119.666H150.391C149.089 119.666 148.438 120.447 148.438 122.01V131.775C148.438 133.338 149.089 134.119 150.391 134.119ZM150.391 137.635C146.484 137.635 144.531 135.682 144.531 131.775V122.01C144.531 118.104 146.484 116.15 150.391 116.15H154.883C158.789 116.15 160.742 118.104 160.742 122.01V131.775C160.742 135.682 158.789 137.635 154.883 137.635H150.391ZM171.875 137.635C167.969 137.635 166.016 135.682 166.016 131.775V131.072L169.727 129.314H169.922V131.775C169.922 133.338 170.573 134.119 171.875 134.119H176.367C177.669 134.119 178.32 133.338 178.32 131.775V130.232C178.32 128.67 177.669 127.889 176.367 127.889H172.695C168.789 127.889 166.836 125.929 166.836 122.01C166.836 118.104 168.789 116.15 172.695 116.15H174.98C178.887 116.15 180.84 117.726 180.84 120.877L177.129 122.635H176.934V122.01C176.934 120.447 176.283 119.666 174.98 119.666H172.695C171.393 119.666 170.742 120.447 170.742 122.01C170.742 123.585 171.393 124.373 172.695 124.373H176.367C180.273 124.373 182.227 126.326 182.227 130.232V131.775C182.227 135.682 180.273 137.635 176.367 137.635H171.875ZM192.773 137.635C188.867 137.635 186.914 135.682 186.914 131.775V131.072L190.625 129.314H190.82V131.775C190.82 133.338 191.471 134.119 192.773 134.119H197.266C198.568 134.119 199.219 133.338 199.219 131.775V130.232C199.219 128.67 198.568 127.889 197.266 127.889H193.594C189.688 127.889 187.734 125.929 187.734 122.01C187.734 118.104 189.688 116.15 193.594 116.15H195.879C199.785 116.15 201.738 117.726 201.738 120.877L198.027 122.635H197.832V122.01C197.832 120.447 197.181 119.666 195.879 119.666H193.594C192.292 119.666 191.641 120.447 191.641 122.01C191.641 123.585 192.292 124.373 193.594 124.373H197.266C201.172 124.373 203.125 126.326 203.125 130.232V131.775C203.125 135.682 201.172 137.635 197.266 137.635H192.773ZM215.234 137.635C214.349 137.635 213.698 137.433 213.281 137.029V144.666L209.57 146.424H209.375V122.01C209.375 118.104 211.328 116.15 215.234 116.15H219.727C223.633 116.15 225.586 118.104 225.586 122.01V131.775C225.586 135.682 223.633 137.635 219.727 137.635H215.234ZM215.234 134.119H219.727C221.029 134.119 221.68 133.338 221.68 131.775V122.01C221.68 120.447 221.029 119.666 219.727 119.666H215.234C213.932 119.666 213.281 120.447 213.281 122.01V131.775C213.281 133.338 213.932 134.119 215.234 134.119ZM236.328 134.119H240.43C241.732 134.119 242.383 133.338 242.383 131.775V129.1C242.383 127.537 241.732 126.756 240.43 126.756H236.328C235.026 126.756 234.375 127.537 234.375 129.1V131.775C234.375 133.338 235.026 134.119 236.328 134.119ZM236.328 137.635C232.422 137.635 230.469 135.682 230.469 131.775V129.1C230.469 125.193 232.422 123.24 236.328 123.24H240.43C241.107 123.24 241.758 123.436 242.383 123.826V122.01C242.383 120.447 241.732 119.666 240.43 119.666H233.438V119.471L235 116.15H240.43C244.336 116.15 246.289 118.104 246.289 122.01V136.658L242.578 138.416H242.383V137.049C241.888 137.439 241.237 137.635 240.43 137.635H236.328ZM254.727 138.416V119.705H249.707V119.51L251.289 116.15H254.727V109.119L258.438 107.361H258.633V116.15H263.652V116.346L262.07 119.705H258.633V136.658L254.922 138.416H254.727ZM268.047 138.416V109.119L271.758 107.361H271.953V116.756C272.526 116.352 273.177 116.15 273.906 116.15H278.398C282.305 116.15 284.258 118.104 284.258 122.01V136.658L280.547 138.416H280.352V122.01C280.352 120.447 279.701 119.666 278.398 119.666H273.906C272.604 119.666 271.953 120.447 271.953 122.01V136.658L268.242 138.416H268.047ZM295.391 137.635C291.484 137.635 289.531 135.682 289.531 131.775V131.072L293.242 129.314H293.438V131.775C293.438 133.338 294.089 134.119 295.391 134.119H299.883C301.185 134.119 301.836 133.338 301.836 131.775V130.232C301.836 128.67 301.185 127.889 299.883 127.889H296.211C292.305 127.889 290.352 125.929 290.352 122.01C290.352 118.104 292.305 116.15 296.211 116.15H298.496C302.402 116.15 304.355 117.726 304.355 120.877L300.645 122.635H300.449V122.01C300.449 120.447 299.798 119.666 298.496 119.666H296.211C294.909 119.666 294.258 120.447 294.258 122.01C294.258 123.585 294.909 124.373 296.211 124.373H299.883C303.789 124.373 305.742 126.326 305.742 130.232V131.775C305.742 135.682 303.789 137.635 299.883 137.635H295.391Z" fill="white"/>
<path d="M54.48 102.595C51.4267 102.595 49.1667 101.868 47.7 100.415C46.2467 98.9481 45.52 96.6881 45.52 93.6348V84.3948C45.52 81.3148 46.2467 79.0481 47.7 77.5948C49.1667 76.1414 51.4267 75.4348 54.48 75.4748H56.88C59.9467 75.4748 62.2067 76.2014 63.66 77.6548C65.1133 79.0948 65.84 81.3548 65.84 84.4348V93.6348C65.84 96.6881 65.1133 98.9481 63.66 100.415C62.2067 101.868 59.9467 102.595 56.88 102.595H54.48ZM54.48 99.2348H56.88C58.3067 99.2348 59.4267 99.0614 60.24 98.7148C61.0533 98.3681 61.6267 97.7881 61.96 96.9748C62.3067 96.1614 62.48 95.0481 62.48 93.6348V84.4348C62.48 83.0081 62.3067 81.8881 61.96 81.0748C61.6267 80.2614 61.0533 79.6881 60.24 79.3548C59.4267 79.0081 58.3067 78.8348 56.88 78.8348H54.48C53.0667 78.8081 51.9533 78.9614 51.14 79.2948C50.3267 79.6148 49.7467 80.1881 49.4 81.0148C49.0533 81.8281 48.88 82.9548 48.88 84.3948V93.6348C48.88 95.0481 49.0467 96.1614 49.38 96.9748C49.7267 97.7881 50.3067 98.3681 51.12 98.7148C51.9333 99.0614 53.0533 99.2348 54.48 99.2348ZM55.2 90.9948C54.1333 90.9948 53.6 90.4614 53.6 89.3948V88.3948C53.6 87.3548 54.1333 86.8348 55.2 86.8348H56.16C57.1733 86.8348 57.68 87.3548 57.68 88.3948V89.3948C57.68 90.4614 57.1733 90.9948 56.16 90.9948H55.2ZM78.8331 102.635C77.7131 102.635 77.1531 102.075 77.1531 100.955V80.3148L78.0731 79.6748L73.6731 83.7948C73.3398 84.1148 72.9865 84.3081 72.6131 84.3748C72.2398 84.4281 71.8731 84.2748 71.5131 83.9148C70.7931 83.1948 70.8331 82.4348 71.6331 81.6348L76.9931 76.3548C77.5531 75.7948 78.2465 75.5148 79.0731 75.5148C80.0331 75.5148 80.5131 76.0748 80.5131 77.1948V100.955C80.5131 102.075 79.9531 102.635 78.8331 102.635Z" fill="#FEF355"/>
<path d="M106.77 174.635C105.323 174.635 104.267 174.301 103.6 173.635C102.933 172.968 102.6 171.911 102.6 170.465V165.915C102.6 164.455 102.93 163.395 103.59 162.735C104.257 162.075 105.31 161.745 106.75 161.745H109.17C110.397 161.745 111.31 162.001 111.91 162.515C112.51 163.021 112.84 163.838 112.9 164.965C112.92 165.145 112.883 165.281 112.79 165.375C112.703 165.468 112.573 165.515 112.4 165.515C112.067 165.515 111.883 165.338 111.85 164.985C111.803 164.158 111.577 163.588 111.17 163.275C110.763 162.955 110.097 162.795 109.17 162.795H106.75C105.983 162.795 105.373 162.895 104.92 163.095C104.467 163.288 104.14 163.615 103.94 164.075C103.747 164.528 103.65 165.141 103.65 165.915V170.465C103.65 171.238 103.75 171.851 103.95 172.305C104.15 172.758 104.477 173.085 104.93 173.285C105.383 173.485 105.997 173.585 106.77 173.585H109.17C110.097 173.585 110.763 173.428 111.17 173.115C111.577 172.795 111.803 172.221 111.85 171.395C111.883 171.041 112.067 170.865 112.4 170.865C112.573 170.865 112.703 170.915 112.79 171.015C112.883 171.108 112.92 171.241 112.9 171.415C112.84 172.541 112.51 173.361 111.91 173.875C111.31 174.381 110.397 174.635 109.17 174.635H106.77ZM118.59 174.635C117.55 174.635 116.787 174.395 116.3 173.915C115.82 173.428 115.58 172.665 115.58 171.625C115.58 170.585 115.823 169.821 116.31 169.335C116.797 168.848 117.557 168.605 118.59 168.605H123.14C123.127 167.725 122.927 167.111 122.54 166.765C122.16 166.411 121.51 166.235 120.59 166.235H119.43C118.583 166.235 117.963 166.325 117.57 166.505C117.177 166.685 116.933 166.991 116.84 167.425C116.793 167.591 116.73 167.715 116.65 167.795C116.577 167.868 116.457 167.905 116.29 167.905C116.117 167.905 115.98 167.858 115.88 167.765C115.787 167.665 115.753 167.531 115.78 167.365C115.867 166.605 116.21 166.051 116.81 165.705C117.417 165.358 118.29 165.185 119.43 165.185H120.59C121.837 165.185 122.747 165.475 123.32 166.055C123.9 166.628 124.19 167.538 124.19 168.785V174.105C124.19 174.458 124.017 174.635 123.67 174.635C123.317 174.635 123.14 174.458 123.14 174.105V173.115C122.5 174.128 121.357 174.635 119.71 174.635H118.59ZM118.59 173.585H119.71C120.357 173.585 120.923 173.515 121.41 173.375C121.903 173.228 122.3 172.995 122.6 172.675C122.9 172.355 123.08 171.928 123.14 171.395V169.655H118.59C117.85 169.655 117.337 169.798 117.05 170.085C116.77 170.365 116.63 170.878 116.63 171.625C116.63 172.365 116.77 172.878 117.05 173.165C117.337 173.445 117.85 173.585 118.59 173.585ZM128.283 174.635C127.929 174.635 127.753 174.458 127.753 174.105V165.705C127.753 165.358 127.929 165.185 128.283 165.185C128.629 165.185 128.803 165.358 128.803 165.705V167.245C129.149 166.578 129.649 166.068 130.303 165.715C130.963 165.361 131.743 165.185 132.643 165.185C132.996 165.185 133.173 165.358 133.173 165.705C133.173 166.058 132.996 166.235 132.643 166.235C131.456 166.235 130.536 166.505 129.883 167.045C129.229 167.578 128.869 168.341 128.803 169.335V174.105C128.803 174.458 128.629 174.635 128.283 174.635ZM135.681 170.315V171.045C135.681 171.985 135.868 172.645 136.241 173.025C136.621 173.398 137.288 173.585 138.241 173.585H139.881C140.721 173.585 141.331 173.478 141.711 173.265C142.098 173.045 142.328 172.668 142.401 172.135C142.428 171.968 142.481 171.841 142.561 171.755C142.648 171.668 142.778 171.625 142.951 171.625C143.125 171.625 143.255 171.675 143.341 171.775C143.435 171.868 143.471 172.001 143.451 172.175C143.365 173.015 143.028 173.635 142.441 174.035C141.855 174.435 141.001 174.635 139.881 174.635H138.241C136.995 174.635 136.081 174.348 135.501 173.775C134.921 173.195 134.631 172.285 134.631 171.045V168.785C134.631 167.525 134.921 166.608 135.501 166.035C136.081 165.455 136.995 165.171 138.241 165.185H139.881C141.128 165.185 142.038 165.475 142.611 166.055C143.191 166.628 143.481 167.538 143.481 168.785V169.785C143.481 170.138 143.308 170.315 142.961 170.315H135.681ZM138.241 166.235C137.288 166.221 136.621 166.405 136.241 166.785C135.868 167.158 135.681 167.825 135.681 168.785V169.265H142.431V168.785C142.431 167.831 142.245 167.168 141.871 166.795C141.498 166.421 140.835 166.235 139.881 166.235H138.241ZM147.732 170.315V171.045C147.732 171.985 147.919 172.645 148.292 173.025C148.672 173.398 149.339 173.585 150.292 173.585H151.932C152.772 173.585 153.382 173.478 153.762 173.265C154.149 173.045 154.379 172.668 154.452 172.135C154.479 171.968 154.532 171.841 154.612 171.755C154.699 171.668 154.829 171.625 155.002 171.625C155.175 171.625 155.305 171.675 155.392 171.775C155.485 171.868 155.522 172.001 155.502 172.175C155.415 173.015 155.079 173.635 154.492 174.035C153.905 174.435 153.052 174.635 151.932 174.635H150.292C149.045 174.635 148.132 174.348 147.552 173.775C146.972 173.195 146.682 172.285 146.682 171.045V168.785C146.682 167.525 146.972 166.608 147.552 166.035C148.132 165.455 149.045 165.171 150.292 165.185H151.932C153.179 165.185 154.089 165.475 154.662 166.055C155.242 166.628 155.532 167.538 155.532 168.785V169.785C155.532 170.138 155.359 170.315 155.012 170.315H147.732ZM150.292 166.235C149.339 166.221 148.672 166.405 148.292 166.785C147.919 167.158 147.732 167.825 147.732 168.785V169.265H154.482V168.785C154.482 167.831 154.295 167.168 153.922 166.795C153.549 166.421 152.885 166.235 151.932 166.235H150.292ZM159.533 174.635C159.179 174.635 159.003 174.458 159.003 174.105V165.705C159.003 165.358 159.179 165.185 159.533 165.185C159.879 165.185 160.053 165.358 160.053 165.705V167.245C160.399 166.578 160.899 166.068 161.553 165.715C162.213 165.361 162.993 165.185 163.893 165.185C164.246 165.185 164.423 165.358 164.423 165.705C164.423 166.058 164.246 166.235 163.893 166.235C162.706 166.235 161.786 166.505 161.133 167.045C160.479 167.578 160.119 168.341 160.053 169.335V174.105C160.053 174.458 159.879 174.635 159.533 174.635ZM172.091 174.635C171.738 174.635 171.561 174.458 171.561 174.105V162.275C171.561 161.921 171.738 161.745 172.091 161.745H179.581C179.935 161.745 180.111 161.921 180.111 162.275C180.111 162.621 179.935 162.795 179.581 162.795H172.611V167.585H177.221C177.575 167.585 177.751 167.758 177.751 168.105C177.751 168.458 177.575 168.635 177.221 168.635H172.611V173.585H179.581C179.935 173.585 180.111 173.758 180.111 174.105C180.111 174.458 179.935 174.635 179.581 174.635H172.091ZM182.082 174.495C181.802 174.275 181.772 174.025 181.992 173.745L185.132 169.765L182.252 166.055C182.032 165.788 182.059 165.541 182.332 165.315C182.612 165.108 182.859 165.138 183.072 165.405L185.882 169.015L188.802 165.405C189.022 165.118 189.269 165.091 189.542 165.325C189.822 165.545 189.852 165.788 189.632 166.055L186.532 169.865L189.572 173.755C189.792 174.041 189.766 174.285 189.492 174.485C189.212 174.711 188.962 174.685 188.742 174.405L185.802 170.625L182.812 174.395C182.592 174.681 182.349 174.715 182.082 174.495ZM193.205 178.635C192.851 178.635 192.675 178.458 192.675 178.105V165.705C192.675 165.358 192.851 165.185 193.205 165.185C193.551 165.185 193.725 165.358 193.725 165.705V166.595C194.025 166.128 194.455 165.778 195.015 165.545C195.575 165.305 196.291 165.185 197.165 165.185H197.925C199.171 165.185 200.081 165.475 200.655 166.055C201.235 166.628 201.525 167.538 201.525 168.785V171.025C201.525 172.271 201.235 173.185 200.655 173.765C200.081 174.345 199.171 174.635 197.925 174.635H193.725V178.105C193.725 178.458 193.551 178.635 193.205 178.635ZM193.725 173.585H197.925C198.878 173.585 199.541 173.398 199.915 173.025C200.288 172.645 200.475 171.978 200.475 171.025V168.785C200.475 167.831 200.288 167.168 199.915 166.795C199.541 166.421 198.878 166.235 197.925 166.235H197.165C196.098 166.235 195.278 166.401 194.705 166.735C194.138 167.068 193.811 167.581 193.725 168.275V173.585ZM207.749 174.635C206.802 174.635 206.106 174.415 205.659 173.975C205.219 173.535 204.999 172.845 204.999 171.905V161.285C204.999 160.938 205.176 160.765 205.529 160.765C205.876 160.765 206.049 160.938 206.049 161.285V171.905C206.049 172.551 206.169 172.995 206.409 173.235C206.649 173.468 207.092 173.585 207.739 173.585C208.099 173.585 208.279 173.758 208.279 174.105C208.286 174.458 208.109 174.635 207.749 174.635ZM213.769 174.635C212.522 174.635 211.609 174.348 211.029 173.775C210.449 173.195 210.159 172.285 210.159 171.045V168.785C210.159 167.525 210.449 166.608 211.029 166.035C211.609 165.455 212.522 165.171 213.769 165.185H215.409C216.655 165.185 217.565 165.475 218.139 166.055C218.719 166.628 219.009 167.538 219.009 168.785V171.025C219.009 172.271 218.719 173.185 218.139 173.765C217.565 174.345 216.655 174.635 215.409 174.635H213.769ZM211.209 171.045C211.209 171.985 211.395 172.645 211.769 173.025C212.149 173.398 212.815 173.585 213.769 173.585H215.409C216.362 173.585 217.025 173.398 217.399 173.025C217.772 172.645 217.959 171.978 217.959 171.025V168.785C217.959 167.831 217.772 167.168 217.399 166.795C217.025 166.421 216.362 166.235 215.409 166.235H213.769C213.129 166.228 212.622 166.305 212.249 166.465C211.875 166.625 211.609 166.891 211.449 167.265C211.289 167.638 211.209 168.145 211.209 168.785V171.045ZM223.009 174.635C222.656 174.635 222.479 174.458 222.479 174.105V165.705C222.479 165.358 222.656 165.185 223.009 165.185C223.356 165.185 223.529 165.358 223.529 165.705V167.245C223.876 166.578 224.376 166.068 225.029 165.715C225.689 165.361 226.469 165.185 227.369 165.185C227.723 165.185 227.899 165.358 227.899 165.705C227.899 166.058 227.723 166.235 227.369 166.235C226.183 166.235 225.263 166.505 224.609 167.045C223.956 167.578 223.596 168.341 223.529 169.335V174.105C223.529 174.458 223.356 174.635 223.009 174.635ZM232.223 174.635C231.183 174.635 230.42 174.395 229.933 173.915C229.453 173.428 229.213 172.665 229.213 171.625C229.213 170.585 229.456 169.821 229.943 169.335C230.43 168.848 231.19 168.605 232.223 168.605H236.773C236.76 167.725 236.56 167.111 236.173 166.765C235.793 166.411 235.143 166.235 234.223 166.235H233.063C232.216 166.235 231.596 166.325 231.203 166.505C230.81 166.685 230.566 166.991 230.473 167.425C230.426 167.591 230.363 167.715 230.283 167.795C230.21 167.868 230.09 167.905 229.923 167.905C229.75 167.905 229.613 167.858 229.513 167.765C229.42 167.665 229.386 167.531 229.413 167.365C229.5 166.605 229.843 166.051 230.443 165.705C231.05 165.358 231.923 165.185 233.063 165.185H234.223C235.47 165.185 236.38 165.475 236.953 166.055C237.533 166.628 237.823 167.538 237.823 168.785V174.105C237.823 174.458 237.65 174.635 237.303 174.635C236.95 174.635 236.773 174.458 236.773 174.105V173.115C236.133 174.128 234.99 174.635 233.343 174.635H232.223ZM232.223 173.585H233.343C233.99 173.585 234.556 173.515 235.043 173.375C235.536 173.228 235.933 172.995 236.233 172.675C236.533 172.355 236.713 171.928 236.773 171.395V169.655H232.223C231.483 169.655 230.97 169.798 230.683 170.085C230.403 170.365 230.263 170.878 230.263 171.625C230.263 172.365 230.403 172.878 230.683 173.165C230.97 173.445 231.483 173.585 232.223 173.585ZM245.246 174.635C244.019 174.635 243.122 174.351 242.556 173.785C241.989 173.218 241.706 172.325 241.706 171.105V166.235H240.516C240.162 166.235 239.986 166.058 239.986 165.705C239.986 165.358 240.162 165.185 240.516 165.185H241.706V163.035C241.706 162.681 241.879 162.505 242.226 162.505C242.579 162.505 242.756 162.681 242.756 163.035V165.185H245.266C245.612 165.185 245.786 165.358 245.786 165.705C245.786 166.058 245.612 166.235 245.266 166.235H242.756V171.105C242.756 172.038 242.936 172.685 243.296 173.045C243.662 173.405 244.312 173.585 245.246 173.585C245.439 173.585 245.576 173.628 245.656 173.715C245.742 173.801 245.786 173.931 245.786 174.105C245.786 174.458 245.606 174.635 245.246 174.635ZM248.854 163.365C248.394 163.365 248.164 163.128 248.164 162.655V162.205C248.164 161.745 248.394 161.515 248.854 161.515H249.304C249.75 161.515 249.974 161.745 249.974 162.205V162.655C249.974 163.128 249.75 163.365 249.304 163.365H248.854ZM249.084 174.635C248.73 174.635 248.554 174.458 248.554 174.105V165.705C248.554 165.358 248.73 165.185 249.084 165.185C249.43 165.185 249.604 165.358 249.604 165.705V174.105C249.604 174.458 249.43 174.635 249.084 174.635ZM256.679 174.635C255.432 174.635 254.519 174.348 253.939 173.775C253.359 173.195 253.069 172.285 253.069 171.045V168.785C253.069 167.525 253.359 166.608 253.939 166.035C254.519 165.455 255.432 165.171 256.679 165.185H258.319C259.565 165.185 260.475 165.475 261.049 166.055C261.629 166.628 261.919 167.538 261.919 168.785V171.025C261.919 172.271 261.629 173.185 261.049 173.765C260.475 174.345 259.565 174.635 258.319 174.635H256.679ZM254.119 171.045C254.119 171.985 254.305 172.645 254.679 173.025C255.059 173.398 255.725 173.585 256.679 173.585H258.319C259.272 173.585 259.935 173.398 260.309 173.025C260.682 172.645 260.869 171.978 260.869 171.025V168.785C260.869 167.831 260.682 167.168 260.309 166.795C259.935 166.421 259.272 166.235 258.319 166.235H256.679C256.039 166.228 255.532 166.305 255.159 166.465C254.785 166.625 254.519 166.891 254.359 167.265C254.199 167.638 254.119 168.145 254.119 168.785V171.045ZM265.92 174.635C265.566 174.635 265.39 174.458 265.39 174.105V165.705C265.39 165.358 265.566 165.185 265.92 165.185C266.266 165.185 266.44 165.358 266.44 165.705V166.665C267.073 165.678 268.22 165.185 269.88 165.185H270.44C271.686 165.185 272.596 165.475 273.17 166.055C273.75 166.628 274.04 167.538 274.04 168.785V174.105C274.04 174.458 273.866 174.635 273.52 174.635C273.166 174.635 272.99 174.458 272.99 174.105V168.785C272.99 167.831 272.8 167.168 272.42 166.795C272.046 166.421 271.386 166.235 270.44 166.235H269.88C268.846 166.235 268.033 166.398 267.44 166.725C266.846 167.051 266.513 167.561 266.44 168.255V174.105C266.44 174.458 266.266 174.635 265.92 174.635ZM112.7 197.815C112.467 198.075 112.217 198.088 111.95 197.855L105.32 192.005C104.873 191.618 104.527 191.268 104.28 190.955C104.033 190.635 103.857 190.311 103.75 189.985C103.65 189.658 103.6 189.288 103.6 188.875C103.6 187.848 103.843 187.091 104.33 186.605C104.817 186.111 105.57 185.865 106.59 185.865H107.09C108.017 185.865 108.72 186.065 109.2 186.465C109.68 186.858 109.963 187.471 110.05 188.305C110.063 188.478 110.023 188.615 109.93 188.715C109.843 188.808 109.713 188.855 109.54 188.855C109.367 188.855 109.237 188.811 109.15 188.725C109.07 188.638 109.017 188.508 108.99 188.335C108.93 187.801 108.757 187.431 108.47 187.225C108.19 187.018 107.73 186.915 107.09 186.915H106.59C105.863 186.915 105.357 187.055 105.07 187.335C104.79 187.615 104.65 188.128 104.65 188.875C104.65 189.181 104.683 189.451 104.75 189.685C104.823 189.911 104.96 190.145 105.16 190.385C105.36 190.618 105.647 190.895 106.02 191.215L112.65 197.065C112.917 197.305 112.933 197.555 112.7 197.815ZM106.35 198.735C104.903 198.735 103.85 198.408 103.19 197.755C102.53 197.095 102.2 196.041 102.2 194.595C102.2 193.501 102.393 192.635 102.78 191.995C103.167 191.355 103.773 190.911 104.6 190.665C104.76 190.605 104.9 190.611 105.02 190.685C105.14 190.758 105.217 190.881 105.25 191.055C105.283 191.241 105.263 191.381 105.19 191.475C105.117 191.561 105 191.631 104.84 191.685C104.273 191.871 103.867 192.191 103.62 192.645C103.373 193.098 103.25 193.748 103.25 194.595C103.25 195.361 103.347 195.971 103.54 196.425C103.74 196.871 104.063 197.195 104.51 197.395C104.963 197.588 105.577 197.685 106.35 197.685H106.99C107.75 197.685 108.357 197.585 108.81 197.385C109.263 197.185 109.587 196.861 109.78 196.415C109.98 195.961 110.08 195.355 110.08 194.595V193.575C110.08 193.228 110.257 193.055 110.61 193.055C110.957 193.055 111.13 193.228 111.13 193.575V194.595C111.13 196.028 110.8 197.078 110.14 197.745C109.48 198.405 108.43 198.735 106.99 198.735H106.35ZM120.666 198.635C120.312 198.635 120.136 198.458 120.136 198.105V186.275C120.136 185.921 120.312 185.745 120.666 185.745H125.486C127.146 185.745 128.352 186.125 129.106 186.885C129.866 187.645 130.246 188.855 130.246 190.515V193.865C130.246 195.525 129.866 196.735 129.106 197.495C128.352 198.255 127.146 198.635 125.486 198.635H120.666ZM121.186 197.585H125.486C126.392 197.585 127.116 197.465 127.656 197.225C128.202 196.985 128.596 196.595 128.836 196.055C129.076 195.508 129.196 194.778 129.196 193.865V190.515C129.196 189.608 129.076 188.885 128.836 188.345C128.596 187.798 128.202 187.405 127.656 187.165C127.116 186.918 126.392 186.795 125.486 186.795H121.186V197.585ZM134.01 187.365C133.55 187.365 133.32 187.128 133.32 186.655V186.205C133.32 185.745 133.55 185.515 134.01 185.515H134.46C134.907 185.515 135.13 185.745 135.13 186.205V186.655C135.13 187.128 134.907 187.365 134.46 187.365H134.01ZM134.24 198.635C133.887 198.635 133.71 198.458 133.71 198.105V189.705C133.71 189.358 133.887 189.185 134.24 189.185C134.587 189.185 134.76 189.358 134.76 189.705V198.105C134.76 198.458 134.587 198.635 134.24 198.635ZM140.565 198.615C139.745 198.615 139.118 198.441 138.685 198.095C138.252 197.741 137.992 197.205 137.905 196.485C137.885 196.311 137.922 196.178 138.015 196.085C138.108 195.985 138.245 195.935 138.425 195.935C138.592 195.935 138.715 195.978 138.795 196.065C138.882 196.151 138.938 196.281 138.965 196.455C139.025 196.868 139.175 197.158 139.415 197.325C139.662 197.485 140.045 197.565 140.565 197.565H143.845C144.465 197.565 144.892 197.448 145.125 197.215C145.358 196.981 145.475 196.555 145.475 195.935C145.475 195.308 145.358 194.878 145.125 194.645C144.892 194.411 144.465 194.295 143.845 194.295H140.605C139.738 194.295 139.092 194.088 138.665 193.675C138.245 193.255 138.035 192.611 138.035 191.745C138.035 190.858 138.245 190.208 138.665 189.795C139.085 189.375 139.732 189.165 140.605 189.165H143.745C145.252 189.165 146.088 189.831 146.255 191.165C146.282 191.338 146.245 191.475 146.145 191.575C146.052 191.668 145.918 191.715 145.745 191.715C145.578 191.715 145.452 191.671 145.365 191.585C145.285 191.498 145.228 191.371 145.195 191.205C145.148 190.831 145.012 190.575 144.785 190.435C144.565 190.288 144.218 190.215 143.745 190.215H140.605C140.025 190.215 139.625 190.321 139.405 190.535C139.192 190.748 139.085 191.151 139.085 191.745C139.085 192.311 139.195 192.705 139.415 192.925C139.635 193.138 140.032 193.245 140.605 193.245H143.845C144.765 193.245 145.442 193.465 145.875 193.905C146.308 194.338 146.525 195.015 146.525 195.935C146.525 196.848 146.308 197.525 145.875 197.965C145.442 198.398 144.765 198.615 143.845 198.615H140.565ZM153.007 198.635C151.76 198.635 150.847 198.345 150.267 197.765C149.687 197.185 149.397 196.271 149.397 195.025V192.765C149.397 191.518 149.684 190.608 150.257 190.035C150.837 189.455 151.754 189.171 153.007 189.185H154.647C155.627 189.185 156.374 189.351 156.887 189.685C157.407 190.011 157.717 190.528 157.817 191.235C157.837 191.415 157.797 191.551 157.697 191.645C157.604 191.738 157.47 191.785 157.297 191.785C157.137 191.785 157.017 191.745 156.937 191.665C156.857 191.578 156.797 191.455 156.757 191.295C156.684 190.908 156.487 190.635 156.167 190.475C155.847 190.315 155.34 190.235 154.647 190.235H153.007C152.054 190.221 151.387 190.401 151.007 190.775C150.634 191.141 150.447 191.805 150.447 192.765V195.025C150.447 195.978 150.634 196.645 151.007 197.025C151.387 197.398 152.054 197.585 153.007 197.585H154.647C155.34 197.585 155.847 197.505 156.167 197.345C156.487 197.185 156.684 196.908 156.757 196.515C156.797 196.355 156.857 196.235 156.937 196.155C157.017 196.068 157.137 196.025 157.297 196.025C157.47 196.025 157.604 196.075 157.697 196.175C157.797 196.268 157.837 196.401 157.817 196.575C157.717 197.281 157.407 197.801 156.887 198.135C156.374 198.468 155.627 198.635 154.647 198.635H153.007ZM164.433 198.635C163.186 198.635 162.273 198.348 161.693 197.775C161.113 197.195 160.823 196.285 160.823 195.045V192.785C160.823 191.525 161.113 190.608 161.693 190.035C162.273 189.455 163.186 189.171 164.433 189.185H166.073C167.319 189.185 168.229 189.475 168.803 190.055C169.383 190.628 169.673 191.538 169.673 192.785V195.025C169.673 196.271 169.383 197.185 168.803 197.765C168.229 198.345 167.319 198.635 166.073 198.635H164.433ZM161.873 195.045C161.873 195.985 162.059 196.645 162.433 197.025C162.813 197.398 163.479 197.585 164.433 197.585H166.073C167.026 197.585 167.689 197.398 168.063 197.025C168.436 196.645 168.623 195.978 168.623 195.025V192.785C168.623 191.831 168.436 191.168 168.063 190.795C167.689 190.421 167.026 190.235 166.073 190.235H164.433C163.793 190.228 163.286 190.305 162.913 190.465C162.539 190.625 162.273 190.891 162.113 191.265C161.953 191.638 161.873 192.145 161.873 192.785V195.045ZM176.383 198.235C176.309 198.395 176.219 198.501 176.113 198.555C176.006 198.608 175.883 198.635 175.743 198.635C175.449 198.635 175.243 198.498 175.123 198.225L171.413 189.915C171.273 189.588 171.369 189.361 171.703 189.235C172.016 189.101 172.243 189.195 172.383 189.515L176.083 197.795H175.443L179.383 189.505C179.456 189.351 179.553 189.251 179.673 189.205C179.793 189.158 179.929 189.168 180.083 189.235C180.409 189.381 180.499 189.615 180.353 189.935L176.383 198.235ZM183.162 194.315V195.045C183.162 195.985 183.348 196.645 183.722 197.025C184.102 197.398 184.768 197.585 185.722 197.585H187.362C188.202 197.585 188.812 197.478 189.192 197.265C189.578 197.045 189.808 196.668 189.882 196.135C189.908 195.968 189.962 195.841 190.042 195.755C190.128 195.668 190.258 195.625 190.432 195.625C190.605 195.625 190.735 195.675 190.822 195.775C190.915 195.868 190.952 196.001 190.932 196.175C190.845 197.015 190.508 197.635 189.922 198.035C189.335 198.435 188.482 198.635 187.362 198.635H185.722C184.475 198.635 183.562 198.348 182.982 197.775C182.402 197.195 182.112 196.285 182.112 195.045V192.785C182.112 191.525 182.402 190.608 182.982 190.035C183.562 189.455 184.475 189.171 185.722 189.185H187.362C188.608 189.185 189.518 189.475 190.092 190.055C190.672 190.628 190.962 191.538 190.962 192.785V193.785C190.962 194.138 190.788 194.315 190.442 194.315H183.162ZM185.722 190.235C184.768 190.221 184.102 190.405 183.722 190.785C183.348 191.158 183.162 191.825 183.162 192.785V193.265H189.912V192.785C189.912 191.831 189.725 191.168 189.352 190.795C188.978 190.421 188.315 190.235 187.362 190.235H185.722ZM194.963 198.635C194.609 198.635 194.433 198.458 194.433 198.105V189.705C194.433 189.358 194.609 189.185 194.963 189.185C195.309 189.185 195.483 189.358 195.483 189.705V191.245C195.829 190.578 196.329 190.068 196.983 189.715C197.643 189.361 198.423 189.185 199.323 189.185C199.676 189.185 199.853 189.358 199.853 189.705C199.853 190.058 199.676 190.235 199.323 190.235C198.136 190.235 197.216 190.505 196.563 191.045C195.909 191.578 195.549 192.341 195.483 193.335V198.105C195.483 198.458 195.309 198.635 194.963 198.635ZM204.352 202.635C203.478 202.635 202.832 202.425 202.412 202.005C201.998 201.585 201.792 200.931 201.792 200.045C201.792 199.698 201.965 199.525 202.312 199.525C202.665 199.525 202.842 199.698 202.842 200.045C202.842 200.645 202.948 201.051 203.162 201.265C203.375 201.478 203.772 201.585 204.352 201.585H207.812C208.398 201.585 208.798 201.478 209.012 201.265C209.225 201.051 209.332 200.645 209.332 200.045V197.295C208.952 197.795 208.475 198.145 207.902 198.345C207.328 198.545 206.658 198.645 205.892 198.645H205.332C204.105 198.645 203.208 198.361 202.642 197.795C202.075 197.228 201.792 196.338 201.792 195.125V189.695C201.792 189.341 201.965 189.165 202.312 189.165C202.665 189.165 202.842 189.341 202.842 189.695V195.125C202.842 196.051 203.022 196.695 203.382 197.055C203.748 197.415 204.398 197.595 205.332 197.595H205.892C207.058 197.595 207.922 197.391 208.482 196.985C209.048 196.571 209.332 195.951 209.332 195.125V189.695C209.332 189.341 209.505 189.165 209.852 189.165C210.205 189.165 210.382 189.341 210.382 189.695V200.045C210.382 200.931 210.172 201.585 209.752 202.005C209.338 202.425 208.692 202.635 207.812 202.635H204.352Z" fill="#AAAAAA"/>
<path d="M395.5 75.5C402.433 75.5 408.5 80.9653 408.5 88.2461C408.5 95.5271 402.434 100.993 395.5 100.993C388.566 100.993 382.5 95.5271 382.5 88.2461C382.5 80.9653 388.567 75.5 395.5 75.5Z" fill="#FEF355" stroke="black" stroke-width="13"/>
</svg>
