<svg width="551" height="275" viewBox="0 0 551 275" fill="none" xmlns="http://www.w3.org/2000/svg">
<path d="M249.387 219.61C198.245 290.816 87.979 279.724 27.1082 223.876C19.1815 217.858 7.84102 212.731 0 209.5V160.5C16.8483 163.422 35.6714 171.007 51.127 180.907C172.022 279.504 312.811 143.673 179.54 57.2377C100.412 24.5779 71.8969 91.2162 0 120.499V68.7292C30.1233 51.7099 53.5912 24.5442 86.5278 10.3618C217.38 -41.4784 335.869 112.62 249.387 219.61Z" fill="white"/>
<path d="M550.356 157.821V217.499C546.011 214.418 540.506 209.931 536.111 207.07C443.134 152.412 347.58 199.997 309.299 274.342H246.063C279.447 187.887 372.657 122.057 494.725 141.94C513.551 144.098 532.524 149.47 550.356 157.821Z" fill="white"/>
<path d="M314.906 39.7812V10.4844L316.977 9.50781H327.406C331.964 9.50781 334.242 11.7865 334.242 16.3438V22.2031C334.242 26.7604 331.964 29.0391 327.406 29.0391H318.812V38.0234L315.102 39.7812H314.906ZM318.812 13.0234V25.5234H327.406C329.359 25.5234 330.336 24.4167 330.336 22.2031V16.3438C330.336 14.1302 329.359 13.0234 327.406 13.0234H318.812ZM344.008 35.4844H348.109C349.411 35.4844 350.062 34.7031 350.062 33.1406V30.4648C350.062 28.9023 349.411 28.1211 348.109 28.1211H344.008C342.706 28.1211 342.055 28.9023 342.055 30.4648V33.1406C342.055 34.7031 342.706 35.4844 344.008 35.4844ZM344.008 39C340.102 39 338.148 37.0469 338.148 33.1406V30.4648C338.148 26.5586 340.102 24.6055 344.008 24.6055H348.109C348.786 24.6055 349.438 24.8008 350.062 25.1914V23.375C350.062 21.8125 349.411 21.0312 348.109 21.0312H341.117V20.8359L342.68 17.5156H348.109C352.016 17.5156 353.969 19.4688 353.969 23.375V38.0234L350.258 39.7812H350.062V38.4141C349.568 38.8047 348.917 39 348.109 39H344.008ZM364.438 39.7812L356.898 18.3359L360.277 16.7344H360.473L366 33.0234L371.41 16.7344H371.605L374.984 18.3359L368.012 38.1797L364.633 39.7812H364.438ZM383.773 39C379.867 39 377.914 37.0469 377.914 33.1406V23.375C377.914 19.4688 379.867 17.5156 383.773 17.5156H388.266C392.172 17.5156 394.125 19.4688 394.125 23.375V24.4102L381.879 33.8828C382.061 34.9505 382.693 35.4844 383.773 35.4844H388.266C389.568 35.4844 390.219 34.7031 390.219 33.1406V32.1055L393.93 30.3477H394.125V33.1406C394.125 37.0469 392.172 39 388.266 39H383.773ZM381.82 29.8008L390.199 23.043C390.121 21.7018 389.477 21.0312 388.266 21.0312H383.773C382.471 21.0312 381.82 21.8125 381.82 23.375V29.8008ZM319.457 74.7812V48.0625H311.098V47.8672L312.68 44.5078H331.723V44.7031L330.141 48.0625H323.363V73.0234L319.652 74.7812H319.457ZM333.773 74.7812V45.4844L337.484 43.7266H337.68V53.1211C338.253 52.7174 338.904 52.5156 339.633 52.5156H344.125C348.031 52.5156 349.984 54.4688 349.984 58.375V73.0234L346.273 74.7812H346.078V58.375C346.078 56.8125 345.427 56.0312 344.125 56.0312H339.633C338.331 56.0312 337.68 56.8125 337.68 58.375V73.0234L333.969 74.7812H333.773ZM361.703 74C357.797 74 355.844 72.0469 355.844 68.1406V58.375C355.844 54.4688 357.797 52.5156 361.703 52.5156H366.195C370.102 52.5156 372.055 54.4688 372.055 58.375V59.4102L359.809 68.8828C359.991 69.9505 360.622 70.4844 361.703 70.4844H366.195C367.497 70.4844 368.148 69.7031 368.148 68.1406V67.1055L371.859 65.3477H372.055V68.1406C372.055 72.0469 370.102 74 366.195 74H361.703ZM359.75 64.8008L368.129 58.043C368.051 56.7018 367.406 56.0312 366.195 56.0312H361.703C360.401 56.0312 359.75 56.8125 359.75 58.375V64.8008ZM401.352 74C396.794 74 394.516 71.7214 394.516 67.1641V45.4844L398.227 43.7266H398.422V67.1641C398.422 69.3776 399.398 70.4844 401.352 70.4844H407.406C409.359 70.4844 410.336 69.3776 410.336 67.1641V45.4844L414.047 43.7266H414.242V67.1641C414.242 69.3776 415.219 70.4844 417.172 70.4844H423.227C425.18 70.4844 426.156 69.3776 426.156 67.1641V45.4844L429.867 43.7266H430.062V67.1641C430.062 71.7214 427.784 74 423.227 74H417.172C414.828 74 413.201 73.375 412.289 72.125C411.247 73.375 409.62 74 407.406 74H401.352ZM441.781 70.4844H445.883C447.185 70.4844 447.836 69.7031 447.836 68.1406V65.4648C447.836 63.9023 447.185 63.1211 445.883 63.1211H441.781C440.479 63.1211 439.828 63.9023 439.828 65.4648V68.1406C439.828 69.7031 440.479 70.4844 441.781 70.4844ZM441.781 74C437.875 74 435.922 72.0469 435.922 68.1406V65.4648C435.922 61.5586 437.875 59.6055 441.781 59.6055H445.883C446.56 59.6055 447.211 59.8008 447.836 60.1914V58.375C447.836 56.8125 447.185 56.0312 445.883 56.0312H438.891V55.8359L440.453 52.5156H445.883C449.789 52.5156 451.742 54.4688 451.742 58.375V73.0234L448.031 74.7812H447.836V73.4141C447.341 73.8047 446.69 74 445.883 74H441.781ZM463.461 74C459.555 74 457.602 72.0469 457.602 68.1406V53.4922L461.312 51.7344H461.508V68.1406C461.508 69.7031 462.159 70.4844 463.461 70.4844H467.953C469.255 70.4844 469.906 69.7031 469.906 68.1406V53.4922L473.617 51.7344H473.812V76.1484C473.812 80.0547 471.859 82.0078 467.953 82.0078H459.633V81.8125L461.195 78.4922H467.953C469.255 78.4922 469.906 77.7109 469.906 76.1484V73.4141C469.398 73.8047 468.747 74 467.953 74H463.461Z" fill="white"/>
<path d="M257.336 38.5459C254.283 38.5459 252.023 37.8193 250.556 36.3659C249.103 34.8993 248.376 32.6393 248.376 29.5859V20.3459C248.376 17.2659 249.103 14.9993 250.556 13.5459C252.023 12.0926 254.283 11.3859 257.336 11.4259H259.736C262.803 11.4259 265.063 12.1526 266.516 13.6059C267.969 15.0459 268.696 17.3059 268.696 20.3859V29.5859C268.696 32.6393 267.969 34.8993 266.516 36.3659C265.063 37.8193 262.803 38.5459 259.736 38.5459H257.336ZM257.336 35.1859H259.736C261.163 35.1859 262.283 35.0126 263.096 34.6659C263.909 34.3193 264.483 33.7393 264.816 32.9259C265.163 32.1126 265.336 30.9993 265.336 29.5859V20.3859C265.336 18.9593 265.163 17.8393 264.816 17.0259C264.483 16.2126 263.909 15.6393 263.096 15.3059C262.283 14.9593 261.163 14.7859 259.736 14.7859H257.336C255.923 14.7593 254.809 14.9126 253.996 15.2459C253.183 15.5659 252.603 16.1393 252.256 16.9659C251.909 17.7793 251.736 18.9059 251.736 20.3459V29.5859C251.736 30.9993 251.903 32.1126 252.236 32.9259C252.583 33.7393 253.163 34.3193 253.976 34.6659C254.789 35.0126 255.909 35.1859 257.336 35.1859ZM258.056 26.9459C256.989 26.9459 256.456 26.4126 256.456 25.3459V24.3459C256.456 23.3059 256.989 22.7859 258.056 22.7859H259.016C260.029 22.7859 260.536 23.3059 260.536 24.3459V25.3459C260.536 26.4126 260.029 26.9459 259.016 26.9459H258.056ZM291.04 38.5859H276.08C274.933 38.5859 274.36 38.0259 274.36 36.9059C274.36 35.1193 274.64 33.5993 275.2 32.3459C275.773 31.0793 276.5 30.0126 277.38 29.1459C278.273 28.2659 279.22 27.5259 280.22 26.9259C281.22 26.3126 282.146 25.7593 283 25.2659C284.48 24.4259 285.713 23.6993 286.7 23.0859C287.7 22.4726 288.446 21.8459 288.94 21.2059C289.433 20.5659 289.68 19.7859 289.68 18.8659C289.68 17.2793 289.393 16.2126 288.82 15.6659C288.26 15.1059 287.2 14.8259 285.64 14.8259H281.36C280.106 14.8259 279.18 14.9926 278.58 15.3259C277.98 15.6593 277.6 16.2793 277.44 17.1859C277.346 17.7193 277.166 18.1259 276.9 18.4059C276.633 18.6859 276.226 18.8259 275.68 18.8259C275.12 18.8259 274.693 18.6793 274.4 18.3859C274.106 18.0793 273.986 17.6393 274.04 17.0659C274.32 15.1859 275.06 13.7859 276.26 12.8659C277.46 11.9326 279.16 11.4659 281.36 11.4659H285.64C288.146 11.4659 290.006 12.0726 291.22 13.2859C292.433 14.4993 293.04 16.3593 293.04 18.8659C293.04 20.4659 292.646 21.8059 291.86 22.8859C291.073 23.9526 290.04 24.8993 288.76 25.7259C287.48 26.5393 286.106 27.3593 284.64 28.1859C283.573 28.7993 282.56 29.4126 281.6 30.0259C280.653 30.6393 279.84 31.3526 279.16 32.1659C278.493 32.9793 278.053 33.9993 277.84 35.2259H291.04C292.16 35.2259 292.72 35.7859 292.72 36.9059C292.72 38.0259 292.16 38.5859 291.04 38.5859Z" fill="#B8EF46"/>
<path d="M321.446 110.606C321.299 110.693 321.166 110.723 321.046 110.696C320.926 110.669 320.819 110.586 320.726 110.446L317.446 105.226H313.776V110.056C313.776 110.409 313.603 110.586 313.256 110.586C312.903 110.586 312.726 110.409 312.726 110.056V98.2259C312.726 97.8726 312.903 97.6959 313.256 97.6959H317.936C319.076 97.6959 319.936 97.9893 320.516 98.5759C321.103 99.1626 321.396 100.026 321.396 101.166V101.766C321.396 102.773 321.166 103.563 320.706 104.136C320.246 104.709 319.566 105.059 318.666 105.186L321.616 109.886C321.803 110.193 321.746 110.433 321.446 110.606ZM313.776 104.176H317.936C318.776 104.176 319.386 103.986 319.766 103.606C320.153 103.219 320.346 102.606 320.346 101.766V101.166C320.346 100.319 320.153 99.7059 319.766 99.3259C319.386 98.9393 318.776 98.7459 317.936 98.7459H313.776V104.176ZM327.921 110.586C326.675 110.586 325.761 110.299 325.181 109.726C324.601 109.146 324.311 108.236 324.311 106.996V104.736C324.311 103.476 324.601 102.559 325.181 101.986C325.761 101.406 326.675 101.123 327.921 101.136H329.561C330.808 101.136 331.718 101.426 332.291 102.006C332.871 102.579 333.161 103.489 333.161 104.736V106.976C333.161 108.223 332.871 109.136 332.291 109.716C331.718 110.296 330.808 110.586 329.561 110.586H327.921ZM325.361 106.996C325.361 107.936 325.548 108.596 325.921 108.976C326.301 109.349 326.968 109.536 327.921 109.536H329.561C330.515 109.536 331.178 109.349 331.551 108.976C331.925 108.596 332.111 107.929 332.111 106.976V104.736C332.111 103.783 331.925 103.119 331.551 102.746C331.178 102.373 330.515 102.186 329.561 102.186H327.921C327.281 102.179 326.775 102.256 326.401 102.416C326.028 102.576 325.761 102.843 325.601 103.216C325.441 103.589 325.361 104.096 325.361 104.736V106.996ZM339.442 110.586C338.402 110.586 337.639 110.346 337.152 109.866C336.672 109.379 336.432 108.616 336.432 107.576C336.432 106.536 336.676 105.773 337.162 105.286C337.649 104.799 338.409 104.556 339.442 104.556H343.992C343.979 103.676 343.779 103.063 343.392 102.716C343.012 102.363 342.362 102.186 341.442 102.186H340.282C339.436 102.186 338.816 102.276 338.422 102.456C338.029 102.636 337.786 102.943 337.692 103.376C337.646 103.543 337.582 103.666 337.502 103.746C337.429 103.819 337.309 103.856 337.142 103.856C336.969 103.856 336.832 103.809 336.732 103.716C336.639 103.616 336.606 103.483 336.632 103.316C336.719 102.556 337.062 102.003 337.662 101.656C338.269 101.309 339.142 101.136 340.282 101.136H341.442C342.689 101.136 343.599 101.426 344.172 102.006C344.752 102.579 345.042 103.489 345.042 104.736V110.056C345.042 110.409 344.869 110.586 344.522 110.586C344.169 110.586 343.992 110.409 343.992 110.056V109.066C343.352 110.079 342.209 110.586 340.562 110.586H339.442ZM339.442 109.536H340.562C341.209 109.536 341.776 109.466 342.262 109.326C342.756 109.179 343.152 108.946 343.452 108.626C343.752 108.306 343.932 107.879 343.992 107.346V105.606H339.442C338.702 105.606 338.189 105.749 337.902 106.036C337.622 106.316 337.482 106.829 337.482 107.576C337.482 108.316 337.622 108.829 337.902 109.116C338.189 109.396 338.702 109.536 339.442 109.536ZM351.945 110.586C350.698 110.586 349.785 110.296 349.205 109.716C348.625 109.136 348.335 108.223 348.335 106.976V104.736C348.335 103.489 348.625 102.579 349.205 102.006C349.785 101.426 350.698 101.136 351.945 101.136H356.135V97.2359C356.135 96.8893 356.312 96.7159 356.665 96.7159C357.012 96.7159 357.185 96.8893 357.185 97.2359V110.056C357.185 110.409 357.012 110.586 356.665 110.586C356.312 110.586 356.135 110.409 356.135 110.056V109.196C355.848 109.656 355.428 110.003 354.875 110.236C354.322 110.469 353.598 110.586 352.705 110.586H351.945ZM351.945 109.536H352.705C353.745 109.536 354.575 109.373 355.195 109.046C355.822 108.713 356.135 108.216 356.135 107.556V102.186H351.945C350.992 102.186 350.325 102.376 349.945 102.756C349.572 103.129 349.385 103.789 349.385 104.736V106.976C349.385 107.929 349.572 108.596 349.945 108.976C350.325 109.349 350.992 109.536 351.945 109.536ZM371.343 101.116C372.417 101.116 373.183 101.389 373.643 101.936C374.11 102.483 374.343 103.386 374.343 104.646V110.076C374.343 110.423 374.17 110.596 373.823 110.596C373.47 110.596 373.293 110.423 373.293 110.076V104.646C373.293 103.766 373.143 103.133 372.843 102.746C372.543 102.359 372.043 102.166 371.343 102.166H370.513C369.64 102.166 369.013 102.359 368.633 102.746C368.26 103.133 368.073 103.766 368.073 104.646V110.076C368.073 110.423 367.9 110.596 367.553 110.596C367.2 110.596 367.023 110.423 367.023 110.076V104.646C367.023 103.766 366.873 103.133 366.573 102.746C366.273 102.359 365.773 102.166 365.073 102.166H364.243C363.37 102.166 362.743 102.359 362.363 102.746C361.99 103.133 361.803 103.766 361.803 104.646V110.076C361.803 110.423 361.63 110.596 361.283 110.596C360.93 110.596 360.753 110.423 360.753 110.076V101.656C360.753 101.309 360.93 101.136 361.283 101.136C361.63 101.136 361.803 101.309 361.803 101.656V102.436C362.097 101.963 362.443 101.626 362.843 101.426C363.25 101.219 363.763 101.116 364.383 101.116H365.073C365.773 101.116 366.333 101.239 366.753 101.486C367.18 101.726 367.517 102.123 367.763 102.676C368.057 102.123 368.417 101.726 368.843 101.486C369.27 101.239 369.827 101.116 370.513 101.116H371.343ZM380.321 110.586C379.281 110.586 378.518 110.346 378.031 109.866C377.551 109.379 377.311 108.616 377.311 107.576C377.311 106.536 377.554 105.773 378.041 105.286C378.528 104.799 379.288 104.556 380.321 104.556H384.871C384.858 103.676 384.658 103.063 384.271 102.716C383.891 102.363 383.241 102.186 382.321 102.186H381.161C380.314 102.186 379.694 102.276 379.301 102.456C378.908 102.636 378.664 102.943 378.571 103.376C378.524 103.543 378.461 103.666 378.381 103.746C378.308 103.819 378.188 103.856 378.021 103.856C377.848 103.856 377.711 103.809 377.611 103.716C377.518 103.616 377.484 103.483 377.511 103.316C377.598 102.556 377.941 102.003 378.541 101.656C379.148 101.309 380.021 101.136 381.161 101.136H382.321C383.568 101.136 384.478 101.426 385.051 102.006C385.631 102.579 385.921 103.489 385.921 104.736V110.056C385.921 110.409 385.748 110.586 385.401 110.586C385.048 110.586 384.871 110.409 384.871 110.056V109.066C384.231 110.079 383.088 110.586 381.441 110.586H380.321ZM380.321 109.536H381.441C382.088 109.536 382.654 109.466 383.141 109.326C383.634 109.179 384.031 108.946 384.331 108.626C384.631 108.306 384.811 107.879 384.871 107.346V105.606H380.321C379.581 105.606 379.068 105.749 378.781 106.036C378.501 106.316 378.361 106.829 378.361 107.576C378.361 108.316 378.501 108.829 378.781 109.116C379.068 109.396 379.581 109.536 380.321 109.536ZM390.014 114.586C389.66 114.586 389.484 114.409 389.484 114.056V101.656C389.484 101.309 389.66 101.136 390.014 101.136C390.36 101.136 390.534 101.309 390.534 101.656V102.546C390.834 102.079 391.264 101.729 391.824 101.496C392.384 101.256 393.1 101.136 393.974 101.136H394.734C395.98 101.136 396.89 101.426 397.464 102.006C398.044 102.579 398.334 103.489 398.334 104.736V106.976C398.334 108.223 398.044 109.136 397.464 109.716C396.89 110.296 395.98 110.586 394.734 110.586H390.534V114.056C390.534 114.409 390.36 114.586 390.014 114.586ZM390.534 109.536H394.734C395.687 109.536 396.35 109.349 396.724 108.976C397.097 108.596 397.284 107.929 397.284 106.976V104.736C397.284 103.783 397.097 103.119 396.724 102.746C396.35 102.373 395.687 102.186 394.734 102.186H393.974C392.907 102.186 392.087 102.353 391.514 102.686C390.947 103.019 390.62 103.533 390.534 104.226V109.536ZM410.728 110.586C409.281 110.586 408.224 110.253 407.558 109.586C406.891 108.919 406.558 107.863 406.558 106.416V101.866C406.558 100.406 406.888 99.3459 407.548 98.6859C408.214 98.0259 409.268 97.6959 410.708 97.6959H413.128C414.354 97.6959 415.268 97.9526 415.868 98.4659C416.468 98.9726 416.798 99.7893 416.858 100.916C416.878 101.096 416.841 101.233 416.748 101.326C416.661 101.419 416.531 101.466 416.358 101.466C416.024 101.466 415.841 101.289 415.808 100.936C415.761 100.109 415.534 99.5393 415.128 99.2259C414.721 98.9059 414.054 98.7459 413.128 98.7459H410.708C409.941 98.7459 409.331 98.8459 408.878 99.0459C408.424 99.2393 408.098 99.5659 407.898 100.026C407.704 100.479 407.608 101.093 407.608 101.866V106.416C407.608 107.189 407.708 107.803 407.908 108.256C408.108 108.709 408.434 109.036 408.888 109.236C409.341 109.436 409.954 109.536 410.728 109.536H413.128C413.808 109.536 414.344 109.453 414.738 109.286C415.138 109.119 415.421 108.839 415.588 108.446C415.754 108.053 415.838 107.509 415.838 106.816V105.566L413.648 105.546C413.301 105.546 413.128 105.369 413.128 105.016C413.128 104.669 413.301 104.496 413.648 104.496L416.368 104.516C416.714 104.516 416.888 104.689 416.888 105.036V106.816C416.888 108.136 416.591 109.096 415.998 109.696C415.404 110.289 414.448 110.586 413.128 110.586H410.728ZM420.127 106.266V106.996C420.127 107.936 420.314 108.596 420.687 108.976C421.067 109.349 421.734 109.536 422.687 109.536H424.327C425.167 109.536 425.777 109.429 426.157 109.216C426.544 108.996 426.774 108.619 426.847 108.086C426.874 107.919 426.927 107.793 427.007 107.706C427.094 107.619 427.224 107.576 427.397 107.576C427.57 107.576 427.7 107.626 427.787 107.726C427.88 107.819 427.917 107.953 427.897 108.126C427.81 108.966 427.474 109.586 426.887 109.986C426.3 110.386 425.447 110.586 424.327 110.586H422.687C421.44 110.586 420.527 110.299 419.947 109.726C419.367 109.146 419.077 108.236 419.077 106.996V104.736C419.077 103.476 419.367 102.559 419.947 101.986C420.527 101.406 421.44 101.123 422.687 101.136H424.327C425.574 101.136 426.484 101.426 427.057 102.006C427.637 102.579 427.927 103.489 427.927 104.736V105.736C427.927 106.089 427.754 106.266 427.407 106.266H420.127ZM422.687 102.186C421.734 102.173 421.067 102.356 420.687 102.736C420.314 103.109 420.127 103.776 420.127 104.736V105.216H426.877V104.736C426.877 103.783 426.69 103.119 426.317 102.746C425.944 102.373 425.28 102.186 424.327 102.186H422.687ZM431.928 110.586C431.574 110.586 431.398 110.409 431.398 110.056V101.656C431.398 101.309 431.574 101.136 431.928 101.136C432.274 101.136 432.448 101.309 432.448 101.656V102.616C433.081 101.629 434.228 101.136 435.888 101.136H436.448C437.694 101.136 438.604 101.426 439.178 102.006C439.758 102.579 440.048 103.489 440.048 104.736V110.056C440.048 110.409 439.874 110.586 439.528 110.586C439.174 110.586 438.998 110.409 438.998 110.056V104.736C438.998 103.783 438.808 103.119 438.428 102.746C438.054 102.373 437.394 102.186 436.448 102.186H435.888C434.854 102.186 434.041 102.349 433.448 102.676C432.854 103.003 432.521 103.513 432.448 104.206V110.056C432.448 110.409 432.274 110.586 431.928 110.586ZM444.385 106.266V106.996C444.385 107.936 444.572 108.596 444.945 108.976C445.325 109.349 445.992 109.536 446.945 109.536H448.585C449.425 109.536 450.035 109.429 450.415 109.216C450.802 108.996 451.032 108.619 451.105 108.086C451.132 107.919 451.185 107.793 451.265 107.706C451.352 107.619 451.482 107.576 451.655 107.576C451.828 107.576 451.958 107.626 452.045 107.726C452.138 107.819 452.175 107.953 452.155 108.126C452.068 108.966 451.732 109.586 451.145 109.986C450.558 110.386 449.705 110.586 448.585 110.586H446.945C445.698 110.586 444.785 110.299 444.205 109.726C443.625 109.146 443.335 108.236 443.335 106.996V104.736C443.335 103.476 443.625 102.559 444.205 101.986C444.785 101.406 445.698 101.123 446.945 101.136H448.585C449.832 101.136 450.742 101.426 451.315 102.006C451.895 102.579 452.185 103.489 452.185 104.736V105.736C452.185 106.089 452.012 106.266 451.665 106.266H444.385ZM446.945 102.186C445.992 102.173 445.325 102.356 444.945 102.736C444.572 103.109 444.385 103.776 444.385 104.736V105.216H451.135V104.736C451.135 103.783 450.948 103.119 450.575 102.746C450.202 102.373 449.538 102.186 448.585 102.186H446.945ZM456.186 110.586C455.832 110.586 455.656 110.409 455.656 110.056V101.656C455.656 101.309 455.832 101.136 456.186 101.136C456.532 101.136 456.706 101.309 456.706 101.656V103.196C457.052 102.529 457.552 102.019 458.206 101.666C458.866 101.313 459.646 101.136 460.546 101.136C460.899 101.136 461.076 101.309 461.076 101.656C461.076 102.009 460.899 102.186 460.546 102.186C459.359 102.186 458.439 102.456 457.786 102.996C457.132 103.529 456.772 104.293 456.706 105.286V110.056C456.706 110.409 456.532 110.586 456.186 110.586ZM465.399 110.586C464.359 110.586 463.596 110.346 463.109 109.866C462.629 109.379 462.389 108.616 462.389 107.576C462.389 106.536 462.633 105.773 463.119 105.286C463.606 104.799 464.366 104.556 465.399 104.556H469.949C469.936 103.676 469.736 103.063 469.349 102.716C468.969 102.363 468.319 102.186 467.399 102.186H466.239C465.393 102.186 464.773 102.276 464.379 102.456C463.986 102.636 463.743 102.943 463.649 103.376C463.603 103.543 463.539 103.666 463.459 103.746C463.386 103.819 463.266 103.856 463.099 103.856C462.926 103.856 462.789 103.809 462.689 103.716C462.596 103.616 462.563 103.483 462.589 103.316C462.676 102.556 463.019 102.003 463.619 101.656C464.226 101.309 465.099 101.136 466.239 101.136H467.399C468.646 101.136 469.556 101.426 470.129 102.006C470.709 102.579 470.999 103.489 470.999 104.736V110.056C470.999 110.409 470.826 110.586 470.479 110.586C470.126 110.586 469.949 110.409 469.949 110.056V109.066C469.309 110.079 468.166 110.586 466.519 110.586H465.399ZM465.399 109.536H466.519C467.166 109.536 467.733 109.466 468.219 109.326C468.713 109.179 469.109 108.946 469.409 108.626C469.709 108.306 469.889 107.879 469.949 107.346V105.606H465.399C464.659 105.606 464.146 105.749 463.859 106.036C463.579 106.316 463.439 106.829 463.439 107.576C463.439 108.316 463.579 108.829 463.859 109.116C464.146 109.396 464.659 109.536 465.399 109.536ZM478.422 110.586C477.195 110.586 476.299 110.303 475.732 109.736C475.165 109.169 474.882 108.276 474.882 107.056V102.186H473.692C473.339 102.186 473.162 102.009 473.162 101.656C473.162 101.309 473.339 101.136 473.692 101.136H474.882V98.9859C474.882 98.6326 475.055 98.4559 475.402 98.4559C475.755 98.4559 475.932 98.6326 475.932 98.9859V101.136H478.442C478.789 101.136 478.962 101.309 478.962 101.656C478.962 102.009 478.789 102.186 478.442 102.186H475.932V107.056C475.932 107.989 476.112 108.636 476.472 108.996C476.839 109.356 477.489 109.536 478.422 109.536C478.615 109.536 478.752 109.579 478.832 109.666C478.919 109.753 478.962 109.883 478.962 110.056C478.962 110.409 478.782 110.586 478.422 110.586ZM482.03 99.3159C481.57 99.3159 481.34 99.0793 481.34 98.6059V98.1559C481.34 97.6959 481.57 97.4659 482.03 97.4659H482.48C482.927 97.4659 483.15 97.6959 483.15 98.1559V98.6059C483.15 99.0793 482.927 99.3159 482.48 99.3159H482.03ZM482.26 110.586C481.907 110.586 481.73 110.409 481.73 110.056V101.656C481.73 101.309 481.907 101.136 482.26 101.136C482.607 101.136 482.78 101.309 482.78 101.656V110.056C482.78 110.409 482.607 110.586 482.26 110.586ZM489.855 110.586C488.608 110.586 487.695 110.299 487.115 109.726C486.535 109.146 486.245 108.236 486.245 106.996V104.736C486.245 103.476 486.535 102.559 487.115 101.986C487.695 101.406 488.608 101.123 489.855 101.136H491.495C492.742 101.136 493.652 101.426 494.225 102.006C494.805 102.579 495.095 103.489 495.095 104.736V106.976C495.095 108.223 494.805 109.136 494.225 109.716C493.652 110.296 492.742 110.586 491.495 110.586H489.855ZM487.295 106.996C487.295 107.936 487.482 108.596 487.855 108.976C488.235 109.349 488.902 109.536 489.855 109.536H491.495C492.448 109.536 493.112 109.349 493.485 108.976C493.858 108.596 494.045 107.929 494.045 106.976V104.736C494.045 103.783 493.858 103.119 493.485 102.746C493.112 102.373 492.448 102.186 491.495 102.186H489.855C489.215 102.179 488.708 102.256 488.335 102.416C487.962 102.576 487.695 102.843 487.535 103.216C487.375 103.589 487.295 104.096 487.295 104.736V106.996ZM499.096 110.586C498.742 110.586 498.566 110.409 498.566 110.056V101.656C498.566 101.309 498.742 101.136 499.096 101.136C499.442 101.136 499.616 101.309 499.616 101.656V102.616C500.249 101.629 501.396 101.136 503.056 101.136H503.616C504.862 101.136 505.772 101.426 506.346 102.006C506.926 102.579 507.216 103.489 507.216 104.736V110.056C507.216 110.409 507.042 110.586 506.696 110.586C506.342 110.586 506.166 110.409 506.166 110.056V104.736C506.166 103.783 505.976 103.119 505.596 102.746C505.222 102.373 504.562 102.186 503.616 102.186H503.056C502.022 102.186 501.209 102.349 500.616 102.676C500.022 103.003 499.689 103.513 499.616 104.206V110.056C499.616 110.409 499.442 110.586 499.096 110.586Z" fill="#AAAAAA"/>
<path d="M147.856 12.0859C154.789 12.0859 160.856 17.5513 160.856 24.832C160.856 32.113 154.79 37.5791 147.856 37.5791C140.922 37.5791 134.856 32.113 134.856 24.832C134.856 17.5513 140.923 12.0859 147.856 12.0859Z" fill="#B8EF46" stroke="black" stroke-width="13"/>
</svg>
