<svg width="525" height="259" viewBox="0 0 525 259" fill="none" xmlns="http://www.w3.org/2000/svg">
<path d="M524.809 192.693V243.694C438.755 281.619 329.654 243.445 317.701 141.376C304.327 38.4345 431.566 -34.2987 524.809 16.6943V74.6943C519.466 70.875 513.538 65.5631 508.752 61.1723C405.85 -16.963 301.657 153.864 417.083 208.781C455.766 228.274 493.502 211.978 524.809 192.693Z" fill="white"/>
<path d="M76.8125 172.8H85.4062C87.3594 172.8 88.3359 171.693 88.3359 169.479V153.659C88.3359 151.446 87.3594 150.339 85.4062 150.339H76.8125V172.8ZM72.9062 176.315V147.8L74.9766 146.823H85.4062C89.9635 146.823 92.2422 149.102 92.2422 153.659V169.479C92.2422 174.037 89.9635 176.315 85.4062 176.315H72.9062ZM104.938 172.8H109.43C110.732 172.8 111.383 172.019 111.383 170.456V160.69C111.383 159.128 110.732 158.347 109.43 158.347H104.938C103.635 158.347 102.984 159.128 102.984 160.69V170.456C102.984 172.019 103.635 172.8 104.938 172.8ZM104.938 176.315C101.031 176.315 99.0781 174.362 99.0781 170.456V160.69C99.0781 156.784 101.031 154.831 104.938 154.831H109.43C113.336 154.831 115.289 156.784 115.289 160.69V170.456C115.289 174.362 113.336 176.315 109.43 176.315H104.938ZM127.008 176.315C123.102 176.315 121.148 174.362 121.148 170.456V160.69C121.148 156.784 123.102 154.831 127.008 154.831H131.5C135.406 154.831 137.359 156.784 137.359 160.69V161.726L133.648 163.483H133.453V160.69C133.453 159.128 132.802 158.347 131.5 158.347H127.008C125.706 158.347 125.055 159.128 125.055 160.69V170.456C125.055 172.019 125.706 172.8 127.008 172.8H131.5C132.802 172.8 133.453 172.019 133.453 170.456V169.421L137.164 167.663H137.359V170.456C137.359 174.362 135.406 176.315 131.5 176.315H127.008ZM149.078 176.315C145.172 176.315 143.219 174.362 143.219 170.456V155.808L146.93 154.05H147.125V170.456C147.125 172.019 147.776 172.8 149.078 172.8H153.57C154.872 172.8 155.523 172.019 155.523 170.456V155.808L159.234 154.05H159.43V170.456C159.43 174.362 157.477 176.315 153.57 176.315H149.078ZM165.289 177.097V160.69C165.289 156.784 167.242 154.831 171.148 154.831H175.641C177.438 154.831 178.74 155.313 179.547 156.276C180.406 155.313 181.708 154.831 183.453 154.831H187.945C191.852 154.831 193.805 156.784 193.805 160.69V175.339L190.094 177.097H189.898V160.69C189.898 159.128 189.247 158.347 187.945 158.347H183.453C182.151 158.347 181.5 159.128 181.5 160.69V175.339L177.789 177.097H177.594V160.69C177.594 159.128 176.943 158.347 175.641 158.347H171.148C169.846 158.347 169.195 159.128 169.195 160.69V175.339L165.484 177.097H165.289ZM205.523 176.315C201.617 176.315 199.664 174.362 199.664 170.456V160.69C199.664 156.784 201.617 154.831 205.523 154.831H210.016C213.922 154.831 215.875 156.784 215.875 160.69V161.726L203.629 171.198C203.811 172.266 204.443 172.8 205.523 172.8H210.016C211.318 172.8 211.969 172.019 211.969 170.456V169.421L215.68 167.663H215.875V170.456C215.875 174.362 213.922 176.315 210.016 176.315H205.523ZM203.57 167.116L211.949 160.358C211.871 159.017 211.227 158.347 210.016 158.347H205.523C204.221 158.347 203.57 159.128 203.57 160.69V167.116ZM221.734 177.097V160.69C221.734 156.784 223.688 154.831 227.594 154.831H232.086C235.992 154.831 237.945 156.784 237.945 160.69V175.339L234.234 177.097H234.039V160.69C234.039 159.128 233.388 158.347 232.086 158.347H227.594C226.292 158.347 225.641 159.128 225.641 160.69V175.339L221.93 177.097H221.734ZM246.383 177.097V158.386H241.363V158.19L242.945 154.831H246.383V147.8L250.094 146.042H250.289V154.831H255.309V155.026L253.727 158.386H250.289V175.339L246.578 177.097H246.383ZM72.9062 212.097V182.8L76.6172 181.042H76.8125V210.339L73.1016 212.097H72.9062ZM86.2266 212.097V193.386H81.207V193.19L82.7891 189.831H86.2266V182.8L89.9375 181.042H90.1328V189.831H95.1523V190.026L93.5703 193.386H90.1328V210.339L86.4219 212.097H86.2266Z" fill="white"/>
<path d="M12.48 176.275C9.42667 176.275 7.16667 175.549 5.7 174.095C4.24667 172.629 3.52 170.369 3.52 167.315V158.075C3.52 154.995 4.24667 152.729 5.7 151.275C7.16667 149.822 9.42667 149.115 12.48 149.155H14.88C17.9467 149.155 20.2067 149.882 21.66 151.335C23.1133 152.775 23.84 155.035 23.84 158.115V167.315C23.84 170.369 23.1133 172.629 21.66 174.095C20.2067 175.549 17.9467 176.275 14.88 176.275H12.48ZM12.48 172.915H14.88C16.3067 172.915 17.4267 172.742 18.24 172.395C19.0533 172.049 19.6267 171.469 19.96 170.655C20.3067 169.842 20.48 168.729 20.48 167.315V158.115C20.48 156.689 20.3067 155.569 19.96 154.755C19.6267 153.942 19.0533 153.369 18.24 153.035C17.4267 152.689 16.3067 152.515 14.88 152.515H12.48C11.0667 152.489 9.95333 152.642 9.14 152.975C8.32667 153.295 7.74667 153.869 7.4 154.695C7.05333 155.509 6.88 156.635 6.88 158.075V167.315C6.88 168.729 7.04667 169.842 7.38 170.655C7.72667 171.469 8.30667 172.049 9.12 172.395C9.93333 172.742 11.0533 172.915 12.48 172.915ZM13.2 164.675C12.1333 164.675 11.6 164.142 11.6 163.075V162.075C11.6 161.035 12.1333 160.515 13.2 160.515H14.16C15.1733 160.515 15.68 161.035 15.68 162.075V163.075C15.68 164.142 15.1733 164.675 14.16 164.675H13.2ZM37.6237 176.315C35.2904 176.315 33.4838 175.829 32.2038 174.855C30.9371 173.869 30.1704 172.355 29.9038 170.315C29.8504 169.755 29.9704 169.322 30.2638 169.015C30.5571 168.709 30.9838 168.555 31.5438 168.555C32.5704 168.555 33.1438 169.115 33.2638 170.235C33.4504 171.275 33.8704 171.989 34.5238 172.375C35.1771 172.762 36.2104 172.955 37.6237 172.955H42.1838C43.9038 172.955 45.0704 172.649 45.6838 172.035C46.3104 171.409 46.6238 170.249 46.6238 168.555C46.6238 166.875 46.3104 165.722 45.6838 165.095C45.0704 164.469 43.9038 164.155 42.1838 164.155H39.1037C37.9838 164.155 37.4238 163.595 37.4238 162.475C37.4238 161.355 37.9838 160.795 39.1037 160.795H43.7038C44.5438 160.795 45.1304 160.422 45.4638 159.675C45.8104 158.915 45.9838 157.889 45.9838 156.595C45.9838 155.009 45.6971 153.942 45.1238 153.395C44.5638 152.835 43.5038 152.555 41.9438 152.555H38.0638C36.8104 152.555 35.8838 152.722 35.2838 153.055C34.6838 153.389 34.3038 154.009 34.1438 154.915C33.9838 156.009 33.3971 156.555 32.3838 156.555C31.8238 156.555 31.3971 156.409 31.1038 156.115C30.8104 155.809 30.7038 155.369 30.7838 154.795C31.0504 152.915 31.7838 151.515 32.9838 150.595C34.1971 149.662 35.8904 149.195 38.0638 149.195H41.9438C44.4504 149.195 46.3104 149.802 47.5238 151.015C48.7371 152.229 49.3438 154.089 49.3438 156.595C49.3438 159.062 48.6504 160.809 47.2638 161.835C48.1838 162.435 48.8638 163.289 49.3038 164.395C49.7571 165.502 49.9838 166.889 49.9838 168.555C49.9838 171.195 49.3504 173.149 48.0838 174.415C46.8171 175.682 44.8504 176.315 42.1838 176.315H37.6237Z" fill="#52E996"/>
<path d="M74.77 248.315C73.3233 248.315 72.2667 247.982 71.6 247.315C70.9333 246.649 70.6 245.592 70.6 244.145V239.595C70.6 238.135 70.93 237.075 71.59 236.415C72.2567 235.755 73.31 235.425 74.75 235.425H77.17C78.3967 235.425 79.31 235.682 79.91 236.195C80.51 236.702 80.84 237.519 80.9 238.645C80.92 238.825 80.8833 238.962 80.79 239.055C80.7033 239.149 80.5733 239.195 80.4 239.195C80.0667 239.195 79.8833 239.019 79.85 238.665C79.8033 237.839 79.5767 237.269 79.17 236.955C78.7633 236.635 78.0967 236.475 77.17 236.475H74.75C73.9833 236.475 73.3733 236.575 72.92 236.775C72.4667 236.969 72.14 237.295 71.94 237.755C71.7467 238.209 71.65 238.822 71.65 239.595V244.145C71.65 244.919 71.75 245.532 71.95 245.985C72.15 246.439 72.4767 246.765 72.93 246.965C73.3833 247.165 73.9967 247.265 74.77 247.265H77.17C78.0967 247.265 78.7633 247.109 79.17 246.795C79.5767 246.475 79.8033 245.902 79.85 245.075C79.8833 244.722 80.0667 244.545 80.4 244.545C80.5733 244.545 80.7033 244.595 80.79 244.695C80.8833 244.789 80.92 244.922 80.9 245.095C80.84 246.222 80.51 247.042 79.91 247.555C79.31 248.062 78.3967 248.315 77.17 248.315H74.77ZM88.1155 248.315C87.8888 248.315 87.7255 248.195 87.6255 247.955L82.4355 236.175C82.3488 235.982 82.3488 235.822 82.4355 235.695C82.5288 235.569 82.6555 235.489 82.8155 235.455C83.0888 235.389 83.2788 235.489 83.3855 235.755L88.3855 247.095H88.0155L92.9855 235.755C93.0921 235.489 93.2855 235.389 93.5655 235.455C93.7388 235.489 93.8655 235.569 93.9455 235.695C94.0255 235.822 94.0255 235.982 93.9455 236.175L88.7355 247.955C88.6355 248.195 88.4655 248.315 88.2255 248.315H88.1155ZM105.063 248.315C103.616 248.315 102.56 247.982 101.893 247.315C101.226 246.649 100.893 245.592 100.893 244.145V239.595C100.893 238.135 101.223 237.075 101.883 236.415C102.55 235.755 103.603 235.425 105.043 235.425H107.463C108.69 235.425 109.603 235.682 110.203 236.195C110.803 236.702 111.133 237.519 111.193 238.645C111.213 238.825 111.176 238.962 111.083 239.055C110.996 239.149 110.866 239.195 110.693 239.195C110.36 239.195 110.176 239.019 110.143 238.665C110.096 237.839 109.87 237.269 109.463 236.955C109.056 236.635 108.39 236.475 107.463 236.475H105.043C104.276 236.475 103.666 236.575 103.213 236.775C102.76 236.969 102.433 237.295 102.233 237.755C102.04 238.209 101.943 238.822 101.943 239.595V244.145C101.943 244.919 102.043 245.532 102.243 245.985C102.443 246.439 102.77 246.765 103.223 246.965C103.676 247.165 104.29 247.265 105.063 247.265H107.463C108.143 247.265 108.68 247.182 109.073 247.015C109.473 246.849 109.756 246.569 109.923 246.175C110.09 245.782 110.173 245.239 110.173 244.545V243.295L107.983 243.275C107.636 243.275 107.463 243.099 107.463 242.745C107.463 242.399 107.636 242.225 107.983 242.225L110.703 242.245C111.05 242.245 111.223 242.419 111.223 242.765V244.545C111.223 245.865 110.926 246.825 110.333 247.425C109.74 248.019 108.783 248.315 107.463 248.315H105.063ZM114.463 243.995V244.725C114.463 245.665 114.649 246.325 115.023 246.705C115.403 247.079 116.069 247.265 117.023 247.265H118.663C119.503 247.265 120.113 247.159 120.493 246.945C120.879 246.725 121.109 246.349 121.183 245.815C121.209 245.649 121.263 245.522 121.343 245.435C121.429 245.349 121.559 245.305 121.733 245.305C121.906 245.305 122.036 245.355 122.123 245.455C122.216 245.549 122.253 245.682 122.233 245.855C122.146 246.695 121.809 247.315 121.223 247.715C120.636 248.115 119.783 248.315 118.663 248.315H117.023C115.776 248.315 114.863 248.029 114.283 247.455C113.703 246.875 113.413 245.965 113.413 244.725V242.465C113.413 241.205 113.703 240.289 114.283 239.715C114.863 239.135 115.776 238.852 117.023 238.865H118.663C119.909 238.865 120.819 239.155 121.393 239.735C121.973 240.309 122.263 241.219 122.263 242.465V243.465C122.263 243.819 122.089 243.995 121.743 243.995H114.463ZM117.023 239.915C116.069 239.902 115.403 240.085 115.023 240.465C114.649 240.839 114.463 241.505 114.463 242.465V242.945H121.213V242.465C121.213 241.512 121.026 240.849 120.653 240.475C120.279 240.102 119.616 239.915 118.663 239.915H117.023ZM126.263 248.315C125.91 248.315 125.733 248.139 125.733 247.785V239.385C125.733 239.039 125.91 238.865 126.263 238.865C126.61 238.865 126.783 239.039 126.783 239.385V240.345C127.417 239.359 128.563 238.865 130.223 238.865H130.783C132.03 238.865 132.94 239.155 133.513 239.735C134.093 240.309 134.383 241.219 134.383 242.465V247.785C134.383 248.139 134.21 248.315 133.863 248.315C133.51 248.315 133.333 248.139 133.333 247.785V242.465C133.333 241.512 133.143 240.849 132.763 240.475C132.39 240.102 131.73 239.915 130.783 239.915H130.223C129.19 239.915 128.377 240.079 127.783 240.405C127.19 240.732 126.857 241.242 126.783 241.935V247.785C126.783 248.139 126.61 248.315 126.263 248.315ZM138.72 243.995V244.725C138.72 245.665 138.907 246.325 139.28 246.705C139.66 247.079 140.327 247.265 141.28 247.265H142.92C143.76 247.265 144.37 247.159 144.75 246.945C145.137 246.725 145.367 246.349 145.44 245.815C145.467 245.649 145.52 245.522 145.6 245.435C145.687 245.349 145.817 245.305 145.99 245.305C146.164 245.305 146.294 245.355 146.38 245.455C146.474 245.549 146.51 245.682 146.49 245.855C146.404 246.695 146.067 247.315 145.48 247.715C144.894 248.115 144.04 248.315 142.92 248.315H141.28C140.034 248.315 139.12 248.029 138.54 247.455C137.96 246.875 137.67 245.965 137.67 244.725V242.465C137.67 241.205 137.96 240.289 138.54 239.715C139.12 239.135 140.034 238.852 141.28 238.865H142.92C144.167 238.865 145.077 239.155 145.65 239.735C146.23 240.309 146.52 241.219 146.52 242.465V243.465C146.52 243.819 146.347 243.995 146 243.995H138.72ZM141.28 239.915C140.327 239.902 139.66 240.085 139.28 240.465C138.907 240.839 138.72 241.505 138.72 242.465V242.945H145.47V242.465C145.47 241.512 145.284 240.849 144.91 240.475C144.537 240.102 143.874 239.915 142.92 239.915H141.28ZM150.521 248.315C150.168 248.315 149.991 248.139 149.991 247.785V239.385C149.991 239.039 150.168 238.865 150.521 238.865C150.868 238.865 151.041 239.039 151.041 239.385V240.925C151.388 240.259 151.888 239.749 152.541 239.395C153.201 239.042 153.981 238.865 154.881 238.865C155.234 238.865 155.411 239.039 155.411 239.385C155.411 239.739 155.234 239.915 154.881 239.915C153.694 239.915 152.774 240.185 152.121 240.725C151.468 241.259 151.108 242.022 151.041 243.015V247.785C151.041 248.139 150.868 248.315 150.521 248.315ZM159.735 248.315C158.695 248.315 157.931 248.075 157.445 247.595C156.965 247.109 156.725 246.345 156.725 245.305C156.725 244.265 156.968 243.502 157.455 243.015C157.941 242.529 158.701 242.285 159.735 242.285H164.285C164.271 241.405 164.071 240.792 163.685 240.445C163.305 240.092 162.655 239.915 161.735 239.915H160.575C159.728 239.915 159.108 240.005 158.715 240.185C158.321 240.365 158.078 240.672 157.985 241.105C157.938 241.272 157.875 241.395 157.795 241.475C157.721 241.549 157.601 241.585 157.435 241.585C157.261 241.585 157.125 241.539 157.025 241.445C156.931 241.345 156.898 241.212 156.925 241.045C157.011 240.285 157.355 239.732 157.955 239.385C158.561 239.039 159.435 238.865 160.575 238.865H161.735C162.981 238.865 163.891 239.155 164.465 239.735C165.045 240.309 165.335 241.219 165.335 242.465V247.785C165.335 248.139 165.161 248.315 164.815 248.315C164.461 248.315 164.285 248.139 164.285 247.785V246.795C163.645 247.809 162.501 248.315 160.855 248.315H159.735ZM159.735 247.265H160.855C161.501 247.265 162.068 247.195 162.555 247.055C163.048 246.909 163.445 246.675 163.745 246.355C164.045 246.035 164.225 245.609 164.285 245.075V243.335H159.735C158.995 243.335 158.481 243.479 158.195 243.765C157.915 244.045 157.775 244.559 157.775 245.305C157.775 246.045 157.915 246.559 158.195 246.845C158.481 247.125 158.995 247.265 159.735 247.265ZM172.757 248.315C171.531 248.315 170.634 248.032 170.067 247.465C169.501 246.899 169.217 246.005 169.217 244.785V239.915H168.027C167.674 239.915 167.497 239.739 167.497 239.385C167.497 239.039 167.674 238.865 168.027 238.865H169.217V236.715C169.217 236.362 169.391 236.185 169.737 236.185C170.091 236.185 170.267 236.362 170.267 236.715V238.865H172.777C173.124 238.865 173.297 239.039 173.297 239.385C173.297 239.739 173.124 239.915 172.777 239.915H170.267V244.785C170.267 245.719 170.447 246.365 170.807 246.725C171.174 247.085 171.824 247.265 172.757 247.265C172.951 247.265 173.087 247.309 173.167 247.395C173.254 247.482 173.297 247.612 173.297 247.785C173.297 248.139 173.117 248.315 172.757 248.315ZM176.365 237.045C175.905 237.045 175.675 236.809 175.675 236.335V235.885C175.675 235.425 175.905 235.195 176.365 235.195H176.815C177.262 235.195 177.485 235.425 177.485 235.885V236.335C177.485 236.809 177.262 237.045 176.815 237.045H176.365ZM176.595 248.315C176.242 248.315 176.065 248.139 176.065 247.785V239.385C176.065 239.039 176.242 238.865 176.595 238.865C176.942 238.865 177.115 239.039 177.115 239.385V247.785C177.115 248.139 176.942 248.315 176.595 248.315ZM184.19 248.315C182.944 248.315 182.03 248.029 181.45 247.455C180.87 246.875 180.58 245.965 180.58 244.725V242.465C180.58 241.205 180.87 240.289 181.45 239.715C182.03 239.135 182.944 238.852 184.19 238.865H185.83C187.077 238.865 187.987 239.155 188.56 239.735C189.14 240.309 189.43 241.219 189.43 242.465V244.705C189.43 245.952 189.14 246.865 188.56 247.445C187.987 248.025 187.077 248.315 185.83 248.315H184.19ZM181.63 244.725C181.63 245.665 181.817 246.325 182.19 246.705C182.57 247.079 183.237 247.265 184.19 247.265H185.83C186.784 247.265 187.447 247.079 187.82 246.705C188.194 246.325 188.38 245.659 188.38 244.705V242.465C188.38 241.512 188.194 240.849 187.82 240.475C187.447 240.102 186.784 239.915 185.83 239.915H184.19C183.55 239.909 183.044 239.985 182.67 240.145C182.297 240.305 182.03 240.572 181.87 240.945C181.71 241.319 181.63 241.825 181.63 242.465V244.725ZM193.431 248.315C193.078 248.315 192.901 248.139 192.901 247.785V239.385C192.901 239.039 193.078 238.865 193.431 238.865C193.778 238.865 193.951 239.039 193.951 239.385V240.345C194.585 239.359 195.731 238.865 197.391 238.865H197.951C199.198 238.865 200.108 239.155 200.681 239.735C201.261 240.309 201.551 241.219 201.551 242.465V247.785C201.551 248.139 201.378 248.315 201.031 248.315C200.678 248.315 200.501 248.139 200.501 247.785V242.465C200.501 241.512 200.311 240.849 199.931 240.475C199.558 240.102 198.898 239.915 197.951 239.915H197.391C196.358 239.915 195.545 240.079 194.951 240.405C194.358 240.732 194.025 241.242 193.951 241.935V247.785C193.951 248.139 193.778 248.315 193.431 248.315ZM219.958 247.495C219.724 247.755 219.474 247.769 219.208 247.535L212.578 241.685C212.131 241.299 211.784 240.949 211.538 240.635C211.291 240.315 211.114 239.992 211.008 239.665C210.908 239.339 210.858 238.969 210.858 238.555C210.858 237.529 211.101 236.772 211.588 236.285C212.074 235.792 212.828 235.545 213.848 235.545H214.348C215.274 235.545 215.978 235.745 216.458 236.145C216.938 236.539 217.221 237.152 217.308 237.985C217.321 238.159 217.281 238.295 217.188 238.395C217.101 238.489 216.971 238.535 216.798 238.535C216.624 238.535 216.494 238.492 216.408 238.405C216.328 238.319 216.274 238.189 216.248 238.015C216.188 237.482 216.014 237.112 215.728 236.905C215.448 236.699 214.988 236.595 214.348 236.595H213.848C213.121 236.595 212.614 236.735 212.328 237.015C212.048 237.295 211.908 237.809 211.908 238.555C211.908 238.862 211.941 239.132 212.008 239.365C212.081 239.592 212.218 239.825 212.418 240.065C212.618 240.299 212.904 240.575 213.278 240.895L219.908 246.745C220.174 246.985 220.191 247.235 219.958 247.495ZM213.608 248.415C212.161 248.415 211.108 248.089 210.448 247.435C209.788 246.775 209.458 245.722 209.458 244.275C209.458 243.182 209.651 242.315 210.038 241.675C210.424 241.035 211.031 240.592 211.858 240.345C212.018 240.285 212.158 240.292 212.278 240.365C212.398 240.439 212.474 240.562 212.508 240.735C212.541 240.922 212.521 241.062 212.448 241.155C212.374 241.242 212.258 241.312 212.098 241.365C211.531 241.552 211.124 241.872 210.878 242.325C210.631 242.779 210.508 243.429 210.508 244.275C210.508 245.042 210.604 245.652 210.798 246.105C210.998 246.552 211.321 246.875 211.768 247.075C212.221 247.269 212.834 247.365 213.608 247.365H214.248C215.008 247.365 215.614 247.265 216.068 247.065C216.521 246.865 216.844 246.542 217.038 246.095C217.238 245.642 217.338 245.035 217.338 244.275V243.255C217.338 242.909 217.514 242.735 217.868 242.735C218.214 242.735 218.388 242.909 218.388 243.255V244.275C218.388 245.709 218.058 246.759 217.398 247.425C216.738 248.085 215.688 248.415 214.248 248.415H213.608ZM227.923 248.315C227.57 248.315 227.393 248.139 227.393 247.785V235.955C227.393 235.602 227.57 235.425 227.923 235.425H235.413C235.767 235.425 235.943 235.602 235.943 235.955C235.943 236.302 235.767 236.475 235.413 236.475H228.443V241.265H233.053C233.407 241.265 233.583 241.439 233.583 241.785C233.583 242.139 233.407 242.315 233.053 242.315H228.443V247.265H235.413C235.767 247.265 235.943 247.439 235.943 247.785C235.943 248.139 235.767 248.315 235.413 248.315H227.923ZM239.134 248.315C238.781 248.315 238.604 248.139 238.604 247.785V239.385C238.604 239.039 238.781 238.865 239.134 238.865C239.481 238.865 239.654 239.039 239.654 239.385V240.345C240.288 239.359 241.434 238.865 243.094 238.865H243.654C244.901 238.865 245.811 239.155 246.384 239.735C246.964 240.309 247.254 241.219 247.254 242.465V247.785C247.254 248.139 247.081 248.315 246.734 248.315C246.381 248.315 246.204 248.139 246.204 247.785V242.465C246.204 241.512 246.014 240.849 245.634 240.475C245.261 240.102 244.601 239.915 243.654 239.915H243.094C242.061 239.915 241.248 240.079 240.654 240.405C240.061 240.732 239.728 241.242 239.654 241.935V247.785C239.654 248.139 239.481 248.315 239.134 248.315ZM251.341 248.315C250.988 248.315 250.811 248.139 250.811 247.785V234.965C250.811 234.619 250.988 234.445 251.341 234.445C251.688 234.445 251.861 234.619 251.861 234.965V240.345C252.495 239.359 253.641 238.865 255.301 238.865H255.861C257.108 238.865 258.018 239.155 258.591 239.735C259.171 240.309 259.461 241.219 259.461 242.465V247.785C259.461 248.139 259.288 248.315 258.941 248.315C258.588 248.315 258.411 248.139 258.411 247.785V242.465C258.411 241.512 258.221 240.849 257.841 240.475C257.468 240.102 256.808 239.915 255.861 239.915H255.301C254.268 239.915 253.455 240.079 252.861 240.405C252.268 240.732 251.935 241.242 251.861 241.935V247.785C251.861 248.139 251.688 248.315 251.341 248.315ZM265.438 248.315C264.398 248.315 263.634 248.075 263.148 247.595C262.668 247.109 262.428 246.345 262.428 245.305C262.428 244.265 262.671 243.502 263.158 243.015C263.644 242.529 264.404 242.285 265.438 242.285H269.988C269.974 241.405 269.774 240.792 269.388 240.445C269.008 240.092 268.358 239.915 267.438 239.915H266.278C265.431 239.915 264.811 240.005 264.418 240.185C264.024 240.365 263.781 240.672 263.688 241.105C263.641 241.272 263.578 241.395 263.498 241.475C263.424 241.549 263.304 241.585 263.138 241.585C262.964 241.585 262.828 241.539 262.728 241.445C262.634 241.345 262.601 241.212 262.628 241.045C262.714 240.285 263.058 239.732 263.658 239.385C264.264 239.039 265.138 238.865 266.278 238.865H267.438C268.684 238.865 269.594 239.155 270.168 239.735C270.748 240.309 271.038 241.219 271.038 242.465V247.785C271.038 248.139 270.864 248.315 270.518 248.315C270.164 248.315 269.988 248.139 269.988 247.785V246.795C269.348 247.809 268.204 248.315 266.558 248.315H265.438ZM265.438 247.265H266.558C267.204 247.265 267.771 247.195 268.258 247.055C268.751 246.909 269.148 246.675 269.448 246.355C269.748 246.035 269.928 245.609 269.988 245.075V243.335H265.438C264.698 243.335 264.184 243.479 263.898 243.765C263.618 244.045 263.478 244.559 263.478 245.305C263.478 246.045 263.618 246.559 263.898 246.845C264.184 247.125 264.698 247.265 265.438 247.265ZM275.13 248.315C274.777 248.315 274.6 248.139 274.6 247.785V239.385C274.6 239.039 274.777 238.865 275.13 238.865C275.477 238.865 275.65 239.039 275.65 239.385V240.345C276.284 239.359 277.43 238.865 279.09 238.865H279.65C280.897 238.865 281.807 239.155 282.38 239.735C282.96 240.309 283.25 241.219 283.25 242.465V247.785C283.25 248.139 283.077 248.315 282.73 248.315C282.377 248.315 282.2 248.139 282.2 247.785V242.465C282.2 241.512 282.01 240.849 281.63 240.475C281.257 240.102 280.597 239.915 279.65 239.915H279.09C278.057 239.915 277.244 240.079 276.65 240.405C276.057 240.732 275.724 241.242 275.65 241.935V247.785C275.65 248.139 275.477 248.315 275.13 248.315ZM290.148 248.315C288.901 248.315 287.988 248.025 287.408 247.445C286.828 246.865 286.538 245.952 286.538 244.705V242.445C286.538 241.199 286.824 240.289 287.398 239.715C287.978 239.135 288.894 238.852 290.148 238.865H291.788C292.768 238.865 293.514 239.032 294.028 239.365C294.548 239.692 294.858 240.209 294.958 240.915C294.978 241.095 294.938 241.232 294.838 241.325C294.744 241.419 294.611 241.465 294.438 241.465C294.278 241.465 294.158 241.425 294.078 241.345C293.998 241.259 293.938 241.135 293.898 240.975C293.824 240.589 293.628 240.315 293.308 240.155C292.988 239.995 292.481 239.915 291.788 239.915H290.148C289.194 239.902 288.528 240.082 288.148 240.455C287.774 240.822 287.588 241.485 287.588 242.445V244.705C287.588 245.659 287.774 246.325 288.148 246.705C288.528 247.079 289.194 247.265 290.148 247.265H291.788C292.481 247.265 292.988 247.185 293.308 247.025C293.628 246.865 293.824 246.589 293.898 246.195C293.938 246.035 293.998 245.915 294.078 245.835C294.158 245.749 294.278 245.705 294.438 245.705C294.611 245.705 294.744 245.755 294.838 245.855C294.938 245.949 294.978 246.082 294.958 246.255C294.858 246.962 294.548 247.482 294.028 247.815C293.514 248.149 292.768 248.315 291.788 248.315H290.148ZM308.823 238.845C309.897 238.845 310.663 239.119 311.123 239.665C311.59 240.212 311.823 241.115 311.823 242.375V247.805C311.823 248.152 311.65 248.325 311.303 248.325C310.95 248.325 310.773 248.152 310.773 247.805V242.375C310.773 241.495 310.623 240.862 310.323 240.475C310.023 240.089 309.523 239.895 308.823 239.895H307.993C307.12 239.895 306.493 240.089 306.113 240.475C305.74 240.862 305.553 241.495 305.553 242.375V247.805C305.553 248.152 305.38 248.325 305.033 248.325C304.68 248.325 304.503 248.152 304.503 247.805V242.375C304.503 241.495 304.353 240.862 304.053 240.475C303.753 240.089 303.253 239.895 302.553 239.895H301.723C300.85 239.895 300.223 240.089 299.843 240.475C299.47 240.862 299.283 241.495 299.283 242.375V247.805C299.283 248.152 299.11 248.325 298.763 248.325C298.41 248.325 298.233 248.152 298.233 247.805V239.385C298.233 239.039 298.41 238.865 298.763 238.865C299.11 238.865 299.283 239.039 299.283 239.385V240.165C299.577 239.692 299.923 239.355 300.323 239.155C300.73 238.949 301.243 238.845 301.863 238.845H302.553C303.253 238.845 303.813 238.969 304.233 239.215C304.66 239.455 304.997 239.852 305.243 240.405C305.537 239.852 305.897 239.455 306.323 239.215C306.75 238.969 307.307 238.845 307.993 238.845H308.823ZM316.162 243.995V244.725C316.162 245.665 316.348 246.325 316.722 246.705C317.102 247.079 317.768 247.265 318.722 247.265H320.362C321.202 247.265 321.812 247.159 322.192 246.945C322.578 246.725 322.808 246.349 322.882 245.815C322.908 245.649 322.962 245.522 323.042 245.435C323.128 245.349 323.258 245.305 323.432 245.305C323.605 245.305 323.735 245.355 323.822 245.455C323.915 245.549 323.952 245.682 323.932 245.855C323.845 246.695 323.508 247.315 322.922 247.715C322.335 248.115 321.482 248.315 320.362 248.315H318.722C317.475 248.315 316.562 248.029 315.982 247.455C315.402 246.875 315.112 245.965 315.112 244.725V242.465C315.112 241.205 315.402 240.289 315.982 239.715C316.562 239.135 317.475 238.852 318.722 238.865H320.362C321.608 238.865 322.518 239.155 323.092 239.735C323.672 240.309 323.962 241.219 323.962 242.465V243.465C323.962 243.819 323.788 243.995 323.442 243.995H316.162ZM318.722 239.915C317.768 239.902 317.102 240.085 316.722 240.465C316.348 240.839 316.162 241.505 316.162 242.465V242.945H322.912V242.465C322.912 241.512 322.725 240.849 322.352 240.475C321.978 240.102 321.315 239.915 320.362 239.915H318.722ZM327.963 248.315C327.609 248.315 327.433 248.139 327.433 247.785V239.385C327.433 239.039 327.609 238.865 327.963 238.865C328.309 238.865 328.483 239.039 328.483 239.385V240.345C329.116 239.359 330.263 238.865 331.923 238.865H332.483C333.729 238.865 334.639 239.155 335.213 239.735C335.793 240.309 336.083 241.219 336.083 242.465V247.785C336.083 248.139 335.909 248.315 335.562 248.315C335.209 248.315 335.033 248.139 335.033 247.785V242.465C335.033 241.512 334.843 240.849 334.463 240.475C334.089 240.102 333.429 239.915 332.483 239.915H331.923C330.889 239.915 330.076 240.079 329.483 240.405C328.889 240.732 328.556 241.242 328.483 241.935V247.785C328.483 248.139 328.309 248.315 327.963 248.315ZM343.5 248.315C342.273 248.315 341.376 248.032 340.81 247.465C340.243 246.899 339.96 246.005 339.96 244.785V239.915H338.77C338.416 239.915 338.24 239.739 338.24 239.385C338.24 239.039 338.416 238.865 338.77 238.865H339.96V236.715C339.96 236.362 340.133 236.185 340.48 236.185C340.833 236.185 341.01 236.362 341.01 236.715V238.865H343.52C343.866 238.865 344.04 239.039 344.04 239.385C344.04 239.739 343.866 239.915 343.52 239.915H341.01V244.785C341.01 245.719 341.19 246.365 341.55 246.725C341.916 247.085 342.566 247.265 343.5 247.265C343.693 247.265 343.83 247.309 343.91 247.395C343.996 247.482 344.04 247.612 344.04 247.785C344.04 248.139 343.86 248.315 343.5 248.315Z" fill="#AAAAAA"/>
<path d="M347.5 149.382C354.433 149.382 360.5 154.847 360.5 162.128C360.5 169.409 354.434 174.875 347.5 174.875C340.566 174.875 334.5 169.409 334.5 162.128C334.5 154.847 340.567 149.382 347.5 149.382Z" fill="#52E996" stroke="black" stroke-width="13"/>
</svg>
