<svg width="421" height="315" viewBox="0 0 421 315" fill="none" xmlns="http://www.w3.org/2000/svg">
<path d="M16.3398 69.4307C137.835 21.2975 247.851 164.377 167.554 263.716C129.615 316.538 56.6352 320.581 0 293.627V239.652C107.87 307.128 220.405 189.293 102.701 112.954C57.4305 94.2691 30.003 110.59 0 132.231V77.9473C5.20423 74.7802 10.6182 71.8944 16.3398 69.4307Z" fill="white"/>
<path d="M164.467 314.534C195.464 234.262 282.009 173.14 395.347 191.601C403.912 192.583 412.51 194.283 421 196.672V245.254C338.83 205.74 256.973 248.908 223.182 314.534H164.467Z" fill="white"/>
<path d="M228.627 95.7254V68.5235L230.549 67.6168H240.233C244.464 67.6168 246.58 69.7325 246.58 73.9639V79.4043C246.58 83.6357 244.464 85.7514 240.233 85.7514H232.254V94.0933L228.808 95.7254H228.627ZM232.254 70.881V82.4872H240.233C242.046 82.4872 242.953 81.4595 242.953 79.4043V73.9639C242.953 71.9087 242.046 70.881 240.233 70.881H232.254ZM255.647 91.7358H259.456C260.665 91.7358 261.269 91.0104 261.269 89.5596V87.0752C261.269 85.6244 260.665 84.899 259.456 84.899H255.647C254.438 84.899 253.834 85.6244 253.834 87.0752V89.5596C253.834 91.0104 254.438 91.7358 255.647 91.7358ZM255.647 95C252.02 95 250.207 93.1865 250.207 89.5596V87.0752C250.207 83.4483 252.02 81.6348 255.647 81.6348H259.456C260.084 81.6348 260.689 81.8162 261.269 82.1789V80.4923C261.269 79.0416 260.665 78.3162 259.456 78.3162H252.963V78.1349L254.414 75.052H259.456C263.083 75.052 264.896 76.8654 264.896 80.4923V94.0933L261.45 95.7254H261.269V94.456C260.81 94.8187 260.205 95 259.456 95H255.647ZM274.616 95.7254L267.616 75.8136L270.754 74.3266H270.935L276.067 89.4508L281.09 74.3266H281.272L284.409 75.8136L277.935 94.2383L274.798 95.7254H274.616ZM292.569 95C288.942 95 287.129 93.1865 287.129 89.5596V80.4923C287.129 76.8654 288.942 75.052 292.569 75.052H296.74C300.367 75.052 302.181 76.8654 302.181 80.4923V81.4535L290.81 90.2487C290.98 91.2401 291.566 91.7358 292.569 91.7358H296.74C297.949 91.7358 298.554 91.0104 298.554 89.5596V88.5985L301.999 86.9664H302.181V89.5596C302.181 93.1865 300.367 95 296.74 95H292.569ZM290.756 86.4586L298.536 80.1841C298.463 78.9388 297.865 78.3162 296.74 78.3162H292.569C291.36 78.3162 290.756 79.0416 290.756 80.4923V86.4586ZM232.852 128.725V103.917H225.091V103.736L226.56 100.617H244.241V100.798L242.772 103.917H236.479V127.093L233.034 128.725H232.852ZM246.145 128.725V101.524L249.59 99.8914H249.772V108.614C250.304 108.239 250.908 108.052 251.585 108.052H255.756C259.383 108.052 261.197 109.865 261.197 113.492V127.093L257.751 128.725H257.57V113.492C257.57 112.042 256.965 111.316 255.756 111.316H251.585C250.376 111.316 249.772 112.042 249.772 113.492V127.093L246.326 128.725H246.145ZM272.077 128C268.45 128 266.637 126.187 266.637 122.56V113.492C266.637 109.865 268.45 108.052 272.077 108.052H276.248C279.875 108.052 281.689 109.865 281.689 113.492V114.453L270.318 123.249C270.488 124.24 271.074 124.736 272.077 124.736H276.248C277.457 124.736 278.062 124.01 278.062 122.56V121.598L281.507 119.966H281.689V122.56C281.689 126.187 279.875 128 276.248 128H272.077ZM270.264 119.459L278.044 113.184C277.971 111.939 277.373 111.316 276.248 111.316H272.077C270.868 111.316 270.264 112.042 270.264 113.492V119.459ZM308.89 128C304.659 128 302.543 125.884 302.543 121.653V101.524L305.989 99.8914H306.17V121.653C306.17 123.708 307.077 124.736 308.89 124.736H314.512C316.326 124.736 317.232 123.708 317.232 121.653V101.524L320.678 99.8914H320.859V121.653C320.859 123.708 321.766 124.736 323.579 124.736H329.201C331.015 124.736 331.921 123.708 331.921 121.653V101.524L335.367 99.8914H335.548V121.653C335.548 125.884 333.433 128 329.201 128H323.579C321.403 128 319.892 127.42 319.046 126.259C318.079 127.42 316.567 128 314.512 128H308.89ZM346.429 124.736H350.237C351.446 124.736 352.051 124.01 352.051 122.56V120.075C352.051 118.624 351.446 117.899 350.237 117.899H346.429C345.22 117.899 344.616 118.624 344.616 120.075V122.56C344.616 124.01 345.22 124.736 346.429 124.736ZM346.429 128C342.802 128 340.989 126.187 340.989 122.56V120.075C340.989 116.448 342.802 114.635 346.429 114.635H350.237C350.866 114.635 351.47 114.816 352.051 115.179V113.492C352.051 112.042 351.446 111.316 350.237 111.316H343.745V111.135L345.196 108.052H350.237C353.864 108.052 355.678 109.865 355.678 113.492V127.093L352.232 128.725H352.051V127.456C351.591 127.819 350.987 128 350.237 128H346.429ZM366.558 128C362.931 128 361.118 126.187 361.118 122.56V108.959L364.564 107.327H364.745V122.56C364.745 124.01 365.349 124.736 366.558 124.736H370.729C371.938 124.736 372.543 124.01 372.543 122.56V108.959L375.988 107.327H376.17V129.995C376.17 133.622 374.356 135.435 370.729 135.435H363.004V135.254L364.455 132.171H370.729C371.938 132.171 372.543 131.446 372.543 129.995V127.456C372.071 127.819 371.467 128 370.729 128H366.558Z" fill="white"/>
<path d="M174.934 95.8877C172.099 95.8877 170 95.213 168.639 93.8636C167.289 92.5018 166.614 90.4034 166.614 87.5684V78.9892C166.614 76.1294 167.289 74.0248 168.639 72.6754C170 71.326 172.099 70.6699 174.934 70.707H177.162C180.009 70.707 182.108 71.3817 183.457 72.7311C184.807 74.0682 185.481 76.1665 185.481 79.0263V87.5684C185.481 90.4034 184.807 92.5018 183.457 93.8636C182.108 95.213 180.009 95.8877 177.162 95.8877H174.934ZM174.934 92.7679H177.162C178.487 92.7679 179.527 92.607 180.282 92.2851C181.037 91.9632 181.569 91.4247 181.879 90.6696C182.201 89.9144 182.362 88.8807 182.362 87.5684V79.0263C182.362 77.7016 182.201 76.6617 181.879 75.9066C181.569 75.1514 181.037 74.6191 180.282 74.3096C179.527 73.9877 178.487 73.8267 177.162 73.8267H174.934C173.621 73.802 172.588 73.9444 171.833 74.2539C171.077 74.551 170.539 75.0833 170.217 75.8509C169.895 76.606 169.734 77.6521 169.734 78.9892V87.5684C169.734 88.8807 169.889 89.9144 170.198 90.6696C170.52 91.4247 171.059 91.9632 171.814 92.2851C172.569 92.607 173.609 92.7679 174.934 92.7679ZM175.602 85.1172C174.612 85.1172 174.117 84.622 174.117 83.6316V82.7031C174.117 81.7375 174.612 81.2547 175.602 81.2547H176.494C177.434 81.2547 177.905 81.7375 177.905 82.7031V83.6316C177.905 84.622 177.434 85.1172 176.494 85.1172H175.602ZM206.227 95.9248H192.337C191.272 95.9248 190.74 95.4049 190.74 94.3649C190.74 92.706 191 91.2947 191.52 90.131C192.052 88.9549 192.727 87.9646 193.544 87.1599C194.374 86.3428 195.253 85.6557 196.181 85.0986C197.11 84.5291 197.97 84.0154 198.762 83.5573C200.136 82.7774 201.282 82.1027 202.198 81.5332C203.126 80.9637 203.819 80.3819 204.277 79.7877C204.736 79.1934 204.965 78.4692 204.965 77.615C204.965 76.1418 204.698 75.1514 204.166 74.6438C203.646 74.1239 202.662 73.8639 201.213 73.8639H197.24C196.076 73.8639 195.215 74.0186 194.658 74.3281C194.101 74.6376 193.748 75.2133 193.6 76.0551C193.513 76.5503 193.346 76.9279 193.098 77.1879C192.851 77.4479 192.473 77.5778 191.966 77.5778C191.446 77.5778 191.05 77.4417 190.777 77.1693C190.505 76.8846 190.393 76.476 190.443 75.9437C190.703 74.1981 191.39 72.8983 192.504 72.044C193.618 71.1775 195.197 70.7442 197.24 70.7442H201.213C203.541 70.7442 205.268 71.3074 206.394 72.434C207.521 73.5606 208.084 75.2876 208.084 77.615C208.084 79.1006 207.719 80.3447 206.989 81.3475C206.258 82.3379 205.299 83.2169 204.11 83.9844C202.922 84.7396 201.647 85.501 200.285 86.2685C199.295 86.838 198.354 87.4075 197.462 87.9769C196.583 88.5464 195.828 89.2087 195.197 89.9639C194.578 90.7191 194.169 91.6661 193.971 92.8051H206.227C207.267 92.8051 207.787 93.325 207.787 94.3649C207.787 95.4049 207.267 95.9248 206.227 95.9248Z" fill="#B8EF46"/>
<path d="M234.459 162.865C234.323 162.946 234.199 162.974 234.088 162.949C233.976 162.924 233.877 162.847 233.791 162.717L230.745 157.87H227.338V162.355C227.338 162.683 227.177 162.847 226.855 162.847C226.527 162.847 226.363 162.683 226.363 162.355V151.371C226.363 151.042 226.527 150.878 226.855 150.878H231.2C232.259 150.878 233.057 151.151 233.596 151.696C234.14 152.24 234.413 153.042 234.413 154.1V154.657C234.413 155.592 234.199 156.326 233.772 156.858C233.345 157.39 232.714 157.715 231.878 157.833L234.617 162.197C234.79 162.481 234.738 162.704 234.459 162.865ZM227.338 156.895H231.2C231.98 156.895 232.547 156.719 232.899 156.366C233.258 156.007 233.438 155.437 233.438 154.657V154.1C233.438 153.314 233.258 152.745 232.899 152.392C232.547 152.033 231.98 151.853 231.2 151.853H227.338V156.895ZM240.472 162.847C239.314 162.847 238.466 162.581 237.928 162.048C237.389 161.51 237.12 160.665 237.12 159.513V157.415C237.12 156.245 237.389 155.394 237.928 154.862C238.466 154.323 239.314 154.06 240.472 154.072H241.994C243.152 154.072 243.997 154.342 244.529 154.88C245.068 155.413 245.337 156.257 245.337 157.415V159.495C245.337 160.652 245.068 161.5 244.529 162.039C243.997 162.577 243.152 162.847 241.994 162.847H240.472ZM238.095 159.513C238.095 160.386 238.268 160.999 238.615 161.352C238.967 161.698 239.586 161.872 240.472 161.872H241.994C242.879 161.872 243.495 161.698 243.842 161.352C244.189 160.999 244.362 160.38 244.362 159.495V157.415C244.362 156.53 244.189 155.914 243.842 155.567C243.495 155.221 242.879 155.047 241.994 155.047H240.472C239.877 155.041 239.407 155.112 239.06 155.261C238.714 155.409 238.466 155.657 238.318 156.004C238.169 156.35 238.095 156.821 238.095 157.415V159.513ZM251.169 162.847C250.203 162.847 249.494 162.624 249.042 162.178C248.597 161.726 248.374 161.018 248.374 160.052C248.374 159.086 248.6 158.378 249.052 157.926C249.503 157.474 250.209 157.248 251.169 157.248H255.393C255.381 156.431 255.195 155.861 254.836 155.539C254.483 155.211 253.88 155.047 253.026 155.047H251.948C251.162 155.047 250.587 155.131 250.221 155.298C249.856 155.465 249.63 155.75 249.544 156.152C249.5 156.307 249.442 156.422 249.367 156.496C249.299 156.564 249.188 156.598 249.033 156.598C248.872 156.598 248.745 156.555 248.652 156.468C248.566 156.375 248.535 156.251 248.559 156.097C248.64 155.391 248.959 154.877 249.516 154.555C250.079 154.233 250.89 154.072 251.948 154.072H253.026C254.183 154.072 255.028 154.342 255.56 154.88C256.099 155.413 256.368 156.257 256.368 157.415V162.355C256.368 162.683 256.207 162.847 255.885 162.847C255.557 162.847 255.393 162.683 255.393 162.355V161.435C254.799 162.376 253.737 162.847 252.208 162.847H251.169ZM251.169 161.872H252.208C252.809 161.872 253.335 161.807 253.787 161.677C254.245 161.541 254.613 161.324 254.892 161.027C255.17 160.73 255.337 160.334 255.393 159.838V158.223H251.169C250.481 158.223 250.005 158.356 249.739 158.622C249.479 158.882 249.349 159.359 249.349 160.052C249.349 160.739 249.479 161.216 249.739 161.482C250.005 161.742 250.481 161.872 251.169 161.872ZM262.777 162.847C261.62 162.847 260.772 162.577 260.233 162.039C259.695 161.5 259.425 160.652 259.425 159.495V157.415C259.425 156.257 259.695 155.413 260.233 154.88C260.772 154.342 261.62 154.072 262.777 154.072H266.667V150.451C266.667 150.129 266.832 149.969 267.16 149.969C267.481 149.969 267.642 150.129 267.642 150.451V162.355C267.642 162.683 267.481 162.847 267.16 162.847C266.832 162.847 266.667 162.683 266.667 162.355V161.556C266.401 161.983 266.011 162.305 265.498 162.522C264.984 162.738 264.312 162.847 263.483 162.847H262.777ZM262.777 161.872H263.483C264.448 161.872 265.219 161.72 265.795 161.417C266.377 161.107 266.667 160.646 266.667 160.033V155.047H262.777C261.892 155.047 261.273 155.224 260.92 155.577C260.574 155.923 260.4 156.536 260.4 157.415V159.495C260.4 160.38 260.574 160.999 260.92 161.352C261.273 161.698 261.892 161.872 262.777 161.872ZM280.788 154.054C281.785 154.054 282.497 154.308 282.924 154.815C283.357 155.323 283.574 156.162 283.574 157.331V162.373C283.574 162.695 283.413 162.856 283.091 162.856C282.763 162.856 282.599 162.695 282.599 162.373V157.331C282.599 156.514 282.46 155.926 282.181 155.567C281.903 155.208 281.438 155.029 280.788 155.029H280.018C279.207 155.029 278.625 155.208 278.272 155.567C277.926 155.926 277.752 156.514 277.752 157.331V162.373C277.752 162.695 277.591 162.856 277.269 162.856C276.941 162.856 276.777 162.695 276.777 162.373V157.331C276.777 156.514 276.638 155.926 276.359 155.567C276.081 155.208 275.617 155.029 274.967 155.029H274.196C273.385 155.029 272.803 155.208 272.451 155.567C272.104 155.926 271.931 156.514 271.931 157.331V162.373C271.931 162.695 271.77 162.856 271.448 162.856C271.12 162.856 270.956 162.695 270.956 162.373V154.555C270.956 154.233 271.12 154.072 271.448 154.072C271.77 154.072 271.931 154.233 271.931 154.555V155.279C272.203 154.84 272.525 154.527 272.896 154.342C273.274 154.15 273.75 154.054 274.326 154.054H274.967C275.617 154.054 276.137 154.168 276.527 154.397C276.923 154.62 277.235 154.989 277.464 155.502C277.737 154.989 278.071 154.62 278.467 154.397C278.863 154.168 279.38 154.054 280.018 154.054H280.788ZM289.124 162.847C288.159 162.847 287.45 162.624 286.998 162.178C286.552 161.726 286.329 161.018 286.329 160.052C286.329 159.086 286.555 158.378 287.007 157.926C287.459 157.474 288.165 157.248 289.124 157.248H293.349C293.336 156.431 293.151 155.861 292.792 155.539C292.439 155.211 291.835 155.047 290.981 155.047H289.904C289.118 155.047 288.542 155.131 288.177 155.298C287.812 155.465 287.586 155.75 287.499 156.152C287.456 156.307 287.397 156.422 287.323 156.496C287.255 156.564 287.143 156.598 286.989 156.598C286.828 156.598 286.701 156.555 286.608 156.468C286.521 156.375 286.49 156.251 286.515 156.097C286.596 155.391 286.914 154.877 287.471 154.555C288.035 154.233 288.846 154.072 289.904 154.072H290.981C292.139 154.072 292.984 154.342 293.516 154.88C294.054 155.413 294.324 156.257 294.324 157.415V162.355C294.324 162.683 294.163 162.847 293.841 162.847C293.513 162.847 293.349 162.683 293.349 162.355V161.435C292.755 162.376 291.693 162.847 290.164 162.847H289.124ZM289.124 161.872H290.164C290.765 161.872 291.291 161.807 291.743 161.677C292.201 161.541 292.569 161.324 292.847 161.027C293.126 160.73 293.293 160.334 293.349 159.838V158.223H289.124C288.437 158.223 287.96 158.356 287.694 158.622C287.434 158.882 287.304 159.359 287.304 160.052C287.304 160.739 287.434 161.216 287.694 161.482C287.96 161.742 288.437 161.872 289.124 161.872ZM298.124 166.561C297.796 166.561 297.632 166.397 297.632 166.069V154.555C297.632 154.233 297.796 154.072 298.124 154.072C298.446 154.072 298.607 154.233 298.607 154.555V155.382C298.885 154.948 299.284 154.623 299.804 154.407C300.324 154.184 300.99 154.072 301.801 154.072H302.506C303.664 154.072 304.509 154.342 305.041 154.88C305.579 155.413 305.849 156.257 305.849 157.415V159.495C305.849 160.652 305.579 161.5 305.041 162.039C304.509 162.577 303.664 162.847 302.506 162.847H298.607V166.069C298.607 166.397 298.446 166.561 298.124 166.561ZM298.607 161.872H302.506C303.391 161.872 304.007 161.698 304.354 161.352C304.701 160.999 304.874 160.38 304.874 159.495V157.415C304.874 156.53 304.701 155.914 304.354 155.567C304.007 155.221 303.391 155.047 302.506 155.047H301.801C300.81 155.047 300.049 155.202 299.516 155.512C298.99 155.821 298.687 156.298 298.607 156.941V161.872ZM317.356 162.847C316.013 162.847 315.032 162.537 314.413 161.918C313.794 161.299 313.484 160.318 313.484 158.975V154.75C313.484 153.395 313.791 152.41 314.404 151.798C315.023 151.185 316.001 150.878 317.338 150.878H319.585C320.724 150.878 321.572 151.117 322.129 151.593C322.686 152.064 322.992 152.822 323.048 153.868C323.066 154.035 323.032 154.162 322.946 154.249C322.865 154.336 322.745 154.379 322.584 154.379C322.274 154.379 322.104 154.215 322.073 153.887C322.03 153.119 321.819 152.59 321.442 152.299C321.064 152.002 320.445 151.853 319.585 151.853H317.338C316.626 151.853 316.059 151.946 315.639 152.132C315.218 152.311 314.914 152.615 314.729 153.042C314.549 153.463 314.459 154.032 314.459 154.75V158.975C314.459 159.693 314.552 160.262 314.738 160.683C314.924 161.104 315.227 161.408 315.648 161.593C316.069 161.779 316.638 161.872 317.356 161.872H319.585C320.216 161.872 320.714 161.794 321.079 161.64C321.451 161.485 321.714 161.225 321.869 160.86C322.023 160.495 322.101 159.99 322.101 159.346V158.186L320.067 158.167C319.746 158.167 319.585 158.003 319.585 157.675C319.585 157.353 319.746 157.192 320.067 157.192L322.593 157.211C322.915 157.211 323.076 157.372 323.076 157.694V159.346C323.076 160.572 322.8 161.463 322.249 162.02C321.698 162.571 320.81 162.847 319.585 162.847H317.356ZM326.084 158.836V159.513C326.084 160.386 326.257 160.999 326.604 161.352C326.956 161.698 327.575 161.872 328.461 161.872H329.983C330.763 161.872 331.33 161.773 331.682 161.575C332.041 161.37 332.255 161.021 332.323 160.525C332.348 160.371 332.397 160.253 332.472 160.173C332.552 160.092 332.673 160.052 332.834 160.052C332.995 160.052 333.115 160.098 333.196 160.191C333.282 160.278 333.317 160.402 333.298 160.563C333.217 161.343 332.905 161.918 332.36 162.29C331.815 162.661 331.023 162.847 329.983 162.847H328.461C327.303 162.847 326.455 162.581 325.916 162.048C325.378 161.51 325.109 160.665 325.109 159.513V157.415C325.109 156.245 325.378 155.394 325.916 154.862C326.455 154.323 327.303 154.06 328.461 154.072H329.983C331.141 154.072 331.986 154.342 332.518 154.88C333.057 155.413 333.326 156.257 333.326 157.415V158.344C333.326 158.672 333.165 158.836 332.843 158.836H326.084ZM328.461 155.047C327.575 155.035 326.956 155.205 326.604 155.558C326.257 155.905 326.084 156.524 326.084 157.415V157.861H332.351V157.415C332.351 156.53 332.178 155.914 331.831 155.567C331.484 155.221 330.868 155.047 329.983 155.047H328.461ZM337.04 162.847C336.712 162.847 336.548 162.683 336.548 162.355V154.555C336.548 154.233 336.712 154.072 337.04 154.072C337.362 154.072 337.523 154.233 337.523 154.555V155.447C338.111 154.531 339.176 154.072 340.717 154.072H341.237C342.395 154.072 343.24 154.342 343.772 154.88C344.311 155.413 344.58 156.257 344.58 157.415V162.355C344.58 162.683 344.419 162.847 344.097 162.847C343.769 162.847 343.605 162.683 343.605 162.355V157.415C343.605 156.53 343.428 155.914 343.076 155.567C342.729 155.221 342.116 155.047 341.237 155.047H340.717C339.758 155.047 339.003 155.199 338.452 155.502C337.901 155.806 337.591 156.279 337.523 156.923V162.355C337.523 162.683 337.362 162.847 337.04 162.847ZM348.607 158.836V159.513C348.607 160.386 348.78 160.999 349.127 161.352C349.479 161.698 350.098 161.872 350.984 161.872H352.506C353.286 161.872 353.853 161.773 354.206 161.575C354.565 161.37 354.778 161.021 354.846 160.525C354.871 160.371 354.92 160.253 354.995 160.173C355.075 160.092 355.196 160.052 355.357 160.052C355.518 160.052 355.638 160.098 355.719 160.191C355.806 160.278 355.84 160.402 355.821 160.563C355.741 161.343 355.428 161.918 354.883 162.29C354.339 162.661 353.546 162.847 352.506 162.847H350.984C349.826 162.847 348.978 162.581 348.44 162.048C347.901 161.51 347.632 160.665 347.632 159.513V157.415C347.632 156.245 347.901 155.394 348.44 154.862C348.978 154.323 349.826 154.06 350.984 154.072H352.506C353.664 154.072 354.509 154.342 355.041 154.88C355.58 155.413 355.849 156.257 355.849 157.415V158.344C355.849 158.672 355.688 158.836 355.366 158.836H348.607ZM350.984 155.047C350.098 155.035 349.479 155.205 349.127 155.558C348.78 155.905 348.607 156.524 348.607 157.415V157.861H354.874V157.415C354.874 156.53 354.701 155.914 354.354 155.567C354.007 155.221 353.392 155.047 352.506 155.047H350.984ZM359.564 162.847C359.236 162.847 359.072 162.683 359.072 162.355V154.555C359.072 154.233 359.236 154.072 359.564 154.072C359.885 154.072 360.046 154.233 360.046 154.555V155.985C360.368 155.366 360.833 154.893 361.439 154.565C362.052 154.236 362.776 154.072 363.612 154.072C363.94 154.072 364.104 154.233 364.104 154.555C364.104 154.883 363.94 155.047 363.612 155.047C362.51 155.047 361.656 155.298 361.049 155.799C360.443 156.295 360.108 157.003 360.046 157.926V162.355C360.046 162.683 359.885 162.847 359.564 162.847ZM368.118 162.847C367.153 162.847 366.444 162.624 365.992 162.178C365.546 161.726 365.324 161.018 365.324 160.052C365.324 159.086 365.55 158.378 366.001 157.926C366.453 157.474 367.159 157.248 368.118 157.248H372.343C372.331 156.431 372.145 155.861 371.786 155.539C371.433 155.211 370.83 155.047 369.975 155.047H368.898C368.112 155.047 367.536 155.131 367.171 155.298C366.806 155.465 366.58 155.75 366.493 156.152C366.45 156.307 366.391 156.422 366.317 156.496C366.249 156.564 366.138 156.598 365.983 156.598C365.822 156.598 365.695 156.555 365.602 156.468C365.515 156.375 365.485 156.251 365.509 156.097C365.59 155.391 365.909 154.877 366.466 154.555C367.029 154.233 367.84 154.072 368.898 154.072H369.975C371.133 154.072 371.978 154.342 372.51 154.88C373.049 155.413 373.318 156.257 373.318 157.415V162.355C373.318 162.683 373.157 162.847 372.835 162.847C372.507 162.847 372.343 162.683 372.343 162.355V161.435C371.749 162.376 370.687 162.847 369.158 162.847H368.118ZM368.118 161.872H369.158C369.759 161.872 370.285 161.807 370.737 161.677C371.195 161.541 371.563 161.324 371.842 161.027C372.12 160.73 372.287 160.334 372.343 159.838V158.223H368.118C367.431 158.223 366.955 158.356 366.688 158.622C366.428 158.882 366.299 159.359 366.299 160.052C366.299 160.739 366.428 161.216 366.688 161.482C366.955 161.742 367.431 161.872 368.118 161.872ZM380.21 162.847C379.071 162.847 378.238 162.584 377.712 162.057C377.186 161.531 376.923 160.702 376.923 159.569V155.047H375.818C375.49 155.047 375.326 154.883 375.326 154.555C375.326 154.233 375.49 154.072 375.818 154.072H376.923V152.076C376.923 151.748 377.084 151.584 377.406 151.584C377.734 151.584 377.898 151.748 377.898 152.076V154.072H380.228C380.55 154.072 380.711 154.233 380.711 154.555C380.711 154.883 380.55 155.047 380.228 155.047H377.898V159.569C377.898 160.436 378.065 161.036 378.399 161.37C378.74 161.705 379.343 161.872 380.21 161.872C380.389 161.872 380.516 161.912 380.59 161.992C380.671 162.073 380.711 162.194 380.711 162.355C380.711 162.683 380.544 162.847 380.21 162.847ZM383.56 152.383C383.133 152.383 382.919 152.163 382.919 151.723V151.306C382.919 150.878 383.133 150.665 383.56 150.665H383.978C384.392 150.665 384.6 150.878 384.6 151.306V151.723C384.6 152.163 384.392 152.383 383.978 152.383H383.56ZM383.773 162.847C383.445 162.847 383.281 162.683 383.281 162.355V154.555C383.281 154.233 383.445 154.072 383.773 154.072C384.095 154.072 384.256 154.233 384.256 154.555V162.355C384.256 162.683 384.095 162.847 383.773 162.847ZM390.825 162.847C389.668 162.847 388.82 162.581 388.281 162.048C387.743 161.51 387.473 160.665 387.473 159.513V157.415C387.473 156.245 387.743 155.394 388.281 154.862C388.82 154.323 389.668 154.06 390.825 154.072H392.348C393.506 154.072 394.35 154.342 394.883 154.88C395.421 155.413 395.691 156.257 395.691 157.415V159.495C395.691 160.652 395.421 161.5 394.883 162.039C394.35 162.577 393.506 162.847 392.348 162.847H390.825ZM388.448 159.513C388.448 160.386 388.622 160.999 388.968 161.352C389.321 161.698 389.94 161.872 390.825 161.872H392.348C393.233 161.872 393.849 161.698 394.196 161.352C394.542 160.999 394.716 160.38 394.716 159.495V157.415C394.716 156.53 394.542 155.914 394.196 155.567C393.849 155.221 393.233 155.047 392.348 155.047H390.825C390.231 155.041 389.761 155.112 389.414 155.261C389.067 155.409 388.82 155.657 388.671 156.004C388.523 156.35 388.448 156.821 388.448 157.415V159.513ZM399.405 162.847C399.077 162.847 398.913 162.683 398.913 162.355V154.555C398.913 154.233 399.077 154.072 399.405 154.072C399.727 154.072 399.888 154.233 399.888 154.555V155.447C400.476 154.531 401.541 154.072 403.082 154.072H403.602C404.76 154.072 405.604 154.342 406.137 154.88C406.675 155.413 406.945 156.257 406.945 157.415V162.355C406.945 162.683 406.784 162.847 406.462 162.847C406.134 162.847 405.97 162.683 405.97 162.355V157.415C405.97 156.53 405.793 155.914 405.44 155.567C405.094 155.221 404.481 155.047 403.602 155.047H403.082C402.123 155.047 401.367 155.199 400.817 155.502C400.266 155.806 399.956 156.279 399.888 156.923V162.355C399.888 162.683 399.727 162.847 399.405 162.847Z" fill="#AAAAAA"/>
<path d="M73.2826 71.0322C79.7204 71.0322 85.3529 76.1069 85.353 82.8672C85.353 89.6275 79.7204 94.7021 73.2826 94.7021C66.8449 94.7021 61.2123 89.6275 61.2123 82.8672C61.2123 76.1069 66.8449 71.0322 73.2826 71.0322Z" fill="#B8EF46" stroke="black" stroke-width="12.0704"/>
</svg>
