<svg width="421" height="315" viewBox="0 0 421 315" fill="none" xmlns="http://www.w3.org/2000/svg">
<path d="M421 23.0352C349.235 34.6503 306.468 147.156 396.084 189.793C404.452 194.01 412.776 196.551 421 197.75V238.423C359.617 232.943 304.961 192.924 296.701 122.388C289.798 69.2609 320.349 24.1803 364.348 0H421V23.0352Z" fill="white"/>
<path d="M92.8125 183.812H101.406C103.359 183.812 104.336 182.706 104.336 180.492V164.672C104.336 162.458 103.359 161.352 101.406 161.352H92.8125V183.812ZM88.9062 187.328V158.812L90.9766 157.836H101.406C105.964 157.836 108.242 160.115 108.242 164.672V180.492C108.242 185.049 105.964 187.328 101.406 187.328H88.9062ZM120.938 183.812H125.43C126.732 183.812 127.383 183.031 127.383 181.469V171.703C127.383 170.141 126.732 169.359 125.43 169.359H120.938C119.635 169.359 118.984 170.141 118.984 171.703V181.469C118.984 183.031 119.635 183.812 120.938 183.812ZM120.938 187.328C117.031 187.328 115.078 185.375 115.078 181.469V171.703C115.078 167.797 117.031 165.844 120.938 165.844H125.43C129.336 165.844 131.289 167.797 131.289 171.703V181.469C131.289 185.375 129.336 187.328 125.43 187.328H120.938ZM143.008 187.328C139.102 187.328 137.148 185.375 137.148 181.469V171.703C137.148 167.797 139.102 165.844 143.008 165.844H147.5C151.406 165.844 153.359 167.797 153.359 171.703V172.738L149.648 174.496H149.453V171.703C149.453 170.141 148.802 169.359 147.5 169.359H143.008C141.706 169.359 141.055 170.141 141.055 171.703V181.469C141.055 183.031 141.706 183.812 143.008 183.812H147.5C148.802 183.812 149.453 183.031 149.453 181.469V180.434L153.164 178.676H153.359V181.469C153.359 185.375 151.406 187.328 147.5 187.328H143.008ZM165.078 187.328C161.172 187.328 159.219 185.375 159.219 181.469V166.82L162.93 165.062H163.125V181.469C163.125 183.031 163.776 183.812 165.078 183.812H169.57C170.872 183.812 171.523 183.031 171.523 181.469V166.82L175.234 165.062H175.43V181.469C175.43 185.375 173.477 187.328 169.57 187.328H165.078ZM181.289 188.109V171.703C181.289 167.797 183.242 165.844 187.148 165.844H191.641C193.438 165.844 194.74 166.326 195.547 167.289C196.406 166.326 197.708 165.844 199.453 165.844H203.945C207.852 165.844 209.805 167.797 209.805 171.703V186.352L206.094 188.109H205.898V171.703C205.898 170.141 205.247 169.359 203.945 169.359H199.453C198.151 169.359 197.5 170.141 197.5 171.703V186.352L193.789 188.109H193.594V171.703C193.594 170.141 192.943 169.359 191.641 169.359H187.148C185.846 169.359 185.195 170.141 185.195 171.703V186.352L181.484 188.109H181.289ZM221.523 187.328C217.617 187.328 215.664 185.375 215.664 181.469V171.703C215.664 167.797 217.617 165.844 221.523 165.844H226.016C229.922 165.844 231.875 167.797 231.875 171.703V172.738L219.629 182.211C219.811 183.279 220.443 183.812 221.523 183.812H226.016C227.318 183.812 227.969 183.031 227.969 181.469V180.434L231.68 178.676H231.875V181.469C231.875 185.375 229.922 187.328 226.016 187.328H221.523ZM219.57 178.129L227.949 171.371C227.871 170.03 227.227 169.359 226.016 169.359H221.523C220.221 169.359 219.57 170.141 219.57 171.703V178.129ZM237.734 188.109V171.703C237.734 167.797 239.688 165.844 243.594 165.844H248.086C251.992 165.844 253.945 167.797 253.945 171.703V186.352L250.234 188.109H250.039V171.703C250.039 170.141 249.388 169.359 248.086 169.359H243.594C242.292 169.359 241.641 170.141 241.641 171.703V186.352L237.93 188.109H237.734ZM262.383 188.109V169.398H257.363V169.203L258.945 165.844H262.383V158.812L266.094 157.055H266.289V165.844H271.309V166.039L269.727 169.398H266.289V186.352L262.578 188.109H262.383ZM88.9062 223.109V193.812L92.6172 192.055H92.8125V221.352L89.1016 223.109H88.9062ZM102.227 223.109V204.398H97.207V204.203L98.7891 200.844H102.227V193.812L105.938 192.055H106.133V200.844H111.152V201.039L109.57 204.398H106.133V221.352L102.422 223.109H102.227Z" fill="white"/>
<path d="M28.48 185.288C25.4267 185.288 23.1667 184.561 21.7 183.108C20.2467 181.641 19.52 179.381 19.52 176.328V167.088C19.52 164.008 20.2467 161.741 21.7 160.288C23.1667 158.835 25.4267 158.128 28.48 158.168H30.88C33.9467 158.168 36.2067 158.895 37.66 160.348C39.1133 161.788 39.84 164.048 39.84 167.128V176.328C39.84 179.381 39.1133 181.641 37.66 183.108C36.2067 184.561 33.9467 185.288 30.88 185.288H28.48ZM28.48 181.928H30.88C32.3067 181.928 33.4267 181.755 34.24 181.408C35.0533 181.061 35.6267 180.481 35.96 179.668C36.3067 178.855 36.48 177.741 36.48 176.328V167.128C36.48 165.701 36.3067 164.581 35.96 163.768C35.6267 162.955 35.0533 162.381 34.24 162.048C33.4267 161.701 32.3067 161.528 30.88 161.528H28.48C27.0667 161.501 25.9533 161.655 25.14 161.988C24.3267 162.308 23.7467 162.881 23.4 163.708C23.0533 164.521 22.88 165.648 22.88 167.088V176.328C22.88 177.741 23.0467 178.855 23.38 179.668C23.7267 180.481 24.3067 181.061 25.12 181.408C25.9333 181.755 27.0533 181.928 28.48 181.928ZM29.2 173.688C28.1333 173.688 27.6 173.155 27.6 172.088V171.088C27.6 170.048 28.1333 169.528 29.2 169.528H30.16C31.1733 169.528 31.68 170.048 31.68 171.088V172.088C31.68 173.155 31.1733 173.688 30.16 173.688H29.2ZM53.6237 185.328C51.2904 185.328 49.4838 184.841 48.2038 183.868C46.9371 182.881 46.1704 181.368 45.9038 179.328C45.8504 178.768 45.9704 178.335 46.2638 178.028C46.5571 177.721 46.9838 177.568 47.5438 177.568C48.5704 177.568 49.1438 178.128 49.2638 179.248C49.4504 180.288 49.8704 181.001 50.5238 181.388C51.1771 181.775 52.2104 181.968 53.6237 181.968H58.1838C59.9038 181.968 61.0704 181.661 61.6838 181.048C62.3104 180.421 62.6238 179.261 62.6238 177.568C62.6238 175.888 62.3104 174.735 61.6838 174.108C61.0704 173.481 59.9038 173.168 58.1838 173.168H55.1037C53.9838 173.168 53.4238 172.608 53.4238 171.488C53.4238 170.368 53.9838 169.808 55.1037 169.808H59.7038C60.5438 169.808 61.1304 169.435 61.4638 168.688C61.8104 167.928 61.9838 166.901 61.9838 165.608C61.9838 164.021 61.6971 162.955 61.1238 162.408C60.5638 161.848 59.5038 161.568 57.9438 161.568H54.0638C52.8104 161.568 51.8838 161.735 51.2838 162.068C50.6838 162.401 50.3038 163.021 50.1438 163.928C49.9838 165.021 49.3971 165.568 48.3838 165.568C47.8238 165.568 47.3971 165.421 47.1038 165.128C46.8104 164.821 46.7038 164.381 46.7838 163.808C47.0504 161.928 47.7838 160.528 48.9838 159.608C50.1971 158.675 51.8904 158.208 54.0638 158.208H57.9438C60.4504 158.208 62.3104 158.815 63.5238 160.028C64.7371 161.241 65.3438 163.101 65.3438 165.608C65.3438 168.075 64.6504 169.821 63.2638 170.848C64.1838 171.448 64.8638 172.301 65.3038 173.408C65.7571 174.515 65.9838 175.901 65.9838 177.568C65.9838 180.208 65.3504 182.161 64.0838 183.428C62.8171 184.695 60.8504 185.328 58.1838 185.328H53.6237Z" fill="#52E996"/>
<path d="M90.77 248.328C89.3233 248.328 88.2667 247.995 87.6 247.328C86.9333 246.661 86.6 245.605 86.6 244.158V239.608C86.6 238.148 86.93 237.088 87.59 236.428C88.2567 235.768 89.31 235.438 90.75 235.438H93.17C94.3967 235.438 95.31 235.695 95.91 236.208C96.51 236.715 96.84 237.531 96.9 238.658C96.92 238.838 96.8833 238.975 96.79 239.068C96.7033 239.161 96.5733 239.208 96.4 239.208C96.0667 239.208 95.8833 239.031 95.85 238.678C95.8033 237.851 95.5767 237.281 95.17 236.968C94.7633 236.648 94.0967 236.488 93.17 236.488H90.75C89.9833 236.488 89.3733 236.588 88.92 236.788C88.4667 236.981 88.14 237.308 87.94 237.768C87.7467 238.221 87.65 238.835 87.65 239.608V244.158C87.65 244.931 87.75 245.545 87.95 245.998C88.15 246.451 88.4767 246.778 88.93 246.978C89.3833 247.178 89.9967 247.278 90.77 247.278H93.17C94.0967 247.278 94.7633 247.121 95.17 246.808C95.5767 246.488 95.8033 245.915 95.85 245.088C95.8833 244.735 96.0667 244.558 96.4 244.558C96.5733 244.558 96.7033 244.608 96.79 244.708C96.8833 244.801 96.92 244.935 96.9 245.108C96.84 246.235 96.51 247.055 95.91 247.568C95.31 248.075 94.3967 248.328 93.17 248.328H90.77ZM104.115 248.328C103.889 248.328 103.725 248.208 103.625 247.968L98.4355 236.188C98.3488 235.995 98.3488 235.835 98.4355 235.708C98.5288 235.581 98.6555 235.501 98.8155 235.468C99.0888 235.401 99.2788 235.501 99.3855 235.768L104.385 247.108H104.015L108.985 235.768C109.092 235.501 109.285 235.401 109.565 235.468C109.739 235.501 109.865 235.581 109.945 235.708C110.025 235.835 110.025 235.995 109.945 236.188L104.735 247.968C104.635 248.208 104.465 248.328 104.225 248.328H104.115ZM121.063 248.328C119.616 248.328 118.56 247.995 117.893 247.328C117.226 246.661 116.893 245.605 116.893 244.158V239.608C116.893 238.148 117.223 237.088 117.883 236.428C118.55 235.768 119.603 235.438 121.043 235.438H123.463C124.69 235.438 125.603 235.695 126.203 236.208C126.803 236.715 127.133 237.531 127.193 238.658C127.213 238.838 127.176 238.975 127.083 239.068C126.996 239.161 126.866 239.208 126.693 239.208C126.36 239.208 126.176 239.031 126.143 238.678C126.096 237.851 125.87 237.281 125.463 236.968C125.056 236.648 124.39 236.488 123.463 236.488H121.043C120.276 236.488 119.666 236.588 119.213 236.788C118.76 236.981 118.433 237.308 118.233 237.768C118.04 238.221 117.943 238.835 117.943 239.608V244.158C117.943 244.931 118.043 245.545 118.243 245.998C118.443 246.451 118.77 246.778 119.223 246.978C119.676 247.178 120.29 247.278 121.063 247.278H123.463C124.143 247.278 124.68 247.195 125.073 247.028C125.473 246.861 125.756 246.581 125.923 246.188C126.09 245.795 126.173 245.251 126.173 244.558V243.308L123.983 243.288C123.636 243.288 123.463 243.111 123.463 242.758C123.463 242.411 123.636 242.238 123.983 242.238L126.703 242.258C127.05 242.258 127.223 242.431 127.223 242.778V244.558C127.223 245.878 126.926 246.838 126.333 247.438C125.74 248.031 124.783 248.328 123.463 248.328H121.063ZM130.463 244.008V244.738C130.463 245.678 130.649 246.338 131.023 246.718C131.403 247.091 132.069 247.278 133.023 247.278H134.663C135.503 247.278 136.113 247.171 136.493 246.958C136.879 246.738 137.109 246.361 137.183 245.828C137.209 245.661 137.263 245.535 137.343 245.448C137.429 245.361 137.559 245.318 137.733 245.318C137.906 245.318 138.036 245.368 138.123 245.468C138.216 245.561 138.253 245.695 138.233 245.868C138.146 246.708 137.809 247.328 137.223 247.728C136.636 248.128 135.783 248.328 134.663 248.328H133.023C131.776 248.328 130.863 248.041 130.283 247.468C129.703 246.888 129.413 245.978 129.413 244.738V242.478C129.413 241.218 129.703 240.301 130.283 239.728C130.863 239.148 131.776 238.865 133.023 238.878H134.663C135.909 238.878 136.819 239.168 137.393 239.748C137.973 240.321 138.263 241.231 138.263 242.478V243.478C138.263 243.831 138.089 244.008 137.743 244.008H130.463ZM133.023 239.928C132.069 239.915 131.403 240.098 131.023 240.478C130.649 240.851 130.463 241.518 130.463 242.478V242.958H137.213V242.478C137.213 241.525 137.026 240.861 136.653 240.488C136.279 240.115 135.616 239.928 134.663 239.928H133.023ZM142.263 248.328C141.91 248.328 141.733 248.151 141.733 247.798V239.398C141.733 239.051 141.91 238.878 142.263 238.878C142.61 238.878 142.783 239.051 142.783 239.398V240.358C143.417 239.371 144.563 238.878 146.223 238.878H146.783C148.03 238.878 148.94 239.168 149.513 239.748C150.093 240.321 150.383 241.231 150.383 242.478V247.798C150.383 248.151 150.21 248.328 149.863 248.328C149.51 248.328 149.333 248.151 149.333 247.798V242.478C149.333 241.525 149.143 240.861 148.763 240.488C148.39 240.115 147.73 239.928 146.783 239.928H146.223C145.19 239.928 144.377 240.091 143.783 240.418C143.19 240.745 142.857 241.255 142.783 241.948V247.798C142.783 248.151 142.61 248.328 142.263 248.328ZM154.72 244.008V244.738C154.72 245.678 154.907 246.338 155.28 246.718C155.66 247.091 156.327 247.278 157.28 247.278H158.92C159.76 247.278 160.37 247.171 160.75 246.958C161.137 246.738 161.367 246.361 161.44 245.828C161.467 245.661 161.52 245.535 161.6 245.448C161.687 245.361 161.817 245.318 161.99 245.318C162.164 245.318 162.294 245.368 162.38 245.468C162.474 245.561 162.51 245.695 162.49 245.868C162.404 246.708 162.067 247.328 161.48 247.728C160.894 248.128 160.04 248.328 158.92 248.328H157.28C156.034 248.328 155.12 248.041 154.54 247.468C153.96 246.888 153.67 245.978 153.67 244.738V242.478C153.67 241.218 153.96 240.301 154.54 239.728C155.12 239.148 156.034 238.865 157.28 238.878H158.92C160.167 238.878 161.077 239.168 161.65 239.748C162.23 240.321 162.52 241.231 162.52 242.478V243.478C162.52 243.831 162.347 244.008 162 244.008H154.72ZM157.28 239.928C156.327 239.915 155.66 240.098 155.28 240.478C154.907 240.851 154.72 241.518 154.72 242.478V242.958H161.47V242.478C161.47 241.525 161.284 240.861 160.91 240.488C160.537 240.115 159.874 239.928 158.92 239.928H157.28ZM166.521 248.328C166.168 248.328 165.991 248.151 165.991 247.798V239.398C165.991 239.051 166.168 238.878 166.521 238.878C166.868 238.878 167.041 239.051 167.041 239.398V240.938C167.388 240.271 167.888 239.761 168.541 239.408C169.201 239.055 169.981 238.878 170.881 238.878C171.234 238.878 171.411 239.051 171.411 239.398C171.411 239.751 171.234 239.928 170.881 239.928C169.694 239.928 168.774 240.198 168.121 240.738C167.468 241.271 167.108 242.035 167.041 243.028V247.798C167.041 248.151 166.868 248.328 166.521 248.328ZM175.735 248.328C174.695 248.328 173.931 248.088 173.445 247.608C172.965 247.121 172.725 246.358 172.725 245.318C172.725 244.278 172.968 243.515 173.455 243.028C173.941 242.541 174.701 242.298 175.735 242.298H180.285C180.271 241.418 180.071 240.805 179.685 240.458C179.305 240.105 178.655 239.928 177.735 239.928H176.575C175.728 239.928 175.108 240.018 174.715 240.198C174.321 240.378 174.078 240.685 173.985 241.118C173.938 241.285 173.875 241.408 173.795 241.488C173.721 241.561 173.601 241.598 173.435 241.598C173.261 241.598 173.125 241.551 173.025 241.458C172.931 241.358 172.898 241.225 172.925 241.058C173.011 240.298 173.355 239.745 173.955 239.398C174.561 239.051 175.435 238.878 176.575 238.878H177.735C178.981 238.878 179.891 239.168 180.465 239.748C181.045 240.321 181.335 241.231 181.335 242.478V247.798C181.335 248.151 181.161 248.328 180.815 248.328C180.461 248.328 180.285 248.151 180.285 247.798V246.808C179.645 247.821 178.501 248.328 176.855 248.328H175.735ZM175.735 247.278H176.855C177.501 247.278 178.068 247.208 178.555 247.068C179.048 246.921 179.445 246.688 179.745 246.368C180.045 246.048 180.225 245.621 180.285 245.088V243.348H175.735C174.995 243.348 174.481 243.491 174.195 243.778C173.915 244.058 173.775 244.571 173.775 245.318C173.775 246.058 173.915 246.571 174.195 246.858C174.481 247.138 174.995 247.278 175.735 247.278ZM188.757 248.328C187.531 248.328 186.634 248.045 186.067 247.478C185.501 246.911 185.217 246.018 185.217 244.798V239.928H184.027C183.674 239.928 183.497 239.751 183.497 239.398C183.497 239.051 183.674 238.878 184.027 238.878H185.217V236.728C185.217 236.375 185.391 236.198 185.737 236.198C186.091 236.198 186.267 236.375 186.267 236.728V238.878H188.777C189.124 238.878 189.297 239.051 189.297 239.398C189.297 239.751 189.124 239.928 188.777 239.928H186.267V244.798C186.267 245.731 186.447 246.378 186.807 246.738C187.174 247.098 187.824 247.278 188.757 247.278C188.951 247.278 189.087 247.321 189.167 247.408C189.254 247.495 189.297 247.625 189.297 247.798C189.297 248.151 189.117 248.328 188.757 248.328ZM192.365 237.058C191.905 237.058 191.675 236.821 191.675 236.348V235.898C191.675 235.438 191.905 235.208 192.365 235.208H192.815C193.262 235.208 193.485 235.438 193.485 235.898V236.348C193.485 236.821 193.262 237.058 192.815 237.058H192.365ZM192.595 248.328C192.242 248.328 192.065 248.151 192.065 247.798V239.398C192.065 239.051 192.242 238.878 192.595 238.878C192.942 238.878 193.115 239.051 193.115 239.398V247.798C193.115 248.151 192.942 248.328 192.595 248.328ZM200.19 248.328C198.944 248.328 198.03 248.041 197.45 247.468C196.87 246.888 196.58 245.978 196.58 244.738V242.478C196.58 241.218 196.87 240.301 197.45 239.728C198.03 239.148 198.944 238.865 200.19 238.878H201.83C203.077 238.878 203.987 239.168 204.56 239.748C205.14 240.321 205.43 241.231 205.43 242.478V244.718C205.43 245.965 205.14 246.878 204.56 247.458C203.987 248.038 203.077 248.328 201.83 248.328H200.19ZM197.63 244.738C197.63 245.678 197.817 246.338 198.19 246.718C198.57 247.091 199.237 247.278 200.19 247.278H201.83C202.784 247.278 203.447 247.091 203.82 246.718C204.194 246.338 204.38 245.671 204.38 244.718V242.478C204.38 241.525 204.194 240.861 203.82 240.488C203.447 240.115 202.784 239.928 201.83 239.928H200.19C199.55 239.921 199.044 239.998 198.67 240.158C198.297 240.318 198.03 240.585 197.87 240.958C197.71 241.331 197.63 241.838 197.63 242.478V244.738ZM209.431 248.328C209.078 248.328 208.901 248.151 208.901 247.798V239.398C208.901 239.051 209.078 238.878 209.431 238.878C209.778 238.878 209.951 239.051 209.951 239.398V240.358C210.585 239.371 211.731 238.878 213.391 238.878H213.951C215.198 238.878 216.108 239.168 216.681 239.748C217.261 240.321 217.551 241.231 217.551 242.478V247.798C217.551 248.151 217.378 248.328 217.031 248.328C216.678 248.328 216.501 248.151 216.501 247.798V242.478C216.501 241.525 216.311 240.861 215.931 240.488C215.558 240.115 214.898 239.928 213.951 239.928H213.391C212.358 239.928 211.545 240.091 210.951 240.418C210.358 240.745 210.025 241.255 209.951 241.948V247.798C209.951 248.151 209.778 248.328 209.431 248.328ZM235.958 247.508C235.724 247.768 235.474 247.781 235.208 247.548L228.578 241.698C228.131 241.311 227.784 240.961 227.538 240.648C227.291 240.328 227.114 240.005 227.008 239.678C226.908 239.351 226.858 238.981 226.858 238.568C226.858 237.541 227.101 236.785 227.588 236.298C228.074 235.805 228.828 235.558 229.848 235.558H230.348C231.274 235.558 231.978 235.758 232.458 236.158C232.938 236.551 233.221 237.165 233.308 237.998C233.321 238.171 233.281 238.308 233.188 238.408C233.101 238.501 232.971 238.548 232.798 238.548C232.624 238.548 232.494 238.505 232.408 238.418C232.328 238.331 232.274 238.201 232.248 238.028C232.188 237.495 232.014 237.125 231.728 236.918C231.448 236.711 230.988 236.608 230.348 236.608H229.848C229.121 236.608 228.614 236.748 228.328 237.028C228.048 237.308 227.908 237.821 227.908 238.568C227.908 238.875 227.941 239.145 228.008 239.378C228.081 239.605 228.218 239.838 228.418 240.078C228.618 240.311 228.904 240.588 229.278 240.908L235.908 246.758C236.174 246.998 236.191 247.248 235.958 247.508ZM229.608 248.428C228.161 248.428 227.108 248.101 226.448 247.448C225.788 246.788 225.458 245.735 225.458 244.288C225.458 243.195 225.651 242.328 226.038 241.688C226.424 241.048 227.031 240.605 227.858 240.358C228.018 240.298 228.158 240.305 228.278 240.378C228.398 240.451 228.474 240.575 228.508 240.748C228.541 240.935 228.521 241.075 228.448 241.168C228.374 241.255 228.258 241.325 228.098 241.378C227.531 241.565 227.124 241.885 226.878 242.338C226.631 242.791 226.508 243.441 226.508 244.288C226.508 245.055 226.604 245.665 226.798 246.118C226.998 246.565 227.321 246.888 227.768 247.088C228.221 247.281 228.834 247.378 229.608 247.378H230.248C231.008 247.378 231.614 247.278 232.068 247.078C232.521 246.878 232.844 246.555 233.038 246.108C233.238 245.655 233.338 245.048 233.338 244.288V243.268C233.338 242.921 233.514 242.748 233.868 242.748C234.214 242.748 234.388 242.921 234.388 243.268V244.288C234.388 245.721 234.058 246.771 233.398 247.438C232.738 248.098 231.688 248.428 230.248 248.428H229.608ZM243.923 248.328C243.57 248.328 243.393 248.151 243.393 247.798V235.968C243.393 235.615 243.57 235.438 243.923 235.438H251.413C251.767 235.438 251.943 235.615 251.943 235.968C251.943 236.315 251.767 236.488 251.413 236.488H244.443V241.278H249.053C249.407 241.278 249.583 241.451 249.583 241.798C249.583 242.151 249.407 242.328 249.053 242.328H244.443V247.278H251.413C251.767 247.278 251.943 247.451 251.943 247.798C251.943 248.151 251.767 248.328 251.413 248.328H243.923ZM255.134 248.328C254.781 248.328 254.604 248.151 254.604 247.798V239.398C254.604 239.051 254.781 238.878 255.134 238.878C255.481 238.878 255.654 239.051 255.654 239.398V240.358C256.288 239.371 257.434 238.878 259.094 238.878H259.654C260.901 238.878 261.811 239.168 262.384 239.748C262.964 240.321 263.254 241.231 263.254 242.478V247.798C263.254 248.151 263.081 248.328 262.734 248.328C262.381 248.328 262.204 248.151 262.204 247.798V242.478C262.204 241.525 262.014 240.861 261.634 240.488C261.261 240.115 260.601 239.928 259.654 239.928H259.094C258.061 239.928 257.248 240.091 256.654 240.418C256.061 240.745 255.728 241.255 255.654 241.948V247.798C255.654 248.151 255.481 248.328 255.134 248.328ZM267.341 248.328C266.988 248.328 266.811 248.151 266.811 247.798V234.978C266.811 234.631 266.988 234.458 267.341 234.458C267.688 234.458 267.861 234.631 267.861 234.978V240.358C268.495 239.371 269.641 238.878 271.301 238.878H271.861C273.108 238.878 274.018 239.168 274.591 239.748C275.171 240.321 275.461 241.231 275.461 242.478V247.798C275.461 248.151 275.288 248.328 274.941 248.328C274.588 248.328 274.411 248.151 274.411 247.798V242.478C274.411 241.525 274.221 240.861 273.841 240.488C273.468 240.115 272.808 239.928 271.861 239.928H271.301C270.268 239.928 269.455 240.091 268.861 240.418C268.268 240.745 267.935 241.255 267.861 241.948V247.798C267.861 248.151 267.688 248.328 267.341 248.328ZM281.438 248.328C280.398 248.328 279.634 248.088 279.148 247.608C278.668 247.121 278.428 246.358 278.428 245.318C278.428 244.278 278.671 243.515 279.158 243.028C279.644 242.541 280.404 242.298 281.438 242.298H285.988C285.974 241.418 285.774 240.805 285.388 240.458C285.008 240.105 284.358 239.928 283.438 239.928H282.278C281.431 239.928 280.811 240.018 280.418 240.198C280.024 240.378 279.781 240.685 279.688 241.118C279.641 241.285 279.578 241.408 279.498 241.488C279.424 241.561 279.304 241.598 279.138 241.598C278.964 241.598 278.828 241.551 278.728 241.458C278.634 241.358 278.601 241.225 278.628 241.058C278.714 240.298 279.058 239.745 279.658 239.398C280.264 239.051 281.138 238.878 282.278 238.878H283.438C284.684 238.878 285.594 239.168 286.168 239.748C286.748 240.321 287.038 241.231 287.038 242.478V247.798C287.038 248.151 286.864 248.328 286.518 248.328C286.164 248.328 285.988 248.151 285.988 247.798V246.808C285.348 247.821 284.204 248.328 282.558 248.328H281.438ZM281.438 247.278H282.558C283.204 247.278 283.771 247.208 284.258 247.068C284.751 246.921 285.148 246.688 285.448 246.368C285.748 246.048 285.928 245.621 285.988 245.088V243.348H281.438C280.698 243.348 280.184 243.491 279.898 243.778C279.618 244.058 279.478 244.571 279.478 245.318C279.478 246.058 279.618 246.571 279.898 246.858C280.184 247.138 280.698 247.278 281.438 247.278ZM291.13 248.328C290.777 248.328 290.6 248.151 290.6 247.798V239.398C290.6 239.051 290.777 238.878 291.13 238.878C291.477 238.878 291.65 239.051 291.65 239.398V240.358C292.284 239.371 293.43 238.878 295.09 238.878H295.65C296.897 238.878 297.807 239.168 298.38 239.748C298.96 240.321 299.25 241.231 299.25 242.478V247.798C299.25 248.151 299.077 248.328 298.73 248.328C298.377 248.328 298.2 248.151 298.2 247.798V242.478C298.2 241.525 298.01 240.861 297.63 240.488C297.257 240.115 296.597 239.928 295.65 239.928H295.09C294.057 239.928 293.244 240.091 292.65 240.418C292.057 240.745 291.724 241.255 291.65 241.948V247.798C291.65 248.151 291.477 248.328 291.13 248.328ZM306.148 248.328C304.901 248.328 303.988 248.038 303.408 247.458C302.828 246.878 302.538 245.965 302.538 244.718V242.458C302.538 241.211 302.824 240.301 303.398 239.728C303.978 239.148 304.894 238.865 306.148 238.878H307.788C308.768 238.878 309.514 239.045 310.028 239.378C310.548 239.705 310.858 240.221 310.958 240.928C310.978 241.108 310.938 241.245 310.838 241.338C310.744 241.431 310.611 241.478 310.438 241.478C310.278 241.478 310.158 241.438 310.078 241.358C309.998 241.271 309.938 241.148 309.898 240.988C309.824 240.601 309.628 240.328 309.308 240.168C308.988 240.008 308.481 239.928 307.788 239.928H306.148C305.194 239.915 304.528 240.095 304.148 240.468C303.774 240.835 303.588 241.498 303.588 242.458V244.718C303.588 245.671 303.774 246.338 304.148 246.718C304.528 247.091 305.194 247.278 306.148 247.278H307.788C308.481 247.278 308.988 247.198 309.308 247.038C309.628 246.878 309.824 246.601 309.898 246.208C309.938 246.048 309.998 245.928 310.078 245.848C310.158 245.761 310.278 245.718 310.438 245.718C310.611 245.718 310.744 245.768 310.838 245.868C310.938 245.961 310.978 246.095 310.958 246.268C310.858 246.975 310.548 247.495 310.028 247.828C309.514 248.161 308.768 248.328 307.788 248.328H306.148ZM324.823 238.858C325.897 238.858 326.663 239.131 327.123 239.678C327.59 240.225 327.823 241.128 327.823 242.388V247.818C327.823 248.165 327.65 248.338 327.303 248.338C326.95 248.338 326.773 248.165 326.773 247.818V242.388C326.773 241.508 326.623 240.875 326.323 240.488C326.023 240.101 325.523 239.908 324.823 239.908H323.993C323.12 239.908 322.493 240.101 322.113 240.488C321.74 240.875 321.553 241.508 321.553 242.388V247.818C321.553 248.165 321.38 248.338 321.033 248.338C320.68 248.338 320.503 248.165 320.503 247.818V242.388C320.503 241.508 320.353 240.875 320.053 240.488C319.753 240.101 319.253 239.908 318.553 239.908H317.723C316.85 239.908 316.223 240.101 315.843 240.488C315.47 240.875 315.283 241.508 315.283 242.388V247.818C315.283 248.165 315.11 248.338 314.763 248.338C314.41 248.338 314.233 248.165 314.233 247.818V239.398C314.233 239.051 314.41 238.878 314.763 238.878C315.11 238.878 315.283 239.051 315.283 239.398V240.178C315.577 239.705 315.923 239.368 316.323 239.168C316.73 238.961 317.243 238.858 317.863 238.858H318.553C319.253 238.858 319.813 238.981 320.233 239.228C320.66 239.468 320.997 239.865 321.243 240.418C321.537 239.865 321.897 239.468 322.323 239.228C322.75 238.981 323.307 238.858 323.993 238.858H324.823ZM332.162 244.008V244.738C332.162 245.678 332.348 246.338 332.722 246.718C333.102 247.091 333.768 247.278 334.722 247.278H336.362C337.202 247.278 337.812 247.171 338.192 246.958C338.578 246.738 338.808 246.361 338.882 245.828C338.908 245.661 338.962 245.535 339.042 245.448C339.128 245.361 339.258 245.318 339.432 245.318C339.605 245.318 339.735 245.368 339.822 245.468C339.915 245.561 339.952 245.695 339.932 245.868C339.845 246.708 339.508 247.328 338.922 247.728C338.335 248.128 337.482 248.328 336.362 248.328H334.722C333.475 248.328 332.562 248.041 331.982 247.468C331.402 246.888 331.112 245.978 331.112 244.738V242.478C331.112 241.218 331.402 240.301 331.982 239.728C332.562 239.148 333.475 238.865 334.722 238.878H336.362C337.608 238.878 338.518 239.168 339.092 239.748C339.672 240.321 339.962 241.231 339.962 242.478V243.478C339.962 243.831 339.788 244.008 339.442 244.008H332.162ZM334.722 239.928C333.768 239.915 333.102 240.098 332.722 240.478C332.348 240.851 332.162 241.518 332.162 242.478V242.958H338.912V242.478C338.912 241.525 338.725 240.861 338.352 240.488C337.978 240.115 337.315 239.928 336.362 239.928H334.722ZM343.963 248.328C343.609 248.328 343.433 248.151 343.433 247.798V239.398C343.433 239.051 343.609 238.878 343.963 238.878C344.309 238.878 344.483 239.051 344.483 239.398V240.358C345.116 239.371 346.263 238.878 347.923 238.878H348.483C349.729 238.878 350.639 239.168 351.213 239.748C351.793 240.321 352.083 241.231 352.083 242.478V247.798C352.083 248.151 351.909 248.328 351.562 248.328C351.209 248.328 351.033 248.151 351.033 247.798V242.478C351.033 241.525 350.843 240.861 350.463 240.488C350.089 240.115 349.429 239.928 348.483 239.928H347.923C346.889 239.928 346.076 240.091 345.483 240.418C344.889 240.745 344.556 241.255 344.483 241.948V247.798C344.483 248.151 344.309 248.328 343.963 248.328ZM359.5 248.328C358.273 248.328 357.376 248.045 356.81 247.478C356.243 246.911 355.96 246.018 355.96 244.798V239.928H354.77C354.416 239.928 354.24 239.751 354.24 239.398C354.24 239.051 354.416 238.878 354.77 238.878H355.96V236.728C355.96 236.375 356.133 236.198 356.48 236.198C356.833 236.198 357.01 236.375 357.01 236.728V238.878H359.52C359.866 238.878 360.04 239.051 360.04 239.398C360.04 239.751 359.866 239.928 359.52 239.928H357.01V244.798C357.01 245.731 357.19 246.378 357.55 246.738C357.916 247.098 358.566 247.278 359.5 247.278C359.693 247.278 359.83 247.321 359.91 247.408C359.996 247.495 360.04 247.625 360.04 247.798C360.04 248.151 359.86 248.328 359.5 248.328Z" fill="#AAAAAA"/>
<path d="M326.5 130.395C333.433 130.395 339.5 135.86 339.5 143.141C339.5 150.422 333.434 155.888 326.5 155.888C319.566 155.888 313.5 150.422 313.5 143.141C313.5 135.86 319.567 130.395 326.5 130.395Z" fill="#52E996" stroke="black" stroke-width="13"/>
</svg>
