<svg width="440" height="368" viewBox="0 0 440 368" fill="none" xmlns="http://www.w3.org/2000/svg">
<path d="M439.155 62.5023V111.628H438.805H438.832C382.937 115.358 344.825 75.6628 303.411 48.6955C144.502 -44.7204 -21.9318 160.521 102.9 287.574C127.896 314.543 141.56 341.791 146.484 367.711H90.9883C87.3161 358.193 81.5085 348.263 73.2054 338.042C-51.1797 231.791 -5.52105 58.4931 123.657 6.10352e-05L324.312 2.73007C344.266 13.0848 362.531 27.2634 377.208 44.9206C380.38 48.3594 385.462 53.6867 393.927 57.6426C400.861 60.9004 405.917 61.0093 411.911 62.5023H439.155Z" fill="white"/>
<path d="M181.516 193.702V172.608C181.516 168.507 183.566 166.456 187.668 166.456H193.117C197.219 166.456 199.27 168.507 199.27 172.608V192.12L195.93 193.702H195.754V181.327H185.031V192.12L181.691 193.702H181.516ZM185.031 178.128H195.754V172.608C195.754 170.616 194.875 169.62 193.117 169.62H187.668C185.91 169.62 185.031 170.616 185.031 172.608V178.128ZM211.574 192.999C210.777 192.999 210.191 192.817 209.816 192.454V199.327L206.477 200.909H206.301V178.937C206.301 175.421 208.059 173.663 211.574 173.663H215.617C219.133 173.663 220.891 175.421 220.891 178.937V187.726C220.891 191.241 219.133 192.999 215.617 192.999H211.574ZM211.574 189.835H215.617C216.789 189.835 217.375 189.132 217.375 187.726V178.937C217.375 177.53 216.789 176.827 215.617 176.827H211.574C210.402 176.827 209.816 177.53 209.816 178.937V187.726C209.816 189.132 210.402 189.835 211.574 189.835ZM232.316 192.999C231.52 192.999 230.934 192.817 230.559 192.454V199.327L227.219 200.909H227.043V178.937C227.043 175.421 228.801 173.663 232.316 173.663H236.359C239.875 173.663 241.633 175.421 241.633 178.937V187.726C241.633 191.241 239.875 192.999 236.359 192.999H232.316ZM232.316 189.835H236.359C237.531 189.835 238.117 189.132 238.117 187.726V178.937C238.117 177.53 237.531 176.827 236.359 176.827H232.316C231.145 176.827 230.559 177.53 230.559 178.937V187.726C230.559 189.132 231.145 189.835 232.316 189.835ZM247.785 193.702V167.335L251.125 165.753H251.301V192.12L247.961 193.702H247.785ZM262.727 192.999C259.211 192.999 257.453 191.241 257.453 187.726V174.542L260.793 172.96H260.969V187.726C260.969 189.132 261.555 189.835 262.727 189.835H266.77C267.941 189.835 268.527 189.132 268.527 187.726V174.542L271.867 172.96H272.043V194.933C272.043 198.448 270.285 200.206 266.77 200.206H259.281V200.03L260.688 197.042H266.77C267.941 197.042 268.527 196.339 268.527 194.933V192.472C268.07 192.823 267.484 192.999 266.77 192.999H262.727ZM281.535 188.112H281.711C282.988 189.366 283.627 190.796 283.627 192.401C283.627 194.64 282.191 196.515 279.32 198.026L278.564 197.147C279.889 195.8 280.551 194.534 280.551 193.351C280.551 191.933 279.766 190.714 278.195 189.694L281.535 188.112ZM304.055 193.741V171.476C304.055 167.146 306.219 164.981 310.549 164.981H316.301C320.63 164.981 322.795 167.146 322.795 171.476V192.071L319.27 193.741H319.084V180.679H307.766V192.071L304.24 193.741H304.055ZM307.766 177.302H319.084V171.476C319.084 169.373 318.156 168.321 316.301 168.321H310.549C308.693 168.321 307.766 169.373 307.766 171.476V177.302ZM335.783 192.999C334.942 192.999 334.324 192.807 333.928 192.424V199.679L330.402 201.349H330.217V178.155C330.217 174.444 332.072 172.589 335.783 172.589H340.051C343.762 172.589 345.617 174.444 345.617 178.155V187.433C345.617 191.144 343.762 192.999 340.051 192.999H335.783ZM335.783 189.659H340.051C341.288 189.659 341.906 188.917 341.906 187.433V178.155C341.906 176.671 341.288 175.929 340.051 175.929H335.783C334.546 175.929 333.928 176.671 333.928 178.155V187.433C333.928 188.917 334.546 189.659 335.783 189.659ZM357.678 192.999C356.837 192.999 356.218 192.807 355.822 192.424V199.679L352.297 201.349H352.111V178.155C352.111 174.444 353.967 172.589 357.678 172.589H361.945C365.656 172.589 367.512 174.444 367.512 178.155V187.433C367.512 191.144 365.656 192.999 361.945 192.999H357.678ZM357.678 189.659H361.945C363.182 189.659 363.801 188.917 363.801 187.433V178.155C363.801 176.671 363.182 175.929 361.945 175.929H357.678C356.441 175.929 355.822 176.671 355.822 178.155V187.433C355.822 188.917 356.441 189.659 357.678 189.659ZM374.006 193.741V165.909L377.531 164.239H377.717V192.071L374.191 193.741H374.006ZM389.777 192.999C386.066 192.999 384.211 191.144 384.211 187.433V173.517L387.736 171.847H387.922V187.433C387.922 188.917 388.54 189.659 389.777 189.659H394.045C395.282 189.659 395.9 188.917 395.9 187.433V173.517L399.426 171.847H399.611V195.04C399.611 198.751 397.756 200.606 394.045 200.606H386.141V200.421L387.625 197.267H394.045C395.282 197.267 395.9 196.524 395.9 195.04V192.442C395.418 192.813 394.799 192.999 394.045 192.999H389.777ZM409.631 187.841H409.816C411.165 189.164 411.839 190.674 411.839 192.368C411.839 194.731 410.324 196.71 407.293 198.306L406.495 197.378C407.893 195.955 408.592 194.619 408.592 193.37C408.592 191.873 407.763 190.587 406.105 189.511L409.631 187.841ZM181.906 238.78V215.343C181.906 210.785 184.185 208.507 188.742 208.507H194.797C199.354 208.507 201.633 210.785 201.633 215.343V237.022L197.922 238.78H197.727V225.03H185.812V237.022L182.102 238.78H181.906ZM185.812 221.476H197.727V215.343C197.727 213.129 196.75 212.022 194.797 212.022H188.742C186.789 212.022 185.812 213.129 185.812 215.343V221.476ZM209.445 238.78V209.483L211.516 208.507H221.945C226.503 208.507 228.781 210.785 228.781 215.343V221.202C228.781 225.759 226.503 228.038 221.945 228.038H213.352V237.022L209.641 238.78H209.445ZM213.352 212.022V224.522H221.945C223.898 224.522 224.875 223.416 224.875 221.202V215.343C224.875 213.129 223.898 212.022 221.945 212.022H213.352ZM235.617 238.78V209.483L237.688 208.507H248.117C252.674 208.507 254.953 210.785 254.953 215.343V221.202C254.953 225.759 252.674 228.038 248.117 228.038H239.523V237.022L235.812 238.78H235.617ZM239.523 212.022V224.522H248.117C250.07 224.522 251.047 223.416 251.047 221.202V215.343C251.047 213.129 250.07 212.022 248.117 212.022H239.523ZM261.789 237.999V209.483L265.5 207.726H265.695V234.444H279.074V234.64L277.492 237.999H261.789ZM285.129 238.78V228.585H284.055C279.497 228.585 277.219 226.306 277.219 221.749V209.483L280.93 207.726H281.125V221.749C281.125 223.963 282.102 225.069 284.055 225.069H290.109C292.062 225.069 293.039 223.963 293.039 221.749V209.483L296.75 207.726H296.945V221.749C296.945 226.306 294.667 228.585 290.109 228.585H289.035V237.022L285.324 238.78H285.129ZM304.074 237.687C303.618 237.218 303.391 236.658 303.391 236.007C303.391 235.343 303.618 234.776 304.074 234.308C304.53 233.839 305.083 233.604 305.734 233.604C306.385 233.604 306.939 233.839 307.395 234.308C307.85 234.776 308.078 235.343 308.078 236.007C308.078 236.658 307.85 237.218 307.395 237.687C306.939 238.155 306.385 238.39 305.734 238.39C305.083 238.39 304.53 238.155 304.074 237.687ZM307.492 207.726H307.688V228.038L303.977 229.796H303.781V209.483L307.492 207.726ZM315.793 237.687C315.337 237.218 315.109 236.658 315.109 236.007C315.109 235.343 315.337 234.776 315.793 234.308C316.249 233.839 316.802 233.604 317.453 233.604C318.104 233.604 318.658 233.839 319.113 234.308C319.569 234.776 319.797 235.343 319.797 236.007C319.797 236.658 319.569 237.218 319.113 237.687C318.658 238.155 318.104 238.39 317.453 238.39C316.802 238.39 316.249 238.155 315.793 237.687ZM319.211 207.726H319.406V228.038L315.695 229.796H315.5V209.483L319.211 207.726ZM327.512 237.687C327.056 237.218 326.828 236.658 326.828 236.007C326.828 235.343 327.056 234.776 327.512 234.308C327.967 233.839 328.521 233.604 329.172 233.604C329.823 233.604 330.376 233.839 330.832 234.308C331.288 234.776 331.516 235.343 331.516 236.007C331.516 236.658 331.288 237.218 330.832 237.687C330.376 238.155 329.823 238.39 329.172 238.39C328.521 238.39 327.967 238.155 327.512 237.687ZM330.93 207.726H331.125V228.038L327.414 229.796H327.219V209.483L330.93 207.726Z" fill="white"/>
<path d="M181.895 281.211C180.669 281.211 179.755 280.954 179.155 280.441C178.562 279.928 178.229 279.111 178.155 277.991C178.142 277.818 178.179 277.684 178.265 277.591C178.352 277.491 178.485 277.441 178.665 277.441C178.999 277.441 179.179 277.618 179.205 277.971C179.259 278.798 179.485 279.371 179.885 279.691C180.292 280.004 180.962 280.161 181.895 280.161H182.715C183.402 280.161 183.942 280.078 184.335 279.911C184.729 279.744 185.009 279.464 185.175 279.071C185.349 278.671 185.435 278.128 185.435 277.441V268.851C185.435 268.498 185.609 268.321 185.955 268.321C186.309 268.321 186.485 268.498 186.485 268.851V277.441C186.485 278.761 186.185 279.721 185.585 280.321C184.992 280.914 184.035 281.211 182.715 281.211H181.895ZM193.471 281.211C192.224 281.211 191.311 280.924 190.731 280.351C190.151 279.771 189.861 278.861 189.861 277.621V275.361C189.861 274.101 190.151 273.184 190.731 272.611C191.311 272.031 192.224 271.748 193.471 271.761H195.111C196.357 271.761 197.267 272.051 197.841 272.631C198.421 273.204 198.711 274.114 198.711 275.361V277.601C198.711 278.848 198.421 279.761 197.841 280.341C197.267 280.921 196.357 281.211 195.111 281.211H193.471ZM190.911 277.621C190.911 278.561 191.097 279.221 191.471 279.601C191.851 279.974 192.517 280.161 193.471 280.161H195.111C196.064 280.161 196.727 279.974 197.101 279.601C197.474 279.221 197.661 278.554 197.661 277.601V275.361C197.661 274.408 197.474 273.744 197.101 273.371C196.727 272.998 196.064 272.811 195.111 272.811H193.471C192.831 272.804 192.324 272.881 191.951 273.041C191.577 273.201 191.311 273.468 191.151 273.841C190.991 274.214 190.911 274.721 190.911 275.361V277.621ZM202.712 281.211C202.358 281.211 202.182 281.034 202.182 280.681V267.861C202.182 267.514 202.358 267.341 202.712 267.341C203.058 267.341 203.232 267.514 203.232 267.861V273.151C203.532 272.691 203.958 272.341 204.512 272.101C205.072 271.861 205.792 271.741 206.672 271.741H207.432C208.678 271.741 209.588 272.031 210.162 272.611C210.742 273.191 211.032 274.104 211.032 275.351V277.601C211.032 278.848 210.742 279.761 210.162 280.341C209.588 280.921 208.678 281.211 207.432 281.211H206.672C205.792 281.211 205.072 281.094 204.512 280.861C203.958 280.621 203.532 280.268 203.232 279.801V280.681C203.232 281.034 203.058 281.211 202.712 281.211ZM206.672 280.161H207.432C208.385 280.161 209.048 279.974 209.422 279.601C209.795 279.221 209.982 278.554 209.982 277.601V275.351C209.982 274.398 209.792 273.734 209.412 273.361C209.038 272.981 208.378 272.791 207.432 272.791H206.672C205.632 272.791 204.798 272.954 204.172 273.281C203.545 273.608 203.232 274.104 203.232 274.771V278.221C203.245 278.868 203.565 279.354 204.192 279.681C204.818 280.001 205.645 280.161 206.672 280.161ZM218.515 281.161C218.195 281.021 218.099 280.788 218.225 280.461L223.185 268.731C223.292 268.458 223.489 268.321 223.775 268.321H223.835C224.109 268.328 224.302 268.464 224.415 268.731L229.375 280.461C229.509 280.788 229.415 281.021 229.095 281.161C228.769 281.294 228.542 281.201 228.415 280.881L227.085 277.731H220.535L219.205 280.881C219.072 281.201 218.842 281.294 218.515 281.161ZM220.965 276.681H226.645L223.805 269.981L220.965 276.681ZM232.145 285.211C231.792 285.211 231.615 285.034 231.615 284.681V272.281C231.615 271.934 231.792 271.761 232.145 271.761C232.492 271.761 232.665 271.934 232.665 272.281V273.171C232.965 272.704 233.395 272.354 233.955 272.121C234.515 271.881 235.232 271.761 236.105 271.761H236.865C238.112 271.761 239.022 272.051 239.595 272.631C240.175 273.204 240.465 274.114 240.465 275.361V277.601C240.465 278.848 240.175 279.761 239.595 280.341C239.022 280.921 238.112 281.211 236.865 281.211H232.665V284.681C232.665 285.034 232.492 285.211 232.145 285.211ZM232.665 280.161H236.865C237.818 280.161 238.482 279.974 238.855 279.601C239.228 279.221 239.415 278.554 239.415 277.601V275.361C239.415 274.408 239.228 273.744 238.855 273.371C238.482 272.998 237.818 272.811 236.865 272.811H236.105C235.038 272.811 234.218 272.978 233.645 273.311C233.078 273.644 232.752 274.158 232.665 274.851V280.161ZM244.469 285.211C244.116 285.211 243.939 285.034 243.939 284.681V272.281C243.939 271.934 244.116 271.761 244.469 271.761C244.816 271.761 244.989 271.934 244.989 272.281V273.171C245.289 272.704 245.719 272.354 246.279 272.121C246.839 271.881 247.556 271.761 248.429 271.761H249.189C250.436 271.761 251.346 272.051 251.919 272.631C252.499 273.204 252.789 274.114 252.789 275.361V277.601C252.789 278.848 252.499 279.761 251.919 280.341C251.346 280.921 250.436 281.211 249.189 281.211H244.989V284.681C244.989 285.034 244.816 285.211 244.469 285.211ZM244.989 280.161H249.189C250.143 280.161 250.806 279.974 251.179 279.601C251.553 279.221 251.739 278.554 251.739 277.601V275.361C251.739 274.408 251.553 273.744 251.179 273.371C250.806 272.998 250.143 272.811 249.189 272.811H248.429C247.363 272.811 246.543 272.978 245.969 273.311C245.403 273.644 245.076 274.158 244.989 274.851V280.161ZM259.014 281.211C258.067 281.211 257.37 280.991 256.924 280.551C256.484 280.111 256.264 279.421 256.264 278.481V267.861C256.264 267.514 256.44 267.341 256.794 267.341C257.14 267.341 257.314 267.514 257.314 267.861V278.481C257.314 279.128 257.434 279.571 257.674 279.811C257.914 280.044 258.357 280.161 259.004 280.161C259.364 280.161 259.544 280.334 259.544 280.681C259.55 281.034 259.374 281.211 259.014 281.211ZM262.384 269.941C261.924 269.941 261.694 269.704 261.694 269.231V268.781C261.694 268.321 261.924 268.091 262.384 268.091H262.834C263.281 268.091 263.504 268.321 263.504 268.781V269.231C263.504 269.704 263.281 269.941 262.834 269.941H262.384ZM262.614 281.211C262.261 281.211 262.084 281.034 262.084 280.681V272.281C262.084 271.934 262.261 271.761 262.614 271.761C262.961 271.761 263.134 271.934 263.134 272.281V280.681C263.134 281.034 262.961 281.211 262.614 281.211ZM270.209 281.211C268.962 281.211 268.049 280.921 267.469 280.341C266.889 279.761 266.599 278.848 266.599 277.601V275.341C266.599 274.094 266.886 273.184 267.459 272.611C268.039 272.031 268.956 271.748 270.209 271.761H271.849C272.829 271.761 273.576 271.928 274.089 272.261C274.609 272.588 274.919 273.104 275.019 273.811C275.039 273.991 274.999 274.128 274.899 274.221C274.806 274.314 274.672 274.361 274.499 274.361C274.339 274.361 274.219 274.321 274.139 274.241C274.059 274.154 273.999 274.031 273.959 273.871C273.886 273.484 273.689 273.211 273.369 273.051C273.049 272.891 272.542 272.811 271.849 272.811H270.209C269.256 272.798 268.589 272.978 268.209 273.351C267.836 273.718 267.649 274.381 267.649 275.341V277.601C267.649 278.554 267.836 279.221 268.209 279.601C268.589 279.974 269.256 280.161 270.209 280.161H271.849C272.542 280.161 273.049 280.081 273.369 279.921C273.689 279.761 273.886 279.484 273.959 279.091C273.999 278.931 274.059 278.811 274.139 278.731C274.219 278.644 274.339 278.601 274.499 278.601C274.672 278.601 274.806 278.651 274.899 278.751C274.999 278.844 275.039 278.978 275.019 279.151C274.919 279.858 274.609 280.378 274.089 280.711C273.576 281.044 272.829 281.211 271.849 281.211H270.209ZM280.714 281.211C279.674 281.211 278.911 280.971 278.424 280.491C277.944 280.004 277.704 279.241 277.704 278.201C277.704 277.161 277.948 276.398 278.434 275.911C278.921 275.424 279.681 275.181 280.714 275.181H285.264C285.251 274.301 285.051 273.688 284.664 273.341C284.284 272.988 283.634 272.811 282.714 272.811H281.554C280.708 272.811 280.088 272.901 279.694 273.081C279.301 273.261 279.058 273.568 278.964 274.001C278.918 274.168 278.854 274.291 278.774 274.371C278.701 274.444 278.581 274.481 278.414 274.481C278.241 274.481 278.104 274.434 278.004 274.341C277.911 274.241 277.878 274.108 277.904 273.941C277.991 273.181 278.334 272.628 278.934 272.281C279.541 271.934 280.414 271.761 281.554 271.761H282.714C283.961 271.761 284.871 272.051 285.444 272.631C286.024 273.204 286.314 274.114 286.314 275.361V280.681C286.314 281.034 286.141 281.211 285.794 281.211C285.441 281.211 285.264 281.034 285.264 280.681V279.691C284.624 280.704 283.481 281.211 281.834 281.211H280.714ZM280.714 280.161H281.834C282.481 280.161 283.048 280.091 283.534 279.951C284.028 279.804 284.424 279.571 284.724 279.251C285.024 278.931 285.204 278.504 285.264 277.971V276.231H280.714C279.974 276.231 279.461 276.374 279.174 276.661C278.894 276.941 278.754 277.454 278.754 278.201C278.754 278.941 278.894 279.454 279.174 279.741C279.461 280.021 279.974 280.161 280.714 280.161ZM293.737 281.211C292.51 281.211 291.614 280.928 291.047 280.361C290.48 279.794 290.197 278.901 290.197 277.681V272.811H289.007C288.654 272.811 288.477 272.634 288.477 272.281C288.477 271.934 288.654 271.761 289.007 271.761H290.197V269.611C290.197 269.258 290.37 269.081 290.717 269.081C291.07 269.081 291.247 269.258 291.247 269.611V271.761H293.757C294.104 271.761 294.277 271.934 294.277 272.281C294.277 272.634 294.104 272.811 293.757 272.811H291.247V277.681C291.247 278.614 291.427 279.261 291.787 279.621C292.154 279.981 292.804 280.161 293.737 280.161C293.93 280.161 294.067 280.204 294.147 280.291C294.234 280.378 294.277 280.508 294.277 280.681C294.277 281.034 294.097 281.211 293.737 281.211ZM297.345 269.941C296.885 269.941 296.655 269.704 296.655 269.231V268.781C296.655 268.321 296.885 268.091 297.345 268.091H297.795C298.241 268.091 298.465 268.321 298.465 268.781V269.231C298.465 269.704 298.241 269.941 297.795 269.941H297.345ZM297.575 281.211C297.221 281.211 297.045 281.034 297.045 280.681V272.281C297.045 271.934 297.221 271.761 297.575 271.761C297.921 271.761 298.095 271.934 298.095 272.281V280.681C298.095 281.034 297.921 281.211 297.575 281.211ZM305.17 281.211C303.923 281.211 303.01 280.924 302.43 280.351C301.85 279.771 301.56 278.861 301.56 277.621V275.361C301.56 274.101 301.85 273.184 302.43 272.611C303.01 272.031 303.923 271.748 305.17 271.761H306.81C308.057 271.761 308.967 272.051 309.54 272.631C310.12 273.204 310.41 274.114 310.41 275.361V277.601C310.41 278.848 310.12 279.761 309.54 280.341C308.967 280.921 308.057 281.211 306.81 281.211H305.17ZM302.61 277.621C302.61 278.561 302.797 279.221 303.17 279.601C303.55 279.974 304.217 280.161 305.17 280.161H306.81C307.763 280.161 308.427 279.974 308.8 279.601C309.173 279.221 309.36 278.554 309.36 277.601V275.361C309.36 274.408 309.173 273.744 308.8 273.371C308.427 272.998 307.763 272.811 306.81 272.811H305.17C304.53 272.804 304.023 272.881 303.65 273.041C303.277 273.201 303.01 273.468 302.85 273.841C302.69 274.214 302.61 274.721 302.61 275.361V277.621ZM314.411 281.211C314.057 281.211 313.881 281.034 313.881 280.681V272.281C313.881 271.934 314.057 271.761 314.411 271.761C314.757 271.761 314.931 271.934 314.931 272.281V273.241C315.564 272.254 316.711 271.761 318.371 271.761H318.931C320.177 271.761 321.087 272.051 321.661 272.631C322.241 273.204 322.531 274.114 322.531 275.361V280.681C322.531 281.034 322.357 281.211 322.011 281.211C321.657 281.211 321.481 281.034 321.481 280.681V275.361C321.481 274.408 321.291 273.744 320.911 273.371C320.537 272.998 319.877 272.811 318.931 272.811H318.371C317.337 272.811 316.524 272.974 315.931 273.301C315.337 273.628 315.004 274.138 314.931 274.831V280.681C314.931 281.034 314.757 281.211 314.411 281.211Z" fill="#AAAAAA"/>
<path d="M117.135 196.171C114.082 196.171 111.822 195.444 110.355 193.991C108.902 192.524 108.175 190.264 108.175 187.211V177.971C108.175 174.891 108.902 172.624 110.355 171.171C111.822 169.718 114.082 169.011 117.135 169.051H119.535C122.602 169.051 124.862 169.778 126.315 171.231C127.769 172.671 128.495 174.931 128.495 178.011V187.211C128.495 190.264 127.769 192.524 126.315 193.991C124.862 195.444 122.602 196.171 119.535 196.171H117.135ZM117.135 192.811H119.535C120.962 192.811 122.082 192.638 122.895 192.291C123.709 191.944 124.282 191.364 124.615 190.551C124.962 189.738 125.135 188.624 125.135 187.211V178.011C125.135 176.584 124.962 175.464 124.615 174.651C124.282 173.838 123.709 173.264 122.895 172.931C122.082 172.584 120.962 172.411 119.535 172.411H117.135C115.722 172.384 114.609 172.538 113.795 172.871C112.982 173.191 112.402 173.764 112.055 174.591C111.709 175.404 111.535 176.531 111.535 177.971V187.211C111.535 188.624 111.702 189.738 112.035 190.551C112.382 191.364 112.962 191.944 113.775 192.291C114.589 192.638 115.709 192.811 117.135 192.811ZM117.855 184.571C116.789 184.571 116.255 184.038 116.255 182.971V181.971C116.255 180.931 116.789 180.411 117.855 180.411H118.815C119.829 180.411 120.335 180.931 120.335 181.971V182.971C120.335 184.038 119.829 184.571 118.815 184.571H117.855ZM143.239 196.211C140.906 196.211 139.099 195.724 137.819 194.751C136.552 193.764 135.786 192.251 135.519 190.211C135.466 189.651 135.586 189.218 135.879 188.911C136.172 188.604 136.599 188.451 137.159 188.451C138.186 188.451 138.759 188.998 138.879 190.091C139.066 191.131 139.486 191.851 140.139 192.251C140.792 192.651 141.826 192.851 143.239 192.851H147.399C149.119 192.851 150.286 192.538 150.899 191.911C151.526 191.271 151.839 190.104 151.839 188.411V185.651C151.839 183.931 151.526 182.764 150.899 182.151C150.272 181.524 149.106 181.211 147.399 181.211H144.439C142.466 181.211 141.039 181.451 140.159 181.931C139.759 182.171 139.392 182.351 139.059 182.471C138.739 182.591 138.359 182.584 137.919 182.451L137.519 182.331C136.586 182.064 136.119 181.438 136.119 180.451V170.771C136.119 169.651 136.679 169.091 137.799 169.091H153.519C154.639 169.091 155.199 169.651 155.199 170.771C155.199 171.891 154.639 172.451 153.519 172.451H139.479V178.571C140.839 178.091 142.492 177.851 144.439 177.851H147.399C150.039 177.851 151.999 178.491 153.279 179.771C154.559 181.051 155.199 183.011 155.199 185.651V188.411C155.199 191.051 154.559 193.011 153.279 194.291C151.999 195.571 150.039 196.211 147.399 196.211H143.239Z" fill="#117DCA"/>
<path d="M30.1553 175.711C37.0887 175.711 43.155 181.176 43.1553 188.457C43.1553 195.738 37.0889 201.204 30.1553 201.204C23.2217 201.204 17.1553 195.738 17.1553 188.457C17.1555 181.176 23.2218 175.711 30.1553 175.711Z" fill="#117DCA" stroke="black" stroke-width="13"/>
</svg>
