<svg width="337" height="200" viewBox="0 0 337 200" fill="none" xmlns="http://www.w3.org/2000/svg">
<path d="M236.562 85.9343C245.551 49.2848 291.358 23.724 337 28.5742V55.9238C305.298 51.0019 272.413 65.6858 266.103 95.9813C263.338 108.398 264.931 121.355 256.985 132.926C237.104 161.46 213.986 171.285 183.027 173.128V173.197L0 173.128V145.135C6.68534 144.664 193.895 148.267 195.715 145.135C212.603 140.146 217.521 133.966 229.334 118.819C235.337 108.19 234.532 97.0483 236.562 85.9343Z" fill="white"/>
<path d="M70.6284 83.3506V65.9511H65.1847V65.8239L66.2149 63.6363H78.6158V63.7634L77.5856 65.9511H73.1722V82.2059L70.7556 83.3506H70.6284ZM79.9513 83.3506V64.2722L82.3679 63.1275H82.4951V69.2453C82.8682 68.9824 83.2922 68.851 83.767 68.851H86.6923C89.2361 68.851 90.508 70.1229 90.508 72.6667V82.2059L88.0914 83.3506H87.9642V72.6667C87.9642 71.6492 87.5403 71.1404 86.6923 71.1404H83.767C82.9191 71.1404 82.4951 71.6492 82.4951 72.6667V82.2059L80.0785 83.3506H79.9513ZM98.1394 82.8418C95.5956 82.8418 94.3237 81.5699 94.3237 79.0261V72.6667C94.3237 70.1229 95.5956 68.851 98.1394 68.851H101.065C103.608 68.851 104.88 70.1229 104.88 72.6667V73.3408L96.9056 79.5094C97.0243 80.2047 97.4356 80.5524 98.1394 80.5524H101.065C101.913 80.5524 102.337 80.0436 102.337 79.0261V78.352L104.753 77.2073H104.88V79.0261C104.88 81.5699 103.608 82.8418 101.065 82.8418H98.1394ZM96.8675 76.8512L102.324 72.4505C102.273 71.5771 101.853 71.1404 101.065 71.1404H98.1394C97.2914 71.1404 96.8675 71.6492 96.8675 72.6667V76.8512ZM72.1165 105.842C69.1487 105.842 67.6649 104.358 67.6649 101.39V91.0879C67.6649 88.1201 69.1487 86.6363 72.1165 86.6363H76.0593C79.0271 86.6363 80.511 88.1201 80.511 91.0879V92.487L78.0944 93.6317H77.9672V91.0879C77.9672 89.6464 77.3312 88.9257 76.0593 88.9257H72.1165C70.8446 88.9257 70.2087 89.6464 70.2087 91.0879V101.39C70.2087 102.832 70.8446 103.552 72.1165 103.552H76.0593C77.3312 103.552 77.9672 102.832 77.9672 101.39V99.9911L80.3838 98.8464H80.511V101.39C80.511 104.358 79.0271 105.842 76.0593 105.842H72.1165ZM84.9626 106.351V95.6667C84.9626 93.1229 86.2345 91.851 88.7783 91.851H91.958V91.9782L90.9405 94.1404H88.7783C87.9303 94.1404 87.5064 94.6492 87.5064 95.6667V105.206L85.0898 106.351H84.9626ZM97.9359 103.552H100.861C101.709 103.552 102.133 103.044 102.133 102.026V95.6667C102.133 94.6492 101.709 94.1404 100.861 94.1404H97.9359C97.0879 94.1404 96.664 94.6492 96.664 95.6667V102.026C96.664 103.044 97.0879 103.552 97.9359 103.552ZM97.9359 105.842C95.3921 105.842 94.1202 104.57 94.1202 102.026V95.6667C94.1202 93.1229 95.3921 91.851 97.9359 91.851H100.861C103.405 91.851 104.677 93.1229 104.677 95.6667V102.026C104.677 104.57 103.405 105.842 100.861 105.842H97.9359ZM111.927 105.842C109.383 105.842 108.111 104.57 108.111 102.026V101.568L110.528 100.424H110.655V102.026C110.655 103.044 111.079 103.552 111.927 103.552H114.852C115.7 103.552 116.124 103.044 116.124 102.026V101.021C116.124 100.004 115.7 99.4951 114.852 99.4951H112.461C109.917 99.4951 108.645 98.2189 108.645 95.6667C108.645 93.1229 109.917 91.851 112.461 91.851H113.949C116.493 91.851 117.765 92.877 117.765 94.929L115.348 96.0737H115.221V95.6667C115.221 94.6492 114.797 94.1404 113.949 94.1404H112.461C111.613 94.1404 111.189 94.6492 111.189 95.6667C111.189 96.6927 111.613 97.2057 112.461 97.2057H114.852C117.396 97.2057 118.668 98.4776 118.668 101.021V102.026C118.668 104.57 117.396 105.842 114.852 105.842H111.927ZM125.536 105.842C122.992 105.842 121.72 104.57 121.72 102.026V101.568L124.137 100.424H124.264V102.026C124.264 103.044 124.688 103.552 125.536 103.552H128.461C129.309 103.552 129.733 103.044 129.733 102.026V101.021C129.733 100.004 129.309 99.4951 128.461 99.4951H126.07C123.526 99.4951 122.254 98.2189 122.254 95.6667C122.254 93.1229 123.526 91.851 126.07 91.851H127.558C130.102 91.851 131.374 92.877 131.374 94.929L128.957 96.0737H128.83V95.6667C128.83 94.6492 128.406 94.1404 127.558 94.1404H126.07C125.222 94.1404 124.798 94.6492 124.798 95.6667C124.798 96.6927 125.222 97.2057 126.07 97.2057H128.461C131.005 97.2057 132.277 98.4776 132.277 101.021V102.026C132.277 104.57 131.005 105.842 128.461 105.842H125.536ZM140.163 105.842C139.586 105.842 139.162 105.71 138.891 105.448V110.421L136.474 111.565H136.347V95.6667C136.347 93.1229 137.619 91.851 140.163 91.851H143.088C145.632 91.851 146.904 93.1229 146.904 95.6667V102.026C146.904 104.57 145.632 105.842 143.088 105.842H140.163ZM140.163 103.552H143.088C143.936 103.552 144.36 103.044 144.36 102.026V95.6667C144.36 94.6492 143.936 94.1404 143.088 94.1404H140.163C139.315 94.1404 138.891 94.6492 138.891 95.6667V102.026C138.891 103.044 139.315 103.552 140.163 103.552ZM153.899 103.552H156.57C157.418 103.552 157.842 103.044 157.842 102.026V100.284C157.842 99.2661 157.418 98.7574 156.57 98.7574H153.899C153.051 98.7574 152.627 99.2661 152.627 100.284V102.026C152.627 103.044 153.051 103.552 153.899 103.552ZM153.899 105.842C151.355 105.842 150.083 104.57 150.083 102.026V100.284C150.083 97.7399 151.355 96.468 153.899 96.468H156.57C157.011 96.468 157.435 96.5952 157.842 96.8495V95.6667C157.842 94.6492 157.418 94.1404 156.57 94.1404H152.017V94.0132L153.034 91.851H156.57C159.114 91.851 160.386 93.1229 160.386 95.6667V105.206L157.969 106.351H157.842V105.46C157.52 105.715 157.096 105.842 156.57 105.842H153.899ZM165.88 106.351V94.1658H162.611V94.0387L163.642 91.851H165.88V87.2722L168.297 86.1275H168.424V91.851H171.693V91.9782L170.663 94.1658H168.424V105.206L166.007 106.351H165.88ZM174.555 106.351V87.2722L176.971 86.1275H177.098V92.2453C177.471 91.9824 177.895 91.851 178.37 91.851H181.296C183.839 91.851 185.111 93.1229 185.111 95.6667V105.206L182.695 106.351H182.567V95.6667C182.567 94.6492 182.143 94.1404 181.296 94.1404H178.37C177.522 94.1404 177.098 94.6492 177.098 95.6667V105.206L174.682 106.351H174.555ZM192.361 105.842C189.817 105.842 188.545 104.57 188.545 102.026V101.568L190.962 100.424H191.089V102.026C191.089 103.044 191.513 103.552 192.361 103.552H195.286C196.134 103.552 196.558 103.044 196.558 102.026V101.021C196.558 100.004 196.134 99.4951 195.286 99.4951H192.895C190.351 99.4951 189.08 98.2189 189.08 95.6667C189.08 93.1229 190.351 91.851 192.895 91.851H194.383C196.927 91.851 198.199 92.877 198.199 94.929L195.782 96.0737H195.655V95.6667C195.655 94.6492 195.231 94.1404 194.383 94.1404H192.895C192.047 94.1404 191.623 94.6492 191.623 95.6667C191.623 96.6927 192.047 97.2057 192.895 97.2057H195.286C197.83 97.2057 199.102 98.4776 199.102 101.021V102.026C199.102 104.57 197.83 105.842 195.286 105.842H192.361Z" fill="white"/>
<path d="M35.4777 84.8157C33.4893 84.8157 32.0176 84.3425 31.0625 83.3961C30.116 82.441 29.6428 80.9693 29.6428 78.9809V72.9638C29.6428 70.958 30.116 69.482 31.0625 68.5356C32.0176 67.5891 33.4893 67.1289 35.4777 67.155H37.0406C39.0376 67.155 40.5093 67.6282 41.4557 68.5746C42.4022 69.5124 42.8754 70.9841 42.8754 72.9898V78.9809C42.8754 80.9693 42.4022 82.441 41.4557 83.3961C40.5093 84.3425 39.0376 84.8157 37.0406 84.8157H35.4777ZM35.4777 82.6277H37.0406C37.9696 82.6277 38.699 82.5148 39.2286 82.2891C39.7583 82.0633 40.1316 81.6856 40.3487 81.156C40.5744 80.6263 40.6873 79.9013 40.6873 78.9809V72.9898C40.6873 72.0608 40.5744 71.3314 40.3487 70.8018C40.1316 70.2721 39.7583 69.8987 39.2286 69.6817C38.699 69.4559 37.9696 69.3431 37.0406 69.3431H35.4777C34.5573 69.3257 33.8323 69.4255 33.3026 69.6426C32.773 69.851 32.3953 70.2244 32.1695 70.7627C31.9438 71.2923 31.8309 72.026 31.8309 72.9638V78.9809C31.8309 79.9013 31.9394 80.6263 32.1565 81.156C32.3823 81.6856 32.76 82.0633 33.2896 82.2891C33.8192 82.5148 34.5486 82.6277 35.4777 82.6277ZM35.9465 77.2617C35.2519 77.2617 34.9046 76.9144 34.9046 76.2198V75.5686C34.9046 74.8913 35.2519 74.5527 35.9465 74.5527H36.5717C37.2316 74.5527 37.5615 74.8913 37.5615 75.5686V76.2198C37.5615 76.9144 37.2316 77.2617 36.5717 77.2617H35.9465ZM51.3366 84.8418C50.6072 84.8418 50.2426 84.4771 50.2426 83.7478V70.3068L50.8417 69.8901L47.9764 72.573C47.7593 72.7814 47.5292 72.9073 47.2861 72.9507C47.043 72.9855 46.8042 72.8856 46.5698 72.6512C46.1009 72.1823 46.1269 71.6874 46.6479 71.1664L50.1384 67.7281C50.5031 67.3634 50.9546 67.181 51.4929 67.181C52.1181 67.181 52.4306 67.5457 52.4306 68.2751V83.7478C52.4306 84.4771 52.066 84.8418 51.3366 84.8418Z" fill="#FEF355"/>
<path d="M69.5299 123.399C68.5878 123.399 67.8997 123.182 67.4656 122.748C67.0315 122.314 66.8144 121.626 66.8144 120.684V117.721C66.8144 116.77 67.0293 116.08 67.4591 115.65C67.8932 115.22 68.5792 115.005 69.5169 115.005H71.0928C71.8916 115.005 72.4864 115.172 72.8771 115.507C73.2679 115.837 73.4828 116.369 73.5218 117.102C73.5349 117.219 73.511 117.308 73.4502 117.369C73.3938 117.43 73.3091 117.46 73.1962 117.46C72.9792 117.46 72.8598 117.345 72.8381 117.115C72.8077 116.577 72.6601 116.206 72.3952 116.002C72.1304 115.793 71.6963 115.689 71.0928 115.689H69.5169C69.0176 115.689 68.6204 115.754 68.3252 115.884C68.03 116.01 67.8173 116.223 67.687 116.523C67.5611 116.818 67.4982 117.217 67.4982 117.721V120.684C67.4982 121.187 67.5633 121.587 67.6935 121.882C67.8238 122.177 68.0365 122.39 68.3317 122.52C68.6269 122.651 69.0263 122.716 69.5299 122.716H71.0928C71.6963 122.716 72.1304 122.614 72.3952 122.41C72.6601 122.201 72.8077 121.828 72.8381 121.29C72.8598 121.059 72.9792 120.944 73.1962 120.944C73.3091 120.944 73.3938 120.977 73.4502 121.042C73.511 121.103 73.5349 121.19 73.5218 121.303C73.4828 122.036 73.2679 122.57 72.8771 122.904C72.4864 123.234 71.8916 123.399 71.0928 123.399H69.5299ZM77.2273 123.399C76.5501 123.399 76.053 123.243 75.736 122.931C75.4235 122.614 75.2672 122.117 75.2672 121.439C75.2672 120.762 75.4256 120.265 75.7426 119.948C76.0595 119.631 76.5544 119.473 77.2273 119.473H80.1903C80.1816 118.9 80.0514 118.5 79.7996 118.274C79.5521 118.044 79.1288 117.929 78.5297 117.929H77.7743C77.223 117.929 76.8192 117.988 76.5631 118.105C76.3069 118.222 76.1485 118.422 76.0877 118.704C76.0573 118.813 76.0161 118.893 75.964 118.945C75.9162 118.993 75.8381 119.017 75.7295 119.017C75.6167 119.017 75.5277 118.986 75.4625 118.926C75.4018 118.86 75.38 118.774 75.3974 118.665C75.4539 118.17 75.6774 117.81 76.0682 117.584C76.4632 117.358 77.0319 117.246 77.7743 117.246H78.5297C79.3416 117.246 79.9342 117.434 80.3075 117.812C80.6852 118.185 80.8741 118.778 80.8741 119.59V123.054C80.8741 123.284 80.7612 123.399 80.5354 123.399C80.3053 123.399 80.1903 123.284 80.1903 123.054V122.41C79.7735 123.069 79.029 123.399 77.9567 123.399H77.2273ZM77.2273 122.716H77.9567C78.3778 122.716 78.7468 122.67 79.0637 122.579C79.385 122.483 79.6433 122.331 79.8386 122.123C80.034 121.915 80.1512 121.637 80.1903 121.29V120.156H77.2273C76.7454 120.156 76.4111 120.25 76.2244 120.436C76.0421 120.619 75.9509 120.953 75.9509 121.439C75.9509 121.921 76.0421 122.255 76.2244 122.442C76.4111 122.624 76.7454 122.716 77.2273 122.716ZM83.5392 123.399C83.3091 123.399 83.1941 123.284 83.1941 123.054V117.584C83.1941 117.358 83.3091 117.246 83.5392 117.246C83.765 117.246 83.8779 117.358 83.8779 117.584V118.587C84.1036 118.153 84.4292 117.821 84.8547 117.591C85.2845 117.361 85.7924 117.246 86.3785 117.246C86.6086 117.246 86.7236 117.358 86.7236 117.584C86.7236 117.814 86.6086 117.929 86.3785 117.929C85.6057 117.929 85.0066 118.105 84.5812 118.457C84.1557 118.804 83.9213 119.301 83.8779 119.948V123.054C83.8779 123.284 83.765 123.399 83.5392 123.399ZM88.3572 120.586V121.062C88.3572 121.674 88.4787 122.104 88.7218 122.351C88.9693 122.594 89.4034 122.716 90.0243 122.716H91.0922C91.6392 122.716 92.0365 122.646 92.2839 122.507C92.5357 122.364 92.6855 122.119 92.7333 121.771C92.7506 121.663 92.7854 121.58 92.8375 121.524C92.8939 121.467 92.9786 121.439 93.0914 121.439C93.2043 121.439 93.289 121.472 93.3454 121.537C93.4062 121.598 93.4301 121.685 93.417 121.797C93.3606 122.344 93.1414 122.748 92.7593 123.009C92.3773 123.269 91.8216 123.399 91.0922 123.399H90.0243C89.2124 123.399 88.6176 123.213 88.2399 122.839C87.8622 122.462 87.6734 121.869 87.6734 121.062V119.59C87.6734 118.769 87.8622 118.172 88.2399 117.799C88.6176 117.421 89.2124 117.237 90.0243 117.246H91.0922C91.9041 117.246 92.4967 117.434 92.87 117.812C93.2477 118.185 93.4366 118.778 93.4366 119.59V120.241C93.4366 120.471 93.3237 120.586 93.098 120.586H88.3572ZM90.0243 117.929C89.4034 117.921 88.9693 118.04 88.7218 118.287C88.4787 118.531 88.3572 118.965 88.3572 119.59V119.902H92.7528V119.59C92.7528 118.969 92.6313 118.537 92.3881 118.294C92.145 118.051 91.713 117.929 91.0922 117.929H90.0243ZM96.2047 120.586V121.062C96.2047 121.674 96.3263 122.104 96.5694 122.351C96.8169 122.594 97.251 122.716 97.8718 122.716H98.9398C99.4868 122.716 99.884 122.646 100.132 122.507C100.383 122.364 100.533 122.119 100.581 121.771C100.598 121.663 100.633 121.58 100.685 121.524C100.741 121.467 100.826 121.439 100.939 121.439C101.052 121.439 101.137 121.472 101.193 121.537C101.254 121.598 101.278 121.685 101.265 121.797C101.208 122.344 100.989 122.748 100.607 123.009C100.225 123.269 99.6691 123.399 98.9398 123.399H97.8718C97.06 123.399 96.4652 123.213 96.0875 122.839C95.7098 122.462 95.521 121.869 95.521 121.062V119.59C95.521 118.769 95.7098 118.172 96.0875 117.799C96.4652 117.421 97.06 117.237 97.8718 117.246H98.9398C99.7516 117.246 100.344 117.434 100.718 117.812C101.095 118.185 101.284 118.778 101.284 119.59V120.241C101.284 120.471 101.171 120.586 100.946 120.586H96.2047ZM97.8718 117.929C97.251 117.921 96.8169 118.04 96.5694 118.287C96.3263 118.531 96.2047 118.965 96.2047 119.59V119.902H100.6V119.59C100.6 118.969 100.479 118.537 100.236 118.294C99.9926 118.051 99.5606 117.929 98.9398 117.929H97.8718ZM103.889 123.399C103.659 123.399 103.544 123.284 103.544 123.054V117.584C103.544 117.358 103.659 117.246 103.889 117.246C104.115 117.246 104.228 117.358 104.228 117.584V118.587C104.454 118.153 104.779 117.821 105.205 117.591C105.635 117.361 106.143 117.246 106.729 117.246C106.959 117.246 107.074 117.358 107.074 117.584C107.074 117.814 106.959 117.929 106.729 117.929C105.956 117.929 105.357 118.105 104.931 118.457C104.506 118.804 104.272 119.301 104.228 119.948V123.054C104.228 123.284 104.115 123.399 103.889 123.399ZM112.068 123.399C111.838 123.399 111.723 123.284 111.723 123.054V115.35C111.723 115.12 111.838 115.005 112.068 115.005H116.945C117.175 115.005 117.29 115.12 117.29 115.35C117.29 115.576 117.175 115.689 116.945 115.689H112.406V118.808H115.408C115.639 118.808 115.754 118.921 115.754 119.147C115.754 119.377 115.639 119.492 115.408 119.492H112.406V122.716H116.945C117.175 122.716 117.29 122.829 117.29 123.054C117.29 123.284 117.175 123.399 116.945 123.399H112.068ZM118.574 123.308C118.392 123.165 118.372 123.002 118.515 122.82L120.56 120.228L118.685 117.812C118.541 117.638 118.559 117.478 118.737 117.33C118.919 117.196 119.08 117.215 119.219 117.389L121.048 119.74L122.95 117.389C123.093 117.202 123.254 117.185 123.432 117.337C123.614 117.48 123.634 117.638 123.491 117.812L121.472 120.293L123.451 122.826C123.595 123.013 123.577 123.171 123.399 123.302C123.217 123.449 123.054 123.432 122.911 123.25L120.996 120.788L119.049 123.243C118.906 123.43 118.748 123.452 118.574 123.308ZM125.817 126.004C125.587 126.004 125.472 125.889 125.472 125.659V117.584C125.472 117.358 125.587 117.246 125.817 117.246C126.043 117.246 126.155 117.358 126.155 117.584V118.164C126.351 117.86 126.631 117.632 126.996 117.48C127.36 117.324 127.827 117.246 128.396 117.246H128.891C129.702 117.246 130.295 117.434 130.668 117.812C131.046 118.185 131.235 118.778 131.235 119.59V121.049C131.235 121.86 131.046 122.455 130.668 122.833C130.295 123.211 129.702 123.399 128.891 123.399H126.155V125.659C126.155 125.889 126.043 126.004 125.817 126.004ZM126.155 122.716H128.891C129.511 122.716 129.943 122.594 130.186 122.351C130.43 122.104 130.551 121.669 130.551 121.049V119.59C130.551 118.969 130.43 118.537 130.186 118.294C129.943 118.051 129.511 117.929 128.891 117.929H128.396C127.701 117.929 127.167 118.038 126.794 118.255C126.425 118.472 126.212 118.806 126.155 119.258V122.716ZM135.288 123.399C134.672 123.399 134.218 123.256 133.927 122.97C133.641 122.683 133.497 122.234 133.497 121.622V114.706C133.497 114.48 133.612 114.367 133.842 114.367C134.068 114.367 134.181 114.48 134.181 114.706V121.622C134.181 122.043 134.259 122.331 134.416 122.488C134.572 122.64 134.861 122.716 135.282 122.716C135.516 122.716 135.633 122.829 135.633 123.054C135.638 123.284 135.523 123.399 135.288 123.399ZM139.208 123.399C138.396 123.399 137.802 123.213 137.424 122.839C137.046 122.462 136.857 121.869 136.857 121.062V119.59C136.857 118.769 137.046 118.172 137.424 117.799C137.802 117.421 138.396 117.237 139.208 117.246H140.276C141.088 117.246 141.681 117.434 142.054 117.812C142.432 118.185 142.621 118.778 142.621 119.59V121.049C142.621 121.86 142.432 122.455 142.054 122.833C141.681 123.211 141.088 123.399 140.276 123.399H139.208ZM137.541 121.062C137.541 121.674 137.663 122.104 137.906 122.351C138.153 122.594 138.587 122.716 139.208 122.716H140.276C140.897 122.716 141.329 122.594 141.572 122.351C141.815 122.104 141.937 121.669 141.937 121.049V119.59C141.937 118.969 141.815 118.537 141.572 118.294C141.329 118.051 140.897 117.929 140.276 117.929H139.208C138.791 117.925 138.462 117.975 138.218 118.079C137.975 118.183 137.802 118.357 137.697 118.6C137.593 118.843 137.541 119.173 137.541 119.59V121.062ZM145.226 123.399C144.996 123.399 144.881 123.284 144.881 123.054V117.584C144.881 117.358 144.996 117.246 145.226 117.246C145.452 117.246 145.565 117.358 145.565 117.584V118.587C145.79 118.153 146.116 117.821 146.541 117.591C146.971 117.361 147.479 117.246 148.065 117.246C148.295 117.246 148.41 117.358 148.41 117.584C148.41 117.814 148.295 117.929 148.065 117.929C147.292 117.929 146.693 118.105 146.268 118.457C145.842 118.804 145.608 119.301 145.565 119.948V123.054C145.565 123.284 145.452 123.399 145.226 123.399ZM151.226 123.399C150.549 123.399 150.052 123.243 149.735 122.931C149.422 122.614 149.266 122.117 149.266 121.439C149.266 120.762 149.424 120.265 149.741 119.948C150.058 119.631 150.553 119.473 151.226 119.473H154.189C154.18 118.9 154.05 118.5 153.798 118.274C153.551 118.044 153.127 117.929 152.528 117.929H151.773C151.222 117.929 150.818 117.988 150.562 118.105C150.306 118.222 150.147 118.422 150.086 118.704C150.056 118.813 150.015 118.893 149.963 118.945C149.915 118.993 149.837 119.017 149.728 119.017C149.615 119.017 149.526 118.986 149.461 118.926C149.4 118.86 149.379 118.774 149.396 118.665C149.452 118.17 149.676 117.81 150.067 117.584C150.462 117.358 151.031 117.246 151.773 117.246H152.528C153.34 117.246 153.933 117.434 154.306 117.812C154.684 118.185 154.873 118.778 154.873 119.59V123.054C154.873 123.284 154.76 123.399 154.534 123.399C154.304 123.399 154.189 123.284 154.189 123.054V122.41C153.772 123.069 153.028 123.399 151.955 123.399H151.226ZM151.226 122.716H151.955C152.376 122.716 152.745 122.67 153.062 122.579C153.384 122.483 153.642 122.331 153.837 122.123C154.033 121.915 154.15 121.637 154.189 121.29V120.156H151.226C150.744 120.156 150.41 120.25 150.223 120.436C150.041 120.619 149.95 120.953 149.95 121.439C149.95 121.921 150.041 122.255 150.223 122.442C150.41 122.624 150.744 122.716 151.226 122.716ZM159.706 123.399C158.908 123.399 158.324 123.215 157.955 122.846C157.586 122.477 157.401 121.895 157.401 121.101V117.929H156.626C156.396 117.929 156.281 117.814 156.281 117.584C156.281 117.358 156.396 117.246 156.626 117.246H157.401V115.845C157.401 115.615 157.514 115.5 157.74 115.5C157.97 115.5 158.085 115.615 158.085 115.845V117.246H159.719C159.945 117.246 160.058 117.358 160.058 117.584C160.058 117.814 159.945 117.929 159.719 117.929H158.085V121.101C158.085 121.708 158.202 122.13 158.436 122.364C158.675 122.598 159.099 122.716 159.706 122.716C159.832 122.716 159.921 122.744 159.973 122.8C160.03 122.857 160.058 122.941 160.058 123.054C160.058 123.284 159.941 123.399 159.706 123.399ZM162.056 116.06C161.756 116.06 161.607 115.906 161.607 115.598V115.305C161.607 115.005 161.756 114.856 162.056 114.856H162.349C162.64 114.856 162.785 115.005 162.785 115.305V115.598C162.785 115.906 162.64 116.06 162.349 116.06H162.056ZM162.206 123.399C161.976 123.399 161.861 123.284 161.861 123.054V117.584C161.861 117.358 161.976 117.246 162.206 117.246C162.431 117.246 162.544 117.358 162.544 117.584V123.054C162.544 123.284 162.431 123.399 162.206 123.399ZM167.152 123.399C166.34 123.399 165.745 123.213 165.367 122.839C164.99 122.462 164.801 121.869 164.801 121.062V119.59C164.801 118.769 164.99 118.172 165.367 117.799C165.745 117.421 166.34 117.237 167.152 117.246H168.22C169.031 117.246 169.624 117.434 169.997 117.812C170.375 118.185 170.564 118.778 170.564 119.59V121.049C170.564 121.86 170.375 122.455 169.997 122.833C169.624 123.211 169.031 123.399 168.22 123.399H167.152ZM165.485 121.062C165.485 121.674 165.606 122.104 165.849 122.351C166.097 122.594 166.531 122.716 167.152 122.716H168.22C168.84 122.716 169.272 122.594 169.516 122.351C169.759 122.104 169.88 121.669 169.88 121.049V119.59C169.88 118.969 169.759 118.537 169.516 118.294C169.272 118.051 168.84 117.929 168.22 117.929H167.152C166.735 117.925 166.405 117.975 166.162 118.079C165.919 118.183 165.745 118.357 165.641 118.6C165.537 118.843 165.485 119.173 165.485 119.59V121.062ZM173.169 123.399C172.939 123.399 172.824 123.284 172.824 123.054V117.584C172.824 117.358 172.939 117.246 173.169 117.246C173.395 117.246 173.508 117.358 173.508 117.584V118.209C173.92 117.567 174.667 117.246 175.748 117.246H176.113C176.925 117.246 177.517 117.434 177.891 117.812C178.268 118.185 178.457 118.778 178.457 119.59V123.054C178.457 123.284 178.344 123.399 178.119 123.399C177.888 123.399 177.773 123.284 177.773 123.054V119.59C177.773 118.969 177.65 118.537 177.402 118.294C177.159 118.051 176.729 117.929 176.113 117.929H175.748C175.075 117.929 174.546 118.036 174.159 118.248C173.773 118.461 173.556 118.793 173.508 119.245V123.054C173.508 123.284 173.395 123.399 173.169 123.399ZM73.3916 137.865C73.2396 138.035 73.0768 138.043 72.9032 137.891L68.5857 134.082C68.2948 133.83 68.0691 133.602 67.9084 133.398C67.7478 133.19 67.6327 132.979 67.5633 132.766C67.4982 132.554 67.4656 132.313 67.4656 132.044C67.4656 131.375 67.6241 130.882 67.941 130.565C68.2579 130.244 68.7485 130.083 69.4127 130.083H69.7383C70.3418 130.083 70.7998 130.214 71.1124 130.474C71.4249 130.73 71.6095 131.13 71.6659 131.672C71.6746 131.785 71.6485 131.874 71.5877 131.939C71.5313 132 71.4467 132.031 71.3338 132.031C71.2209 132.031 71.1362 132.002 71.0798 131.946C71.0277 131.89 70.993 131.805 70.9756 131.692C70.9365 131.345 70.8237 131.104 70.637 130.969C70.4546 130.835 70.1551 130.767 69.7383 130.767H69.4127C68.9395 130.767 68.6096 130.858 68.4229 131.041C68.2405 131.223 68.1494 131.557 68.1494 132.044C68.1494 132.243 68.1711 132.419 68.2145 132.571C68.2622 132.719 68.3512 132.871 68.4815 133.027C68.6117 133.179 68.7984 133.359 69.0415 133.567L73.359 137.377C73.5327 137.533 73.5435 137.696 73.3916 137.865ZM69.2564 138.465C68.3143 138.465 67.6284 138.252 67.1986 137.826C66.7688 137.397 66.5539 136.711 66.5539 135.769C66.5539 135.057 66.6798 134.492 66.9316 134.075C67.1834 133.659 67.5785 133.37 68.1168 133.209C68.221 133.17 68.3122 133.175 68.3903 133.222C68.4685 133.27 68.5184 133.35 68.5401 133.463C68.5618 133.585 68.5488 133.676 68.501 133.737C68.4533 133.793 68.3773 133.839 68.2731 133.874C67.9041 133.995 67.6393 134.203 67.4786 134.499C67.318 134.794 67.2377 135.217 67.2377 135.769C67.2377 136.268 67.3006 136.665 67.4265 136.96C67.5568 137.251 67.7673 137.462 68.0582 137.592C68.3534 137.718 68.7528 137.781 69.2564 137.781H69.6732C70.1681 137.781 70.5632 137.716 70.8584 137.585C71.1536 137.455 71.3642 137.245 71.4901 136.954C71.6203 136.659 71.6854 136.263 71.6854 135.769V135.104C71.6854 134.879 71.8005 134.766 72.0306 134.766C72.2563 134.766 72.3692 134.879 72.3692 135.104V135.769C72.3692 136.702 72.1543 137.386 71.7245 137.82C71.2947 138.25 70.6109 138.465 69.6732 138.465H69.2564ZM78.5789 138.399C78.3488 138.399 78.2337 138.284 78.2337 138.054V130.35C78.2337 130.12 78.3488 130.005 78.5789 130.005H81.7177C82.7987 130.005 83.5845 130.253 84.0751 130.748C84.57 131.243 84.8174 132.031 84.8174 133.112V135.293C84.8174 136.374 84.57 137.162 84.0751 137.657C83.5845 138.152 82.7987 138.399 81.7177 138.399H78.5789ZM78.9175 137.716H81.7177C82.3081 137.716 82.7792 137.638 83.1308 137.481C83.4868 137.325 83.7429 137.071 83.8992 136.719C84.0555 136.363 84.1337 135.888 84.1337 135.293V133.112C84.1337 132.521 84.0555 132.05 83.8992 131.698C83.7429 131.342 83.4868 131.086 83.1308 130.93C82.7792 130.769 82.3081 130.689 81.7177 130.689H78.9175V137.716ZM87.2687 131.06C86.9692 131.06 86.8194 130.906 86.8194 130.598V130.305C86.8194 130.005 86.9692 129.856 87.2687 129.856H87.5618C87.8526 129.856 87.9981 130.005 87.9981 130.305V130.598C87.9981 130.906 87.8526 131.06 87.5618 131.06H87.2687ZM87.4185 138.399C87.1884 138.399 87.0734 138.284 87.0734 138.054V132.584C87.0734 132.358 87.1884 132.246 87.4185 132.246C87.6443 132.246 87.7571 132.358 87.7571 132.584V138.054C87.7571 138.284 87.6443 138.399 87.4185 138.399ZM91.5375 138.386C91.0035 138.386 90.5954 138.274 90.3132 138.048C90.031 137.818 89.8617 137.468 89.8053 136.999C89.7923 136.886 89.8161 136.8 89.8769 136.739C89.9377 136.674 90.0267 136.641 90.1439 136.641C90.2524 136.641 90.3328 136.669 90.3849 136.726C90.4413 136.782 90.4782 136.867 90.4956 136.98C90.5346 137.249 90.6323 137.438 90.7886 137.546C90.9492 137.651 91.1989 137.703 91.5375 137.703H93.6735C94.0772 137.703 94.3551 137.627 94.507 137.475C94.659 137.323 94.7349 137.045 94.7349 136.641C94.7349 136.233 94.659 135.953 94.507 135.801C94.3551 135.649 94.0772 135.573 93.6735 135.573H91.5635C90.9992 135.573 90.578 135.439 90.3002 135.169C90.0267 134.896 89.8899 134.477 89.8899 133.913C89.8899 133.335 90.0267 132.912 90.3002 132.643C90.5737 132.369 90.9948 132.232 91.5635 132.232H93.6083C94.5895 132.232 95.1343 132.667 95.2429 133.535C95.2602 133.648 95.2364 133.737 95.1712 133.802C95.1105 133.863 95.0236 133.893 94.9108 133.893C94.8022 133.893 94.7197 133.865 94.6633 133.808C94.6112 133.752 94.5743 133.669 94.5526 133.561C94.5222 133.318 94.4332 133.151 94.2856 133.06C94.1423 132.964 93.9166 132.916 93.6083 132.916H91.5635C91.1858 132.916 90.9254 132.986 90.7821 133.125C90.6432 133.264 90.5737 133.526 90.5737 133.913C90.5737 134.282 90.6453 134.538 90.7886 134.681C90.9319 134.82 91.1902 134.889 91.5635 134.889H93.6735C94.2726 134.889 94.7132 135.033 94.9954 135.319C95.2776 135.601 95.4187 136.042 95.4187 136.641C95.4187 137.236 95.2776 137.677 94.9954 137.963C94.7132 138.245 94.2726 138.386 93.6735 138.386H91.5375ZM99.6397 138.399C98.8279 138.399 98.2331 138.211 97.8554 137.833C97.4777 137.455 97.2889 136.86 97.2889 136.049V134.577C97.2889 133.765 97.4756 133.172 97.8489 132.799C98.2266 132.421 98.8236 132.237 99.6397 132.246H100.708C101.346 132.246 101.832 132.354 102.166 132.571C102.505 132.784 102.707 133.12 102.772 133.58C102.785 133.698 102.759 133.787 102.694 133.847C102.633 133.908 102.546 133.939 102.433 133.939C102.329 133.939 102.251 133.913 102.199 133.86C102.147 133.804 102.108 133.724 102.082 133.62C102.034 133.368 101.906 133.19 101.698 133.086C101.489 132.981 101.159 132.929 100.708 132.929H99.6397C99.0189 132.921 98.5848 133.038 98.3373 133.281C98.0942 133.52 97.9726 133.952 97.9726 134.577V136.049C97.9726 136.669 98.0942 137.104 98.3373 137.351C98.5848 137.594 99.0189 137.716 99.6397 137.716H100.708C101.159 137.716 101.489 137.664 101.698 137.559C101.906 137.455 102.034 137.275 102.082 137.019C102.108 136.915 102.147 136.837 102.199 136.784C102.251 136.728 102.329 136.7 102.433 136.7C102.546 136.7 102.633 136.732 102.694 136.797C102.759 136.858 102.785 136.945 102.772 137.058C102.707 137.518 102.505 137.857 102.166 138.074C101.832 138.291 101.346 138.399 100.708 138.399H99.6397ZM107.08 138.399C106.268 138.399 105.674 138.213 105.296 137.839C104.918 137.462 104.729 136.869 104.729 136.062V134.59C104.729 133.769 104.918 133.172 105.296 132.799C105.674 132.421 106.268 132.237 107.08 132.246H108.148C108.96 132.246 109.553 132.434 109.926 132.812C110.304 133.185 110.493 133.778 110.493 134.59V136.049C110.493 136.86 110.304 137.455 109.926 137.833C109.553 138.211 108.96 138.399 108.148 138.399H107.08ZM105.413 136.062C105.413 136.674 105.535 137.104 105.778 137.351C106.025 137.594 106.459 137.716 107.08 137.716H108.148C108.769 137.716 109.201 137.594 109.444 137.351C109.687 137.104 109.809 136.669 109.809 136.049V134.59C109.809 133.969 109.687 133.537 109.444 133.294C109.201 133.051 108.769 132.929 108.148 132.929H107.08C106.664 132.925 106.334 132.975 106.09 133.079C105.847 133.183 105.674 133.357 105.569 133.6C105.465 133.843 105.413 134.173 105.413 134.59V136.062ZM114.862 138.139C114.815 138.243 114.756 138.313 114.687 138.347C114.617 138.382 114.537 138.399 114.446 138.399C114.255 138.399 114.12 138.31 114.042 138.132L111.626 132.721C111.535 132.508 111.598 132.361 111.815 132.278C112.019 132.191 112.166 132.252 112.258 132.46L114.667 137.852H114.25L116.816 132.454C116.864 132.354 116.927 132.289 117.005 132.259C117.083 132.228 117.172 132.235 117.272 132.278C117.485 132.374 117.543 132.526 117.448 132.734L114.862 138.139ZM119.277 135.586V136.062C119.277 136.674 119.398 137.104 119.641 137.351C119.889 137.594 120.323 137.716 120.944 137.716H122.012C122.559 137.716 122.956 137.646 123.204 137.507C123.455 137.364 123.605 137.119 123.653 136.771C123.67 136.663 123.705 136.58 123.757 136.524C123.814 136.467 123.898 136.439 124.011 136.439C124.124 136.439 124.209 136.472 124.265 136.537C124.326 136.598 124.35 136.685 124.337 136.797C124.28 137.344 124.061 137.748 123.679 138.009C123.297 138.269 122.741 138.399 122.012 138.399H120.944C120.132 138.399 119.537 138.213 119.16 137.839C118.782 137.462 118.593 136.869 118.593 136.062V134.59C118.593 133.769 118.782 133.172 119.16 132.799C119.537 132.421 120.132 132.237 120.944 132.246H122.012C122.824 132.246 123.416 132.434 123.79 132.812C124.167 133.185 124.356 133.778 124.356 134.59V135.241C124.356 135.471 124.243 135.586 124.018 135.586H119.277ZM120.944 132.929C120.323 132.921 119.889 133.04 119.641 133.287C119.398 133.531 119.277 133.965 119.277 134.59V134.902H123.672V134.59C123.672 133.969 123.551 133.537 123.308 133.294C123.065 133.051 122.633 132.929 122.012 132.929H120.944ZM126.962 138.399C126.731 138.399 126.616 138.284 126.616 138.054V132.584C126.616 132.358 126.731 132.246 126.962 132.246C127.187 132.246 127.3 132.358 127.3 132.584V133.587C127.526 133.153 127.852 132.821 128.277 132.591C128.707 132.361 129.215 132.246 129.801 132.246C130.031 132.246 130.146 132.358 130.146 132.584C130.146 132.814 130.031 132.929 129.801 132.929C129.028 132.929 128.429 133.105 128.004 133.457C127.578 133.804 127.344 134.301 127.3 134.948V138.054C127.3 138.284 127.187 138.399 126.962 138.399ZM133.076 141.004C132.507 141.004 132.086 140.867 131.812 140.594C131.543 140.32 131.409 139.895 131.409 139.318C131.409 139.092 131.522 138.979 131.747 138.979C131.977 138.979 132.092 139.092 132.092 139.318C132.092 139.708 132.162 139.973 132.301 140.112C132.44 140.251 132.698 140.32 133.076 140.32H135.329C135.711 140.32 135.972 140.251 136.11 140.112C136.249 139.973 136.319 139.708 136.319 139.318V137.527C136.071 137.852 135.761 138.08 135.388 138.211C135.014 138.341 134.578 138.406 134.079 138.406H133.714C132.915 138.406 132.331 138.221 131.962 137.852C131.593 137.483 131.409 136.904 131.409 136.114V132.578C131.409 132.348 131.522 132.232 131.747 132.232C131.977 132.232 132.092 132.348 132.092 132.578V136.114C132.092 136.717 132.21 137.136 132.444 137.371C132.683 137.605 133.106 137.722 133.714 137.722H134.079C134.838 137.722 135.401 137.59 135.765 137.325C136.134 137.056 136.319 136.652 136.319 136.114V132.578C136.319 132.348 136.432 132.232 136.657 132.232C136.888 132.232 137.003 132.348 137.003 132.578V139.318C137.003 139.895 136.866 140.32 136.592 140.594C136.323 140.867 135.902 141.004 135.329 141.004H133.076Z" fill="#AAAAAA"/>
<circle cx="257.5" cy="76.501" r="9" fill="#FEF355" stroke="black" stroke-width="9"/>
</svg>
