<svg width="338" height="200" viewBox="0 0 338 200" fill="none" xmlns="http://www.w3.org/2000/svg">
<path d="M129.762 143.855C103.356 179.799 46.4246 174.2 14.9963 146.009C10.9037 142.971 5.04842 140.383 1 138.752V114.018C9.69896 115.492 19.4176 119.321 27.3975 124.319C89.8171 174.089 162.508 105.523 93.6989 61.8924C52.8438 45.4062 38.1212 79.0442 1 93.8257V67.6931C16.553 59.1021 28.6698 45.3892 45.6753 38.2302C113.236 12.0621 174.413 89.8486 129.762 143.855Z" fill="white"/>
<path d="M198.821 51.6835V32.9011L200.148 32.275H206.835C209.756 32.275 211.217 33.7359 211.217 36.6576V40.4141C211.217 43.3358 209.756 44.7966 206.835 44.7966H201.325V50.5565L198.946 51.6835H198.821ZM201.325 34.5289V42.5427H206.835C208.087 42.5427 208.713 41.8332 208.713 40.4141V36.6576C208.713 35.2385 208.087 34.5289 206.835 34.5289H201.325ZM217.478 48.9287H220.107C220.942 48.9287 221.36 48.4279 221.36 47.4261V45.7107C221.36 44.709 220.942 44.2081 220.107 44.2081H217.478C216.643 44.2081 216.226 44.709 216.226 45.7107V47.4261C216.226 48.4279 216.643 48.9287 217.478 48.9287ZM217.478 51.1826C214.974 51.1826 213.721 49.9305 213.721 47.4261V45.7107C213.721 43.2064 214.974 41.9542 217.478 41.9542H220.107C220.541 41.9542 220.959 42.0794 221.36 42.3299V41.1654C221.36 40.1636 220.942 39.6628 220.107 39.6628H215.625V39.5376L216.626 37.4089H220.107C222.612 37.4089 223.864 38.661 223.864 41.1654V50.5565L221.485 51.6835H221.36V50.807C221.042 51.0574 220.625 51.1826 220.107 51.1826H217.478ZM230.575 51.6835L225.742 37.9348L227.908 36.908H228.034L231.577 47.351L235.046 36.908H235.171L237.337 37.9348L232.867 50.6567L230.701 51.6835H230.575ZM242.972 51.1826C240.467 51.1826 239.215 49.9305 239.215 47.4261V41.1654C239.215 38.661 240.467 37.4089 242.972 37.4089H245.852C248.356 37.4089 249.608 38.661 249.608 41.1654V41.829L241.757 47.902C241.874 48.5865 242.279 48.9287 242.972 48.9287H245.852C246.687 48.9287 247.104 48.4279 247.104 47.4261V46.7625L249.483 45.6356H249.608V47.4261C249.608 49.9305 248.356 51.1826 245.852 51.1826H242.972ZM241.72 45.285L247.091 40.9525C247.041 40.0927 246.628 39.6628 245.852 39.6628H242.972C242.137 39.6628 241.72 40.1636 241.72 41.1654V45.285ZM201.738 74.6835V57.554H196.379V57.4288L197.393 55.275H209.602V55.4003L208.588 57.554H204.243V73.5565L201.863 74.6835H201.738ZM210.917 74.6835V55.9011L213.296 54.7742H213.421V60.7971C213.788 60.5383 214.206 60.4089 214.673 60.4089H217.553C220.057 60.4089 221.309 61.661 221.309 64.1654V73.5565L218.93 74.6835H218.805V64.1654C218.805 63.1636 218.388 62.6628 217.553 62.6628H214.673C213.838 62.6628 213.421 63.1636 213.421 64.1654V73.5565L211.042 74.6835H210.917ZM228.822 74.1826C226.318 74.1826 225.066 72.9305 225.066 70.4261V64.1654C225.066 61.661 226.318 60.4089 228.822 60.4089H231.702C234.207 60.4089 235.459 61.661 235.459 64.1654V64.829L227.608 70.902C227.725 71.5865 228.13 71.9287 228.822 71.9287H231.702C232.537 71.9287 232.955 71.4279 232.955 70.4261V69.7625L235.334 68.6356H235.459V70.4261C235.459 72.9305 234.207 74.1826 231.702 74.1826H228.822ZM227.57 68.285L232.942 63.9525C232.892 63.0927 232.479 62.6628 231.702 62.6628H228.822C227.988 62.6628 227.57 63.1636 227.57 64.1654V68.285ZM254.241 74.1826C251.319 74.1826 249.859 72.7218 249.859 69.8001V55.9011L252.238 54.7742H252.363V69.8001C252.363 71.2192 252.989 71.9287 254.241 71.9287H258.123C259.375 71.9287 260.001 71.2192 260.001 69.8001V55.9011L262.38 54.7742H262.505V69.8001C262.505 71.2192 263.131 71.9287 264.384 71.9287H268.265C269.517 71.9287 270.144 71.2192 270.144 69.8001V55.9011L272.523 54.7742H272.648V69.8001C272.648 72.7218 271.187 74.1826 268.265 74.1826H264.384C262.881 74.1826 261.838 73.7819 261.253 72.9805C260.585 73.7819 259.542 74.1826 258.123 74.1826H254.241ZM280.161 71.9287H282.79C283.625 71.9287 284.043 71.4279 284.043 70.4261V68.7107C284.043 67.709 283.625 67.2081 282.79 67.2081H280.161C279.326 67.2081 278.909 67.709 278.909 68.7107V70.4261C278.909 71.4279 279.326 71.9287 280.161 71.9287ZM280.161 74.1826C277.657 74.1826 276.404 72.9305 276.404 70.4261V68.7107C276.404 66.2064 277.657 64.9542 280.161 64.9542H282.79C283.224 64.9542 283.642 65.0794 284.043 65.3299V64.1654C284.043 63.1636 283.625 62.6628 282.79 62.6628H278.308V62.5376L279.309 60.4089H282.79C285.295 60.4089 286.547 61.661 286.547 64.1654V73.5565L284.168 74.6835H284.043V73.807C283.725 74.0574 283.308 74.1826 282.79 74.1826H280.161ZM294.06 74.1826C291.555 74.1826 290.303 72.9305 290.303 70.4261V61.035L292.682 59.908H292.808V70.4261C292.808 71.4279 293.225 71.9287 294.06 71.9287H296.94C297.775 71.9287 298.192 71.4279 298.192 70.4261V61.035L300.571 59.908H300.696V75.56C300.696 78.0643 299.444 79.3165 296.94 79.3165H291.606V79.1912L292.607 77.0626H296.94C297.775 77.0626 298.192 76.5617 298.192 75.56V73.807C297.866 74.0574 297.449 74.1826 296.94 74.1826H294.06Z" fill="white"/>
<path d="M161.912 53.9382C159.955 53.9382 158.506 53.4724 157.565 52.5406C156.634 51.6003 156.168 50.1514 156.168 48.1939V42.2701C156.168 40.2955 156.634 38.8424 157.565 37.9106C158.506 36.9789 159.955 36.5258 161.912 36.5515H163.451C165.417 36.5515 166.866 37.0173 167.797 37.9491C168.729 38.8723 169.195 40.3212 169.195 42.2958V48.1939C169.195 50.1514 168.729 51.6003 167.797 52.5406C166.866 53.4724 165.417 53.9382 163.451 53.9382H161.912ZM161.912 51.7841H163.451C164.365 51.7841 165.083 51.673 165.605 51.4507C166.126 51.2285 166.494 50.8566 166.708 50.3352C166.93 49.8138 167.041 49.1 167.041 48.1939V42.2958C167.041 41.3811 166.93 40.6631 166.708 40.1417C166.494 39.6202 166.126 39.2527 165.605 39.039C165.083 38.8167 164.365 38.7056 163.451 38.7056H161.912C161.006 38.6885 160.292 38.7868 159.771 39.0005C159.249 39.2056 158.878 39.5732 158.655 40.1032C158.433 40.6246 158.322 41.3469 158.322 42.2701V48.1939C158.322 49.1 158.429 49.8138 158.642 50.3352C158.865 50.8566 159.237 51.2285 159.758 51.4507C160.279 51.673 160.997 51.7841 161.912 51.7841ZM162.374 46.5014C161.69 46.5014 161.348 46.1595 161.348 45.4756V44.8345C161.348 44.1678 161.69 43.8344 162.374 43.8344H162.989C163.639 43.8344 163.964 44.1678 163.964 44.8345V45.4756C163.964 46.1595 163.639 46.5014 162.989 46.5014H162.374ZM183.52 53.9639H173.929C173.194 53.9639 172.826 53.6048 172.826 52.8868C172.826 51.7414 173.006 50.7669 173.365 49.9634C173.732 49.1513 174.198 48.4675 174.762 47.9118C175.335 47.3477 175.942 46.8733 176.583 46.4886C177.224 46.0954 177.818 45.7406 178.365 45.4244C179.314 44.8858 180.105 44.42 180.737 44.0267C181.378 43.6335 181.857 43.2318 182.173 42.8215C182.49 42.4112 182.648 41.9111 182.648 41.3213C182.648 40.3041 182.464 39.6202 182.096 39.2698C181.737 38.9107 181.058 38.7312 180.058 38.7312H177.314C176.51 38.7312 175.916 38.8381 175.532 39.0518C175.147 39.2655 174.903 39.663 174.801 40.2442C174.741 40.5862 174.625 40.8469 174.455 41.0264C174.284 41.2059 174.023 41.2956 173.672 41.2956C173.313 41.2956 173.04 41.2016 172.852 41.0136C172.664 40.817 172.587 40.5349 172.621 40.1673C172.8 38.962 173.275 38.0645 174.044 37.4747C174.814 36.8763 175.903 36.5771 177.314 36.5771H180.058C181.665 36.5771 182.857 36.9661 183.635 37.7439C184.413 38.5218 184.802 39.7143 184.802 41.3213C184.802 42.3471 184.55 43.2061 184.045 43.8985C183.541 44.5824 182.879 45.1893 182.058 45.7193C181.237 46.2407 180.357 46.7664 179.417 47.2964C178.733 47.6896 178.083 48.0828 177.468 48.476C176.861 48.8692 176.339 49.3265 175.903 49.848C175.476 50.3694 175.194 51.0233 175.057 51.8098H183.52C184.238 51.8098 184.597 52.1688 184.597 52.8868C184.597 53.6048 184.238 53.9639 183.52 53.9639Z" fill="#B8EF46"/>
<path d="M203.012 91.8273C202.918 91.8828 202.832 91.9021 202.756 91.885C202.679 91.8679 202.61 91.8145 202.55 91.7247L200.448 88.3781H198.095V91.4747C198.095 91.7012 197.984 91.8145 197.761 91.8145C197.535 91.8145 197.422 91.7012 197.422 91.4747V83.8904C197.422 83.6639 197.535 83.5506 197.761 83.5506H200.762C201.493 83.5506 202.044 83.7387 202.416 84.1148C202.792 84.4909 202.98 85.0444 202.98 85.7753V86.1599C202.98 86.8053 202.832 87.3118 202.538 87.6793C202.243 88.0469 201.807 88.2713 201.23 88.3525L203.121 91.3657C203.241 91.5623 203.204 91.7162 203.012 91.8273ZM198.095 87.705H200.762C201.3 87.705 201.691 87.5832 201.935 87.3395C202.183 87.0917 202.307 86.6984 202.307 86.1599V85.7753C202.307 85.2324 202.183 84.8392 201.935 84.5956C201.691 84.3477 201.3 84.2238 200.762 84.2238H198.095V87.705ZM207.163 91.8145C206.364 91.8145 205.779 91.6307 205.407 91.2631C205.035 90.8913 204.849 90.3079 204.849 89.5129V88.064C204.849 87.2562 205.035 86.6685 205.407 86.301C205.779 85.9291 206.364 85.7475 207.163 85.756H208.215C209.014 85.756 209.597 85.9419 209.965 86.3138C210.337 86.6813 210.523 87.2647 210.523 88.064V89.5001C210.523 90.2993 210.337 90.8849 209.965 91.2567C209.597 91.6285 209.014 91.8145 208.215 91.8145H207.163ZM205.522 89.5129C205.522 90.1155 205.642 90.5387 205.881 90.7823C206.125 91.0216 206.552 91.1413 207.163 91.1413H208.215C208.826 91.1413 209.251 91.0216 209.491 90.7823C209.73 90.5387 209.85 90.1113 209.85 89.5001V88.064C209.85 87.4528 209.73 87.0275 209.491 86.7882C209.251 86.5488 208.826 86.4292 208.215 86.4292H207.163C206.753 86.4249 206.428 86.4741 206.189 86.5766C205.95 86.6792 205.779 86.8502 205.676 87.0895C205.573 87.3289 205.522 87.6537 205.522 88.064V89.5129ZM214.549 91.8145C213.883 91.8145 213.393 91.6606 213.081 91.3529C212.774 91.0409 212.62 90.5515 212.62 89.8847C212.62 89.218 212.776 88.7286 213.088 88.4166C213.4 88.1046 213.887 87.9486 214.549 87.9486H217.466C217.458 87.3844 217.33 86.9912 217.082 86.769C216.838 86.5424 216.421 86.4292 215.832 86.4292H215.088C214.545 86.4292 214.148 86.4869 213.895 86.6023C213.643 86.7177 213.487 86.9143 213.427 87.1921C213.398 87.2989 213.357 87.378 213.306 87.4293C213.259 87.4763 213.182 87.4998 213.075 87.4998C212.964 87.4998 212.876 87.4699 212.812 87.4101C212.752 87.346 212.731 87.2605 212.748 87.1536C212.803 86.6664 213.024 86.3116 213.408 86.0894C213.797 85.8671 214.357 85.756 215.088 85.756H215.832C216.631 85.756 217.214 85.9419 217.582 86.3138C217.954 86.6813 218.14 87.2647 218.14 88.064V91.4747C218.14 91.7012 218.028 91.8145 217.806 91.8145C217.58 91.8145 217.466 91.7012 217.466 91.4747V90.84C217.056 91.4896 216.323 91.8145 215.267 91.8145H214.549ZM214.549 91.1413H215.267C215.682 91.1413 216.045 91.0964 216.357 91.0067C216.674 90.9126 216.928 90.763 217.12 90.5579C217.313 90.3527 217.428 90.0792 217.466 89.7373V88.6218H214.549C214.075 88.6218 213.746 88.7136 213.562 88.8974C213.383 89.0769 213.293 89.406 213.293 89.8847C213.293 90.3591 213.383 90.6882 213.562 90.872C213.746 91.0515 214.075 91.1413 214.549 91.1413ZM222.565 91.8145C221.766 91.8145 221.18 91.6285 220.808 91.2567C220.436 90.8849 220.251 90.2993 220.251 89.5001V88.064C220.251 87.2647 220.436 86.6813 220.808 86.3138C221.18 85.9419 221.766 85.756 222.565 85.756H225.251V83.2557C225.251 83.0335 225.364 82.9223 225.591 82.9223C225.813 82.9223 225.924 83.0335 225.924 83.2557V91.4747C225.924 91.7012 225.813 91.8145 225.591 91.8145C225.364 91.8145 225.251 91.7012 225.251 91.4747V90.9233C225.067 91.2182 224.798 91.4405 224.443 91.5901C224.089 91.7397 223.625 91.8145 223.052 91.8145H222.565ZM222.565 91.1413H223.052C223.719 91.1413 224.251 91.0366 224.649 90.8272C225.05 90.6135 225.251 90.295 225.251 89.8719V86.4292H222.565C221.954 86.4292 221.526 86.551 221.283 86.7946C221.043 87.034 220.924 87.4571 220.924 88.064V89.5001C220.924 90.1113 221.043 90.5387 221.283 90.7823C221.526 91.0216 221.954 91.1413 222.565 91.1413ZM235.001 85.7432C235.689 85.7432 236.181 85.9184 236.476 86.2689C236.775 86.6194 236.925 87.1985 236.925 88.0063V91.4875C236.925 91.7097 236.814 91.8209 236.591 91.8209C236.365 91.8209 236.252 91.7097 236.252 91.4875V88.0063C236.252 87.4421 236.155 87.0361 235.963 86.7882C235.771 86.5403 235.45 86.4164 235.001 86.4164H234.469C233.909 86.4164 233.508 86.5403 233.264 86.7882C233.025 87.0361 232.905 87.4421 232.905 88.0063V91.4875C232.905 91.7097 232.794 91.8209 232.572 91.8209C232.345 91.8209 232.232 91.7097 232.232 91.4875V88.0063C232.232 87.4421 232.136 87.0361 231.943 86.7882C231.751 86.5403 231.43 86.4164 230.982 86.4164H230.45C229.89 86.4164 229.488 86.5403 229.244 86.7882C229.005 87.0361 228.885 87.4421 228.885 88.0063V91.4875C228.885 91.7097 228.774 91.8209 228.552 91.8209C228.325 91.8209 228.212 91.7097 228.212 91.4875V86.0894C228.212 85.8671 228.325 85.756 228.552 85.756C228.774 85.756 228.885 85.8671 228.885 86.0894V86.5895C229.073 86.286 229.296 86.0702 229.552 85.9419C229.813 85.8094 230.142 85.7432 230.539 85.7432H230.982C231.43 85.7432 231.789 85.8223 232.059 85.9804C232.332 86.1343 232.548 86.3886 232.706 86.7433C232.894 86.3886 233.125 86.1343 233.399 85.9804C233.672 85.8223 234.029 85.7432 234.469 85.7432H235.001ZM240.757 91.8145C240.09 91.8145 239.601 91.6606 239.289 91.3529C238.981 91.0409 238.827 90.5515 238.827 89.8847C238.827 89.218 238.983 88.7286 239.295 88.4166C239.607 88.1046 240.095 87.9486 240.757 87.9486H243.674C243.666 87.3844 243.537 86.9912 243.289 86.769C243.046 86.5424 242.629 86.4292 242.039 86.4292H241.296C240.753 86.4292 240.355 86.4869 240.103 86.6023C239.851 86.7177 239.695 86.9143 239.635 87.1921C239.605 87.2989 239.565 87.378 239.513 87.4293C239.466 87.4763 239.389 87.4998 239.283 87.4998C239.171 87.4998 239.084 87.4699 239.02 87.4101C238.96 87.346 238.938 87.2605 238.956 87.1536C239.011 86.6664 239.231 86.3116 239.616 86.0894C240.005 85.8671 240.565 85.756 241.296 85.756H242.039C242.839 85.756 243.422 85.9419 243.789 86.3138C244.161 86.6813 244.347 87.2647 244.347 88.064V91.4747C244.347 91.7012 244.236 91.8145 244.014 91.8145C243.787 91.8145 243.674 91.7012 243.674 91.4747V90.84C243.264 91.4896 242.531 91.8145 241.475 91.8145H240.757ZM240.757 91.1413H241.475C241.89 91.1413 242.253 91.0964 242.565 91.0067C242.881 90.9126 243.136 90.763 243.328 90.5579C243.52 90.3527 243.636 90.0792 243.674 89.7373V88.6218H240.757C240.283 88.6218 239.954 88.7136 239.77 88.8974C239.59 89.0769 239.501 89.406 239.501 89.8847C239.501 90.3591 239.59 90.6882 239.77 90.872C239.954 91.0515 240.283 91.1413 240.757 91.1413ZM246.971 94.3789C246.745 94.3789 246.631 94.2656 246.631 94.0391V86.0894C246.631 85.8671 246.745 85.756 246.971 85.756C247.193 85.756 247.304 85.8671 247.304 86.0894V86.66C247.497 86.3608 247.772 86.1364 248.131 85.9868C248.49 85.8329 248.95 85.756 249.51 85.756H249.997C250.796 85.756 251.38 85.9419 251.747 86.3138C252.119 86.6813 252.305 87.2647 252.305 88.064V89.5001C252.305 90.2993 252.119 90.8849 251.747 91.2567C251.38 91.6285 250.796 91.8145 249.997 91.8145H247.304V94.0391C247.304 94.2656 247.193 94.3789 246.971 94.3789ZM247.304 91.1413H249.997C250.608 91.1413 251.034 91.0216 251.273 90.7823C251.512 90.5387 251.632 90.1113 251.632 89.5001V88.064C251.632 87.4528 251.512 87.0275 251.273 86.7882C251.034 86.5488 250.608 86.4292 249.997 86.4292H249.51C248.826 86.4292 248.3 86.536 247.933 86.7497C247.569 86.9634 247.36 87.2925 247.304 87.737V91.1413ZM260.251 91.8145C259.323 91.8145 258.646 91.6008 258.218 91.1733C257.791 90.7459 257.577 90.0685 257.577 89.141V86.224C257.577 85.288 257.789 84.6084 258.212 84.1853C258.639 83.7622 259.315 83.5506 260.238 83.5506H261.789C262.576 83.5506 263.161 83.7152 263.546 84.0443C263.931 84.3691 264.142 84.8927 264.181 85.615C264.194 85.7304 264.17 85.818 264.11 85.8778C264.055 85.9377 263.971 85.9676 263.86 85.9676C263.646 85.9676 263.529 85.8543 263.508 85.6278C263.478 85.0978 263.332 84.7324 263.072 84.5315C262.811 84.3264 262.383 84.2238 261.789 84.2238H260.238C259.746 84.2238 259.355 84.2879 259.065 84.4161C258.774 84.5401 258.565 84.7495 258.436 85.0444C258.312 85.335 258.251 85.7282 258.251 86.224V89.141C258.251 89.6368 258.315 90.03 258.443 90.3207C258.571 90.6113 258.78 90.8207 259.071 90.949C259.362 91.0772 259.755 91.1413 260.251 91.1413H261.789C262.225 91.1413 262.569 91.0879 262.822 90.981C263.078 90.8742 263.26 90.6947 263.367 90.4425C263.473 90.1903 263.527 89.842 263.527 89.3975V88.5961L262.123 88.5833C261.901 88.5833 261.789 88.47 261.789 88.2435C261.789 88.0213 261.901 87.9101 262.123 87.9101L263.867 87.9229C264.089 87.9229 264.2 88.0341 264.2 88.2563V89.3975C264.2 90.2437 264.01 90.8592 263.629 91.2439C263.249 91.6243 262.636 91.8145 261.789 91.8145H260.251ZM266.277 89.0449V89.5129C266.277 90.1155 266.396 90.5387 266.636 90.7823C266.879 91.0216 267.307 91.1413 267.918 91.1413H268.969C269.508 91.1413 269.899 91.0729 270.143 90.9361C270.391 90.7951 270.538 90.5536 270.585 90.2117C270.602 90.1048 270.636 90.0236 270.688 89.9681C270.743 89.9125 270.827 89.8847 270.938 89.8847C271.049 89.8847 271.132 89.9168 271.188 89.9809C271.248 90.0407 271.271 90.1262 271.258 90.2373C271.203 90.7759 270.987 91.1733 270.611 91.4298C270.235 91.6862 269.687 91.8145 268.969 91.8145H267.918C267.119 91.8145 266.533 91.6307 266.161 91.2631C265.79 90.8913 265.604 90.3079 265.604 89.5129V88.064C265.604 87.2562 265.79 86.6685 266.161 86.301C266.533 85.9291 267.119 85.7475 267.918 85.756H268.969C269.769 85.756 270.352 85.9419 270.72 86.3138C271.092 86.6813 271.277 87.2647 271.277 88.064V88.7051C271.277 88.9316 271.166 89.0449 270.944 89.0449H266.277ZM267.918 86.4292C267.307 86.4206 266.879 86.5382 266.636 86.7818C266.396 87.0211 266.277 87.4485 266.277 88.064V88.3717H270.604V88.064C270.604 87.4528 270.485 87.0275 270.245 86.7882C270.006 86.5488 269.581 86.4292 268.969 86.4292H267.918ZM273.842 91.8145C273.616 91.8145 273.503 91.7012 273.503 91.4747V86.0894C273.503 85.8671 273.616 85.756 273.842 85.756C274.065 85.756 274.176 85.8671 274.176 86.0894V86.7049C274.582 86.0723 275.317 85.756 276.381 85.756H276.74C277.539 85.756 278.123 85.9419 278.49 86.3138C278.862 86.6813 279.048 87.2647 279.048 88.064V91.4747C279.048 91.7012 278.937 91.8145 278.715 91.8145C278.488 91.8145 278.375 91.7012 278.375 91.4747V88.064C278.375 87.4528 278.253 87.0275 278.01 86.7882C277.77 86.5488 277.347 86.4292 276.74 86.4292H276.381C275.719 86.4292 275.197 86.5339 274.817 86.7433C274.436 86.9527 274.223 87.2797 274.176 87.7242V91.4747C274.176 91.7012 274.065 91.8145 273.842 91.8145ZM281.829 89.0449V89.5129C281.829 90.1155 281.948 90.5387 282.188 90.7823C282.431 91.0216 282.859 91.1413 283.47 91.1413H284.521C285.06 91.1413 285.451 91.0729 285.694 90.9361C285.942 90.7951 286.09 90.5536 286.137 90.2117C286.154 90.1048 286.188 90.0236 286.239 89.9681C286.295 89.9125 286.378 89.8847 286.489 89.8847C286.601 89.8847 286.684 89.9168 286.739 89.9809C286.799 90.0407 286.823 90.1262 286.81 90.2373C286.754 90.7759 286.539 91.1733 286.162 91.4298C285.786 91.6862 285.239 91.8145 284.521 91.8145H283.47C282.671 91.8145 282.085 91.6307 281.713 91.2631C281.341 90.8913 281.155 90.3079 281.155 89.5129V88.064C281.155 87.2562 281.341 86.6685 281.713 86.301C282.085 85.9291 282.671 85.7475 283.47 85.756H284.521C285.32 85.756 285.904 85.9419 286.271 86.3138C286.643 86.6813 286.829 87.2647 286.829 88.064V88.7051C286.829 88.9316 286.718 89.0449 286.496 89.0449H281.829ZM283.47 86.4292C282.859 86.4206 282.431 86.5382 282.188 86.7818C281.948 87.0211 281.829 87.4485 281.829 88.064V88.3717H286.156V88.064C286.156 87.4528 286.036 87.0275 285.797 86.7882C285.558 86.5488 285.132 86.4292 284.521 86.4292H283.47ZM289.394 91.8145C289.168 91.8145 289.054 91.7012 289.054 91.4747V86.0894C289.054 85.8671 289.168 85.756 289.394 85.756C289.616 85.756 289.728 85.8671 289.728 86.0894V87.0767C289.95 86.6493 290.27 86.3223 290.689 86.0958C291.112 85.8693 291.612 85.756 292.189 85.756C292.416 85.756 292.529 85.8671 292.529 86.0894C292.529 86.3159 292.416 86.4292 292.189 86.4292C291.429 86.4292 290.839 86.6023 290.42 86.9485C290.001 87.2904 289.77 87.7798 289.728 88.4166V91.4747C289.728 91.7012 289.616 91.8145 289.394 91.8145ZM295.301 91.8145C294.634 91.8145 294.145 91.6606 293.833 91.3529C293.525 91.0409 293.371 90.5515 293.371 89.8847C293.371 89.218 293.527 88.7286 293.839 88.4166C294.151 88.1046 294.639 87.9486 295.301 87.9486H298.218C298.209 87.3844 298.081 86.9912 297.833 86.769C297.59 86.5424 297.173 86.4292 296.583 86.4292H295.84C295.297 86.4292 294.899 86.4869 294.647 86.6023C294.395 86.7177 294.239 86.9143 294.179 87.1921C294.149 87.2989 294.109 87.378 294.057 87.4293C294.01 87.4763 293.933 87.4998 293.826 87.4998C293.715 87.4998 293.628 87.4699 293.564 87.4101C293.504 87.346 293.482 87.2605 293.5 87.1536C293.555 86.6664 293.775 86.3116 294.16 86.0894C294.549 85.8671 295.109 85.756 295.84 85.756H296.583C297.382 85.756 297.966 85.9419 298.333 86.3138C298.705 86.6813 298.891 87.2647 298.891 88.064V91.4747C298.891 91.7012 298.78 91.8145 298.558 91.8145C298.331 91.8145 298.218 91.7012 298.218 91.4747V90.84C297.808 91.4896 297.075 91.8145 296.019 91.8145H295.301ZM295.301 91.1413H296.019C296.434 91.1413 296.797 91.0964 297.109 91.0067C297.425 90.9126 297.68 90.763 297.872 90.5579C298.064 90.3527 298.18 90.0792 298.218 89.7373V88.6218H295.301C294.827 88.6218 294.498 88.7136 294.314 88.8974C294.134 89.0769 294.044 89.406 294.044 89.8847C294.044 90.3591 294.134 90.6882 294.314 90.872C294.498 91.0515 294.827 91.1413 295.301 91.1413ZM303.65 91.8145C302.863 91.8145 302.289 91.6328 301.925 91.2695C301.562 90.9062 301.38 90.3335 301.38 89.5514V86.4292H300.617C300.391 86.4292 300.278 86.3159 300.278 86.0894C300.278 85.8671 300.391 85.756 300.617 85.756H301.38V84.3776C301.38 84.1511 301.492 84.0379 301.714 84.0379C301.94 84.0379 302.054 84.1511 302.054 84.3776V85.756H303.663C303.885 85.756 303.996 85.8671 303.996 86.0894C303.996 86.3159 303.885 86.4292 303.663 86.4292H302.054V89.5514C302.054 90.1497 302.169 90.5643 302.4 90.7951C302.635 91.0259 303.052 91.1413 303.65 91.1413C303.774 91.1413 303.861 91.1691 303.913 91.2246C303.968 91.2802 303.996 91.3635 303.996 91.4747C303.996 91.7012 303.881 91.8145 303.65 91.8145ZM305.963 84.5892C305.668 84.5892 305.521 84.4375 305.521 84.134V83.8455C305.521 83.5506 305.668 83.4032 305.963 83.4032H306.251C306.538 83.4032 306.681 83.5506 306.681 83.8455V84.134C306.681 84.4375 306.538 84.5892 306.251 84.5892H305.963ZM306.11 91.8145C305.884 91.8145 305.771 91.7012 305.771 91.4747V86.0894C305.771 85.8671 305.884 85.756 306.11 85.756C306.333 85.756 306.444 85.8671 306.444 86.0894V91.4747C306.444 91.7012 306.333 91.8145 306.11 91.8145ZM310.98 91.8145C310.18 91.8145 309.595 91.6307 309.223 91.2631C308.851 90.8913 308.665 90.3079 308.665 89.5129V88.064C308.665 87.2562 308.851 86.6685 309.223 86.301C309.595 85.9291 310.18 85.7475 310.98 85.756H312.031C312.83 85.756 313.414 85.9419 313.781 86.3138C314.153 86.6813 314.339 87.2647 314.339 88.064V89.5001C314.339 90.2993 314.153 90.8849 313.781 91.2567C313.414 91.6285 312.83 91.8145 312.031 91.8145H310.98ZM309.338 89.5129C309.338 90.1155 309.458 90.5387 309.698 90.7823C309.941 91.0216 310.369 91.1413 310.98 91.1413H312.031C312.642 91.1413 313.068 91.0216 313.307 90.7823C313.546 90.5387 313.666 90.1113 313.666 89.5001V88.064C313.666 87.4528 313.546 87.0275 313.307 86.7882C313.068 86.5488 312.642 86.4292 312.031 86.4292H310.98C310.569 86.4249 310.245 86.4741 310.005 86.5766C309.766 86.6792 309.595 86.8502 309.492 87.0895C309.39 87.3289 309.338 87.6537 309.338 88.064V89.5129ZM316.904 91.8145C316.678 91.8145 316.564 91.7012 316.564 91.4747V86.0894C316.564 85.8671 316.678 85.756 316.904 85.756C317.126 85.756 317.237 85.8671 317.237 86.0894V86.7049C317.643 86.0723 318.379 85.756 319.443 85.756H319.802C320.601 85.756 321.184 85.9419 321.552 86.3138C321.924 86.6813 322.11 87.2647 322.11 88.064V91.4747C322.11 91.7012 321.999 91.8145 321.776 91.8145C321.55 91.8145 321.437 91.7012 321.437 91.4747V88.064C321.437 87.4528 321.315 87.0275 321.071 86.7882C320.832 86.5488 320.409 86.4292 319.802 86.4292H319.443C318.78 86.4292 318.259 86.5339 317.879 86.7433C317.498 86.9527 317.284 87.2797 317.237 87.7242V91.4747C317.237 91.7012 317.126 91.8145 316.904 91.8145Z" fill="#AAAAAA"/>
<circle cx="108.5" cy="57.5" r="8" fill="#B8EF46" stroke="black" stroke-width="7"/>
</svg>
