<svg width="337" height="243" viewBox="0 0 337 243" fill="none" xmlns="http://www.w3.org/2000/svg">
<path d="M337 149.89V190.728C281.583 216.41 211.324 185.76 203.627 116.639C195.014 46.9273 276.953 -4.50214 337 30.0301L336.461 70.6712C333.02 68.0848 329.742 65.2987 326.66 62.3253C260.393 9.41231 193.295 125.096 267.627 162.286C292.538 175.486 316.839 162.95 337 149.89Z" fill="white"/>
<circle cx="218.5" cy="112.5" r="9" fill="#52E996" stroke="black" stroke-width="9"/>
<path d="M40.8828 117.055H46.2539C47.4746 117.055 48.085 116.363 48.085 114.979V105.092C48.085 103.708 47.4746 103.017 46.2539 103.017H40.8828V117.055ZM38.4414 119.252V101.43L39.7354 100.819H46.2539C49.1022 100.819 50.5264 102.243 50.5264 105.092V114.979C50.5264 117.828 49.1022 119.252 46.2539 119.252H38.4414ZM58.4609 117.055H61.2686C62.0824 117.055 62.4893 116.566 62.4893 115.59V109.486C62.4893 108.51 62.0824 108.021 61.2686 108.021H58.4609C57.6471 108.021 57.2402 108.51 57.2402 109.486V115.59C57.2402 116.566 57.6471 117.055 58.4609 117.055ZM58.4609 119.252C56.0195 119.252 54.7988 118.031 54.7988 115.59V109.486C54.7988 107.045 56.0195 105.824 58.4609 105.824H61.2686C63.71 105.824 64.9307 107.045 64.9307 109.486V115.59C64.9307 118.031 63.71 119.252 61.2686 119.252H58.4609ZM72.2549 119.252C69.8135 119.252 68.5928 118.031 68.5928 115.59V109.486C68.5928 107.045 69.8135 105.824 72.2549 105.824H75.0625C77.5039 105.824 78.7246 107.045 78.7246 109.486V110.133L76.4053 111.232H76.2832V109.486C76.2832 108.51 75.8763 108.021 75.0625 108.021H72.2549C71.4411 108.021 71.0342 108.51 71.0342 109.486V115.59C71.0342 116.566 71.4411 117.055 72.2549 117.055H75.0625C75.8763 117.055 76.2832 116.566 76.2832 115.59V114.943L78.6025 113.844H78.7246V115.59C78.7246 118.031 77.5039 119.252 75.0625 119.252H72.2549ZM86.0488 119.252C83.6074 119.252 82.3867 118.031 82.3867 115.59V106.435L84.7061 105.336H84.8281V115.59C84.8281 116.566 85.235 117.055 86.0488 117.055H88.8564C89.6702 117.055 90.0771 116.566 90.0771 115.59V106.435L92.3965 105.336H92.5186V115.59C92.5186 118.031 91.2979 119.252 88.8564 119.252H86.0488ZM96.1807 119.74V109.486C96.1807 107.045 97.4014 105.824 99.8428 105.824H102.65C103.773 105.824 104.587 106.125 105.092 106.728C105.629 106.125 106.443 105.824 107.533 105.824H110.341C112.782 105.824 114.003 107.045 114.003 109.486V118.642L111.684 119.74H111.562V109.486C111.562 108.51 111.155 108.021 110.341 108.021H107.533C106.719 108.021 106.312 108.51 106.312 109.486V118.642L103.993 119.74H103.871V109.486C103.871 108.51 103.464 108.021 102.65 108.021H99.8428C99.029 108.021 98.6221 108.51 98.6221 109.486V118.642L96.3027 119.74H96.1807ZM121.327 119.252C118.886 119.252 117.665 118.031 117.665 115.59V109.486C117.665 107.045 118.886 105.824 121.327 105.824H124.135C126.576 105.824 127.797 107.045 127.797 109.486V110.133L120.143 116.054C120.257 116.721 120.652 117.055 121.327 117.055H124.135C124.949 117.055 125.355 116.566 125.355 115.59V114.943L127.675 113.844H127.797V115.59C127.797 118.031 126.576 119.252 124.135 119.252H121.327ZM120.106 113.502L125.343 109.279C125.294 108.441 124.892 108.021 124.135 108.021H121.327C120.513 108.021 120.106 108.51 120.106 109.486V113.502ZM131.459 119.74V109.486C131.459 107.045 132.68 105.824 135.121 105.824H137.929C140.37 105.824 141.591 107.045 141.591 109.486V118.642L139.271 119.74H139.149V109.486C139.149 108.51 138.743 108.021 137.929 108.021H135.121C134.307 108.021 133.9 108.51 133.9 109.486V118.642L131.581 119.74H131.459ZM146.864 119.74V108.046H143.727V107.924L144.716 105.824H146.864V101.43L149.184 100.331H149.306V105.824H152.443V105.946L151.454 108.046H149.306V118.642L146.986 119.74H146.864ZM38.4414 154.74V136.43L40.7607 135.331H40.8828V153.642L38.5635 154.74H38.4414ZM46.7666 154.74V143.046H43.6294V142.924L44.6182 140.824H46.7666V136.43L49.0859 135.331H49.208V140.824H52.3452V140.946L51.3564 143.046H49.208V153.642L46.8887 154.74H46.7666Z" fill="white"/>
<path d="M43.8 73.1537C41.8917 73.1537 40.4792 72.6995 39.5625 71.7912C38.6542 70.8745 38.2 69.462 38.2 67.5537V61.7787C38.2 59.8537 38.6542 58.437 39.5625 57.5287C40.4792 56.6204 41.8917 56.1787 43.8 56.2037H45.3C47.2167 56.2037 48.6292 56.6579 49.5375 57.5662C50.4458 58.4662 50.9 59.8787 50.9 61.8037V67.5537C50.9 69.462 50.4458 70.8745 49.5375 71.7912C48.6292 72.6995 47.2167 73.1537 45.3 73.1537H43.8ZM43.8 71.0537H45.3C46.1917 71.0537 46.8917 70.9454 47.4 70.7287C47.9083 70.512 48.2667 70.1495 48.475 69.6412C48.6917 69.1329 48.8 68.437 48.8 67.5537V61.8037C48.8 60.912 48.6917 60.212 48.475 59.7037C48.2667 59.1954 47.9083 58.837 47.4 58.6287C46.8917 58.412 46.1917 58.3037 45.3 58.3037H43.8C42.9167 58.287 42.2208 58.3829 41.7125 58.5912C41.2042 58.7912 40.8417 59.1495 40.625 59.6662C40.4083 60.1745 40.3 60.8787 40.3 61.7787V67.5537C40.3 68.437 40.4042 69.1329 40.6125 69.6412C40.8292 70.1495 41.1917 70.512 41.7 70.7287C42.2083 70.9454 42.9083 71.0537 43.8 71.0537ZM44.25 65.9037C43.5833 65.9037 43.25 65.5704 43.25 64.9037V64.2787C43.25 63.6287 43.5833 63.3037 44.25 63.3037H44.85C45.4833 63.3037 45.8 63.6287 45.8 64.2787V64.9037C45.8 65.5704 45.4833 65.9037 44.85 65.9037H44.25ZM59.5148 73.1787C58.0565 73.1787 56.9273 72.8745 56.1273 72.2662C55.3357 71.6495 54.8565 70.7037 54.6898 69.4287C54.6565 69.0787 54.7315 68.8079 54.9148 68.6162C55.0982 68.4245 55.3648 68.3287 55.7148 68.3287C56.3565 68.3287 56.7148 68.6787 56.7898 69.3787C56.9065 70.0287 57.169 70.4745 57.5773 70.7162C57.9857 70.9579 58.6315 71.0787 59.5148 71.0787H62.3648C63.4398 71.0787 64.169 70.887 64.5523 70.5037C64.944 70.112 65.1398 69.387 65.1398 68.3287C65.1398 67.2787 64.944 66.5579 64.5523 66.1662C64.169 65.7745 63.4398 65.5787 62.3648 65.5787H60.4398C59.7398 65.5787 59.3898 65.2287 59.3898 64.5287C59.3898 63.8287 59.7398 63.4787 60.4398 63.4787H63.3148C63.8398 63.4787 64.2065 63.2454 64.4148 62.7787C64.6315 62.3037 64.7398 61.662 64.7398 60.8537C64.7398 59.862 64.5607 59.1954 64.2023 58.8537C63.8523 58.5037 63.1898 58.3287 62.2148 58.3287H59.7898C59.0065 58.3287 58.4273 58.4329 58.0523 58.6412C57.6773 58.8495 57.4398 59.237 57.3398 59.8037C57.2398 60.487 56.8732 60.8287 56.2398 60.8287C55.8898 60.8287 55.6232 60.737 55.4398 60.5537C55.2565 60.362 55.1898 60.087 55.2398 59.7287C55.4065 58.5537 55.8648 57.6787 56.6148 57.1037C57.3732 56.5204 58.4315 56.2287 59.7898 56.2287H62.2148C63.7815 56.2287 64.944 56.6079 65.7023 57.3662C66.4607 58.1245 66.8398 59.287 66.8398 60.8537C66.8398 62.3954 66.4065 63.487 65.5398 64.1287C66.1148 64.5037 66.5398 65.037 66.8148 65.7287C67.0982 66.4204 67.2398 67.287 67.2398 68.3287C67.2398 69.9787 66.844 71.1995 66.0523 71.9912C65.2607 72.7829 64.0315 73.1787 62.3648 73.1787H59.5148Z" fill="#52E996"/>
<path d="M40.616 194.211C39.4587 194.211 38.6133 193.944 38.08 193.411C37.5467 192.878 37.28 192.032 37.28 190.875V187.235C37.28 186.067 37.544 185.219 38.072 184.691C38.6053 184.163 39.448 183.899 40.6 183.899H42.536C43.5173 183.899 44.248 184.104 44.728 184.515C45.208 184.92 45.472 185.574 45.52 186.475C45.536 186.619 45.5067 186.728 45.432 186.803C45.3627 186.878 45.2587 186.915 45.12 186.915C44.8533 186.915 44.7067 186.774 44.68 186.491C44.6427 185.83 44.4613 185.374 44.136 185.123C43.8107 184.867 43.2773 184.739 42.536 184.739H40.6C39.9867 184.739 39.4987 184.819 39.136 184.979C38.7733 185.134 38.512 185.395 38.352 185.763C38.1973 186.126 38.12 186.616 38.12 187.235V190.875C38.12 191.494 38.2 191.984 38.36 192.347C38.52 192.71 38.7813 192.971 39.144 193.131C39.5067 193.291 39.9973 193.371 40.616 193.371H42.536C43.2773 193.371 43.8107 193.246 44.136 192.995C44.4613 192.739 44.6427 192.28 44.68 191.619C44.7067 191.336 44.8533 191.195 45.12 191.195C45.2587 191.195 45.3627 191.235 45.432 191.315C45.5067 191.39 45.536 191.496 45.52 191.635C45.472 192.536 45.208 193.192 44.728 193.603C44.248 194.008 43.5173 194.211 42.536 194.211H40.616ZM51.2924 194.211C51.111 194.211 50.9804 194.115 50.9004 193.923L46.7484 184.499C46.679 184.344 46.679 184.216 46.7484 184.115C46.823 184.014 46.9244 183.95 47.0524 183.923C47.271 183.87 47.423 183.95 47.5084 184.163L51.5084 193.235H51.2124L55.1884 184.163C55.2737 183.95 55.4284 183.87 55.6524 183.923C55.791 183.95 55.8924 184.014 55.9564 184.115C56.0204 184.216 56.0204 184.344 55.9564 184.499L51.7884 193.923C51.7084 194.115 51.5724 194.211 51.3804 194.211H51.2924ZM64.8504 194.211C63.693 194.211 62.8477 193.944 62.3144 193.411C61.781 192.878 61.5144 192.032 61.5144 190.875V187.235C61.5144 186.067 61.7784 185.219 62.3064 184.691C62.8397 184.163 63.6824 183.899 64.8344 183.899H66.7704C67.7517 183.899 68.4824 184.104 68.9624 184.515C69.4424 184.92 69.7064 185.574 69.7544 186.475C69.7704 186.619 69.741 186.728 69.6664 186.803C69.597 186.878 69.493 186.915 69.3544 186.915C69.0877 186.915 68.941 186.774 68.9144 186.491C68.877 185.83 68.6957 185.374 68.3704 185.123C68.045 184.867 67.5117 184.739 66.7704 184.739H64.8344C64.221 184.739 63.733 184.819 63.3704 184.979C63.0077 185.134 62.7464 185.395 62.5864 185.763C62.4317 186.126 62.3544 186.616 62.3544 187.235V190.875C62.3544 191.494 62.4344 191.984 62.5944 192.347C62.7544 192.71 63.0157 192.971 63.3784 193.131C63.741 193.291 64.2317 193.371 64.8504 193.371H66.7704C67.3144 193.371 67.7437 193.304 68.0584 193.171C68.3784 193.038 68.605 192.814 68.7384 192.499C68.8717 192.184 68.9384 191.75 68.9384 191.195V190.195L67.1864 190.179C66.909 190.179 66.7704 190.038 66.7704 189.755C66.7704 189.478 66.909 189.339 67.1864 189.339L69.3624 189.355C69.6397 189.355 69.7784 189.494 69.7784 189.771V191.195C69.7784 192.251 69.541 193.019 69.0664 193.499C68.5917 193.974 67.8264 194.211 66.7704 194.211H64.8504ZM72.37 190.755V191.339C72.37 192.091 72.5193 192.619 72.818 192.923C73.122 193.222 73.6553 193.371 74.418 193.371H75.73C76.402 193.371 76.89 193.286 77.194 193.115C77.5033 192.939 77.6873 192.638 77.746 192.211C77.7673 192.078 77.81 191.976 77.874 191.907C77.9433 191.838 78.0473 191.803 78.186 191.803C78.3247 191.803 78.4287 191.843 78.498 191.923C78.5727 191.998 78.602 192.104 78.586 192.243C78.5167 192.915 78.2473 193.411 77.778 193.731C77.3087 194.051 76.626 194.211 75.73 194.211H74.418C73.4207 194.211 72.69 193.982 72.226 193.523C71.762 193.059 71.53 192.331 71.53 191.339V189.531C71.53 188.523 71.762 187.79 72.226 187.331C72.69 186.867 73.4207 186.64 74.418 186.651H75.73C76.7273 186.651 77.4553 186.883 77.914 187.347C78.378 187.806 78.61 188.534 78.61 189.531V190.331C78.61 190.614 78.4713 190.755 78.194 190.755H72.37ZM74.418 187.491C73.6553 187.48 73.122 187.627 72.818 187.931C72.5193 188.23 72.37 188.763 72.37 189.531V189.915H77.77V189.531C77.77 188.768 77.6207 188.238 77.322 187.939C77.0233 187.64 76.4927 187.491 75.73 187.491H74.418ZM81.8106 194.211C81.528 194.211 81.3866 194.07 81.3866 193.787V187.067C81.3866 186.79 81.528 186.651 81.8106 186.651C82.088 186.651 82.2266 186.79 82.2266 187.067V187.835C82.7333 187.046 83.6506 186.651 84.9786 186.651H85.4266C86.424 186.651 87.152 186.883 87.6106 187.347C88.0746 187.806 88.3066 188.534 88.3066 189.531V193.787C88.3066 194.07 88.168 194.211 87.8906 194.211C87.608 194.211 87.4666 194.07 87.4666 193.787V189.531C87.4666 188.768 87.3146 188.238 87.0106 187.939C86.712 187.64 86.184 187.491 85.4266 187.491H84.9786C84.152 187.491 83.5013 187.622 83.0266 187.883C82.552 188.144 82.2853 188.552 82.2266 189.107V193.787C82.2266 194.07 82.088 194.211 81.8106 194.211ZM91.7763 190.755V191.339C91.7763 192.091 91.9256 192.619 92.2243 192.923C92.5283 193.222 93.0616 193.371 93.8243 193.371H95.1363C95.8083 193.371 96.2963 193.286 96.6003 193.115C96.9096 192.939 97.0936 192.638 97.1523 192.211C97.1736 192.078 97.2163 191.976 97.2803 191.907C97.3496 191.838 97.4536 191.803 97.5923 191.803C97.7309 191.803 97.8349 191.843 97.9043 191.923C97.9789 191.998 98.0083 192.104 97.9923 192.243C97.9229 192.915 97.6536 193.411 97.1843 193.731C96.7149 194.051 96.0323 194.211 95.1363 194.211H93.8243C92.8269 194.211 92.0963 193.982 91.6323 193.523C91.1683 193.059 90.9363 192.331 90.9363 191.339V189.531C90.9363 188.523 91.1683 187.79 91.6323 187.331C92.0963 186.867 92.8269 186.64 93.8243 186.651H95.1363C96.1336 186.651 96.8616 186.883 97.3203 187.347C97.7843 187.806 98.0163 188.534 98.0163 189.531V190.331C98.0163 190.614 97.8776 190.755 97.6003 190.755H91.7763ZM93.8243 187.491C93.0616 187.48 92.5283 187.627 92.2243 187.931C91.9256 188.23 91.7763 188.763 91.7763 189.531V189.915H97.1763V189.531C97.1763 188.768 97.0269 188.238 96.7283 187.939C96.4296 187.64 95.8989 187.491 95.1363 187.491H93.8243ZM101.217 194.211C100.934 194.211 100.793 194.07 100.793 193.787V187.067C100.793 186.79 100.934 186.651 101.217 186.651C101.494 186.651 101.633 186.79 101.633 187.067V188.299C101.91 187.766 102.31 187.358 102.833 187.075C103.361 186.792 103.985 186.651 104.705 186.651C104.988 186.651 105.129 186.79 105.129 187.067C105.129 187.35 104.988 187.491 104.705 187.491C103.756 187.491 103.02 187.707 102.497 188.139C101.974 188.566 101.686 189.176 101.633 189.971V193.787C101.633 194.07 101.494 194.211 101.217 194.211ZM108.588 194.211C107.756 194.211 107.145 194.019 106.756 193.635C106.372 193.246 106.18 192.635 106.18 191.803C106.18 190.971 106.374 190.36 106.764 189.971C107.153 189.582 107.761 189.387 108.588 189.387H112.228C112.217 188.683 112.057 188.192 111.748 187.915C111.444 187.632 110.924 187.491 110.188 187.491H109.26C108.582 187.491 108.086 187.563 107.772 187.707C107.457 187.851 107.262 188.096 107.188 188.443C107.15 188.576 107.1 188.675 107.036 188.739C106.977 188.798 106.881 188.827 106.748 188.827C106.609 188.827 106.5 188.79 106.42 188.715C106.345 188.635 106.318 188.528 106.34 188.395C106.409 187.787 106.684 187.344 107.164 187.067C107.649 186.79 108.348 186.651 109.26 186.651H110.188C111.185 186.651 111.913 186.883 112.372 187.347C112.836 187.806 113.068 188.534 113.068 189.531V193.787C113.068 194.07 112.929 194.211 112.652 194.211C112.369 194.211 112.228 194.07 112.228 193.787V192.995C111.716 193.806 110.801 194.211 109.484 194.211H108.588ZM108.588 193.371H109.484C110.001 193.371 110.454 193.315 110.844 193.203C111.238 193.086 111.556 192.899 111.796 192.643C112.036 192.387 112.18 192.046 112.228 191.619V190.227H108.588C107.996 190.227 107.585 190.342 107.356 190.571C107.132 190.795 107.02 191.206 107.02 191.803C107.02 192.395 107.132 192.806 107.356 193.035C107.585 193.259 107.996 193.371 108.588 193.371ZM119.006 194.211C118.025 194.211 117.307 193.984 116.854 193.531C116.401 193.078 116.174 192.363 116.174 191.387V187.491H115.222C114.939 187.491 114.798 187.35 114.798 187.067C114.798 186.79 114.939 186.651 115.222 186.651H116.174V184.931C116.174 184.648 116.313 184.507 116.59 184.507C116.873 184.507 117.014 184.648 117.014 184.931V186.651H119.022C119.299 186.651 119.438 186.79 119.438 187.067C119.438 187.35 119.299 187.491 119.022 187.491H117.014V191.387C117.014 192.134 117.158 192.651 117.446 192.939C117.739 193.227 118.259 193.371 119.006 193.371C119.161 193.371 119.27 193.406 119.334 193.475C119.403 193.544 119.438 193.648 119.438 193.787C119.438 194.07 119.294 194.211 119.006 194.211ZM121.892 185.195C121.524 185.195 121.34 185.006 121.34 184.627V184.267C121.34 183.899 121.524 183.715 121.892 183.715H122.252C122.61 183.715 122.788 183.899 122.788 184.267V184.627C122.788 185.006 122.61 185.195 122.252 185.195H121.892ZM122.076 194.211C121.794 194.211 121.652 194.07 121.652 193.787V187.067C121.652 186.79 121.794 186.651 122.076 186.651C122.354 186.651 122.492 186.79 122.492 187.067V193.787C122.492 194.07 122.354 194.211 122.076 194.211ZM128.152 194.211C127.155 194.211 126.424 193.982 125.96 193.523C125.496 193.059 125.264 192.331 125.264 191.339V189.531C125.264 188.523 125.496 187.79 125.96 187.331C126.424 186.867 127.155 186.64 128.152 186.651H129.464C130.462 186.651 131.19 186.883 131.648 187.347C132.112 187.806 132.344 188.534 132.344 189.531V191.323C132.344 192.32 132.112 193.051 131.648 193.515C131.19 193.979 130.462 194.211 129.464 194.211H128.152ZM126.104 191.339C126.104 192.091 126.254 192.619 126.552 192.923C126.856 193.222 127.39 193.371 128.152 193.371H129.464C130.227 193.371 130.758 193.222 131.056 192.923C131.355 192.619 131.504 192.086 131.504 191.323V189.531C131.504 188.768 131.355 188.238 131.056 187.939C130.758 187.64 130.227 187.491 129.464 187.491H128.152C127.64 187.486 127.235 187.547 126.936 187.675C126.638 187.803 126.424 188.016 126.296 188.315C126.168 188.614 126.104 189.019 126.104 189.531V191.339ZM135.545 194.211C135.262 194.211 135.121 194.07 135.121 193.787V187.067C135.121 186.79 135.262 186.651 135.545 186.651C135.822 186.651 135.961 186.79 135.961 187.067V187.835C136.468 187.046 137.385 186.651 138.713 186.651H139.161C140.158 186.651 140.886 186.883 141.345 187.347C141.809 187.806 142.041 188.534 142.041 189.531V193.787C142.041 194.07 141.902 194.211 141.625 194.211C141.342 194.211 141.201 194.07 141.201 193.787V189.531C141.201 188.768 141.049 188.238 140.745 187.939C140.446 187.64 139.918 187.491 139.161 187.491H138.713C137.886 187.491 137.236 187.622 136.761 187.883C136.286 188.144 136.02 188.552 135.961 189.107V193.787C135.961 194.07 135.822 194.211 135.545 194.211ZM45.36 212.555C45.1733 212.763 44.9733 212.774 44.76 212.587L39.456 207.907C39.0987 207.598 38.8213 207.318 38.624 207.067C38.4267 206.811 38.2853 206.552 38.2 206.291C38.12 206.03 38.08 205.734 38.08 205.403C38.08 204.582 38.2747 203.976 38.664 203.587C39.0533 203.192 39.656 202.995 40.472 202.995H40.872C41.6133 202.995 42.176 203.155 42.56 203.475C42.944 203.79 43.1707 204.28 43.24 204.947C43.2507 205.086 43.2187 205.195 43.144 205.275C43.0747 205.35 42.9707 205.387 42.832 205.387C42.6933 205.387 42.5893 205.352 42.52 205.283C42.456 205.214 42.4133 205.11 42.392 204.971C42.344 204.544 42.2053 204.248 41.976 204.083C41.752 203.918 41.384 203.835 40.872 203.835H40.472C39.8907 203.835 39.4853 203.947 39.256 204.171C39.032 204.395 38.92 204.806 38.92 205.403C38.92 205.648 38.9467 205.864 39 206.051C39.0587 206.232 39.168 206.419 39.328 206.611C39.488 206.798 39.7173 207.019 40.016 207.275L45.32 211.955C45.5333 212.147 45.5467 212.347 45.36 212.555ZM40.28 213.291C39.1227 213.291 38.28 213.03 37.752 212.507C37.224 211.979 36.96 211.136 36.96 209.979C36.96 209.104 37.1147 208.411 37.424 207.899C37.7333 207.387 38.2187 207.032 38.88 206.835C39.008 206.787 39.12 206.792 39.216 206.851C39.312 206.91 39.3733 207.008 39.4 207.147C39.4267 207.296 39.4107 207.408 39.352 207.483C39.2933 207.552 39.2 207.608 39.072 207.651C38.6187 207.8 38.2933 208.056 38.096 208.419C37.8987 208.782 37.8 209.302 37.8 209.979C37.8 210.592 37.8773 211.08 38.032 211.443C38.192 211.8 38.4507 212.059 38.808 212.219C39.1707 212.374 39.6613 212.451 40.28 212.451H40.792C41.4 212.451 41.8853 212.371 42.248 212.211C42.6107 212.051 42.8693 211.792 43.024 211.435C43.184 211.072 43.264 210.587 43.264 209.979V209.163C43.264 208.886 43.4053 208.747 43.688 208.747C43.9653 208.747 44.104 208.886 44.104 209.163V209.979C44.104 211.126 43.84 211.966 43.312 212.499C42.784 213.027 41.944 213.291 40.792 213.291H40.28ZM51.7325 213.211C51.4498 213.211 51.3085 213.07 51.3085 212.787V203.323C51.3085 203.04 51.4498 202.899 51.7325 202.899H57.7245C58.0072 202.899 58.1485 203.04 58.1485 203.323C58.1485 203.6 58.0072 203.739 57.7245 203.739H52.1485V207.571H55.8365C56.1192 207.571 56.2605 207.71 56.2605 207.987C56.2605 208.27 56.1192 208.411 55.8365 208.411H52.1485V212.371H57.7245C58.0072 212.371 58.1485 212.51 58.1485 212.787C58.1485 213.07 58.0072 213.211 57.7245 213.211H51.7325ZM60.7013 213.211C60.4186 213.211 60.2773 213.07 60.2773 212.787V206.067C60.2773 205.79 60.4186 205.651 60.7013 205.651C60.9786 205.651 61.1173 205.79 61.1173 206.067V206.835C61.6239 206.046 62.5413 205.651 63.8693 205.651H64.3173C65.3146 205.651 66.0426 205.883 66.5013 206.347C66.9653 206.806 67.1973 207.534 67.1973 208.531V212.787C67.1973 213.07 67.0586 213.211 66.7812 213.211C66.4986 213.211 66.3573 213.07 66.3573 212.787V208.531C66.3573 207.768 66.2053 207.238 65.9013 206.939C65.6026 206.64 65.0746 206.491 64.3173 206.491H63.8693C63.0426 206.491 62.3919 206.622 61.9173 206.883C61.4426 207.144 61.1759 207.552 61.1173 208.107V212.787C61.1173 213.07 60.9786 213.211 60.7013 213.211ZM70.4669 213.211C70.1842 213.211 70.0429 213.07 70.0429 212.787V202.531C70.0429 202.254 70.1842 202.115 70.4669 202.115C70.7442 202.115 70.8829 202.254 70.8829 202.531V206.835C71.3895 206.046 72.3069 205.651 73.6349 205.651H74.0829C75.0802 205.651 75.8082 205.883 76.2669 206.347C76.7309 206.806 76.9629 207.534 76.9629 208.531V212.787C76.9629 213.07 76.8242 213.211 76.5469 213.211C76.2642 213.211 76.1229 213.07 76.1229 212.787V208.531C76.1229 207.768 75.9709 207.238 75.6669 206.939C75.3682 206.64 74.8402 206.491 74.0829 206.491H73.6349C72.8082 206.491 72.1575 206.622 71.6829 206.883C71.2082 207.144 70.9415 207.552 70.8829 208.107V212.787C70.8829 213.07 70.7442 213.211 70.4669 213.211ZM81.744 213.211C80.912 213.211 80.3013 213.019 79.912 212.635C79.528 212.246 79.336 211.635 79.336 210.803C79.336 209.971 79.5307 209.36 79.92 208.971C80.3093 208.582 80.9173 208.387 81.744 208.387H85.384C85.3733 207.683 85.2133 207.192 84.904 206.915C84.6 206.632 84.08 206.491 83.344 206.491H82.416C81.7387 206.491 81.2427 206.563 80.928 206.707C80.6133 206.851 80.4187 207.096 80.344 207.443C80.3067 207.576 80.256 207.675 80.192 207.739C80.1333 207.798 80.0373 207.827 79.904 207.827C79.7653 207.827 79.656 207.79 79.576 207.715C79.5013 207.635 79.4747 207.528 79.496 207.395C79.5653 206.787 79.84 206.344 80.32 206.067C80.8053 205.79 81.504 205.651 82.416 205.651H83.344C84.3413 205.651 85.0693 205.883 85.528 206.347C85.992 206.806 86.224 207.534 86.224 208.531V212.787C86.224 213.07 86.0853 213.211 85.808 213.211C85.5253 213.211 85.384 213.07 85.384 212.787V211.995C84.872 212.806 83.9573 213.211 82.64 213.211H81.744ZM81.744 212.371H82.64C83.1573 212.371 83.6107 212.315 84 212.203C84.3947 212.086 84.712 211.899 84.952 211.643C85.192 211.387 85.336 211.046 85.384 210.619V209.227H81.744C81.152 209.227 80.7413 209.342 80.512 209.571C80.288 209.795 80.176 210.206 80.176 210.803C80.176 211.395 80.288 211.806 80.512 212.035C80.7413 212.259 81.152 212.371 81.744 212.371ZM89.4981 213.211C89.2155 213.211 89.0741 213.07 89.0741 212.787V206.067C89.0741 205.79 89.2155 205.651 89.4981 205.651C89.7755 205.651 89.9141 205.79 89.9141 206.067V206.835C90.4208 206.046 91.3381 205.651 92.6661 205.651H93.1141C94.1115 205.651 94.8395 205.883 95.2981 206.347C95.7621 206.806 95.9941 207.534 95.9941 208.531V212.787C95.9941 213.07 95.8555 213.211 95.5781 213.211C95.2955 213.211 95.1541 213.07 95.1541 212.787V208.531C95.1541 207.768 95.0021 207.238 94.6981 206.939C94.3995 206.64 93.8715 206.491 93.1141 206.491H92.6661C91.8395 206.491 91.1888 206.622 90.7141 206.883C90.2395 207.144 89.9728 207.552 89.9141 208.107V212.787C89.9141 213.07 89.7755 213.211 89.4981 213.211ZM101.512 213.211C100.514 213.211 99.7838 212.979 99.3198 212.515C98.8558 212.051 98.6238 211.32 98.6238 210.323V208.515C98.6238 207.518 98.8531 206.79 99.3118 206.331C99.7758 205.867 100.509 205.64 101.512 205.651H102.824C103.608 205.651 104.205 205.784 104.616 206.051C105.032 206.312 105.28 206.726 105.36 207.291C105.376 207.435 105.344 207.544 105.264 207.619C105.189 207.694 105.082 207.731 104.944 207.731C104.816 207.731 104.72 207.699 104.656 207.635C104.592 207.566 104.544 207.467 104.512 207.339C104.453 207.03 104.296 206.811 104.04 206.683C103.784 206.555 103.378 206.491 102.824 206.491H101.512C100.749 206.48 100.216 206.624 99.9118 206.923C99.6131 207.216 99.4638 207.747 99.4638 208.515V210.323C99.4638 211.086 99.6131 211.619 99.9118 211.923C100.216 212.222 100.749 212.371 101.512 212.371H102.824C103.378 212.371 103.784 212.307 104.04 212.179C104.296 212.051 104.453 211.83 104.512 211.515C104.544 211.387 104.592 211.291 104.656 211.227C104.72 211.158 104.816 211.123 104.944 211.123C105.082 211.123 105.189 211.163 105.264 211.243C105.344 211.318 105.376 211.424 105.36 211.563C105.28 212.128 105.032 212.544 104.616 212.811C104.205 213.078 103.608 213.211 102.824 213.211H101.512ZM116.452 205.635C117.311 205.635 117.924 205.854 118.292 206.291C118.666 206.728 118.852 207.451 118.852 208.459V212.803C118.852 213.08 118.714 213.219 118.436 213.219C118.154 213.219 118.012 213.08 118.012 212.803V208.459C118.012 207.755 117.892 207.248 117.652 206.939C117.412 206.63 117.012 206.475 116.452 206.475H115.788C115.09 206.475 114.588 206.63 114.284 206.939C113.986 207.248 113.836 207.755 113.836 208.459V212.803C113.836 213.08 113.698 213.219 113.42 213.219C113.138 213.219 112.996 213.08 112.996 212.803V208.459C112.996 207.755 112.876 207.248 112.636 206.939C112.396 206.63 111.996 206.475 111.436 206.475H110.772C110.074 206.475 109.572 206.63 109.268 206.939C108.97 207.248 108.82 207.755 108.82 208.459V212.803C108.82 213.08 108.682 213.219 108.404 213.219C108.122 213.219 107.98 213.08 107.98 212.803V206.067C107.98 205.79 108.122 205.651 108.404 205.651C108.682 205.651 108.82 205.79 108.82 206.067V206.691C109.055 206.312 109.332 206.043 109.652 205.883C109.978 205.718 110.388 205.635 110.884 205.635H111.436C111.996 205.635 112.444 205.734 112.78 205.931C113.122 206.123 113.391 206.44 113.588 206.883C113.823 206.44 114.111 206.123 114.452 205.931C114.794 205.734 115.239 205.635 115.788 205.635H116.452ZM122.323 209.755V210.339C122.323 211.091 122.472 211.619 122.771 211.923C123.075 212.222 123.608 212.371 124.371 212.371H125.683C126.355 212.371 126.843 212.286 127.147 212.115C127.456 211.939 127.64 211.638 127.699 211.211C127.72 211.078 127.763 210.976 127.827 210.907C127.896 210.838 128 210.803 128.139 210.803C128.278 210.803 128.382 210.843 128.451 210.923C128.526 210.998 128.555 211.104 128.539 211.243C128.47 211.915 128.2 212.411 127.731 212.731C127.262 213.051 126.579 213.211 125.683 213.211H124.371C123.374 213.211 122.643 212.982 122.179 212.523C121.715 212.059 121.483 211.331 121.483 210.339V208.531C121.483 207.523 121.715 206.79 122.179 206.331C122.643 205.867 123.374 205.64 124.371 205.651H125.683C126.68 205.651 127.408 205.883 127.867 206.347C128.331 206.806 128.563 207.534 128.563 208.531V209.331C128.563 209.614 128.424 209.755 128.147 209.755H122.323ZM124.371 206.491C123.608 206.48 123.075 206.627 122.771 206.931C122.472 207.23 122.323 207.763 122.323 208.531V208.915H127.723V208.531C127.723 207.768 127.574 207.238 127.275 206.939C126.976 206.64 126.446 206.491 125.683 206.491H124.371ZM131.764 213.211C131.481 213.211 131.34 213.07 131.34 212.787V206.067C131.34 205.79 131.481 205.651 131.764 205.651C132.041 205.651 132.18 205.79 132.18 206.067V206.835C132.686 206.046 133.604 205.651 134.932 205.651H135.38C136.377 205.651 137.105 205.883 137.564 206.347C138.028 206.806 138.26 207.534 138.26 208.531V212.787C138.26 213.07 138.121 213.211 137.844 213.211C137.561 213.211 137.42 213.07 137.42 212.787V208.531C137.42 207.768 137.268 207.238 136.964 206.939C136.665 206.64 136.137 206.491 135.38 206.491H134.932C134.105 206.491 133.454 206.622 132.98 206.883C132.505 207.144 132.238 207.552 132.18 208.107V212.787C132.18 213.07 132.041 213.211 131.764 213.211ZM144.193 213.211C143.212 213.211 142.495 212.984 142.041 212.531C141.588 212.078 141.361 211.363 141.361 210.387V206.491H140.409C140.127 206.491 139.985 206.35 139.985 206.067C139.985 205.79 140.127 205.651 140.409 205.651H141.361V203.931C141.361 203.648 141.5 203.507 141.777 203.507C142.06 203.507 142.201 203.648 142.201 203.931V205.651H144.209C144.487 205.651 144.625 205.79 144.625 206.067C144.625 206.35 144.487 206.491 144.209 206.491H142.201V210.387C142.201 211.134 142.345 211.651 142.633 211.939C142.927 212.227 143.447 212.371 144.193 212.371C144.348 212.371 144.457 212.406 144.521 212.475C144.591 212.544 144.625 212.648 144.625 212.787C144.625 213.07 144.481 213.211 144.193 213.211Z" fill="#AAAAAA"/>
</svg>
