<svg width="337" height="200" viewBox="0 0 337 200" fill="none" xmlns="http://www.w3.org/2000/svg">
<path d="M288.76 70.5759C277.431 81.4484 266.403 93.0975 265.922 107.805C267.549 148.634 302.784 162.859 336.635 159.938L336.885 193.293C298.239 195.004 257.846 178.992 234.117 135.858C218.766 97.2816 240.262 72.763 267.203 43.3471C280.433 20.5402 246.487 -2.91655 220.387 8.20954C167.469 50.7621 84.9713 43.5655 49.1807 0.00038394L99.1724 0.109539C101.463 1.24239 103.897 2.31725 106.478 3.32804C128.084 12.2891 148.263 7.96574 166.839 0.257248L291.737 0.529919C310.669 20.1428 314.91 48.2576 288.76 70.5759Z" fill="white"/>
<path d="M79.9441 109.693V89.7936H73.7182V89.6482L74.8965 87.1462H89.0793V87.2916L87.901 89.7936H82.8534V108.384L80.0896 109.693H79.9441ZM88.7156 109.693V97.4742C88.7156 94.5649 90.1703 93.1102 93.0796 93.1102H96.7162V93.2557L95.5525 95.7286H93.0796C92.1098 95.7286 91.6249 96.3104 91.6249 97.4742V108.384L88.8611 109.693H88.7156ZM100.135 89.8954C99.7952 89.5463 99.6255 89.1293 99.6255 88.6445C99.6255 88.1499 99.7952 87.728 100.135 87.3789C100.474 87.0298 100.886 86.8552 101.371 86.8552C101.856 86.8552 102.268 87.0298 102.608 87.3789C102.947 87.728 103.117 88.1499 103.117 88.6445C103.117 89.1293 102.947 89.5463 102.608 89.8954C102.268 90.2446 101.856 90.4191 101.371 90.4191C100.886 90.4191 100.474 90.2446 100.135 89.8954ZM99.9164 109.693V93.8375L102.68 92.5284H102.826V108.384L100.062 109.693H99.9164ZM111.554 106.493H114.608C115.578 106.493 116.063 105.911 116.063 104.747V102.755C116.063 101.591 115.578 101.009 114.608 101.009H111.554C110.584 101.009 110.099 101.591 110.099 102.755V104.747C110.099 105.911 110.584 106.493 111.554 106.493ZM111.554 109.111C108.644 109.111 107.19 107.657 107.19 104.747V102.755C107.19 99.8452 108.644 98.3906 111.554 98.3906H114.608C115.113 98.3906 115.598 98.536 116.063 98.827V97.4742C116.063 96.3104 115.578 95.7286 114.608 95.7286H109.401V95.5831L110.564 93.1102H114.608C117.518 93.1102 118.972 94.5649 118.972 97.4742V108.384L116.208 109.693H116.063V108.675C115.694 108.966 115.21 109.111 114.608 109.111H111.554ZM124.064 109.693V87.8735L126.827 86.5643H126.973V108.384L124.209 109.693H124.064ZM79.4641 115.765V125.074H85.8645C87.3192 125.074 88.0465 124.25 88.0465 122.601V118.237C88.0465 116.589 87.3192 115.765 85.8645 115.765H79.4641ZM76.5548 135.693V113.873L78.0967 113.146H85.8645C89.2587 113.146 90.9558 114.843 90.9558 118.237V122.601C90.9558 125.763 89.4866 127.45 86.5482 127.664L91.3049 134.486L88.7447 135.693H88.5993L82.9989 127.693H79.4641V134.384L76.7003 135.693H76.5548ZM99.3055 132.493H102.651C103.621 132.493 104.106 131.911 104.106 130.747V123.474C104.106 122.31 103.621 121.729 102.651 121.729H99.3055C98.3357 121.729 97.8508 122.31 97.8508 123.474V130.747C97.8508 131.911 98.3357 132.493 99.3055 132.493ZM99.3055 135.111C96.3962 135.111 94.9415 133.657 94.9415 130.747V123.474C94.9415 120.565 96.3962 119.11 99.3055 119.11H102.651C105.56 119.11 107.015 120.565 107.015 123.474V130.747C107.015 133.657 105.56 135.111 102.651 135.111H99.3055ZM115.743 135.111C112.834 135.111 111.379 133.657 111.379 130.747V119.838L114.143 118.528H114.288V130.747C114.288 131.911 114.773 132.493 115.743 132.493H119.089C120.058 132.493 120.543 131.911 120.543 130.747V119.838L123.307 118.528H123.453V130.747C123.453 133.657 121.998 135.111 119.089 135.111H115.743ZM127.817 135.693V123.474C127.817 120.565 129.271 119.11 132.18 119.11H135.526C138.435 119.11 139.89 120.565 139.89 123.474V134.384L137.126 135.693H136.981V123.474C136.981 122.31 136.496 121.729 135.526 121.729H132.18C131.211 121.729 130.726 122.31 130.726 123.474V134.384L127.962 135.693H127.817ZM148.618 135.111C145.709 135.111 144.254 133.657 144.254 130.747V123.474C144.254 120.565 145.709 119.11 148.618 119.11H151.964C152.623 119.11 153.108 119.261 153.418 119.561V113.873L156.182 112.564H156.328V130.747C156.328 133.657 154.873 135.111 151.964 135.111H148.618ZM148.618 132.493H151.964C152.933 132.493 153.418 131.911 153.418 130.747V123.474C153.418 122.31 152.933 121.729 151.964 121.729H148.618C147.648 121.729 147.163 122.31 147.163 123.474V130.747C147.163 131.911 147.648 132.493 148.618 132.493Z" fill="white"/>
<path d="M32.2948 112.082C30.0208 112.082 28.3376 111.54 27.2452 110.458C26.1628 109.366 25.6216 107.682 25.6216 105.408V98.5266C25.6216 96.2326 26.1628 94.5445 27.2452 93.4621C28.3376 92.3796 30.0208 91.8533 32.2948 91.8831H34.0823C36.3663 91.8831 38.0495 92.4243 39.1319 93.5067C40.2143 94.5792 40.7555 96.2624 40.7555 98.5564V105.408C40.7555 107.682 40.2143 109.366 39.1319 110.458C38.0495 111.54 36.3663 112.082 34.0823 112.082H32.2948ZM32.2948 109.579H34.0823C35.1449 109.579 35.979 109.45 36.5848 109.192C37.1905 108.934 37.6175 108.502 37.8658 107.896C38.124 107.29 38.2531 106.461 38.2531 105.408V98.5564C38.2531 97.4938 38.124 96.6596 37.8658 96.0539C37.6175 95.4481 37.1905 95.0211 36.5848 94.7729C35.979 94.5147 35.1449 94.3856 34.0823 94.3856H32.2948C31.2422 94.3657 30.413 94.4799 29.8073 94.7282C29.2015 94.9665 28.7696 95.3935 28.5114 96.0092C28.2532 96.615 28.1241 97.4541 28.1241 98.5266V105.408C28.1241 106.461 28.2482 107.29 28.4965 107.896C28.7547 108.502 29.1866 108.934 29.7924 109.192C30.3981 109.45 31.2323 109.579 32.2948 109.579ZM32.8311 103.442C32.0367 103.442 31.6394 103.045 31.6394 102.25V101.506C31.6394 100.731 32.0367 100.344 32.8311 100.344H33.5461C34.3008 100.344 34.6781 100.731 34.6781 101.506V102.25C34.6781 103.045 34.3008 103.442 33.5461 103.442H32.8311ZM56.3838 112.111C55.5496 112.111 55.1326 111.694 55.1326 110.86L55.1623 94.8325L56.1455 94.1175L47.3273 106.064L47.1187 105.438L59.3629 105.379C59.77 105.379 60.0779 105.498 60.2864 105.736C60.5049 105.974 60.6141 106.272 60.6141 106.63C60.6141 107.464 60.1971 107.881 59.3629 107.881H45.9271C45.0929 107.881 44.6759 107.464 44.6759 106.63C44.6759 106.233 44.8447 105.796 45.1823 105.319L54.5367 92.6875C54.7949 92.3399 55.0581 92.1264 55.3262 92.047C55.6043 91.9576 55.927 91.9129 56.2944 91.9129C57.208 91.9129 57.6648 92.33 57.6648 93.1642L57.635 110.86C57.635 111.694 57.2179 112.111 56.3838 112.111Z" fill="#1FA1BB"/>
<path d="M75.433 157.215C75.3088 157.215 75.212 157.18 75.1425 157.111C75.073 157.041 75.0382 156.944 75.0382 156.82V148.002C75.0382 147.878 75.073 147.781 75.1425 147.711C75.212 147.642 75.3088 147.607 75.433 147.607C75.5521 147.607 75.6465 147.642 75.716 147.711C75.7855 147.781 75.8203 147.878 75.8203 148.002V156.82C75.8203 156.944 75.7855 157.041 75.716 157.111C75.6465 157.18 75.5521 157.215 75.433 157.215ZM78.9969 157.215C78.7337 157.215 78.6021 157.083 78.6021 156.82V150.564C78.6021 150.306 78.7337 150.177 78.9969 150.177C79.2551 150.177 79.3841 150.306 79.3841 150.564V151.279C79.8558 150.544 80.7099 150.177 81.9462 150.177H82.3633C83.2918 150.177 83.9695 150.393 84.3965 150.825C84.8285 151.252 85.0445 151.929 85.0445 152.858V156.82C85.0445 157.083 84.9154 157.215 84.6572 157.215C84.394 157.215 84.2624 157.083 84.2624 156.82V152.858C84.2624 152.148 84.1209 151.654 83.8379 151.376C83.5599 151.098 83.0683 150.959 82.3633 150.959H81.9462C81.1766 150.959 80.5708 151.08 80.1289 151.324C79.687 151.567 79.4388 151.947 79.3841 152.463V156.82C79.3841 157.083 79.2551 157.215 78.9969 157.215ZM90.5685 157.215C89.6549 157.215 88.9871 157.004 88.5651 156.582C88.143 156.16 87.932 155.494 87.932 154.586V150.959H87.0457C86.7826 150.959 86.651 150.827 86.651 150.564C86.651 150.306 86.7826 150.177 87.0457 150.177H87.932V148.575C87.932 148.312 88.0611 148.181 88.3193 148.181C88.5824 148.181 88.714 148.312 88.714 148.575V150.177H90.5834C90.8416 150.177 90.9707 150.306 90.9707 150.564C90.9707 150.827 90.8416 150.959 90.5834 150.959H88.714V154.586C88.714 155.281 88.8481 155.763 89.1162 156.031C89.3893 156.299 89.8734 156.433 90.5685 156.433C90.7125 156.433 90.8143 156.465 90.8739 156.53C90.9384 156.594 90.9707 156.691 90.9707 156.82C90.9707 157.083 90.8366 157.215 90.5685 157.215ZM93.0167 153.997V154.541C93.0167 155.241 93.1558 155.733 93.4338 156.016C93.7168 156.294 94.2134 156.433 94.9234 156.433H96.1448C96.7704 156.433 97.2247 156.353 97.5078 156.194C97.7957 156.031 97.967 155.75 98.0217 155.353C98.0415 155.229 98.0812 155.134 98.1408 155.07C98.2054 155.005 98.3022 154.973 98.4313 154.973C98.5604 154.973 98.6572 155.01 98.7218 155.085C98.7913 155.154 98.8186 155.254 98.8037 155.383C98.7391 156.008 98.4884 156.47 98.0514 156.768C97.6145 157.066 96.979 157.215 96.1448 157.215H94.9234C93.9949 157.215 93.3147 157.001 92.8827 156.574C92.4507 156.142 92.2347 155.465 92.2347 154.541V152.858C92.2347 151.919 92.4507 151.237 92.8827 150.81C93.3147 150.378 93.9949 150.167 94.9234 150.177H96.1448C97.0733 150.177 97.7511 150.393 98.1781 150.825C98.61 151.252 98.826 151.929 98.826 152.858V153.603C98.826 153.866 98.6969 153.997 98.4387 153.997H93.0167ZM94.9234 150.959C94.2134 150.949 93.7168 151.085 93.4338 151.368C93.1558 151.646 93.0167 152.143 93.0167 152.858V153.215H98.044V152.858C98.044 152.148 97.905 151.654 97.6269 151.376C97.3489 151.098 96.8548 150.959 96.1448 150.959H94.9234ZM101.806 157.215C101.543 157.215 101.411 157.083 101.411 156.82V150.564C101.411 150.306 101.543 150.177 101.806 150.177C102.064 150.177 102.193 150.306 102.193 150.564V151.711C102.451 151.214 102.824 150.835 103.31 150.571C103.802 150.308 104.383 150.177 105.053 150.177C105.316 150.177 105.448 150.306 105.448 150.564C105.448 150.827 105.316 150.959 105.053 150.959C104.169 150.959 103.484 151.16 102.997 151.562C102.511 151.959 102.243 152.528 102.193 153.268V156.82C102.193 157.083 102.064 157.215 101.806 157.215ZM109.729 156.917C109.675 157.036 109.608 157.116 109.528 157.155C109.449 157.195 109.357 157.215 109.253 157.215C109.034 157.215 108.88 157.113 108.791 156.909L106.028 150.72C105.924 150.477 105.996 150.308 106.244 150.214C106.477 150.115 106.646 150.184 106.75 150.422L109.506 156.589H109.029L111.964 150.415C112.018 150.301 112.09 150.226 112.18 150.192C112.269 150.157 112.371 150.164 112.485 150.214C112.728 150.323 112.795 150.497 112.686 150.735L109.729 156.917ZM114.712 148.821C114.369 148.821 114.198 148.645 114.198 148.292V147.957C114.198 147.615 114.369 147.443 114.712 147.443H115.047C115.38 147.443 115.546 147.615 115.546 147.957V148.292C115.546 148.645 115.38 148.821 115.047 148.821H114.712ZM114.883 157.215C114.62 157.215 114.488 157.083 114.488 156.82V150.564C114.488 150.306 114.62 150.177 114.883 150.177C115.141 150.177 115.27 150.306 115.27 150.564V156.82C115.27 157.083 115.141 157.215 114.883 157.215ZM118.633 153.997V154.541C118.633 155.241 118.772 155.733 119.05 156.016C119.333 156.294 119.83 156.433 120.54 156.433H121.761C122.387 156.433 122.841 156.353 123.124 156.194C123.412 156.031 123.583 155.75 123.638 155.353C123.658 155.229 123.698 155.134 123.757 155.07C123.822 155.005 123.919 154.973 124.048 154.973C124.177 154.973 124.274 155.01 124.338 155.085C124.408 155.154 124.435 155.254 124.42 155.383C124.355 156.008 124.105 156.47 123.668 156.768C123.231 157.066 122.595 157.215 121.761 157.215H120.54C119.611 157.215 118.931 157.001 118.499 156.574C118.067 156.142 117.851 155.465 117.851 154.541V152.858C117.851 151.919 118.067 151.237 118.499 150.81C118.931 150.378 119.611 150.167 120.54 150.177H121.761C122.69 150.177 123.367 150.393 123.794 150.825C124.226 151.252 124.442 151.929 124.442 152.858V153.603C124.442 153.866 124.313 153.997 124.055 153.997H118.633ZM120.54 150.959C119.83 150.949 119.333 151.085 119.05 151.368C118.772 151.646 118.633 152.143 118.633 152.858V153.215H123.66V152.858C123.66 152.148 123.521 151.654 123.243 151.376C122.965 151.098 122.471 150.959 121.761 150.959H120.54ZM128.278 157.215C128.045 157.215 127.893 157.108 127.824 156.895L125.723 150.705C125.639 150.452 125.721 150.286 125.969 150.206C126.213 150.132 126.374 150.214 126.453 150.452L128.494 156.433H128.181L130.133 150.564C130.202 150.355 130.351 150.251 130.579 150.251C130.798 150.251 130.939 150.358 131.004 150.571L132.829 156.418H132.501L134.646 150.452C134.745 150.199 134.914 150.117 135.152 150.206C135.401 150.301 135.48 150.47 135.391 150.713L133.089 156.895C133.01 157.108 132.856 157.215 132.628 157.215C132.374 157.215 132.215 157.108 132.151 156.895L130.46 151.48H130.609L128.747 156.895C128.708 157.019 128.645 157.103 128.561 157.148C128.477 157.193 128.382 157.215 128.278 157.215ZM141.299 157.215C141.036 157.215 140.905 157.083 140.905 156.82V148.009C140.905 147.746 141.036 147.615 141.299 147.615H144.785C145.634 147.615 146.274 147.833 146.706 148.27C147.143 148.707 147.362 149.35 147.362 150.199V150.646C147.362 151.49 147.143 152.13 146.706 152.567C146.274 153.004 145.634 153.223 144.785 153.223H141.687V156.82C141.687 157.083 141.558 157.215 141.299 157.215ZM141.687 152.441H144.785C145.411 152.441 145.865 152.299 146.148 152.016C146.436 151.728 146.58 151.272 146.58 150.646V150.199C146.58 149.568 146.436 149.112 146.148 148.829C145.865 148.541 145.411 148.397 144.785 148.397H141.687V152.441ZM149.358 157.215C149.095 157.215 148.963 157.083 148.963 156.82V150.564C148.963 150.306 149.095 150.177 149.358 150.177C149.616 150.177 149.745 150.306 149.745 150.564V151.711C150.004 151.214 150.376 150.835 150.863 150.571C151.354 150.308 151.935 150.177 152.605 150.177C152.869 150.177 153 150.306 153 150.564C153 150.827 152.869 150.959 152.605 150.959C151.722 150.959 151.036 151.16 150.55 151.562C150.063 151.959 149.795 152.528 149.745 153.268V156.82C149.745 157.083 149.616 157.215 149.358 157.215ZM154.868 153.997V154.541C154.868 155.241 155.007 155.733 155.285 156.016C155.568 156.294 156.065 156.433 156.775 156.433H157.996C158.622 156.433 159.076 156.353 159.359 156.194C159.647 156.031 159.819 155.75 159.873 155.353C159.893 155.229 159.933 155.134 159.992 155.07C160.057 155.005 160.154 154.973 160.283 154.973C160.412 154.973 160.509 155.01 160.573 155.085C160.643 155.154 160.67 155.254 160.655 155.383C160.591 156.008 160.34 156.47 159.903 156.768C159.466 157.066 158.831 157.215 157.996 157.215H156.775C155.846 157.215 155.166 157.001 154.734 156.574C154.302 156.142 154.086 155.465 154.086 154.541V152.858C154.086 151.919 154.302 151.237 154.734 150.81C155.166 150.378 155.846 150.167 156.775 150.177H157.996C158.925 150.177 159.603 150.393 160.03 150.825C160.462 151.252 160.678 151.929 160.678 152.858V153.603C160.678 153.866 160.548 153.997 160.29 153.997H154.868ZM156.775 150.959C156.065 150.949 155.568 151.085 155.285 151.368C155.007 151.646 154.868 152.143 154.868 152.858V153.215H159.896V152.858C159.896 152.148 159.757 151.654 159.478 151.376C159.2 151.098 158.706 150.959 157.996 150.959H156.775ZM163.657 160.194C163.394 160.194 163.263 160.062 163.263 159.799V150.564C163.263 150.306 163.394 150.177 163.657 150.177C163.915 150.177 164.045 150.306 164.045 150.564V151.227C164.268 150.879 164.588 150.619 165.005 150.445C165.422 150.266 165.956 150.177 166.607 150.177H167.173C168.101 150.177 168.779 150.393 169.206 150.825C169.638 151.252 169.854 151.929 169.854 152.858V154.526C169.854 155.455 169.638 156.135 169.206 156.567C168.779 156.999 168.101 157.215 167.173 157.215H164.045V159.799C164.045 160.062 163.915 160.194 163.657 160.194ZM164.045 156.433H167.173C167.883 156.433 168.377 156.294 168.655 156.016C168.933 155.733 169.072 155.236 169.072 154.526V152.858C169.072 152.148 168.933 151.654 168.655 151.376C168.377 151.098 167.883 150.959 167.173 150.959H166.607C165.812 150.959 165.201 151.083 164.774 151.331C164.352 151.579 164.109 151.962 164.045 152.478V156.433ZM174.534 157.215C173.76 157.215 173.191 157.036 172.829 156.679C172.471 156.316 172.292 155.748 172.292 154.973C172.292 154.198 172.474 153.63 172.836 153.268C173.199 152.905 173.765 152.724 174.534 152.724H177.923C177.913 152.068 177.764 151.612 177.476 151.353C177.193 151.09 176.709 150.959 176.024 150.959H175.16C174.529 150.959 174.067 151.026 173.775 151.16C173.482 151.294 173.3 151.522 173.231 151.845C173.196 151.969 173.149 152.061 173.089 152.121C173.035 152.175 172.945 152.202 172.821 152.202C172.692 152.202 172.59 152.168 172.516 152.098C172.446 152.024 172.422 151.924 172.441 151.8C172.506 151.234 172.762 150.822 173.208 150.564C173.66 150.306 174.311 150.177 175.16 150.177H176.024C176.952 150.177 177.63 150.393 178.057 150.825C178.489 151.252 178.705 151.929 178.705 152.858V156.82C178.705 157.083 178.576 157.215 178.318 157.215C178.055 157.215 177.923 157.083 177.923 156.82V156.083C177.446 156.837 176.595 157.215 175.368 157.215H174.534ZM174.534 156.433H175.368C175.85 156.433 176.272 156.381 176.634 156.276C177.002 156.167 177.297 155.993 177.521 155.755C177.744 155.517 177.878 155.199 177.923 154.802V153.506H174.534C173.983 153.506 173.601 153.613 173.387 153.826C173.179 154.035 173.074 154.417 173.074 154.973C173.074 155.524 173.179 155.907 173.387 156.12C173.601 156.329 173.983 156.433 174.534 156.433ZM181.753 157.215C181.49 157.215 181.358 157.083 181.358 156.82V150.564C181.358 150.306 181.49 150.177 181.753 150.177C182.011 150.177 182.14 150.306 182.14 150.564V151.711C182.399 151.214 182.771 150.835 183.258 150.571C183.749 150.308 184.33 150.177 185 150.177C185.263 150.177 185.395 150.306 185.395 150.564C185.395 150.827 185.263 150.959 185 150.959C184.117 150.959 183.431 151.16 182.945 151.562C182.458 151.959 182.19 152.528 182.14 153.268V156.82C182.14 157.083 182.011 157.215 181.753 157.215ZM188.615 157.215C187.841 157.215 187.272 157.036 186.91 156.679C186.552 156.316 186.373 155.748 186.373 154.973C186.373 154.198 186.555 153.63 186.917 153.268C187.28 152.905 187.846 152.724 188.615 152.724H192.004C191.994 152.068 191.845 151.612 191.557 151.353C191.274 151.09 190.79 150.959 190.105 150.959H189.241C188.61 150.959 188.148 151.026 187.855 151.16C187.563 151.294 187.381 151.522 187.312 151.845C187.277 151.969 187.23 152.061 187.17 152.121C187.116 152.175 187.026 152.202 186.902 152.202C186.773 152.202 186.671 152.168 186.597 152.098C186.527 152.024 186.502 151.924 186.522 151.8C186.587 151.234 186.843 150.822 187.289 150.564C187.741 150.306 188.392 150.177 189.241 150.177H190.105C191.033 150.177 191.711 150.393 192.138 150.825C192.57 151.252 192.786 151.929 192.786 152.858V156.82C192.786 157.083 192.657 157.215 192.399 157.215C192.135 157.215 192.004 157.083 192.004 156.82V156.083C191.527 156.837 190.676 157.215 189.449 157.215H188.615ZM188.615 156.433H189.449C189.931 156.433 190.353 156.381 190.715 156.276C191.083 156.167 191.378 155.993 191.602 155.755C191.825 155.517 191.959 155.199 192.004 154.802V153.506H188.615C188.064 153.506 187.682 153.613 187.468 153.826C187.26 154.035 187.155 154.417 187.155 154.973C187.155 155.524 187.26 155.907 187.468 156.12C187.682 156.329 188.064 156.433 188.615 156.433ZM198.314 157.215C197.401 157.215 196.733 157.004 196.311 156.582C195.889 156.16 195.678 155.494 195.678 154.586V150.959H194.791C194.528 150.959 194.397 150.827 194.397 150.564C194.397 150.306 194.528 150.177 194.791 150.177H195.678V148.575C195.678 148.312 195.807 148.181 196.065 148.181C196.328 148.181 196.46 148.312 196.46 148.575V150.177H198.329C198.587 150.177 198.716 150.306 198.716 150.564C198.716 150.827 198.587 150.959 198.329 150.959H196.46V154.586C196.46 155.281 196.594 155.763 196.862 156.031C197.135 156.299 197.619 156.433 198.314 156.433C198.458 156.433 198.56 156.465 198.62 156.53C198.684 156.594 198.716 156.691 198.716 156.82C198.716 157.083 198.582 157.215 198.314 157.215ZM201.001 148.821C200.659 148.821 200.487 148.645 200.487 148.292V147.957C200.487 147.615 200.659 147.443 201.001 147.443H201.336C201.669 147.443 201.835 147.615 201.835 147.957V148.292C201.835 148.645 201.669 148.821 201.336 148.821H201.001ZM201.173 157.215C200.909 157.215 200.778 157.083 200.778 156.82V150.564C200.778 150.306 200.909 150.177 201.173 150.177C201.431 150.177 201.56 150.306 201.56 150.564V156.82C201.56 157.083 201.431 157.215 201.173 157.215ZM206.829 157.215C205.901 157.215 205.221 157.001 204.789 156.574C204.357 156.142 204.141 155.465 204.141 154.541V152.858C204.141 151.919 204.357 151.237 204.789 150.81C205.221 150.378 205.901 150.167 206.829 150.177H208.051C208.979 150.177 209.657 150.393 210.084 150.825C210.516 151.252 210.732 151.929 210.732 152.858V154.526C210.732 155.455 210.516 156.135 210.084 156.567C209.657 156.999 208.979 157.215 208.051 157.215H206.829ZM204.923 154.541C204.923 155.241 205.062 155.733 205.34 156.016C205.623 156.294 206.119 156.433 206.829 156.433H208.051C208.761 156.433 209.255 156.294 209.533 156.016C209.811 155.733 209.95 155.236 209.95 154.526V152.858C209.95 152.148 209.811 151.654 209.533 151.376C209.255 151.098 208.761 150.959 208.051 150.959H206.829C206.353 150.954 205.975 151.011 205.697 151.13C205.419 151.249 205.221 151.448 205.101 151.726C204.982 152.004 204.923 152.381 204.923 152.858V154.541ZM213.712 157.215C213.449 157.215 213.317 157.083 213.317 156.82V150.564C213.317 150.306 213.449 150.177 213.712 150.177C213.97 150.177 214.099 150.306 214.099 150.564V151.279C214.571 150.544 215.425 150.177 216.661 150.177H217.078C218.007 150.177 218.684 150.393 219.111 150.825C219.543 151.252 219.759 151.929 219.759 152.858V156.82C219.759 157.083 219.63 157.215 219.372 157.215C219.109 157.215 218.977 157.083 218.977 156.82V152.858C218.977 152.148 218.836 151.654 218.553 151.376C218.275 151.098 217.783 150.959 217.078 150.959H216.661C215.891 150.959 215.286 151.08 214.844 151.324C214.402 151.567 214.154 151.947 214.099 152.463V156.82C214.099 157.083 213.97 157.215 213.712 157.215Z" fill="#AAAAAA"/>
<circle cx="247.5" cy="101.501" r="9" fill="#1FA1BB" stroke="black" stroke-width="9"/>
</svg>
