<svg width="338" height="200" viewBox="0 0 338 200" fill="none" xmlns="http://www.w3.org/2000/svg">
<path d="M337.577 44.2327V69.3046H337.359H337.376C302.683 71.2081 279.027 50.9493 253.322 37.1862C154.69 -10.4898 51.3873 94.2576 128.869 159.101C144.383 172.865 152.864 186.771 155.92 200H121.475C119.196 195.142 115.591 190.075 110.437 184.858C33.2335 130.632 61.5732 42.1866 141.752 12.3339L266.295 13.7272C278.68 19.0119 290.018 26.2481 299.127 35.2597C301.096 37.0147 304.25 39.7336 309.504 41.7525C313.808 43.4152 316.946 43.4707 320.667 44.2327H337.577Z" fill="white"/>
<path d="M177.664 110.897V97.8048C177.664 95.259 178.936 93.9861 181.482 93.9861H184.864C187.41 93.9861 188.683 95.259 188.683 97.8048V109.915L186.61 110.897H186.501V103.216H179.846V109.915L177.773 110.897H177.664ZM179.846 101.231H186.501V97.8048C186.501 96.5683 185.955 95.95 184.864 95.95H181.482C180.391 95.95 179.846 96.5683 179.846 97.8048V101.231ZM196.32 110.461C195.826 110.461 195.462 110.348 195.229 110.123V114.389L193.156 115.371H193.047V101.733C193.047 99.5505 194.138 98.4594 196.32 98.4594H198.83C201.012 98.4594 202.103 99.5505 202.103 101.733V107.188C202.103 109.37 201.012 110.461 198.83 110.461H196.32ZM196.32 108.497H198.83C199.557 108.497 199.921 108.061 199.921 107.188V101.733C199.921 100.86 199.557 100.423 198.83 100.423H196.32C195.593 100.423 195.229 100.86 195.229 101.733V107.188C195.229 108.061 195.593 108.497 196.32 108.497ZM209.195 110.461C208.7 110.461 208.337 110.348 208.104 110.123V114.389L206.031 115.371H205.922V101.733C205.922 99.5505 207.013 98.4594 209.195 98.4594H211.704C213.886 98.4594 214.977 99.5505 214.977 101.733V107.188C214.977 109.37 213.886 110.461 211.704 110.461H209.195ZM209.195 108.497H211.704C212.432 108.497 212.795 108.061 212.795 107.188V101.733C212.795 100.86 212.432 100.423 211.704 100.423H209.195C208.467 100.423 208.104 100.86 208.104 101.733V107.188C208.104 108.061 208.467 108.497 209.195 108.497ZM218.796 110.897V94.5317L220.869 93.5497H220.978V109.915L218.905 110.897H218.796ZM228.07 110.461C225.888 110.461 224.797 109.37 224.797 107.188V99.0049L226.87 98.023H226.979V107.188C226.979 108.061 227.343 108.497 228.07 108.497H230.579C231.307 108.497 231.67 108.061 231.67 107.188V99.0049L233.743 98.023H233.852V111.661C233.852 113.843 232.761 114.934 230.579 114.934H225.931V114.825L226.804 112.97H230.579C231.307 112.97 231.67 112.534 231.67 111.661V110.134C231.387 110.352 231.023 110.461 230.579 110.461H228.07ZM239.744 107.428H239.853C240.646 108.206 241.042 109.093 241.042 110.09C241.042 111.479 240.151 112.643 238.369 113.581L237.9 113.036C238.722 112.199 239.133 111.414 239.133 110.679C239.133 109.799 238.646 109.043 237.671 108.41L239.744 107.428ZM253.722 110.922V97.1017C253.722 94.4145 255.065 93.0709 257.752 93.0709H261.323C264.01 93.0709 265.353 94.4145 265.353 97.1017V109.885L263.165 110.922H263.05V102.814H256.025V109.885L253.837 110.922H253.722ZM256.025 100.718H263.05V97.1017C263.05 95.7965 262.474 95.1439 261.323 95.1439H257.752C256.601 95.1439 256.025 95.7965 256.025 97.1017V100.718ZM273.415 110.461C272.893 110.461 272.509 110.342 272.263 110.104V114.607L270.075 115.643H269.96V101.248C269.96 98.9443 271.112 97.7927 273.415 97.7927H276.064C278.367 97.7927 279.519 98.9443 279.519 101.248V107.006C279.519 109.309 278.367 110.461 276.064 110.461H273.415ZM273.415 108.388H276.064C276.832 108.388 277.216 107.927 277.216 107.006V101.248C277.216 100.326 276.832 99.8657 276.064 99.8657H273.415C272.647 99.8657 272.263 100.326 272.263 101.248V107.006C272.263 107.927 272.647 108.388 273.415 108.388ZM287.005 110.461C286.483 110.461 286.099 110.342 285.853 110.104V114.607L283.665 115.643H283.55V101.248C283.55 98.9443 284.701 97.7927 287.005 97.7927H289.653C291.957 97.7927 293.108 98.9443 293.108 101.248V107.006C293.108 109.309 291.957 110.461 289.653 110.461H287.005ZM287.005 108.388H289.653C290.421 108.388 290.805 107.927 290.805 107.006V101.248C290.805 100.326 290.421 99.8657 289.653 99.8657H287.005C286.237 99.8657 285.853 100.326 285.853 101.248V107.006C285.853 107.927 286.237 108.388 287.005 108.388ZM297.139 110.922V93.6467L299.327 92.6102H299.443V109.885L297.254 110.922H297.139ZM306.928 110.461C304.625 110.461 303.473 109.309 303.473 107.006V98.3685L305.662 97.332H305.777V107.006C305.777 107.927 306.161 108.388 306.928 108.388H309.577C310.345 108.388 310.729 107.927 310.729 107.006V98.3685L312.917 97.332H313.032V111.728C313.032 114.031 311.88 115.183 309.577 115.183H304.671V115.068L305.592 113.11H309.577C310.345 113.11 310.729 112.649 310.729 111.728V110.115C310.429 110.346 310.046 110.461 309.577 110.461H306.928ZM319.251 107.259H319.366C320.203 108.081 320.622 109.018 320.622 110.069C320.622 111.536 319.681 112.764 317.8 113.755L317.305 113.179C318.172 112.296 318.606 111.467 318.606 110.691C318.606 109.762 318.092 108.964 317.063 108.296L319.251 107.259ZM177.906 138.946V124.399C177.906 121.57 179.32 120.156 182.149 120.156H185.907C188.736 120.156 190.15 121.57 190.15 124.399V137.855L187.847 138.946H187.725V130.411H180.331V137.855L178.027 138.946H177.906ZM180.331 128.205H187.725V124.399C187.725 123.025 187.119 122.338 185.907 122.338H182.149C180.937 122.338 180.331 123.025 180.331 124.399V128.205ZM194.999 138.946V120.762L196.284 120.156H202.758C205.586 120.156 207.001 121.57 207.001 124.399V128.035C207.001 130.864 205.586 132.278 202.758 132.278H197.424V137.855L195.12 138.946H194.999ZM197.424 122.338V130.096H202.758C203.97 130.096 204.576 129.409 204.576 128.035V124.399C204.576 123.025 203.97 122.338 202.758 122.338H197.424ZM211.244 138.946V120.762L212.529 120.156H219.002C221.831 120.156 223.245 121.57 223.245 124.399V128.035C223.245 130.864 221.831 132.278 219.002 132.278H213.668V137.855L211.365 138.946H211.244ZM213.668 122.338V130.096H219.002C220.214 130.096 220.821 129.409 220.821 128.035V124.399C220.821 123.025 220.214 122.338 219.002 122.338H213.668ZM227.488 138.461V120.762L229.791 119.671H229.913V136.255H238.217V136.376L237.235 138.461H227.488ZM241.975 138.946V132.618H241.308C238.479 132.618 237.065 131.203 237.065 128.375V120.762L239.368 119.671H239.49V128.375C239.49 129.749 240.096 130.436 241.308 130.436H245.066C246.278 130.436 246.884 129.749 246.884 128.375V120.762L249.188 119.671H249.309V128.375C249.309 131.203 247.895 132.618 245.066 132.618H244.399V137.855L242.096 138.946H241.975ZM253.734 138.267C253.451 137.976 253.309 137.629 253.309 137.224C253.309 136.812 253.451 136.461 253.734 136.17C254.017 135.879 254.36 135.733 254.764 135.733C255.168 135.733 255.512 135.879 255.795 136.17C256.077 136.461 256.219 136.812 256.219 137.224C256.219 137.629 256.077 137.976 255.795 138.267C255.512 138.558 255.168 138.703 254.764 138.703C254.36 138.703 254.017 138.558 253.734 138.267ZM255.855 119.671H255.976V132.278L253.673 133.369H253.552V120.762L255.855 119.671ZM261.007 138.267C260.725 137.976 260.583 137.629 260.583 137.224C260.583 136.812 260.725 136.461 261.007 136.17C261.29 135.879 261.634 135.733 262.038 135.733C262.442 135.733 262.785 135.879 263.068 136.17C263.351 136.461 263.493 136.812 263.493 137.224C263.493 137.629 263.351 137.976 263.068 138.267C262.785 138.558 262.442 138.703 262.038 138.703C261.634 138.703 261.29 138.558 261.007 138.267ZM263.129 119.671H263.25V132.278L260.947 133.369H260.826V120.762L263.129 119.671ZM268.281 138.267C267.998 137.976 267.857 137.629 267.857 137.224C267.857 136.812 267.998 136.461 268.281 136.17C268.564 135.879 268.907 135.733 269.311 135.733C269.716 135.733 270.059 135.879 270.342 136.17C270.625 136.461 270.766 136.812 270.766 137.224C270.766 137.629 270.625 137.976 270.342 138.267C270.059 138.558 269.716 138.703 269.311 138.703C268.907 138.703 268.564 138.558 268.281 138.267ZM270.403 119.671H270.524V132.278L268.22 133.369H268.099V120.762L270.403 119.671Z" fill="white"/>
<path d="M177.899 158.157C177.138 158.157 176.571 157.998 176.199 157.679C175.83 157.361 175.623 156.854 175.578 156.159C175.57 156.051 175.592 155.968 175.646 155.91C175.7 155.848 175.783 155.817 175.894 155.817C176.101 155.817 176.213 155.927 176.23 156.146C176.263 156.659 176.403 157.015 176.652 157.214C176.904 157.408 177.32 157.506 177.899 157.506H178.408C178.834 157.506 179.17 157.454 179.414 157.35C179.658 157.247 179.832 157.073 179.935 156.829C180.043 156.581 180.097 156.243 180.097 155.817V150.486C180.097 150.266 180.204 150.157 180.419 150.157C180.639 150.157 180.748 150.266 180.748 150.486V155.817C180.748 156.637 180.562 157.232 180.19 157.605C179.821 157.973 179.228 158.157 178.408 158.157H177.899ZM185.084 158.157C184.31 158.157 183.743 157.979 183.383 157.623C183.023 157.263 182.843 156.699 182.843 155.929V154.526C182.843 153.744 183.023 153.175 183.383 152.819C183.743 152.459 184.31 152.283 185.084 152.292H186.102C186.876 152.292 187.441 152.472 187.796 152.832C188.156 153.188 188.336 153.752 188.336 154.526V155.917C188.336 156.69 188.156 157.257 187.796 157.617C187.441 157.977 186.876 158.157 186.102 158.157H185.084ZM183.495 155.929C183.495 156.512 183.611 156.922 183.843 157.158C184.078 157.39 184.492 157.506 185.084 157.506H186.102C186.694 157.506 187.105 157.39 187.337 157.158C187.569 156.922 187.685 156.508 187.685 155.917V154.526C187.685 153.935 187.569 153.523 187.337 153.291C187.105 153.059 186.694 152.943 186.102 152.943H185.084C184.687 152.939 184.372 152.987 184.141 153.086C183.909 153.186 183.743 153.351 183.644 153.583C183.545 153.815 183.495 154.129 183.495 154.526V155.929ZM190.82 158.157C190.6 158.157 190.491 158.048 190.491 157.828V149.871C190.491 149.656 190.6 149.548 190.82 149.548C191.035 149.548 191.142 149.656 191.142 149.871V153.155C191.329 152.869 191.593 152.652 191.937 152.503C192.284 152.354 192.731 152.279 193.278 152.279H193.749C194.523 152.279 195.088 152.459 195.444 152.819C195.804 153.179 195.984 153.746 195.984 154.52V155.917C195.984 156.69 195.804 157.257 195.444 157.617C195.088 157.977 194.523 158.157 193.749 158.157H193.278C192.731 158.157 192.284 158.085 191.937 157.94C191.593 157.791 191.329 157.572 191.142 157.282V157.828C191.142 158.048 191.035 158.157 190.82 158.157ZM193.278 157.506H193.749C194.341 157.506 194.753 157.39 194.984 157.158C195.216 156.922 195.332 156.508 195.332 155.917V154.52C195.332 153.928 195.214 153.517 194.978 153.285C194.746 153.049 194.337 152.931 193.749 152.931H193.278C192.632 152.931 192.115 153.032 191.726 153.235C191.337 153.438 191.142 153.746 191.142 154.16V156.301C191.151 156.703 191.349 157.005 191.738 157.208C192.127 157.406 192.64 157.506 193.278 157.506ZM200.629 158.126C200.43 158.039 200.37 157.894 200.449 157.692L203.527 150.411C203.594 150.241 203.716 150.157 203.894 150.157H203.931C204.1 150.161 204.22 150.246 204.291 150.411L207.369 157.692C207.452 157.894 207.394 158.039 207.196 158.126C206.993 158.209 206.852 158.151 206.774 157.952L205.948 155.997H201.883L201.057 157.952C200.974 158.151 200.832 158.209 200.629 158.126ZM202.149 155.346H205.675L203.912 151.187L202.149 155.346ZM209.089 160.64C208.869 160.64 208.76 160.53 208.76 160.311V152.615C208.76 152.399 208.869 152.292 209.089 152.292C209.304 152.292 209.411 152.399 209.411 152.615V153.167C209.598 152.877 209.864 152.66 210.212 152.515C210.56 152.366 211.004 152.292 211.546 152.292H212.018C212.792 152.292 213.357 152.472 213.713 152.832C214.073 153.188 214.253 153.752 214.253 154.526V155.917C214.253 156.69 214.073 157.257 213.713 157.617C213.357 157.977 212.792 158.157 212.018 158.157H209.411V160.311C209.411 160.53 209.304 160.64 209.089 160.64ZM209.411 157.506H212.018C212.61 157.506 213.022 157.39 213.253 157.158C213.485 156.922 213.601 156.508 213.601 155.917V154.526C213.601 153.935 213.485 153.523 213.253 153.291C213.022 153.059 212.61 152.943 212.018 152.943H211.546C210.884 152.943 210.375 153.047 210.02 153.254C209.668 153.461 209.465 153.779 209.411 154.21V157.506ZM216.738 160.64C216.519 160.64 216.409 160.53 216.409 160.311V152.615C216.409 152.399 216.519 152.292 216.738 152.292C216.953 152.292 217.061 152.399 217.061 152.615V153.167C217.247 152.877 217.514 152.66 217.861 152.515C218.209 152.366 218.654 152.292 219.196 152.292H219.668C220.441 152.292 221.006 152.472 221.362 152.832C221.722 153.188 221.902 153.752 221.902 154.526V155.917C221.902 156.69 221.722 157.257 221.362 157.617C221.006 157.977 220.441 158.157 219.668 158.157H217.061V160.311C217.061 160.53 216.953 160.64 216.738 160.64ZM217.061 157.506H219.668C220.259 157.506 220.671 157.39 220.903 157.158C221.135 156.922 221.25 156.508 221.25 155.917V154.526C221.25 153.935 221.135 153.523 220.903 153.291C220.671 153.059 220.259 152.943 219.668 152.943H219.196C218.534 152.943 218.025 153.047 217.669 153.254C217.317 153.461 217.115 153.779 217.061 154.21V157.506ZM225.765 158.157C225.178 158.157 224.745 158.021 224.468 157.748C224.195 157.474 224.059 157.046 224.059 156.463V149.871C224.059 149.656 224.168 149.548 224.387 149.548C224.603 149.548 224.71 149.656 224.71 149.871V156.463C224.71 156.864 224.785 157.139 224.934 157.288C225.083 157.433 225.358 157.506 225.759 157.506C225.983 157.506 226.094 157.613 226.094 157.828C226.098 158.048 225.989 158.157 225.765 158.157ZM227.857 151.162C227.572 151.162 227.429 151.015 227.429 150.721V150.442C227.429 150.157 227.572 150.014 227.857 150.014H228.137C228.414 150.014 228.552 150.157 228.552 150.442V150.721C228.552 151.015 228.414 151.162 228.137 151.162H227.857ZM228 158.157C227.781 158.157 227.671 158.048 227.671 157.828V152.615C227.671 152.399 227.781 152.292 228 152.292C228.215 152.292 228.323 152.399 228.323 152.615V157.828C228.323 158.048 228.215 158.157 228 158.157ZM232.714 158.157C231.94 158.157 231.374 157.977 231.014 157.617C230.654 157.257 230.474 156.69 230.474 155.917V154.514C230.474 153.74 230.652 153.175 231.007 152.819C231.367 152.459 231.936 152.283 232.714 152.292H233.732C234.34 152.292 234.804 152.395 235.123 152.602C235.445 152.805 235.638 153.126 235.7 153.564C235.712 153.676 235.687 153.761 235.625 153.819C235.567 153.877 235.485 153.906 235.377 153.906C235.278 153.906 235.203 153.881 235.154 153.831C235.104 153.777 235.067 153.701 235.042 153.601C234.996 153.361 234.874 153.192 234.676 153.092C234.477 152.993 234.163 152.943 233.732 152.943H232.714C232.123 152.935 231.709 153.047 231.473 153.279C231.241 153.506 231.125 153.918 231.125 154.514V155.917C231.125 156.508 231.241 156.922 231.473 157.158C231.709 157.39 232.123 157.506 232.714 157.506H233.732C234.163 157.506 234.477 157.456 234.676 157.357C234.874 157.257 234.996 157.086 235.042 156.841C235.067 156.742 235.104 156.668 235.154 156.618C235.203 156.564 235.278 156.537 235.377 156.537C235.485 156.537 235.567 156.568 235.625 156.63C235.687 156.688 235.712 156.771 235.7 156.879C235.638 157.317 235.445 157.64 235.123 157.847C234.804 158.054 234.34 158.157 233.732 158.157H232.714ZM239.235 158.157C238.589 158.157 238.115 158.008 237.813 157.71C237.515 157.408 237.366 156.934 237.366 156.289C237.366 155.643 237.517 155.17 237.819 154.868C238.122 154.566 238.593 154.414 239.235 154.414H242.059C242.05 153.868 241.926 153.488 241.686 153.272C241.45 153.053 241.047 152.943 240.476 152.943H239.756C239.23 152.943 238.846 152.999 238.602 153.111C238.357 153.223 238.206 153.413 238.148 153.682C238.119 153.786 238.08 153.862 238.031 153.912C237.985 153.957 237.911 153.98 237.807 153.98C237.699 153.98 237.615 153.951 237.553 153.893C237.495 153.831 237.474 153.748 237.491 153.645C237.544 153.173 237.757 152.83 238.13 152.615C238.506 152.399 239.048 152.292 239.756 152.292H240.476C241.25 152.292 241.815 152.472 242.17 152.832C242.53 153.188 242.71 153.752 242.71 154.526V157.828C242.71 158.048 242.603 158.157 242.388 158.157C242.168 158.157 242.059 158.048 242.059 157.828V157.214C241.662 157.843 240.952 158.157 239.93 158.157H239.235ZM239.235 157.506H239.93C240.331 157.506 240.683 157.462 240.985 157.375C241.291 157.284 241.537 157.139 241.724 156.941C241.91 156.742 242.022 156.477 242.059 156.146V155.066H239.235C238.775 155.066 238.457 155.155 238.279 155.333C238.105 155.507 238.018 155.826 238.018 156.289C238.018 156.748 238.105 157.067 238.279 157.245C238.457 157.419 238.775 157.506 239.235 157.506ZM247.318 158.157C246.556 158.157 246 157.981 245.648 157.63C245.296 157.278 245.12 156.723 245.12 155.966V152.943H244.382C244.162 152.943 244.053 152.834 244.053 152.615C244.053 152.399 244.162 152.292 244.382 152.292H245.12V150.957C245.12 150.738 245.228 150.628 245.443 150.628C245.662 150.628 245.772 150.738 245.772 150.957V152.292H247.33C247.545 152.292 247.653 152.399 247.653 152.615C247.653 152.834 247.545 152.943 247.33 152.943H245.772V155.966C245.772 156.546 245.884 156.947 246.107 157.17C246.335 157.394 246.738 157.506 247.318 157.506C247.438 157.506 247.522 157.532 247.572 157.586C247.626 157.64 247.653 157.721 247.653 157.828C247.653 158.048 247.541 158.157 247.318 158.157ZM249.557 151.162C249.271 151.162 249.129 151.015 249.129 150.721V150.442C249.129 150.157 249.271 150.014 249.557 150.014H249.836C250.114 150.014 250.252 150.157 250.252 150.442V150.721C250.252 151.015 250.114 151.162 249.836 151.162H249.557ZM249.7 158.157C249.48 158.157 249.371 158.048 249.371 157.828V152.615C249.371 152.399 249.48 152.292 249.7 152.292C249.915 152.292 250.023 152.399 250.023 152.615V157.828C250.023 158.048 249.915 158.157 249.7 158.157ZM254.414 158.157C253.64 158.157 253.073 157.979 252.713 157.623C252.353 157.263 252.173 156.699 252.173 155.929V154.526C252.173 153.744 252.353 153.175 252.713 152.819C253.073 152.459 253.64 152.283 254.414 152.292H255.432C256.206 152.292 256.77 152.472 257.126 152.832C257.486 153.188 257.666 153.752 257.666 154.526V155.917C257.666 156.69 257.486 157.257 257.126 157.617C256.77 157.977 256.206 158.157 255.432 158.157H254.414ZM252.825 155.929C252.825 156.512 252.941 156.922 253.173 157.158C253.408 157.39 253.822 157.506 254.414 157.506H255.432C256.024 157.506 256.435 157.39 256.667 157.158C256.899 156.922 257.015 156.508 257.015 155.917V154.526C257.015 153.935 256.899 153.523 256.667 153.291C256.435 153.059 256.024 152.943 255.432 152.943H254.414C254.017 152.939 253.702 152.987 253.471 153.086C253.239 153.186 253.073 153.351 252.974 153.583C252.875 153.815 252.825 154.129 252.825 154.526V155.929ZM260.15 158.157C259.93 158.157 259.821 158.048 259.821 157.828V152.615C259.821 152.399 259.93 152.292 260.15 152.292C260.365 152.292 260.472 152.399 260.472 152.615V153.21C260.865 152.598 261.577 152.292 262.607 152.292H262.955C263.729 152.292 264.294 152.472 264.65 152.832C265.01 153.188 265.19 153.752 265.19 154.526V157.828C265.19 158.048 265.082 158.157 264.867 158.157C264.647 158.157 264.538 158.048 264.538 157.828V154.526C264.538 153.935 264.42 153.523 264.184 153.291C263.952 153.059 263.543 152.943 262.955 152.943H262.607C261.966 152.943 261.461 153.045 261.093 153.248C260.725 153.45 260.518 153.767 260.472 154.197V157.828C260.472 158.048 260.365 158.157 260.15 158.157Z" fill="#AAAAAA"/>
<path d="M137.703 114.116C135.808 114.116 134.405 113.665 133.495 112.763C132.593 111.852 132.142 110.45 132.142 108.554V102.819C132.142 100.908 132.593 99.5007 133.495 98.5987C134.405 97.6966 135.808 97.258 137.703 97.2828H139.193C141.096 97.2828 142.499 97.7339 143.401 98.6359C144.303 99.5297 144.754 100.932 144.754 102.844V108.554C144.754 110.45 144.303 111.852 143.401 112.763C142.499 113.665 141.096 114.116 139.193 114.116H137.703ZM137.703 112.03H139.193C140.078 112.03 140.773 111.923 141.278 111.708C141.783 111.492 142.139 111.132 142.346 110.628C142.561 110.123 142.669 109.432 142.669 108.554V102.844C142.669 101.959 142.561 101.263 142.346 100.759C142.139 100.254 141.783 99.898 141.278 99.6911C140.773 99.4759 140.078 99.3683 139.193 99.3683H137.703C136.826 99.3518 136.135 99.447 135.63 99.6538C135.125 99.8525 134.765 100.208 134.55 100.721C134.335 101.226 134.227 101.926 134.227 102.819V108.554C134.227 109.432 134.331 110.123 134.538 110.628C134.753 111.132 135.113 111.492 135.618 111.708C136.122 111.923 136.818 112.03 137.703 112.03ZM138.15 106.916C137.488 106.916 137.157 106.585 137.157 105.923V105.302C137.157 104.657 137.488 104.334 138.15 104.334H138.746C139.375 104.334 139.689 104.657 139.689 105.302V105.923C139.689 106.585 139.375 106.916 138.746 106.916H138.15ZM153.905 114.141C152.457 114.141 151.336 113.839 150.541 113.234C149.755 112.622 149.279 111.683 149.114 110.417C149.081 110.069 149.155 109.8 149.337 109.61C149.519 109.419 149.784 109.324 150.132 109.324C150.769 109.324 151.125 109.663 151.199 110.342C151.315 110.988 151.576 111.434 151.981 111.683C152.387 111.931 153.028 112.055 153.905 112.055H156.487C157.555 112.055 158.279 111.861 158.66 111.472C159.049 111.074 159.243 110.35 159.243 109.299V107.586C159.243 106.519 159.049 105.794 158.66 105.414C158.271 105.025 157.547 104.83 156.487 104.83H154.65C153.425 104.83 152.54 104.979 151.994 105.277C151.745 105.426 151.518 105.538 151.311 105.612C151.112 105.687 150.876 105.683 150.603 105.6L150.355 105.526C149.776 105.36 149.486 104.971 149.486 104.359V98.3504C149.486 97.6552 149.834 97.3077 150.529 97.3077H160.286C160.981 97.3077 161.329 97.6552 161.329 98.3504C161.329 99.0456 160.981 99.3932 160.286 99.3932H151.572V103.192C152.416 102.894 153.442 102.745 154.65 102.745H156.487C158.126 102.745 159.343 103.142 160.137 103.937C160.932 104.731 161.329 105.948 161.329 107.586V109.299C161.329 110.938 160.932 112.154 160.137 112.949C159.343 113.743 158.126 114.141 156.487 114.141H153.905Z" fill="#117DCA"/>
<circle cx="84.5" cy="109.5" r="9" fill="#117DCA" stroke="black" stroke-width="9"/>
</svg>
