<svg width="1403" height="997" viewBox="0 0 1403 997" fill="none" xmlns="http://www.w3.org/2000/svg">
<path d="M0 50C0 22.3858 22.3858 0 50 0H453.446C466.552 0 479.394 3.67921 490.512 10.6189L613.488 87.3811C624.606 94.3208 637.448 98 650.554 98H1352.5C1380.11 98 1402.5 120.386 1402.5 148V947C1402.5 974.614 1380.11 997 1352.5 997H50C22.3857 997 0 974.614 0 947V50Z" fill="#BABABA"/>
<path d="M549.755 22.3288C539.245 16.113 543.653 0 555.864 0H1366C1386.43 0 1403 16.5655 1403 37C1403 57.4345 1386.43 74 1366 74H650.804C641.849 74 633.059 71.5952 625.351 67.0369L549.755 22.3288Z" fill="#1C427B"/>
</svg>
