<svg width="48" height="49" viewBox="0 0 48 49" fill="none" xmlns="http://www.w3.org/2000/svg">
<path d="M6 12.25H10M10 12.25H42M10 12.25V40.8334C10 41.9163 10.4214 42.9549 11.1716 43.7207C11.9217 44.4865 12.9391 44.9167 14 44.9167H34C35.0609 44.9167 36.0783 44.4865 36.8284 43.7207C37.5786 42.9549 38 41.9163 38 40.8334V12.25M16 12.25V8.16671C16 7.08374 16.4214 6.04513 17.1716 5.27935C17.9217 4.51358 18.9391 4.08337 20 4.08337H28C29.0609 4.08337 30.0783 4.51358 30.8284 5.27935C31.5786 6.04513 32 7.08374 32 8.16671V12.25M20 22.4584V34.7084M28 22.4584V34.7084" stroke="#1E1E1E" stroke-width="2.5" stroke-linecap="round" stroke-linejoin="round"/>
</svg>
