<svg width="1728" height="682" viewBox="0 0 1728 682" fill="none" xmlns="http://www.w3.org/2000/svg">
<path d="M1460.18 270.417C1404.28 274.147 1366.17 234.452 1324.76 207.485C1165.85 114.069 999.413 319.31 1124.24 446.364C1281.57 616.105 990.007 796.912 895.462 588.103C874.849 525.171 903.713 485.173 939.886 437.185C957.65 399.979 912.071 361.713 877.026 379.863C788.717 466.143 639.052 427.049 624.701 304.494C610.942 198.59 746.006 121.259 839.771 181.322C960.666 279.918 1101.46 144.087 968.185 57.652C854.425 10.6984 847.867 169.503 661.761 126.505C620.428 118.723 581.434 90.566 549.722 64.0383C493.715 32.0551 420.509 57.5744 408.631 126.867C404.384 150.034 406.83 174.209 394.629 195.798C364.099 249.034 328.598 267.366 281.057 270.805V270.934L0 270.805V218.577C10.2661 217.697 297.746 224.42 300.541 218.577C326.475 209.269 334.027 197.737 352.167 169.477C361.385 149.646 360.149 128.858 363.266 108.122C379.902 25.7205 478.639 -26.6369 560.095 14.1372C590.571 27.6596 603.444 48.6025 632.495 67.1668C670.818 88.7562 718.252 89.6352 758.537 81.2839C805.244 70.0367 832.119 29.3145 875.172 10.7761C1006.02 -41.0642 1124.51 113.034 1038.03 220.025C986.889 291.231 876.623 280.139 815.752 224.291C712.85 146.155 608.657 316.983 724.083 371.9C769.851 394.963 810.85 364.086 846.147 342.683C936.929 287.637 1042.36 405.357 968.83 481.605C953.619 499.341 938.811 518.345 938.166 542.339C943.245 697.265 1192.48 617.389 1094.55 496.831C932.392 358.315 1059.24 105.847 1283.37 142.355C1325.99 147.241 1369.37 168.598 1398.55 203.71C1401.72 207.148 1406.81 212.476 1415.27 216.432C1422.21 219.689 1427.26 219.798 1433.26 221.291H1728V270.417H1460.15H1460.18Z" fill="white"/>
</svg>
