<svg width="373" height="301" viewBox="0 0 373 301" fill="none" xmlns="http://www.w3.org/2000/svg">
<path d="M310.553 109.772C295.868 126.683 281.572 144.802 280.949 167.679C283.057 231.182 328.732 253.309 372.61 248.765L372.934 300.645C322.84 303.306 270.481 278.401 239.723 211.312C219.823 151.31 247.688 113.174 282.61 67.4208C299.759 31.9473 255.757 -4.53696 221.924 12.7684C153.331 78.9541 46.3933 67.7606 0 0L64.8013 0.169769C67.7707 1.93179 70.9255 3.60361 74.2714 5.17578C102.278 19.1138 128.435 12.3892 152.513 0.399536L314.411 0.823639C338.951 31.3292 344.449 75.0586 310.553 109.772Z" fill="white"/>
</svg>
