<svg width="166" height="165" viewBox="0 0 166 165" fill="none" xmlns="http://www.w3.org/2000/svg">
<g clip-path="url(#paint0_angular_1289_70_clip_path)" data-figma-skip-parse="true"><g transform="matrix(-0.0345 0.0925 -0.0895546 -0.0334014 75 64.5)"><foreignObject x="-1253.92" y="-1253.92" width="2507.84" height="2507.84"><div xmlns="http://www.w3.org/1999/xhtml" style="background:conic-gradient(from 90deg,rgba(163, 200, 51, 1) 0deg,rgba(218, 253, 115, 0.8) 171.724deg,rgba(255, 255, 255, 0.02) 360deg);height:100%;width:100%;opacity:1"></div></foreignObject></g></g><path d="M64.4043 132.494C73.2343 132.494 80.3925 139.652 80.3926 148.482C80.3926 157.312 73.2343 164.471 64.4043 164.471C55.5741 164.471 48.416 157.313 48.416 148.482C48.4161 139.652 55.5742 132.494 64.4043 132.494ZM102.446 132.087C111.276 132.087 118.434 139.245 118.435 148.075C118.435 156.905 111.276 164.063 102.446 164.063C93.6161 164.063 86.458 156.905 86.458 148.075C86.4581 139.245 93.6162 132.087 102.446 132.087ZM32.1914 112.283C41.0216 112.283 48.1797 119.442 48.1797 128.272C48.1795 137.102 41.0214 144.261 32.1914 144.261C23.3614 144.261 16.2033 137.102 16.2031 128.272C16.2031 119.442 23.3612 112.283 32.1914 112.283ZM134.23 111.147C143.061 111.148 150.219 118.306 150.219 127.136C150.219 135.966 143.061 143.124 134.23 143.124C125.4 143.124 118.242 135.966 118.242 127.136C118.242 118.306 125.4 111.147 134.23 111.147ZM15.9883 77.8633C24.8185 77.8633 31.9766 85.0214 31.9766 93.8516C31.9765 102.682 24.8184 109.84 15.9883 109.84C7.15822 109.84 9.1747e-05 102.682 0 93.8516C0 85.0214 7.15816 77.8633 15.9883 77.8633ZM149.64 76.3848C158.47 76.3848 165.629 83.5429 165.629 92.373C165.629 101.203 158.47 108.361 149.64 108.361C140.81 108.361 133.651 101.203 133.651 92.373C133.651 83.543 140.81 76.3849 149.64 76.3848ZM20.9824 40.1426C29.8125 40.1427 36.9707 47.3008 36.9707 56.1309C36.9707 64.9609 29.8125 72.119 20.9824 72.1191C12.1522 72.1191 4.99414 64.961 4.99414 56.1309C4.99416 47.3007 12.1523 40.1426 20.9824 40.1426ZM143.811 38.792C152.641 38.792 159.799 45.9503 159.799 54.7803C159.799 63.6104 152.641 70.7695 143.811 70.7695C134.98 70.7695 127.822 63.6105 127.822 54.7803C127.822 45.9503 134.98 38.792 143.811 38.792ZM45.5859 11.124C54.4161 11.124 61.5752 18.2821 61.5752 27.1123C61.5751 35.9424 54.4161 43.1006 45.5859 43.1006C36.756 43.1003 29.5977 35.9423 29.5977 27.1123C29.5977 18.2823 36.756 11.1243 45.5859 11.124ZM118.585 10.3096C127.415 10.3098 134.573 17.4678 134.573 26.2979C134.573 35.1279 127.415 42.2859 118.585 42.2861C109.755 42.2861 102.596 35.128 102.596 26.2979C102.596 17.4677 109.755 10.3096 118.585 10.3096ZM81.957 0C90.7871 5.25707e-05 97.9452 7.15821 97.9453 15.9883C97.9453 24.8184 90.7872 31.9765 81.957 31.9766C73.1269 31.9766 65.9688 24.8185 65.9688 15.9883C65.9688 7.15818 73.1269 0 81.957 0Z" data-figma-gradient-fill="{&#34;type&#34;:&#34;GRADIENT_ANGULAR&#34;,&#34;stops&#34;:[{&#34;color&#34;:{&#34;r&#34;:0.63921570777893066,&#34;g&#34;:0.78431373834609985,&#34;b&#34;:0.20000000298023224,&#34;a&#34;:1.0},&#34;position&#34;:0.0},{&#34;color&#34;:{&#34;r&#34;:0.85867661237716675,&#34;g&#34;:0.99230766296386719,&#34;b&#34;:0.45417162775993347,&#34;a&#34;:0.80000001192092896},&#34;position&#34;:0.47701177000999451},{&#34;color&#34;:{&#34;r&#34;:1.0,&#34;g&#34;:1.0,&#34;b&#34;:1.0,&#34;a&#34;:0.019999999552965164},&#34;position&#34;:1.0}],&#34;stopsVar&#34;:[{&#34;color&#34;:{&#34;r&#34;:0.63921570777893066,&#34;g&#34;:0.78431373834609985,&#34;b&#34;:0.20000000298023224,&#34;a&#34;:1.0},&#34;position&#34;:0.0},{&#34;color&#34;:{&#34;r&#34;:0.85867661237716675,&#34;g&#34;:0.99230766296386719,&#34;b&#34;:0.45417162775993347,&#34;a&#34;:0.80000001192092896},&#34;position&#34;:0.47701177000999451},{&#34;color&#34;:{&#34;r&#34;:1.0,&#34;g&#34;:1.0,&#34;b&#34;:1.0,&#34;a&#34;:0.019999999552965164},&#34;position&#34;:1.0}],&#34;transform&#34;:{&#34;m00&#34;:-68.999984741210938,&#34;m01&#34;:-179.10917663574219,&#34;m02&#34;:199.05458068847656,&#34;m10&#34;:185.0,&#34;m11&#34;:-66.802864074707031,&#34;m12&#34;:5.4014306068420410},&#34;opacity&#34;:1.0,&#34;blendMode&#34;:&#34;NORMAL&#34;,&#34;visible&#34;:true}"/>
<path d="M58.637 95C56.887 95 55.532 94.635 54.572 93.905C53.622 93.165 53.047 92.03 52.847 90.5C52.807 90.08 52.897 89.755 53.117 89.525C53.337 89.295 53.657 89.18 54.077 89.18C54.847 89.18 55.277 89.59 55.367 90.41C55.507 91.19 55.822 91.73 56.312 92.03C56.802 92.33 57.577 92.48 58.637 92.48H61.757C63.047 92.48 63.922 92.245 64.382 91.775C64.852 91.295 65.087 90.42 65.087 89.15V87.08C65.087 85.79 64.852 84.915 64.382 84.455C63.912 83.985 63.037 83.75 61.757 83.75H59.537C58.057 83.75 56.987 83.93 56.327 84.29C56.027 84.47 55.752 84.605 55.502 84.695C55.262 84.785 54.977 84.78 54.647 84.68L54.347 84.59C53.647 84.39 53.297 83.92 53.297 83.18V75.92C53.297 75.08 53.717 74.66 54.557 74.66H66.347C67.187 74.66 67.607 75.08 67.607 75.92C67.607 76.76 67.187 77.18 66.347 77.18H55.817V81.77C56.837 81.41 58.077 81.23 59.537 81.23H61.757C63.737 81.23 65.207 81.71 66.167 82.67C67.127 83.63 67.607 85.1 67.607 87.08V89.15C67.607 91.13 67.127 92.6 66.167 93.56C65.207 94.52 63.737 95 61.757 95H58.637ZM79.6061 94.97C77.3161 94.97 75.6211 94.425 74.5211 93.335C73.4311 92.235 72.8861 90.54 72.8861 88.25V81.32C72.8861 79.01 73.4311 77.31 74.5211 76.22C75.6211 75.13 77.3161 74.6 79.6061 74.63H81.4061C83.7061 74.63 85.4011 75.175 86.4911 76.265C87.5811 77.345 88.1261 79.04 88.1261 81.35V88.25C88.1261 90.54 87.5811 92.235 86.4911 93.335C85.4011 94.425 83.7061 94.97 81.4061 94.97H79.6061ZM79.6061 92.45H81.4061C82.4761 92.45 83.3161 92.32 83.9261 92.06C84.5361 91.8 84.9661 91.365 85.2161 90.755C85.4761 90.145 85.6061 89.31 85.6061 88.25V81.35C85.6061 80.28 85.4761 79.44 85.2161 78.83C84.9661 78.22 84.5361 77.79 83.9261 77.54C83.3161 77.28 82.4761 77.15 81.4061 77.15H79.6061C78.5461 77.13 77.7111 77.245 77.1011 77.495C76.4911 77.735 76.0561 78.165 75.7961 78.785C75.5361 79.395 75.4061 80.24 75.4061 81.32V88.25C75.4061 89.31 75.5311 90.145 75.7811 90.755C76.0411 91.365 76.4761 91.8 77.0861 92.06C77.6961 92.32 78.5361 92.45 79.6061 92.45ZM80.1461 86.27C79.3461 86.27 78.9461 85.87 78.9461 85.07V84.32C78.9461 83.54 79.3461 83.15 80.1461 83.15H80.8661C81.6261 83.15 82.0061 83.54 82.0061 84.32V85.07C82.0061 85.87 81.6261 86.27 80.8661 86.27H80.1461ZM96.9639 85.52C95.5239 85.52 94.4489 85.16 93.7389 84.44C93.0289 83.72 92.6739 82.64 92.6739 81.2V78.95C92.6739 77.51 93.0289 76.435 93.7389 75.725C94.4489 75.015 95.5239 74.66 96.9639 74.66H97.4439C98.8839 74.66 99.9589 75.02 100.669 75.74C101.379 76.45 101.734 77.52 101.734 78.95V81.17C101.734 82.62 101.379 83.71 100.669 84.44C99.9589 85.16 98.8839 85.52 97.4439 85.52H96.9639ZM95.0139 81.2C95.0139 81.99 95.1439 82.515 95.4039 82.775C95.6639 83.025 96.1839 83.15 96.9639 83.15H97.4439C98.2239 83.15 98.7439 83.025 99.0039 82.775C99.2639 82.515 99.3939 81.98 99.3939 81.17V78.95C99.3939 78.17 99.2639 77.655 99.0039 77.405C98.7439 77.155 98.2239 77.03 97.4439 77.03H96.9639C96.1839 77.03 95.6639 77.155 95.4039 77.405C95.1439 77.655 95.0139 78.17 95.0139 78.95V81.2ZM110.404 95C108.964 95 107.889 94.645 107.179 93.935C106.469 93.225 106.114 92.15 106.114 90.71V88.46C106.114 87 106.469 85.92 107.179 85.22C107.889 84.52 108.964 84.17 110.404 84.17H110.884C112.324 84.17 113.399 84.525 114.109 85.235C114.819 85.945 115.174 87.02 115.174 88.46V90.68C115.174 92.13 114.819 93.215 114.109 93.935C113.399 94.645 112.324 95 110.884 95H110.404ZM108.454 90.71C108.454 91.49 108.584 92.01 108.844 92.27C109.104 92.53 109.624 92.66 110.404 92.66H110.884C111.664 92.66 112.184 92.53 112.444 92.27C112.704 92 112.834 91.47 112.834 90.68V88.46C112.834 87.68 112.704 87.16 112.444 86.9C112.184 86.64 111.664 86.51 110.884 86.51H110.404C109.624 86.51 109.104 86.635 108.844 86.885C108.584 87.135 108.454 87.66 108.454 88.46V90.71ZM96.9639 95.6C96.6239 95.6 96.3289 95.475 96.0789 95.225C95.8289 94.975 95.7039 94.68 95.7039 94.34C95.7039 94.2 95.7239 94.06 95.7639 93.92C95.8139 93.78 95.8739 93.66 95.9439 93.56L109.774 75.26C110.044 74.92 110.384 74.75 110.794 74.75C111.144 74.75 111.439 74.875 111.679 75.125C111.929 75.365 112.054 75.66 112.054 76.01C112.054 76.14 112.034 76.275 111.994 76.415C111.954 76.555 111.894 76.68 111.814 76.79L97.9839 95.09C97.7139 95.43 97.3739 95.6 96.9639 95.6Z" fill="white"/>
<defs>
<clipPath id="paint0_angular_1289_70_clip_path"><path d="M64.4043 132.494C73.2343 132.494 80.3925 139.652 80.3926 148.482C80.3926 157.312 73.2343 164.471 64.4043 164.471C55.5741 164.471 48.416 157.313 48.416 148.482C48.4161 139.652 55.5742 132.494 64.4043 132.494ZM102.446 132.087C111.276 132.087 118.434 139.245 118.435 148.075C118.435 156.905 111.276 164.063 102.446 164.063C93.6161 164.063 86.458 156.905 86.458 148.075C86.4581 139.245 93.6162 132.087 102.446 132.087ZM32.1914 112.283C41.0216 112.283 48.1797 119.442 48.1797 128.272C48.1795 137.102 41.0214 144.261 32.1914 144.261C23.3614 144.261 16.2033 137.102 16.2031 128.272C16.2031 119.442 23.3612 112.283 32.1914 112.283ZM134.23 111.147C143.061 111.148 150.219 118.306 150.219 127.136C150.219 135.966 143.061 143.124 134.23 143.124C125.4 143.124 118.242 135.966 118.242 127.136C118.242 118.306 125.4 111.147 134.23 111.147ZM15.9883 77.8633C24.8185 77.8633 31.9766 85.0214 31.9766 93.8516C31.9765 102.682 24.8184 109.84 15.9883 109.84C7.15822 109.84 9.1747e-05 102.682 0 93.8516C0 85.0214 7.15816 77.8633 15.9883 77.8633ZM149.64 76.3848C158.47 76.3848 165.629 83.5429 165.629 92.373C165.629 101.203 158.47 108.361 149.64 108.361C140.81 108.361 133.651 101.203 133.651 92.373C133.651 83.543 140.81 76.3849 149.64 76.3848ZM20.9824 40.1426C29.8125 40.1427 36.9707 47.3008 36.9707 56.1309C36.9707 64.9609 29.8125 72.119 20.9824 72.1191C12.1522 72.1191 4.99414 64.961 4.99414 56.1309C4.99416 47.3007 12.1523 40.1426 20.9824 40.1426ZM143.811 38.792C152.641 38.792 159.799 45.9503 159.799 54.7803C159.799 63.6104 152.641 70.7695 143.811 70.7695C134.98 70.7695 127.822 63.6105 127.822 54.7803C127.822 45.9503 134.98 38.792 143.811 38.792ZM45.5859 11.124C54.4161 11.124 61.5752 18.2821 61.5752 27.1123C61.5751 35.9424 54.4161 43.1006 45.5859 43.1006C36.756 43.1003 29.5977 35.9423 29.5977 27.1123C29.5977 18.2823 36.756 11.1243 45.5859 11.124ZM118.585 10.3096C127.415 10.3098 134.573 17.4678 134.573 26.2979C134.573 35.1279 127.415 42.2859 118.585 42.2861C109.755 42.2861 102.596 35.128 102.596 26.2979C102.596 17.4677 109.755 10.3096 118.585 10.3096ZM81.957 0C90.7871 5.25707e-05 97.9452 7.15821 97.9453 15.9883C97.9453 24.8184 90.7872 31.9765 81.957 31.9766C73.1269 31.9766 65.9688 24.8185 65.9688 15.9883C65.9688 7.15818 73.1269 0 81.957 0Z"/></clipPath></defs>
</svg>
