<svg width="43" height="43" viewBox="0 0 43 43" fill="none" xmlns="http://www.w3.org/2000/svg">
<path d="M24.6951 8.78985C27.5243 8.78333 29.9545 9.69649 31.9859 11.5293C34.0172 13.3621 35.036 15.6494 35.0423 18.391C35.0486 21.1327 34.0403 23.4246 32.0175 25.2668C29.9946 27.1089 27.5686 28.0333 24.7395 28.0398L13.7145 28.0652L18.275 32.6047L15.8306 35.0603L7.06049 26.3305L15.7903 17.5604L18.246 20.0047L13.7064 24.5652L24.7314 24.5398C26.5689 24.5356 28.1644 23.9486 29.518 22.7788C30.8716 21.609 31.5463 20.1491 31.5423 18.3991C31.5383 16.6491 30.8568 15.1923 29.4978 14.0288C28.1389 12.8653 26.5407 12.2856 24.7032 12.2898L12.2782 12.3184L12.2702 8.81846L24.6951 8.78985Z" fill="#142143"/>
</svg>
